<?xml version="1.0" encoding="UTF-8"?>
<svg width="32px" height="32px" viewBox="0 0 32 32" version="1.1" xmlns="http://www.w3.org/2000/svg" xmlns:xlink="http://www.w3.org/1999/xlink">
    <!-- Generator: sketchtool 64 (101010) - https://sketch.com -->
    <title>4ED80D25-319E-4B9C-A04B-2363935A6B90</title>
    <desc>Created with sketchtool.</desc>
    <g id="Page-1" stroke="none" stroke-width="1" fill="none" fill-rule="evenodd">
        <g id="Bottom-nav-tasker" transform="translate(-29.000000, -350.000000)">
            <g id="Group-14" transform="translate(29.000000, 350.000000)">
                <g id="Group-9-Copy" fill="#FEF6E4">
                    <circle id="Oval-Copy-5" cx="16" cy="16" r="16"></circle>
                </g>
                <g id="ic_person_add" transform="translate(5.333333, 9.333333)" fill="#FFC043">
                    <path d="M11.8787879,6.78787879 C13.7539394,6.78787879 15.2727273,5.26909091 15.2727273,3.39393939 C15.2727273,1.51878788 13.7539394,0 11.8787879,0 C10.0036364,0 8.48484848,1.51878788 8.48484848,3.39393939 C8.48484848,5.26909091 10.0036364,6.78787879 11.8787879,6.78787879 L11.8787879,6.78787879 Z M4.24242424,5.09090909 L4.24242424,2.54545455 L2.54545455,2.54545455 L2.54545455,5.09090909 L0,5.09090909 L0,6.78787879 L2.54545455,6.78787879 L2.54545455,9.33333333 L4.24242424,9.33333333 L4.24242424,6.78787879 L6.78787879,6.78787879 L6.78787879,5.09090909 L4.24242424,5.09090909 L4.24242424,5.09090909 Z M11.8787879,8.48484848 C9.61333333,8.48484848 5.09090909,9.62181818 5.09090909,11.8787879 L5.09090909,13.5757576 L18.6666667,13.5757576 L18.6666667,11.8787879 C18.6666667,9.62181818 14.1442424,8.48484848 11.8787879,8.48484848 L11.8787879,8.48484848 Z" id="Shape"></path>
                </g>
            </g>
        </g>
    </g>
</svg>