<?xml version="1.0" encoding="UTF-8"?>
<svg width="495px" height="495px" viewBox="0 0 495 495" version="1.1" xmlns="http://www.w3.org/2000/svg" xmlns:xlink="http://www.w3.org/1999/xlink">
    <!-- Generator: Sketch 54.1 (76490) - https://sketchapp.com -->
    <title>Group 25</title>
    <desc>Created with Sketch.</desc>
    <g id="Page-1" stroke="none" stroke-width="1" fill="none" fill-rule="evenodd">
        <g id="Group-25" transform="translate(0.883362, 0.968351)" fill="#CC0000">
            <path d="M404.190815,325.251649 C390.360815,311.421649 368.490815,309.521649 352.640815,320.981649 C311.410815,350.801649 290.520815,362.531649 251.360815,323.371649 L169.450815,241.471649 C130.290815,202.311649 142.510815,181.891649 172.330815,140.671649 C183.790815,124.821649 181.890815,102.951649 168.060815,89.1216487 L90.690815,11.7516487 C72.630815,-6.30835132 42.360815,-3.14835132 28.710815,18.4516487 C-41.689185,129.801649 26.250815,246.821649 136.370815,356.941649 C246.480815,467.061649 363.510815,534.991649 474.860815,464.601649 C496.450815,450.951649 499.620815,420.681649 481.560815,402.621649 L404.190815,325.251649" id="Fill-35"></path>
            <path d="M374.150815,135.561649 L423.890815,85.8216487 C429.930815,79.7816487 429.930815,69.9916487 423.890815,63.9516487 C417.850815,57.9116487 408.070815,57.9116487 402.029815,63.9516487 L352.280815,113.691649 L302.540815,63.9516487 C296.500815,57.9116487 286.710815,57.9116487 280.680815,63.9516487 C274.640815,69.9916487 274.640815,79.7816487 280.680815,85.8216487 L330.420815,135.561649 L280.680815,185.301649 C274.640815,191.341649 274.640815,201.131649 280.680815,207.171649 C283.700815,210.191649 287.650815,211.701649 291.610815,211.701649 C295.570815,211.701649 299.520815,210.191649 302.540815,207.171649 L352.280815,157.421649 L402.029815,207.171649 C405.049815,210.191649 408.999815,211.701649 412.959815,211.701649 C416.920815,211.701649 420.870815,210.191649 423.890815,207.171649 C429.930815,201.131649 429.930815,191.341649 423.890815,185.301649 L374.150815,135.561649" id="Fill-36"></path>
        </g>
    </g>
</svg>