<?xml version="1.0" encoding="UTF-8"?>
<svg width="65px" height="65px" viewBox="0 0 65 65" version="1.1" xmlns="http://www.w3.org/2000/svg" xmlns:xlink="http://www.w3.org/1999/xlink">
    <!-- Generator: sketchtool 54.1 (76490) - https://sketchapp.com -->
    <title>F24E5198-0660-4597-97B3-1BAD4D6D4AF3</title>
    <desc>Created with sketchtool.</desc>
    <g id="Page-1" stroke="none" stroke-width="1" fill="none" fill-rule="evenodd">
        <g id="Moody-Account" transform="translate(-276.000000, -216.000000)" fill-rule="nonzero">
            <g id="bank" transform="translate(308.500000, 248.500000) scale(-1, 1) translate(-308.500000, -248.500000) translate(276.000000, 216.000000)">
                <g id="Group" transform="translate(11.000000, 0.000000)" fill="#FFC043">
                    <path d="M42.951625,43.003462 C42.9527768,42.4990395 42.8160982,42.0050552 42.5563065,41.5755263 L40.0376071,37.4416367 C39.7236815,36.8059548 39.5610238,36.1035993 39.5631994,35.3919801 L39.5631994,22.6561608 C39.5631994,14.3882512 32.9898304,7.68645198 24.8803631,7.68645198 L18.1036399,7.68645198 C9.99417262,7.68645198 3.42080357,14.3882512 3.42080357,22.6561608 L3.42080357,35.3919801 C3.42310714,36.1035993 3.2604494,36.8060853 2.94639583,37.4416367 L0.427696429,41.5755263 C0.167904762,42.0050552 0.0312261905,42.4990395 0.0323779762,43.003462 L0.0323779762,43.003462 C0.0380089286,44.4831969 1.21270238,45.680711 2.66395238,45.686452 L40.3197946,45.686452 C41.7713006,45.680711 42.945994,44.4830665 42.951625,43.003462 Z" id="Path"></path>
                    <polygon id="Path" points="24.8804911 7.68645198 30.5276964 0.00783050847 12.4565625 0.00783050847 18.1037679 7.68645198 18.1037679 9.88036158 24.8804911 9.88036158"></polygon>
                </g>
                <path d="M53.5845205,40.9199703 L51.0740845,36.8171697 C50.7611889,36.1862685 50.5990648,35.4891951 50.6012332,34.7829276 L50.6012332,22.1428883 C50.6091417,18.8331172 49.1557707,15.9203633 47.1564529,13.3054641 C44.1507157,30.1169364 33.9403366,39.5029029 24,44.9999797 L51.3556013,44.9999797 C52.8099985,45.0056775 53.994359,43.8136729 53.9999714,42.3360017 C54.0022675,41.8353728 53.8660373,41.3451034 53.607098,40.9199703 L53.5845205,40.9199703 Z" id="Path" fill="#F39700"></path>
                <path d="M38.9877661,24.8000608 L38.9877661,24.0747621 C38.9822941,21.9746319 37.3337382,20.2724657 35.2999057,20.2666869 L34.5975035,20.2666869 L34.5975035,18 L32.4023722,18 L32.4023722,20.2666869 L31.6999699,20.2666869 C29.662904,20.2598808 28.0066376,21.9587082 28.0000463,24.0621772 C27.9945744,25.6590415 28.9549054,27.0893491 30.4048537,27.6446238 L32.4023722,28.4152537 L32.4023722,32.7332724 L31.6999699,32.7332724 C30.875692,32.7332724 30.2072409,32.0430315 30.2072409,31.1918842 L30.2072409,31.1918842 L30.2072409,30.4665855 L28.0121095,30.4665855 L28.0121095,31.1918842 C28.0175815,33.2920144 29.6661374,34.9941806 31.6999699,34.9999594 L35.3000301,34.9999594 C37.337096,35.0067655 38.9933624,33.3079381 38.9999537,31.2044691 C39.0054256,29.6076048 38.0450946,28.1772972 36.5951463,27.6220225 L34.5976278,26.8513926 L34.5976278,22.5333739 L35.3000301,22.5333739 C36.124308,22.5333739 36.7927591,23.2236148 36.7927591,24.0747621 L36.7927591,24.0747621 L36.7927591,24.8000608 L38.9877661,24.8000608 L38.9877661,24.8000608 Z M35.8268317,29.7414152 C36.4063633,29.9737214 36.7894013,30.5495428 36.7926348,31.1921411 C36.7926348,32.0432884 36.1241837,32.7335293 35.2999057,32.7335293 L35.2999057,32.7335293 L34.5975035,32.7335293 L34.5975035,29.2655021 L35.8268317,29.7414152 Z M32.4024965,26.001401 L31.1731683,25.5253595 C30.5936367,25.2930533 30.2105987,24.7172319 30.2073652,24.0746337 C30.2073652,23.2234864 30.8758163,22.5332454 31.7000943,22.5332454 L31.7000943,22.5332454 L32.4024965,22.5332454 L32.4024965,26.001401 L32.4024965,26.001401 Z" id="Shape" fill="#FFFFFF" transform="translate(33.500000, 26.500000) scale(-1, 1) translate(-33.500000, -26.500000) "></path>
                <g id="Group" transform="translate(0.000000, 2.000000)" fill="#FDB62F">
                    <path d="M53.593859,8.914625 L53.593859,8.914625 C53.2219402,6.650875 51.4632265,4.877 49.2188248,4.501875 L49.2188248,4.501875 C51.4632265,4.12675 53.2219402,2.352875 53.593859,0.089125 L53.593859,0.089125 C53.9657778,2.352875 55.7244915,4.12675 57.9688932,4.501875 L57.9688932,4.501875 C55.7244915,4.877 53.9657778,6.651 53.593859,8.914625 Z" id="Path"></path>
                    <path d="M4.37503419,30.97825 L4.37503419,30.97825 C4.00311538,28.714625 2.24440171,26.940625 0,26.565625 L0,26.565625 C2.24440171,26.1905 4.00311538,24.416625 4.37503419,22.152875 L4.37503419,22.152875 C4.74695299,24.416625 6.50566667,26.1905 8.75006838,26.565625 L8.75006838,26.565625 C6.50566667,26.940625 4.74682906,28.714625 4.37503419,30.97825 Z" id="Path"></path>
                </g>
                <path d="M64.5055709,39.3108514 C63.5918351,37.8099025 61.6286777,37.2789035 60.0539148,38.1053668 L44.2617712,44.686801 C43.98359,44.801861 43.6842236,44.8616676 43.3825874,44.8605601 L23.8064984,44.8605601 C22.5767508,44.8605601 21.5806703,43.8885181 21.5806703,42.6884481 C21.5806703,41.488378 22.5767508,40.5163361 23.8064984,40.5163361 L32.7098106,40.5163361 C36.3980447,40.5163361 39.3872948,37.5992257 39.3872948,34 L20.8684457,34 C17.7989946,34.0022151 14.8966288,35.365215 12.9779855,37.7034565 L6,45.9465546 L13.8571693,60 L44.0949382,52.9081176 C45.401482,52.6137608 46.6657815,52.1620117 47.8565636,51.5613614 L63.4372339,43.7743195 C64.9875331,42.824182 65.4638207,40.8334588 64.5055709,39.3108514 Z" id="Path" fill="#FEC9A3"></path>
                <path d="M11,55.4065109 L13.4522796,60 L43.0653748,52.7195957 C44.3449271,52.4174141 45.5831079,51.9536563 46.7492899,51.337039 L55,47 C41.2887472,51.2924445 23.087144,53.9682426 11,55.4065109 Z" id="Path" fill="#F7BB8F"></path>
                <polygon id="Path" fill="#333333" points="0 44.4285344 0 65 14.6250398 65 18 61.5714656 4.50003187 41"></polygon>
                <path d="M0,65 L14.6250398,65 L18,61.1905036 L15.5249952,57 C10.5210648,59.3313669 5.31904226,61.08 0,62.2191367 L0,65 Z" id="Path" fill="#333333"></path>
                <circle id="Oval" fill="#D9D9D9" cx="10.5" cy="60.5" r="1.5"></circle>
            </g>
        </g>
    </g>
</svg>