<?xml version="1.0" encoding="UTF-8"?>
<svg width="25px" height="26px" viewBox="0 0 25 26" version="1.1" xmlns="http://www.w3.org/2000/svg" xmlns:xlink="http://www.w3.org/1999/xlink">
    <!-- Generator: sketchtool 54.1 (76490) - https://sketchapp.com -->
    <title>96C31DAF-B98B-4A4E-88C4-39DE47BDA77F</title>
    <desc>Created with sketchtool.</desc>
    <g id="Page-1" stroke="none" stroke-width="1" fill="none" fill-rule="evenodd">
        <g id="Easy-Paisa-(payment-method)" transform="translate(-37.000000, -247.000000)" fill-rule="nonzero">
            <g id="1612850349easypaisa" transform="translate(37.000000, 247.000000)">
                <path d="M12.4570766,0 C18.2708026,0 22.9837587,3.90270581 22.9837587,8.71693735 C22.9837587,13.5311689 18.2708026,16.4619503 12.4570766,16.4619503 C6.7264416,16.3457313 2.72965742,14.4771353 0.466724027,10.856162 C1.68874465,3.99020534 5.68552883,0.371484688 12.4570766,0 Z M12.0649652,5.42295947 C8.72225185,5.76127895 6.67663658,7.3525511 5.92811938,10.196776 C6.94758481,11.0960151 8.99320008,11.5950656 12.0649652,11.6939274 C15.1509832,11.6452867 17.0207544,10.7455208 17.0575422,8.65440796 C16.8649108,6.34379719 14.6185691,5.33568712 12.0649652,5.42295947 Z" id="Combined-Shape" fill="#322D3B"></path>
                <path d="M0.0286773962,13.1508121 C1.75296064,18.0982084 6.50830926,20.8514926 11.3975512,20.8514926 C15.451886,20.8514926 18.1395464,19.0968189 19.5487805,16.4486264 L24.092147,19.2945976 C22.5085389,23.1687099 17.8130627,25.9777935 12.2669375,25.9777935 C5.42040061,25.9777935 -0.442540511,21.3637859 0.0263164393,13.340663 C0.0263164393,13.2767847 0.0271057535,13.2135027 0.0286773962,13.1508121 Z" id="Combined-Shape" fill="#25B05C"></path>
            </g>
        </g>
    </g>
</svg>