<?xml version="1.0" encoding="UTF-8"?>
<svg width="63px" height="63px" viewBox="0 0 63 63" version="1.1" xmlns="http://www.w3.org/2000/svg" xmlns:xlink="http://www.w3.org/1999/xlink">
    <!-- Generator: Sketch 64 (93537) - https://sketch.com -->
    <title>Group 16 Copy</title>
    <desc>Created with Sketch.</desc>
    <g id="Page-1" stroke="none" stroke-width="1" fill="none" fill-rule="evenodd">
        <g id="Group-16-Copy">
            <circle id="Oval" fill="#0B9777" cx="31.5" cy="31.5" r="31.5"></circle>
            <g id="gps" transform="translate(14.000000, 14.000000)" fill="#FFFFFF" fill-rule="nonzero">
                <circle id="Oval" cx="18" cy="18" r="6.35294118"></circle>
                <path d="M35.2499077,16.5000234 L31.4114152,16.5000234 C30.7170806,10.2536719 25.746981,5.28285937 19.4999385,4.58845312 L19.4999385,0.750023437 C19.4999385,0.335460937 19.1645485,0 18.7499868,0 L17.2500132,0 C16.8354515,0 16.5,0.335460937 16.5,0.750023437 L16.5,4.58845312 C10.2529487,5.28285937 5.28284906,10.2536016 4.58851448,16.5000234 L0.750021973,16.5000234 C0.335460282,16.5000234 0,16.8354844 0,17.2499766 L0,18.7499531 C0,19.1645156 0.335460282,19.4999766 0.750021973,19.4999766 L4.58851448,19.4999766 C5.28284906,25.7463281 10.2529487,30.7171406 16.5,31.4115469 L16.5,35.2499766 C16.5,35.6645391 16.8354515,36 17.2500132,36 L18.7499868,36 C19.1645485,36 19.5,35.6645391 19.5,35.2499766 L19.5,31.4115469 C25.746981,30.7171406 30.7171509,25.7463281 31.4114855,19.4999766 L35.249978,19.4999766 C35.6645397,19.4999766 36,19.1645156 36,18.7499531 L36,17.2499766 C36,16.8354844 35.6644694,16.5000234 35.2499077,16.5000234 Z M17.9999648,28.4999766 C12.2109371,28.4999766 7.50000879,23.7897422 7.50000879,18 C7.50000879,12.2102578 12.2109371,7.50002344 17.9999648,7.50002344 C23.7889926,7.50002344 28.4999209,12.2101875 28.4999209,18 C28.4999209,23.7898125 23.7889926,28.4999766 17.9999648,28.4999766 Z" id="Shape"></path>
            </g>
        </g>
    </g>
</svg>