<?xml version="1.0" encoding="UTF-8"?>
<svg width="43px" height="31px" viewBox="0 0 43 31" version="1.1" xmlns="http://www.w3.org/2000/svg" xmlns:xlink="http://www.w3.org/1999/xlink">
    <!-- Generator: Sketch 64 (93537) - https://sketch.com -->
    <title>window 2</title>
    <desc>Created with Sketch.</desc>
    <g id="Page-1" stroke="none" stroke-width="1" fill="none" fill-rule="evenodd">
        <g id="window-2" transform="translate(1.000000, 1.000000)">
            <g id="window">
                <polygon id="Path" fill="#FFC043" points="5.05479452 9.00392157 35.3835616 9.00392157 35.3835616 27.5745098 5.05479452 27.5745098 5.05479452 9.00392157"></polygon>
                <polygon id="Path" stroke="#F4B500" points="5.05479452 9.00392157 35.3835616 9.00392157 35.3835616 27.5745098 5.05479452 27.5745098 5.05479452 9.00392157"></polygon>
                <path d="M36.9886237,9.00392157 L36.9886237,12.5594783 C36.6901297,12.8105472 36.3185177,12.9459788 35.9362267,12.9430175 L35.9362267,12.9430175 C35.0717577,12.9430175 34.3701597,12.2845811 34.3701597,11.4615355 C34.3701597,12.2747045 33.6638634,12.9430175 32.8040927,12.9430175 L32.8040927,12.9430175 C31.9396237,12.9430175 31.2380256,12.2845811 31.2380256,11.4615355 C31.2380256,12.2747045 30.5317294,12.9430175 29.6719586,12.9430175 L29.6719586,12.9430175 C28.8090557,12.9430175 28.1058916,12.2845811 28.1058916,11.4615355 C28.1058916,12.2747045 27.3995954,12.9430175 26.5398246,12.9430175 L26.5398246,12.9430175 C25.6769216,12.9430175 24.9737576,12.2845811 24.9737576,11.4615355 C24.9737576,12.2747045 24.2674613,12.9430175 23.4076905,12.9430175 L23.4076905,12.9430175 C22.5447876,12.9430175 21.8416235,12.2845811 21.8416235,11.4615355 C21.8416235,12.2747045 21.1353273,12.9430175 20.2755565,12.9430175 L20.2755565,12.9430175 C19.4126536,12.9430175 18.7094895,12.2845811 18.7094895,11.4615355 C18.7094895,12.2747045 18.0031932,12.9430175 17.1434225,12.9430175 L17.1434225,12.9430175 C16.2805195,12.9430175 15.5773554,12.2845811 15.5773554,11.4615355 C15.5773554,12.2747045 14.8694931,12.9430175 14.0112884,12.9430175 L14.0112884,12.9430175 C13.1483855,12.9430175 12.4452214,12.2845811 12.4452214,11.4615355 C12.4452214,12.2747045 11.7389252,12.9430175 10.8791544,12.9430175 L10.8791544,12.9430175 C10.0162514,12.9430175 9.31308735,12.2845811 9.31308735,11.4615355 C9.31308735,12.2747045 8.60679113,12.9430175 7.74702033,12.9430175 L7.74702033,12.9430175 C6.88255134,12.9430175 6.18095331,12.2845811 6.18095331,11.4615355 C6.18095331,12.2747045 5.47465709,12.9430175 4.61488629,12.9430175 L4.61488629,12.9430175 C4.13955183,12.9489048 3.68522678,12.7374655 3.36986301,12.3635934 L3.36986301,9.00392157 L37.0684932,9.00392157 L36.9886237,9.00392157 Z" id="Path" fill="#C2BAA6"></path>
                <path d="M36.9886237,9.00392157 L36.9886237,12.5594783 C36.6901297,12.8105472 36.3185177,12.9459788 35.9362267,12.9430175 L35.9362267,12.9430175 C35.0717577,12.9430175 34.3701597,12.2845811 34.3701597,11.4615355 C34.3701597,12.2747045 33.6638634,12.9430175 32.8040927,12.9430175 L32.8040927,12.9430175 C31.9396237,12.9430175 31.2380256,12.2845811 31.2380256,11.4615355 C31.2380256,12.2747045 30.5317294,12.9430175 29.6719586,12.9430175 L29.6719586,12.9430175 C28.8090557,12.9430175 28.1058916,12.2845811 28.1058916,11.4615355 C28.1058916,12.2747045 27.3995954,12.9430175 26.5398246,12.9430175 L26.5398246,12.9430175 C25.6769216,12.9430175 24.9737576,12.2845811 24.9737576,11.4615355 C24.9737576,12.2747045 24.2674613,12.9430175 23.4076905,12.9430175 L23.4076905,12.9430175 C22.5447876,12.9430175 21.8416235,12.2845811 21.8416235,11.4615355 C21.8416235,12.2747045 21.1353273,12.9430175 20.2755565,12.9430175 L20.2755565,12.9430175 C19.4126536,12.9430175 18.7094895,12.2845811 18.7094895,11.4615355 C18.7094895,12.2747045 18.0031932,12.9430175 17.1434225,12.9430175 L17.1434225,12.9430175 C16.2805195,12.9430175 15.5773554,12.2845811 15.5773554,11.4615355 C15.5773554,12.2747045 14.8694931,12.9430175 14.0112884,12.9430175 L14.0112884,12.9430175 C13.1483855,12.9430175 12.4452214,12.2845811 12.4452214,11.4615355 C12.4452214,12.2747045 11.7389252,12.9430175 10.8791544,12.9430175 L10.8791544,12.9430175 C10.0162514,12.9430175 9.31308735,12.2845811 9.31308735,11.4615355 C9.31308735,12.2747045 8.60679113,12.9430175 7.74702033,12.9430175 L7.74702033,12.9430175 C6.88255134,12.9430175 6.18095331,12.2845811 6.18095331,11.4615355 C6.18095331,12.2747045 5.47465709,12.9430175 4.61488629,12.9430175 L4.61488629,12.9430175 C4.13955183,12.9489048 3.68522678,12.7374655 3.36986301,12.3635934 L3.36986301,9.00392157 L37.0684932,9.00392157 L36.9886237,9.00392157 Z" id="Path" stroke="#C2BAA6"></path>
                <path d="M28.3637837,27.5745098 C27.2858147,27.5745098 26.3972603,27.7013581 26.3972603,27.8558824 C26.3972603,28.0104066 27.2781149,28.1372549 28.3637837,28.1372549 C29.4494524,28.1372549 30.3287671,28.012713 30.3287671,27.8558824 C30.3287671,27.6990518 29.4494524,27.5745098 28.3637837,27.5745098 Z" id="Path" fill="#F2EDE0"></path>
                <path d="M21.7486551,22.9500942 C22.2459121,22.9500942 22.6490185,23.3536359 22.6490185,23.8514297 C22.6490185,24.3492236 22.2459121,24.7527653 21.7486551,24.7527653 C21.2513982,24.7527653 20.8482917,24.3492236 20.8482917,23.8514297 C20.8482917,23.3536359 21.2513982,22.9500942 21.7486551,22.9500942 Z M16.9760883,15.720164 C16.9697725,15.6785085 16.9590311,15.6376472 16.9440469,15.5982752 C16.9371401,15.3736257 16.7536229,15.1948757 16.5291108,15.1941176 L14.45443,15.1941176 C14.225893,15.195001 14.0410959,15.3807163 14.0410959,15.6095018 L14.0410959,15.8596946 C14.0410959,16.0884801 14.225893,16.2741955 14.45443,16.2750788 L15.9331407,16.2750788 L16.8046668,21.9605496 L17.3589831,21.877152 L16.8046668,21.9637572 C16.8450918,22.2393339 17.0807531,22.4438851 17.3589831,22.4448972 L23.2497948,22.4448972 C23.4602406,22.4608339 23.6618817,22.3574665 23.7719713,22.1772133 C23.8820609,21.9969601 23.8820609,21.7701743 23.7719713,21.5899211 C23.6618817,21.409668 23.4602406,21.3063005 23.2497948,21.3222372 L17.8412062,21.3222372 L17.700224,20.4032599 L23.9867471,20.4032599 C24.1971929,20.4191966 24.398834,20.3158291 24.5089236,20.135576 C24.6190131,19.9553228 24.6190131,19.728537 24.5089236,19.5482838 C24.398834,19.3680306 24.1971929,19.2646631 23.9867471,19.2805999 L17.5288025,19.2805999 L17.3878203,18.3632263 L24.6692289,18.3632263 C24.8796747,18.3791631 25.0813158,18.2757956 25.1914054,18.0955424 C25.301495,17.9152893 25.301495,17.6885034 25.1914054,17.5082503 C25.0813158,17.3279971 24.8796747,17.2246296 24.6692289,17.2405664 L17.2147968,17.2405664 L16.9824966,15.7297868 L16.9760883,15.720164 Z M18.3298376,22.9581132 C18.8270945,22.9581132 19.2302009,23.3616549 19.2302009,23.8594487 C19.2302009,24.3572426 18.8270945,24.7607843 18.3298376,24.7607843 C17.8325806,24.7607843 17.4294742,24.3572426 17.4294742,23.8594487 C17.4294742,23.3616549 17.8325806,22.9581132 18.3298376,22.9581132 Z" id="Shape" fill="#333333"></path>
                <path d="M21.7486551,22.9500942 C22.2459121,22.9500942 22.6490185,23.3536359 22.6490185,23.8514297 C22.6490185,24.3492236 22.2459121,24.7527653 21.7486551,24.7527653 C21.2513982,24.7527653 20.8482917,24.3492236 20.8482917,23.8514297 C20.8482917,23.3536359 21.2513982,22.9500942 21.7486551,22.9500942 Z M16.9760883,15.720164 C16.9697725,15.6785085 16.9590311,15.6376472 16.9440469,15.5982752 C16.9371401,15.3736257 16.7536229,15.1948757 16.5291108,15.1941176 L14.45443,15.1941176 C14.225893,15.195001 14.0410959,15.3807163 14.0410959,15.6095018 L14.0410959,15.8596946 C14.0410959,16.0884801 14.225893,16.2741955 14.45443,16.2750788 L15.9331407,16.2750788 L16.8046668,21.9605496 L17.3589831,21.877152 L16.8046668,21.9637572 C16.8450918,22.2393339 17.0807531,22.4438851 17.3589831,22.4448972 L23.2497948,22.4448972 C23.4602406,22.4608339 23.6618817,22.3574665 23.7719713,22.1772133 C23.8820609,21.9969601 23.8820609,21.7701743 23.7719713,21.5899211 C23.6618817,21.409668 23.4602406,21.3063005 23.2497948,21.3222372 L17.8412062,21.3222372 L17.700224,20.4032599 L23.9867471,20.4032599 C24.1971929,20.4191966 24.398834,20.3158291 24.5089236,20.135576 C24.6190131,19.9553228 24.6190131,19.728537 24.5089236,19.5482838 C24.398834,19.3680306 24.1971929,19.2646631 23.9867471,19.2805999 L17.5288025,19.2805999 L17.3878203,18.3632263 L24.6692289,18.3632263 C24.8796747,18.3791631 25.0813158,18.2757956 25.1914054,18.0955424 C25.301495,17.9152893 25.301495,17.6885034 25.1914054,17.5082503 C25.0813158,17.3279971 24.8796747,17.2246296 24.6692289,17.2405664 L17.2147968,17.2405664 L16.9824966,15.7297868 L16.9760883,15.720164 Z M18.3298376,22.9581132 C18.8270945,22.9581132 19.2302009,23.3616549 19.2302009,23.8594487 C19.2302009,24.3572426 18.8270945,24.7607843 18.3298376,24.7607843 C17.8325806,24.7607843 17.4294742,24.3572426 17.4294742,23.8594487 C17.4294742,23.3616549 17.8325806,22.9581132 18.3298376,22.9581132 Z" id="Shape"></path>
                <path d="M4.87172129,6.19019608 L35.5666349,6.19019608 C36.3950176,6.19278683 37.0659138,6.86665837 37.0684932,7.69871473 L37.0684932,27.1914813 C37.0667702,28.0238953 36.3953736,28.6982694 35.5666349,28.7 L4.87172129,28.7 C4.04298259,28.6982694 3.37158597,28.0238953 3.36986301,27.1914813 L3.36986301,7.69871473 C3.37244232,6.86665837 4.0433386,6.19278683 4.87172129,6.19019608 Z M20.2191781,6.6463696 C20.4786526,6.6463696 20.6889982,6.85764806 20.6889982,7.11827325 C20.6889982,7.37889844 20.4786526,7.5901769 20.2191781,7.5901769 C19.9597036,7.5901769 19.749358,7.37889844 19.749358,7.11827325 C19.749358,6.85764806 19.9597036,6.6463696 20.2191781,6.6463696 L20.2191781,6.6463696 Z M6.4142973,8.06208054 L34.0240589,8.06208054 C34.6294993,8.06208054 35.1203058,8.55506361 35.1203058,9.16318905 L35.1203058,25.720715 C35.1203058,26.3288404 34.6294993,26.8218235 34.0240589,26.8218235 L6.4142973,26.8218235 C5.80885685,26.8218235 5.31805039,26.3288404 5.31805039,25.720715 L5.31805039,9.17105411 C5.31805039,8.56292867 5.80885685,8.0699456 6.4142973,8.0699456 L6.4142973,8.06208054 Z" id="Shape" fill="#F39700"></path>
                <path d="M4.87172129,6.19019608 L35.5666349,6.19019608 C36.3950176,6.19278683 37.0659138,6.86665837 37.0684932,7.69871473 L37.0684932,27.1914813 C37.0667702,28.0238953 36.3953736,28.6982694 35.5666349,28.7 L4.87172129,28.7 C4.04298259,28.6982694 3.37158597,28.0238953 3.36986301,27.1914813 L3.36986301,7.69871473 C3.37244232,6.86665837 4.0433386,6.19278683 4.87172129,6.19019608 Z M20.2191781,6.6463696 C20.4786526,6.6463696 20.6889982,6.85764806 20.6889982,7.11827325 C20.6889982,7.37889844 20.4786526,7.5901769 20.2191781,7.5901769 C19.9597036,7.5901769 19.749358,7.37889844 19.749358,7.11827325 C19.749358,6.85764806 19.9597036,6.6463696 20.2191781,6.6463696 L20.2191781,6.6463696 Z M6.4142973,8.06208054 L34.0240589,8.06208054 C34.6294993,8.06208054 35.1203058,8.55506361 35.1203058,9.16318905 L35.1203058,25.720715 C35.1203058,26.3288404 34.6294993,26.8218235 34.0240589,26.8218235 L6.4142973,26.8218235 C5.80885685,26.8218235 5.31805039,26.3288404 5.31805039,25.720715 L5.31805039,9.17105411 C5.31805039,8.56292867 5.80885685,8.0699456 6.4142973,8.0699456 L6.4142973,8.06208054 Z" id="Shape" stroke="#F39700"></path>
                <polygon id="Path" fill="#333333" points="31.2963548 24.7607843 29.2319253 22.8240144 28.286486 24.2372113 26.3972603 19.6960784 31.6285809 21.3478086 29.9492691 22.2209303 32.0136986 24.0631871 31.2963548 24.7607843"></polygon>
                <polygon id="Path" points="31.2963548 24.7607843 29.2319253 22.8240144 28.286486 24.2372113 26.3972603 19.6960784 31.6285809 21.3478086 29.9492691 22.2209303 32.0136986 24.0631871 31.2963548 24.7607843"></polygon>
                <polygon id="Path" fill="#F39700" points="3.65180934 2.25098039 6.17808219 2.25098039 3.09986356 7.87843137 0 7.87843137 3.65180934 2.25098039"></polygon>
                <polygon id="Path" stroke="#F39700" points="3.65180934 2.25098039 6.17808219 2.25098039 3.09986356 7.87843137 0 7.87843137 3.65180934 2.25098039"></polygon>
                <polygon id="Path" fill="#EBE5D9" points="6.45549457 2.25098039 8.98630137 2.25098039 6.47719163 7.87843137 3.36986301 7.87843137 6.45549457 2.25098039"></polygon>
                <polygon id="Path" stroke="#EBE5D9" points="6.45549457 2.25098039 8.98630137 2.25098039 6.47719163 7.87843137 3.36986301 7.87843137 6.45549457 2.25098039"></polygon>
                <polygon id="Path" fill="#F39700" points="8.6945989 2.25098039 11.2328767 2.25098039 9.29458373 7.87843137 6.17808219 7.87843137 8.6945989 2.25098039"></polygon>
                <polygon id="Path" stroke="#F39700" points="8.6945989 2.25098039 11.2328767 2.25098039 9.29458373 7.87843137 6.17808219 7.87843137 8.6945989 2.25098039"></polygon>
                <polygon id="Path" fill="#EBE5D9" points="11.493417 2.25098039 14.0410959 2.25098039 12.6759893 7.87843137 9.54794521 7.87843137 11.493417 2.25098039"></polygon>
                <polygon id="Path" stroke="#EBE5D9" points="11.493417 2.25098039 14.0410959 2.25098039 12.6759893 7.87843137 9.54794521 7.87843137 11.493417 2.25098039"></polygon>
                <polygon id="Path" fill="#F39700" points="13.7272559 2.25098039 16.2876712 2.25098039 15.4979225 7.87843137 12.3561644 7.87843137 13.7272559 2.25098039"></polygon>
                <polygon id="Path" stroke="#F39700" points="13.7272559 2.25098039 16.2876712 2.25098039 15.4979225 7.87843137 12.3561644 7.87843137 13.7272559 2.25098039"></polygon>
                <polygon id="Path" fill="#EBE5D9" points="16.5207915 2.25098039 19.0958904 2.25098039 18.8893148 7.87843137 15.7260274 7.87843137 16.5207915 2.25098039"></polygon>
                <polygon id="Path" stroke="#EBE5D9" points="16.5207915 2.25098039 19.0958904 2.25098039 18.8893148 7.87843137 15.7260274 7.87843137 16.5207915 2.25098039"></polygon>
                <polygon id="Path" fill="#F39700" points="37.3472766 2.25098039 34.8219178 2.25098039 37.8993605 7.87843137 41 7.87843137 37.3472766 2.25098039"></polygon>
                <polygon id="Path" stroke="#F39700" points="37.3472766 2.25098039 34.8219178 2.25098039 37.8993605 7.87843137 41 7.87843137 37.3472766 2.25098039"></polygon>
                <polygon id="Path" fill="#EBE5D9" points="34.545204 2.25098039 32.0136986 2.25098039 34.5219507 7.87843137 37.630137 7.87843137 34.545204 2.25098039"></polygon>
                <polygon id="Path" stroke="#EBE5D9" points="34.545204 2.25098039 32.0136986 2.25098039 34.5219507 7.87843137 37.630137 7.87843137 34.545204 2.25098039"></polygon>
                <polygon id="Path" fill="#F39700" points="32.3069555 2.25098039 29.7671233 2.25098039 31.7054163 7.87843137 34.8219178 7.87843137 32.3069555 2.25098039"></polygon>
                <polygon id="Path" stroke="#F39700" points="32.3069555 2.25098039 29.7671233 2.25098039 31.7054163 7.87843137 34.8219178 7.87843137 32.3069555 2.25098039"></polygon>
                <polygon id="Path" fill="#EBE5D9" points="29.506583 2.25098039 26.9589041 2.25098039 28.3240107 7.87843137 31.4520548 7.87843137 29.506583 2.25098039"></polygon>
                <polygon id="Path" stroke="#EBE5D9" points="29.506583 2.25098039 26.9589041 2.25098039 28.3240107 7.87843137 31.4520548 7.87843137 29.506583 2.25098039"></polygon>
                <polygon id="Path" fill="#F39700" points="26.7105536 2.25098039 24.1506849 2.25098039 24.9391809 7.87843137 28.0821918 7.87843137 26.7105536 2.25098039"></polygon>
                <polygon id="Path" stroke="#F39700" points="26.7105536 2.25098039 24.1506849 2.25098039 24.9391809 7.87843137 28.0821918 7.87843137 26.7105536 2.25098039"></polygon>
                <polygon id="Path" fill="#EBE5D9" points="24.4807854 2.25098039 21.9041096 2.25098039 22.1122621 7.87843137 25.2739726 7.87843137 24.4807854 2.25098039"></polygon>
                <polygon id="Path" stroke="#EBE5D9" points="24.4807854 2.25098039 21.9041096 2.25098039 22.1122621 7.87843137 25.2739726 7.87843137 24.4807854 2.25098039"></polygon>
                <polygon id="Path" fill="#F39700" points="18.7544222 2.25098039 21.6822533 2.25098039 21.9041096 7.87843137 18.5342466 7.87843137 18.7544222 2.25098039"></polygon>
                <polygon id="Path" stroke="#F39700" points="18.7544222 2.25098039 21.6822533 2.25098039 21.9041096 7.87843137 18.5342466 7.87843137 18.7544222 2.25098039"></polygon>
                <path d="M6.17808219,7.87843137 L6.17808219,9.23510684 C6.17808219,10.0348654 5.41817808,10.6921569 4.49315068,10.6921569 L4.49315068,10.6921569 C3.56306849,10.6921569 2.80821918,10.0445791 2.80821918,9.23510684 L2.80821918,7.87843137 L6.17808219,7.87843137 Z" id="Path" fill="#FFFFFF"></path>
                <path d="M6.17808219,7.87843137 L6.17808219,9.23510684 C6.17808219,10.0348654 5.41817808,10.6921569 4.49315068,10.6921569 L4.49315068,10.6921569 C3.56306849,10.6921569 2.80821918,10.0445791 2.80821918,9.23510684 L2.80821918,7.87843137 L6.17808219,7.87843137 Z" id="Path" stroke="#FFFFFF"></path>
                <path d="M9.54794521,7.87843137 L9.54794521,9.23510684 C9.54794521,10.0348654 8.7880411,10.6921569 7.8630137,10.6921569 L7.8630137,10.6921569 C6.93293151,10.6921569 6.17808219,10.0445791 6.17808219,9.23510684 L6.17808219,7.87843137 L9.54794521,7.87843137 Z" id="Path" fill="#333333"></path>
                <path d="M9.54794521,7.87843137 L9.54794521,9.23510684 C9.54794521,10.0348654 8.7880411,10.6921569 7.8630137,10.6921569 L7.8630137,10.6921569 C6.93293151,10.6921569 6.17808219,10.0445791 6.17808219,9.23510684 L6.17808219,7.87843137 L9.54794521,7.87843137 Z" id="Path" stroke="#333333"></path>
                <path d="M12.9178082,7.87843137 L12.9178082,9.23510684 C12.9178082,10.0348654 12.1579041,10.6921569 11.2328767,10.6921569 L11.2328767,10.6921569 C10.3044795,10.6921569 9.54794521,10.0445791 9.54794521,9.23510684 L9.54794521,7.87843137 L12.9178082,7.87843137 Z" id="Path" fill="#FFFFFF"></path>
                <path d="M12.9178082,7.87843137 L12.9178082,9.23510684 C12.9178082,10.0348654 12.1579041,10.6921569 11.2328767,10.6921569 L11.2328767,10.6921569 C10.3044795,10.6921569 9.54794521,10.0445791 9.54794521,9.23510684 L9.54794521,7.87843137 L12.9178082,7.87843137 Z" id="Path" stroke="#FFFFFF"></path>
                <path d="M15.7260274,7.87843137 L15.7260274,9.23510684 C15.7260274,10.0348654 14.9644384,10.6921569 14.0410959,10.6921569 L14.0410959,10.6921569 C13.1126986,10.6921569 12.3561644,10.0445791 12.3561644,9.23510684 L12.3561644,7.87843137 L15.7260274,7.87843137 Z" id="Path" fill="#333333"></path>
                <path d="M15.7260274,7.87843137 L15.7260274,9.23510684 C15.7260274,10.0348654 14.9644384,10.6921569 14.0410959,10.6921569 L14.0410959,10.6921569 C13.1126986,10.6921569 12.3561644,10.0445791 12.3561644,9.23510684 L12.3561644,7.87843137 L15.7260274,7.87843137 Z" id="Path" stroke="#333333"></path>
                <path d="M19.0958904,7.87843137 L19.0958904,9.23510684 C19.0958904,10.0348654 18.3359863,10.6921569 17.4109589,10.6921569 L17.4109589,10.6921569 C16.4825616,10.6921569 15.7260274,10.0445791 15.7260274,9.23510684 L15.7260274,7.87843137 L19.0958904,7.87843137 Z" id="Path" fill="#FFFFFF"></path>
                <path d="M19.0958904,7.87843137 L19.0958904,9.23510684 C19.0958904,10.0348654 18.3359863,10.6921569 17.4109589,10.6921569 L17.4109589,10.6921569 C16.4825616,10.6921569 15.7260274,10.0445791 15.7260274,9.23510684 L15.7260274,7.87843137 L19.0958904,7.87843137 Z" id="Path" stroke="#FFFFFF"></path>
                <path d="M21.9041096,7.87843137 L21.9041096,9.23510684 C21.9041096,10.0348654 21.1442055,10.6921569 20.2191781,10.6921569 L20.2191781,10.6921569 C19.2907808,10.6921569 18.5342466,10.0445791 18.5342466,9.23510684 L18.5342466,7.87843137 L21.9041096,7.87843137 Z" id="Path" fill="#333333"></path>
                <path d="M21.9041096,7.87843137 L21.9041096,9.23510684 C21.9041096,10.0348654 21.1442055,10.6921569 20.2191781,10.6921569 L20.2191781,10.6921569 C19.2907808,10.6921569 18.5342466,10.0445791 18.5342466,9.23510684 L18.5342466,7.87843137 L21.9041096,7.87843137 Z" id="Path" stroke="#333333"></path>
                <path d="M25.2739726,7.87843137 L25.2739726,9.23510684 C25.2739726,10.0348654 24.5140685,10.6921569 23.5890411,10.6921569 L23.5890411,10.6921569 C22.6606438,10.6921569 21.9041096,10.0445791 21.9041096,9.23510684 L21.9041096,7.87843137 L25.2739726,7.87843137 Z" id="Path" fill="#FFFFFF"></path>
                <path d="M25.2739726,7.87843137 L25.2739726,9.23510684 C25.2739726,10.0348654 24.5140685,10.6921569 23.5890411,10.6921569 L23.5890411,10.6921569 C22.6606438,10.6921569 21.9041096,10.0445791 21.9041096,9.23510684 L21.9041096,7.87843137 L25.2739726,7.87843137 Z" id="Path" stroke="#FFFFFF"></path>
                <path d="M37.630137,7.87843137 L37.630137,9.23510684 C37.630137,10.0348654 38.3900411,10.6921569 39.3150685,10.6921569 L39.3150685,10.6921569 C40.2434658,10.6921569 41,10.0445791 41,9.23510684 L41,7.87843137 L37.630137,7.87843137 Z" id="Path" fill="#333333"></path>
                <path d="M37.630137,7.87843137 L37.630137,9.23510684 C37.630137,10.0348654 38.3900411,10.6921569 39.3150685,10.6921569 L39.3150685,10.6921569 C40.2434658,10.6921569 41,10.0445791 41,9.23510684 L41,7.87843137 L37.630137,7.87843137 Z" id="Path" stroke="#333333"></path>
                <path d="M34.260274,7.87843137 L34.260274,9.23510684 C34.260274,10.0348654 35.0201781,10.6921569 35.9452055,10.6921569 L35.9452055,10.6921569 C36.8736027,10.6921569 37.630137,10.0445791 37.630137,9.23510684 L37.630137,7.87843137 L34.260274,7.87843137 Z" id="Path" fill="#FFFFFF"></path>
                <path d="M34.260274,7.87843137 L34.260274,9.23510684 C34.260274,10.0348654 35.0201781,10.6921569 35.9452055,10.6921569 L35.9452055,10.6921569 C36.8736027,10.6921569 37.630137,10.0445791 37.630137,9.23510684 L37.630137,7.87843137 L34.260274,7.87843137 Z" id="Path" stroke="#FFFFFF"></path>
                <path d="M31.4520548,7.87843137 L31.4520548,9.23510684 C31.4520548,10.0348654 32.2119589,10.6921569 33.1369863,10.6921569 L33.1369863,10.6921569 C34.0653836,10.6921569 34.8219178,10.0445791 34.8219178,9.23510684 L34.8219178,7.87843137 L31.4520548,7.87843137 Z" id="Path" fill="#333333"></path>
                <path d="M31.4520548,7.87843137 L31.4520548,9.23510684 C31.4520548,10.0348654 32.2119589,10.6921569 33.1369863,10.6921569 L33.1369863,10.6921569 C34.0653836,10.6921569 34.8219178,10.0445791 34.8219178,9.23510684 L34.8219178,7.87843137 L31.4520548,7.87843137 Z" id="Path" stroke="#333333"></path>
                <path d="M28.0821918,7.87843137 L28.0821918,9.23510684 C28.0821918,10.0348654 28.8420959,10.6921569 29.7671233,10.6921569 L29.7671233,10.6921569 C30.6972055,10.6921569 31.4520548,10.0445791 31.4520548,9.23510684 L31.4520548,7.87843137 L28.0821918,7.87843137 Z" id="Path" fill="#FFFFFF"></path>
                <path d="M28.0821918,7.87843137 L28.0821918,9.23510684 C28.0821918,10.0348654 28.8420959,10.6921569 29.7671233,10.6921569 L29.7671233,10.6921569 C30.6972055,10.6921569 31.4520548,10.0445791 31.4520548,9.23510684 L31.4520548,7.87843137 L28.0821918,7.87843137 Z" id="Path" stroke="#FFFFFF"></path>
                <path d="M28.6438356,7.87843137 L28.6438356,9.23510684 C28.6438356,10.0348654 27.8839315,10.6921569 26.9589041,10.6921569 L26.9589041,10.6921569 C26.0305068,10.6921569 25.2739726,10.0445791 25.2739726,9.23510684 L25.2739726,7.87843137 L28.6438356,7.87843137 Z" id="Path" fill="#333333"></path>
                <path d="M28.6438356,7.87843137 L28.6438356,9.23510684 C28.6438356,10.0348654 27.8839315,10.6921569 26.9589041,10.6921569 L26.9589041,10.6921569 C26.0305068,10.6921569 25.2739726,10.0445791 25.2739726,9.23510684 L25.2739726,7.87843137 L28.6438356,7.87843137 Z" id="Path" stroke="#333333"></path>
                <path d="M36.622164,0 C36.8683081,0.000940084366 37.067634,0.219043296 37.0684932,0.488375009 L37.0684932,2.53119561 L3.36986301,2.81372549 L3.36986301,0.488375009 C3.37072216,0.219043296 3.57004811,0.000940084366 3.81619211,0 L36.622164,0 Z" id="Path" fill="#FFC043"></path>
                <path d="M3.81619211,0 L36.622164,0 C36.8683081,0.000940084366 37.067634,0.219043296 37.0684932,0.488375009 L37.0684932,2.81372549 L3.36986301,2.81372549 L3.36986301,0.488375009 C3.37072216,0.219043296 3.57004811,0.000940084366 3.81619211,0 L3.81619211,0 Z" id="Path" stroke="#FFC043"></path>
            </g>
        </g>
    </g>
</svg>