<?xml version="1.0" encoding="UTF-8"?>
<svg width="24px" height="22px" viewBox="0 0 24 22" version="1.1" xmlns="http://www.w3.org/2000/svg" xmlns:xlink="http://www.w3.org/1999/xlink">
    <!-- Generator: Sketch 54.1 (76490) - https://sketchapp.com -->
    <title>Support</title>
    <desc>Created with Sketch.</desc>
    <g id="Page-1" stroke="none" stroke-width="1" fill="none" fill-rule="evenodd">
        <g id="Support" fill="#215549">
            <path d="M15.7659511,16.4921914 C15.0676872,17.3693056 13.5338322,17.8059105 12.0114351,17.8045525 C10.489038,17.8059105 8.95516603,17.3693056 8.25688537,16.4921914 C6.85205069,17.5910031 4.34194057,17.99875 2.66994921,18.3477623 C0.767449924,18.7448148 -0.131429935,20.0235648 0.0298413722,21.9998302 C3.72821318,21.9998302 8.30042576,21.9998302 12.0038189,21.9998302 C12.0088907,21.9998302 12.0139626,21.9998302 12.0190176,21.9998302 C15.7224781,21.9998302 20.2947243,21.9998302 23.9929613,21.9998302 C24.1543843,20.0235648 23.255437,18.7448148 21.3529041,18.3477623 C19.680879,17.99875 17.1707352,17.5910031 15.7659511,16.4921914 Z" id="Fill-9"></path>
            <path d="M5.26383951,11.7932562 C5.9563642,11.7932562 6.5177716,11.231713 6.5177716,10.5392562 L6.5177716,8.0384537 C6.5177716,7.50261111 6.18154167,7.0455 5.70862654,6.86600309 C6.04550154,3.63743519 8.77528395,1.1205571 12.0930062,1.1205571 C15.411713,1.1205571 18.1420216,3.63882716 18.4776235,6.86866821 C18.0084259,7.04998148 17.6753704,7.50519136 17.6753704,8.0384537 L17.6753704,10.5392562 C17.6753704,10.9586821 17.8814506,11.3296605 18.1977006,11.5572994 C17.8177932,12.2137346 17.2715278,12.6710494 16.5650154,12.9255093 C16.4572222,12.964213 16.3458642,12.9983333 16.2307716,13.0277006 C16.2287346,13.0282099 16.2268673,13.0285494 16.2248302,13.0290586 C16.1907099,13.037716 16.15625,13.0458642 16.1214506,13.0536728 C16.1133025,13.0555401 16.1049846,13.0574074 16.0966667,13.0591049 C16.0679784,13.0653858 16.0391204,13.0713272 16.0099228,13.0770988 C15.9987191,13.0793056 15.9876852,13.0813426 15.9764815,13.0833796 C15.9496605,13.0884722 15.9223302,13.0932253 15.895,13.0978086 C15.8827778,13.0998457 15.8703858,13.1018827 15.8579938,13.1039198 C15.8303241,13.1083333 15.8023148,13.1124074 15.7741358,13.1163117 C15.7625926,13.1178395 15.7512191,13.119537 15.7395062,13.1210648 C15.7001235,13.1263272 15.6604012,13.1310802 15.6201698,13.1353241 C15.591821,13.1382099 15.5634722,13.1407562 15.5351235,13.1433025 C15.5273148,13.1439815 15.5195062,13.1446605 15.5116975,13.1451698 C15.4889506,13.147037 15.4663735,13.1487346 15.4437963,13.1502623 C15.4378549,13.1507716 15.4317438,13.1511111 15.4258025,13.1516204 C15.3981327,13.1533179 15.3706327,13.1548457 15.3431327,13.1562037 C15.3368519,13.1563735 15.330571,13.156713 15.3242901,13.1568827 C15.3022222,13.1579012 15.2801543,13.15875 15.2582562,13.159429 C15.2509568,13.1595988 15.2434877,13.1599383 15.2361883,13.160108 C15.2090278,13.160787 15.182037,13.161466 15.155216,13.1616358 C15.1536883,13.1618056 15.1523302,13.1618056 15.1508025,13.1618056 C15.1248302,13.1619753 15.0990278,13.1621451 15.0733951,13.1619753 C15.0674537,13.1619753 15.0615123,13.1619753 15.055571,13.1619753 C15.0292593,13.1618056 15.0029475,13.161466 14.9771451,13.1609568 C14.9762963,13.160787 14.9754475,13.160787 14.9745988,13.160787 C14.9491358,13.1602778 14.9240123,13.1595988 14.8992284,13.15875 C14.8936265,13.1584105 14.8880247,13.1582407 14.8824228,13.158071 C14.8572994,13.1572222 14.8321759,13.156034 14.8075617,13.1548457 C14.8043364,13.1546759 14.8012809,13.1545062 14.7982253,13.1543364 C14.7754784,13.1531481 14.753071,13.1517901 14.7308333,13.1504321 C14.7260802,13.1500926 14.7213272,13.1499228 14.7165741,13.1495833 C14.6924691,13.1478858 14.668534,13.1461883 14.645108,13.144321 C14.6408642,13.1441512 14.6367901,13.1438117 14.6325463,13.1434722 C14.6113272,13.1417747 14.5902778,13.1399074 14.5693981,13.1380401 C14.5658333,13.1377006 14.5620988,13.1373611 14.5583642,13.1370216 C14.5354475,13.1349846 14.5128704,13.1327778 14.4906327,13.1304012 C14.4858796,13.129892 14.4812963,13.1293827 14.476713,13.1288735 C14.4561728,13.1268364 14.4358025,13.1244599 14.4157716,13.1222531 C14.4135648,13.1219136 14.4111883,13.1217438 14.4089815,13.1214043 C14.3874228,13.118858 14.3662037,13.1163117 14.3451543,13.1135957 C14.340571,13.1130864 14.3358179,13.1124074 14.3310648,13.1118981 C14.3101852,13.1091821 14.2896451,13.1062963 14.2694444,13.1035802 C14.2667284,13.0383951 14.2577315,12.9749074 14.242963,12.9136265 C14.1434877,12.5004475 13.7810648,12.1894599 13.3425926,12.1679012 C13.3262963,12.1670525 13.31,12.166713 13.293534,12.166713 C12.7540586,12.166713 12.3167747,12.6039969 12.3167747,13.1434722 C12.3167747,13.6829475 12.7540586,14.1202315 13.293534,14.1202315 C13.5405247,14.1202315 13.7659568,14.0283951 13.9380864,13.8771451 C13.9547222,13.8800309 13.9718673,13.8829167 13.9891821,13.8858025 C13.9937654,13.8866512 13.9985185,13.8873302 14.0031019,13.8880093 C14.0178704,13.8905556 14.0326389,13.8929321 14.0477469,13.8951389 C14.051142,13.8956481 14.0543673,13.8963272 14.0577623,13.8968364 C14.0759259,13.8995525 14.0942593,13.9022685 14.1129321,13.9049846 C14.1170062,13.9056636 14.12125,13.9061728 14.1253241,13.9068519 C14.1407716,13.9090586 14.1563889,13.9112654 14.1721759,13.9134722 C14.176929,13.9141512 14.1816821,13.9146605 14.1864352,13.9153395 C14.2059568,13.9180556 14.2256481,13.9206019 14.245679,13.9231481 C14.2478858,13.9234877 14.2499228,13.9236574 14.2519599,13.9239969 C14.2701235,13.9262037 14.2884568,13.9284105 14.3071296,13.9306173 C14.312392,13.9312963 14.3176543,13.9318056 14.3229167,13.9324846 C14.3417593,13.9346914 14.3606019,13.9367284 14.379784,13.9387654 C14.3819907,13.9389352 14.3841975,13.9392747 14.3864043,13.9394444 C14.4076235,13.941821 14.4290123,13.943858 14.450571,13.9458951 C14.4560031,13.9465741 14.4612654,13.9469136 14.4665278,13.9474228 C14.4843519,13.9491204 14.5021759,13.9508179 14.5201698,13.9523457 C14.5250926,13.9526852 14.5300154,13.9531944 14.5349383,13.953534 C14.5571759,13.9554012 14.5795833,13.9572685 14.6021605,13.958966 C14.6062346,13.9593056 14.6103086,13.9594753 14.6143827,13.9598148 C14.6335648,13.9611728 14.6527469,13.9625309 14.6720988,13.9637191 C14.6780401,13.9640586 14.6841512,13.9643981 14.6902623,13.9649074 C14.7367747,13.9676235 14.783966,13.97 14.8318364,13.972037 C14.838287,13.9722068 14.8447377,13.9725463 14.8511883,13.972716 C14.8710494,13.9733951 14.8910802,13.9740741 14.9111111,13.9745833 C14.9158642,13.9747531 14.9206173,13.9749228 14.9255401,13.9750926 C14.9496451,13.9756019 14.9739198,13.9761111 14.998534,13.9764506 C15.0043056,13.9766204 15.0102469,13.9766204 15.0161883,13.9766204 C15.0358796,13.9769599 15.0557407,13.9769599 15.0757716,13.9771296 C15.0798457,13.9771296 15.0839198,13.9771296 15.0879938,13.9771296 C15.0908796,13.9771296 15.0939352,13.9771296 15.096821,13.9771296 C15.1115895,13.9771296 15.126358,13.9769599 15.1412963,13.9767901 C15.1482562,13.9767901 15.155216,13.9767901 15.1623457,13.9766204 C15.1842438,13.9764506 15.2063117,13.9761111 15.2285494,13.9756019 C15.2287191,13.9756019 15.2290586,13.9756019 15.2293981,13.9756019 C15.2511265,13.9750926 15.2730247,13.9744136 15.2949228,13.9737346 C15.3025617,13.9733951 15.3102006,13.9730556 15.3176698,13.9728858 C15.332608,13.9722068 15.3473765,13.9716975 15.3623148,13.9710185 C15.371142,13.970679 15.3799691,13.9701698 15.3887963,13.9698302 C15.402716,13.9691512 15.4166358,13.9683025 15.4307253,13.9676235 C15.439892,13.9671142 15.4490586,13.9664352 15.4582253,13.9659259 C15.4723148,13.9650772 15.4864043,13.9642284 15.5004938,13.9632099 C15.509321,13.9625309 15.5183179,13.9620216 15.5273148,13.9613426 C15.5425926,13.9601543 15.5578704,13.958966 15.5733179,13.9577778 C15.5809568,13.9570988 15.5887654,13.9565895 15.5965741,13.9559105 C15.6196605,13.9538735 15.6427469,13.9518364 15.6660031,13.9496296 C15.6699074,13.9491204 15.6739815,13.9487809 15.6780556,13.9484414 C15.7174383,13.944537 15.7563117,13.9399537 15.7950154,13.9352006 C15.8126698,13.9329938 15.8303241,13.930787 15.8479784,13.9284105 C15.8632562,13.9263735 15.8787037,13.9241667 15.8939815,13.9221296 C17.3097222,13.7235185 18.3733951,12.9927315 18.9989352,11.7912191 C19.6589352,11.7550617 20.1831327,11.2084568 20.1831327,10.5392562 L20.1831327,8.0384537 C20.1831327,7.59821605 19.9561728,7.21124691 19.6129321,6.98752932 C19.5536883,6.16497377 19.3616975,5.36572531 19.0398457,4.60479012 C18.6599383,3.70683025 18.1165586,2.90062191 17.4244753,2.20853858 C16.732392,1.51645525 15.9260648,0.97295679 15.0282407,0.593151235 C14.0979938,0.199680556 13.1103704,0.000186728395 12.0930062,0.000186728395 C11.075625,0.000186728395 10.0881034,0.199680556 9.15783951,0.593151235 C8.25986265,0.97295679 7.45365432,1.51645525 6.76157099,2.20853858 C6.06948765,2.90062191 5.52600617,3.70683025 5.14620062,4.60479012 C4.82373765,5.36718519 4.63164506,6.1680463 4.57277469,6.99226543 C4.2336929,7.21669599 4.00992438,7.60137346 4.00992438,8.0384537 L4.00992438,10.5392562 C4.00992438,11.231713 4.57131481,11.7932562 5.26383951,11.7932562" id="Fill-10"></path>
            <path d="M7.32601698,11.4109722 C7.29220216,11.4909259 7.25392284,11.5683333 7.21148457,11.6431944 C7.22545525,11.7053241 7.23978241,11.767963 7.25446605,11.8307716 C8.19488117,15.8566358 11.8453025,16.2766049 11.8453025,16.2766049 L12.3279784,16.2766049 C12.3279784,16.2766049 13.7924383,16.1080401 15.1051389,14.9616975 C15.0993673,14.9616975 15.0937654,14.9616975 15.0879938,14.9616975 C14.7804012,14.9616975 14.4687346,14.9425154 14.1572377,14.904321 C13.8903858,15.0353704 13.5953549,15.1047994 13.293534,15.1047994 C12.7696759,15.1047994 12.2772222,14.9007562 11.9067022,14.5303549 C11.536233,14.1599537 11.3322238,13.6673302 11.3322238,13.1434722 C11.3322238,12.6196142 11.536233,12.1269907 11.9067022,11.7565895 C12.2772222,11.3860185 12.7696759,11.1821451 13.293534,11.1821451 C13.803642,11.1821451 14.2867593,11.3768519 14.6539352,11.7306173 C14.7919444,11.863534 14.9082253,12.0137654 15.0007407,12.1765586 C15.031466,12.1772377 15.0620216,12.1775772 15.0924074,12.1775772 C15.2383951,12.1775772 15.3814969,12.1702778 15.5176389,12.1560185 C15.9566204,12.1100154 16.3327932,11.9925463 16.6359722,11.8070062 C16.7469907,11.7389352 16.8495216,11.6615278 16.9440741,11.5739352 C16.7783951,11.2564969 16.6908025,10.8987932 16.6908025,10.5392562 L16.6908025,8.0384537 C16.6908025,7.57757407 16.83,7.13468827 17.0934568,6.75764969 C17.1662809,6.65331944 17.2474228,6.55618673 17.3355247,6.46674383 C17.2789969,6.13433333 17.1919136,5.81231173 17.076821,5.5039213 C16.9634259,5.15288889 16.8254167,4.85369907 16.6690741,4.60669136 C16.6624537,4.59638735 16.6558333,4.58604938 16.6490432,4.57577932 C16.6393673,4.56089198 16.6296914,4.54605556 16.6198457,4.53155864 C16.6183179,4.52908025 16.6166204,4.52661883 16.6149228,4.52415741 C16.5558488,4.43766821 16.4943981,4.35825772 16.4309105,4.28602778 C16.3366975,4.15324691 16.2362037,4.02504938 16.1302778,3.90168981 C16.0082253,3.76631173 15.8788735,3.63641667 15.7425617,3.51273457 C14.7416975,2.60503086 13.445463,2.105125 12.0930062,2.105125 C10.7408719,2.105125 9.44504475,2.60475926 8.44426543,3.5120216 C8.3121466,3.63178241 8.18658025,3.75733179 8.06782099,3.88809259 C7.97605247,3.9943071 7.8883071,4.10408642 7.80504321,4.21737963 C7.80465278,4.21778704 7.80424537,4.21814352 7.80385494,4.21855093 C7.77659259,4.24701852 7.74972068,4.27684414 7.7231713,4.30784105 C7.57670833,4.50550154 7.4441821,4.7123287 7.32632253,4.92693056 C7.20824228,5.16932099 7.10481173,5.44825926 7.01986728,5.76347377 C6.94860494,5.9896358 6.89216204,6.22233333 6.85138735,6.46039506 C6.94040586,6.55007562 7.02234568,6.64758179 7.09603549,6.75243827 C7.36185185,7.13059722 7.50233951,7.57529938 7.50233951,8.0384537 L7.50233951,10.5392562 C7.50233951,10.8410262 7.4430108,11.1342747 7.32601698,11.4109722" id="Fill-11"></path>
        </g>
    </g>
</svg>