<?xml version="1.0" encoding="UTF-8"?>
<svg width="18px" height="16px" viewBox="0 0 18 16" version="1.1" xmlns="http://www.w3.org/2000/svg" xmlns:xlink="http://www.w3.org/1999/xlink">
    <!-- Generator: sketchtool 64 (101010) - https://sketch.com -->
    <title>C208F684-F8D6-499E-B3FE-059F60AE4E9D</title>
    <desc>Created with sketchtool.</desc>
    <defs>
        <path d="M204.007332,602.995911 C205.349752,604.33401 207.534176,604.335383 208.877242,602.995911 L216.668642,595.230232 C217.060073,594.844094 217.276622,594.325896 217.277956,593.774146 C217.281314,592.671377 216.313538,591.70736 215.207208,591.710063 C214.653763,591.711393 214.134495,591.927288 213.744483,592.32012 L206.928865,599.113072 C206.659847,599.381953 206.659847,599.815629 206.928865,600.083781 C207.197882,600.351933 207.633691,600.351933 207.902709,600.083781 L214.720308,593.288126 C214.852793,593.155381 215.025654,593.083645 215.210609,593.083001 C215.579184,593.083001 215.900628,593.403453 215.900628,593.7708 C215.89994,593.95516 215.827972,594.127463 215.696864,594.25682 L207.902709,602.025201 C207.097679,602.829656 205.786895,602.829656 204.981176,602.025201 C204.175457,601.223405 204.175457,599.916197 204.981176,599.113072 L213.746463,590.375997 C215.088883,589.037898 217.273953,589.037898 218.616373,590.375997 C219.958794,591.714096 219.958794,593.892133 218.616373,595.230232 C216.538459,597.301236 214.980023,598.854489 213.941066,599.889991 C213.464992,600.364482 212.75088,601.076219 211.798732,602.025201 C211.529714,602.293353 211.529714,602.727759 211.798732,602.995911 C212.067749,603.264062 212.503558,603.264062 212.772576,602.995911 L219.590175,596.200942 C221.469942,594.327226 221.469942,591.278403 219.590175,589.405287 C217.711096,587.531571 214.652343,587.531571 212.772576,589.405287 L204.007332,598.142362 C202.664223,599.481105 202.664223,601.657811 204.007332,602.995911 Z" id="path-1"></path>
    </defs>
    <g id="Page-1" stroke="none" stroke-width="1" fill="none" fill-rule="evenodd">
        <g id="Chat-screen-support" transform="translate(-203.000000, -588.000000)">
            <mask id="mask-2" fill="white">
                <use xlink:href="#path-1"></use>
            </mask>
            <use id="Clip" fill="#215549" fill-rule="nonzero" xlink:href="#path-1"></use>
        </g>
    </g>
</svg>