<?xml version="1.0" encoding="UTF-8"?>
<svg width="63px" height="63px" viewBox="0 0 63 63" version="1.1" xmlns="http://www.w3.org/2000/svg" xmlns:xlink="http://www.w3.org/1999/xlink">
    <!-- Generator: sketchtool 64 (101010) - https://sketch.com -->
    <title>A454D1BD-11D6-4A42-B557-991BA9CFF1B8</title>
    <desc>Created with sketchtool.</desc>
    <defs>
        <circle id="path-1" cx="27.5" cy="27.5" r="27.5"></circle>
        <filter x="-12.7%" y="-9.1%" width="125.5%" height="125.5%" filterUnits="objectBoundingBox" id="filter-2">
            <feOffset dx="0" dy="2" in="SourceAlpha" result="shadowOffsetOuter1"></feOffset>
            <feGaussianBlur stdDeviation="2" in="shadowOffsetOuter1" result="shadowBlurOuter1"></feGaussianBlur>
            <feColorMatrix values="0 0 0 0 0.716768569   0 0 0 0 0.702646261   0 0 0 0 0.702646261  0 0 0 0.5 0" type="matrix" in="shadowBlurOuter1"></feColorMatrix>
        </filter>
    </defs>
    <g id="Page-1" stroke="none" stroke-width="1" fill="none" fill-rule="evenodd">
        <g id="Chat-screen-Copy" transform="translate(-285.000000, -480.000000)">
            <g id="Group-4" transform="translate(289.000000, 482.000000)">
                <g id="Group">
                    <g id="Oval">
                        <use fill="black" fill-opacity="1" filter="url(#filter-2)" xlink:href="#path-1"></use>
                        <use fill="#FFC043" fill-rule="evenodd" xlink:href="#path-1"></use>
                    </g>
                </g>
                <g id="map" transform="translate(14.000000, 13.000000)" fill-rule="nonzero">
                    <path d="M26.9697147,29.4078277 L23.0777075,19.2633707 C23.0165158,19.1038829 22.8729261,19 22.7136693,19 L4.28640285,19 C4.12714602,19 3.98350363,19.1039397 3.92236462,19.2633707 L0.0303047266,29.4078277 C-0.020389484,29.5398255 -0.00688509493,29.6906232 0.0663340147,29.8095575 C0.139500373,29.9285486 0.262569669,30 0.394395717,30 L26.6056764,30 C26.7374497,30 26.8605718,29.9284918 26.9337381,29.8095575 C27.0069045,29.69068 27.0203561,29.5398823 26.9697147,29.4078277 Z" id="Path" fill="#215549"></path>
                    <path d="M25.5946985,30 L26.6640946,30 C26.7763362,30 26.8812089,29.9284918 26.9435305,29.8095575 C27.005852,29.69068 27.0173548,29.5398823 26.9742194,29.4078277 L23.6590916,19.2633707 C23.6069698,19.1038829 23.4846632,19 23.3490117,19 L22,19 L25.5946985,30 Z" id="Path" fill="#215549"></path>
                    <g id="Group" transform="translate(24.000000, 23.000000)" fill="#4CE166">
                        <polygon id="Path" points="0.85941247 0.780529412 0.95941247 0.981823529 0.95941247 0.981823529"></polygon>
                    </g>
                    <polygon id="Path" fill="#DBD6D6" points="25 25.5183818 23.8508813 22.3987143 13.9055445 22.3987143 10.4299264 19 8.09836206 19 7.80166172 19 6.54354691 22.3978623 3.1495239 22.3978623 2.387159 24.4673414 2 25.5183818 5.39761907 25.5183818 3.74682454 30 6.83533433 30 9.48679609 22.7199618 17.1330344 30 21.6472557 30 17.0775234 25.5183818"></polygon>
                    <path d="M13.5,0 C8.8130605,0 5,3.98925485 5,8.89271963 C5,10.5831662 5.43967696,12.3766554 6.30697555,14.2233332 C6.99323379,15.6847353 7.94813085,17.1840199 9.14497659,18.6795873 C11.1755345,21.2168424 13.1749802,22.8457913 13.2591568,22.913958 C13.33012,22.9714104 13.4150337,23 13.5,23 C13.5849663,23 13.6699326,22.9713011 13.7408432,22.913958 C13.8249672,22.8457913 15.8244129,21.2168424 17.8550234,18.6795873 C19.0519218,17.1840199 20.0068189,15.6847353 20.6930245,14.2233332 C21.560323,12.3766007 22,10.5831662 22,8.89271963 C22,3.98925485 18.1869395,0 13.5,0 Z M13.5,5.51007729 C15.2856612,5.51007729 16.733247,7.02455864 16.733247,8.89271963 C16.733247,10.7608806 15.2856612,12.275362 13.5,12.275362 C11.7143388,12.275362 10.266753,10.7608806 10.266753,8.89271963 C10.266753,7.02455864 11.7143388,5.51007729 13.5,5.51007729 Z" id="Shape" fill="#0B9777"></path>
                </g>
            </g>
        </g>
    </g>
</svg>