<?xml version="1.0" encoding="UTF-8"?>
<svg width="32px" height="32px" viewBox="0 0 32 32" version="1.1" xmlns="http://www.w3.org/2000/svg" xmlns:xlink="http://www.w3.org/1999/xlink">
    <!-- Generator: sketchtool 64 (101010) - https://sketch.com -->
    <title>29212E23-C1E3-4C90-965B-966C648DCAF1</title>
    <desc>Created with sketchtool.</desc>
    <g id="Page-1" stroke="none" stroke-width="1" fill="none" fill-rule="evenodd">
        <g id="Bottom-nav-tasker" transform="translate(-29.000000, -294.000000)">
            <g id="Group-11" transform="translate(29.000000, 294.000000)">
                <g id="Group-8" fill="#FEF6E4">
                    <circle id="Oval" cx="16" cy="16" r="16"></circle>
                </g>
                <path d="M22.1111111,20.4444444 C21,20.4444444 19.9333333,20.2666667 18.9377778,19.9377778 C18.6266667,19.84 18.28,19.9111111 18.0311111,20.1511111 L16.0755556,22.1066667 C13.56,20.8266667 11.4977778,18.7733333 10.2177778,16.2488889 L12.1733333,14.2844444 C12.4222222,14.0533333 12.4933333,13.7066667 12.3955556,13.3955556 C12.0666667,12.4 11.8888889,11.3333333 11.8888889,10.2222222 C11.8888889,9.73333333 11.4888889,9.33333333 11,9.33333333 L7.88888889,9.33333333 C7.4,9.33333333 7,9.73333333 7,10.2222222 C7,18.5688889 13.7644444,25.3333333 22.1111111,25.3333333 C22.6,25.3333333 23,24.9333333 23,24.4444444 L23,21.3333333 C23,20.8444444 22.6,20.4444444 22.1111111,20.4444444 L22.1111111,20.4444444 Z M21.2222222,17.3333333 L23,17.3333333 C23,12.9155556 19.4177778,9.33333333 15,9.33333333 L15,11.1111111 C18.44,11.1111111 21.2222222,13.8933333 21.2222222,17.3333333 L21.2222222,17.3333333 Z M17.4,17.3333333 L19,17.3333333 C19,15.1253333 17.208,13.3333333 15,13.3333333 L15,14.9333333 C16.328,14.9333333 17.4,16.0053333 17.4,17.3333333 L17.4,17.3333333 Z" id="Shape-Copy-4" fill="#FFC043"></path>
            </g>
        </g>
    </g>
</svg>