<?xml version="1.0" encoding="UTF-8"?>
<svg width="32px" height="32px" viewBox="0 0 32 32" version="1.1" xmlns="http://www.w3.org/2000/svg" xmlns:xlink="http://www.w3.org/1999/xlink">
    <!-- Generator: Sketch 64 (93537) - https://sketch.com -->
    <title>Group 11</title>
    <desc>Created with Sketch.</desc>
    <g id="Page-1" stroke="none" stroke-width="1" fill="none" fill-rule="evenodd">
        <g id="Bottom-nav-poster" transform="translate(-29.000000, -349.000000)">
            <g id="Group-11" transform="translate(29.000000, 349.000000)">
                <g id="Group-8">
                    <g id="Group-2">
                        <circle id="Oval" fill="#FEF6E4" cx="16" cy="16" r="16"></circle>
                        <g id="Support" transform="translate(7.000000, 8.000000)" fill="#FFBE02" fill-rule="nonzero">
                            <path d="M11.9821228,12.5340655 C11.4514423,13.2006723 10.2857125,13.532492 9.12869068,13.5314599 C7.97166888,13.532492 6.80592618,13.2006723 6.27523288,12.5340655 C5.20755852,13.3691624 3.29987483,13.67905 2.0291614,13.9442993 C0.583261942,14.2460592 -0.0998867506,15.2179092 0.0226794429,16.719871 C2.83344202,16.719871 6.30832358,16.719871 9.12290236,16.719871 C9.12675693,16.719871 9.13061158,16.719871 9.13445338,16.719871 C11.9490834,16.719871 15.4239905,16.719871 18.2346506,16.719871 C18.3573321,15.2179092 17.6741321,14.2460592 16.2282071,13.9442993 C14.957468,13.67905 13.0497588,13.3691624 11.9821228,12.5340655 Z" id="Fill-9"></path>
                            <path d="M4.00051803,8.96287471 C4.52683679,8.96287471 4.95350642,8.53610188 4.95350642,8.00983471 L4.95350642,6.10922481 C4.95350642,5.70198444 4.69797167,5.35458 4.33855617,5.21816235 C4.59458117,2.76445074 6.6692158,0.851623396 9.19068471,0.851623396 C11.7129019,0.851623396 13.7879364,2.76550864 14.0429939,5.22018784 C13.6864037,5.35798592 13.4332815,5.70394543 13.4332815,6.10922481 L13.4332815,8.00983471 C13.4332815,8.3285984 13.5899025,8.61054198 13.8302525,8.78354754 C13.5415228,9.2824383 13.1263611,9.62999754 12.5894117,9.82338707 C12.5074889,9.85280188 12.4228568,9.87873331 12.3353864,9.90105246 C12.3338383,9.90143952 12.3324191,9.90169754 12.330871,9.90208454 C12.3049395,9.90866416 12.27875,9.91485679 12.2523025,9.92079133 C12.2461099,9.92221048 12.2397883,9.92362962 12.2334667,9.92491972 C12.2116636,9.92969321 12.1897315,9.93420867 12.1675413,9.93859509 C12.1590265,9.94027226 12.1506408,9.94182038 12.1421259,9.9433685 C12.121742,9.94723887 12.100971,9.95085123 12.0802,9.95433454 C12.0709111,9.95588273 12.0614932,9.95743085 12.0520753,9.95897905 C12.0310463,9.96233331 12.0097592,9.96542962 11.9883432,9.96839689 C11.9795704,9.96955802 11.9709265,9.97084812 11.9620247,9.97200925 C11.9320939,9.97600867 11.9019049,9.97962095 11.871329,9.98284632 C11.849784,9.98503952 11.8282389,9.98697471 11.8066939,9.9889099 C11.8007592,9.98942594 11.7948247,9.98994198 11.7888901,9.99032905 C11.7716025,9.99174812 11.7544439,9.9930383 11.7372852,9.99419935 C11.7327697,9.99458642 11.7281253,9.99484444 11.7236099,9.9952315 C11.7025809,9.9965216 11.6816809,9.99768273 11.6607809,9.99871481 C11.6560074,9.99884386 11.651234,9.99910188 11.6464605,9.99923085 C11.6296889,10.0000049 11.6129173,10.00065 11.5962747,10.001166 C11.5907272,10.0012951 11.5850507,10.0015531 11.5795031,10.0016821 C11.5588611,10.0021981 11.5383481,10.0027142 11.5179642,10.0028432 C11.5168031,10.0029723 11.515771,10.0029723 11.5146099,10.0029723 C11.494871,10.0031012 11.4752611,10.0032303 11.4557803,10.0031012 C11.4512648,10.0031012 11.4467493,10.0031012 11.442234,10.0031012 C11.4222371,10.0029723 11.4022401,10.0027142 11.3826303,10.0023272 C11.3819852,10.0021981 11.3813401,10.0021981 11.3806951,10.0021981 C11.3613432,10.0018111 11.3422493,10.0012951 11.3234136,10.00065 C11.3191561,10.000392 11.3148988,10.0002629 11.3106413,10.0001419 C11.2915475,9.99948887 11.2724537,9.99858584 11.2537469,9.99768273 C11.2512957,9.99755368 11.2489735,9.99742471 11.2466512,9.99729566 C11.2293636,9.99639256 11.212334,9.99536048 11.1954333,9.9943284 C11.191821,9.99407038 11.1882087,9.99394133 11.1845963,9.99368331 C11.1662765,9.99239321 11.1480858,9.99110311 11.1302821,9.98968396 C11.1270568,9.98955491 11.1239605,9.98929689 11.1207352,9.98903887 C11.1046087,9.98774877 11.0886111,9.98632962 11.0727426,9.98491048 C11.0700333,9.98465246 11.0671951,9.98439444 11.0643568,9.98413642 C11.0469401,9.9825883 11.0297815,9.98091113 11.0128809,9.97910491 C11.0092685,9.97871792 11.0057852,9.97833085 11.0023019,9.97794386 C10.9866913,9.97639566 10.9712099,9.97458952 10.9559864,9.97291236 C10.9543092,9.97265434 10.9525031,9.97252529 10.9508259,9.97226727 C10.9344413,9.97033208 10.9183148,9.96839689 10.9023173,9.96633273 C10.898834,9.96594566 10.8952216,9.96542962 10.8916092,9.96504256 C10.8757408,9.9629784 10.8601303,9.96078519 10.8447777,9.95872095 C10.8427136,9.90918028 10.8358759,9.86092962 10.8246519,9.81435614 C10.7490507,9.5003401 10.4736092,9.26398952 10.1403704,9.24760491 C10.1279852,9.2469599 10.1156,9.24670188 10.1030858,9.24670188 C9.69308454,9.24670188 9.36074877,9.57903764 9.36074877,9.98903887 C9.36074877,10.3990401 9.69308454,10.7313759 10.1030858,10.7313759 C10.2907988,10.7313759 10.4621272,10.6615803 10.5929457,10.5466303 C10.6055889,10.5488235 10.6186191,10.5510167 10.6317784,10.5532099 C10.6352617,10.5538549 10.6388741,10.554371 10.6423574,10.5548871 C10.6535815,10.5568223 10.6648056,10.5586284 10.6762876,10.5603056 C10.6788679,10.5606926 10.6813191,10.5612087 10.6838993,10.5615957 C10.6977037,10.5636599 10.7116371,10.5657241 10.7258284,10.5677883 C10.7289247,10.5683043 10.73215,10.5686913 10.7352463,10.5692074 C10.7469864,10.5708845 10.7588556,10.5725617 10.7708537,10.5742389 C10.774466,10.5747549 10.7780784,10.575142 10.7816908,10.575658 C10.7965272,10.5777223 10.8114926,10.5796574 10.826716,10.5815926 C10.8283932,10.5818507 10.8299413,10.5819796 10.8314895,10.5822376 C10.8452939,10.5839148 10.8592272,10.585592 10.8734185,10.5872691 C10.8774179,10.5877852 10.8814173,10.5881723 10.8854167,10.5886883 C10.8997371,10.5903655 10.9140574,10.5919136 10.9286358,10.5934617 C10.9303129,10.5935908 10.9319901,10.5938488 10.9336673,10.5939777 C10.9497939,10.595784 10.9660493,10.5973321 10.982434,10.5988803 C10.9865624,10.5993963 10.9905617,10.5996543 10.9945611,10.6000413 C11.0081074,10.6013315 11.0216537,10.6026216 11.035329,10.6037827 C11.0390704,10.6040408 11.0428117,10.6044277 11.0465531,10.6046858 C11.0634537,10.6061049 11.0804833,10.6075241 11.097642,10.6088142 C11.1007383,10.6090723 11.1038345,10.6092012 11.1069309,10.6094592 C11.1215092,10.6104913 11.1360876,10.6115235 11.1507951,10.6124265 C11.1553105,10.6126845 11.1599549,10.6129426 11.1645993,10.6133296 C11.1999488,10.6153939 11.2358142,10.6172 11.2721957,10.6187481 C11.2770981,10.6188772 11.2820007,10.6191352 11.2869031,10.6192642 C11.3019975,10.6197803 11.317221,10.6202963 11.3324444,10.6206833 C11.3360568,10.6208124 11.3396691,10.6209413 11.3434105,10.6210704 C11.3617303,10.6214574 11.380179,10.6218444 11.3988858,10.6221025 C11.4032723,10.6222315 11.4077876,10.6222315 11.4123031,10.6222315 C11.4272685,10.6224895 11.4423629,10.6224895 11.4575864,10.6226185 C11.4606827,10.6226185 11.463779,10.6226185 11.4668753,10.6226185 C11.4690685,10.6226185 11.4713908,10.6226185 11.473584,10.6226185 C11.484808,10.6226185 11.4960321,10.6224895 11.5073852,10.6223605 C11.5126747,10.6223605 11.5179642,10.6223605 11.5233827,10.6222315 C11.5400253,10.6221025 11.5567969,10.6218444 11.5736975,10.6214574 C11.5738265,10.6214574 11.5740845,10.6214574 11.5743426,10.6214574 C11.5908561,10.6210704 11.6074988,10.6205543 11.6241413,10.6200383 C11.6299469,10.6197803 11.6357525,10.6195223 11.641429,10.6193932 C11.6527821,10.6188772 11.6640061,10.6184901 11.6753592,10.6179741 C11.6820679,10.617716 11.6887765,10.617329 11.6954852,10.617071 C11.7060642,10.6165549 11.7166432,10.6159099 11.7273512,10.6153939 C11.7343179,10.6150068 11.7412845,10.6144908 11.7482512,10.6141037 C11.7589592,10.6134587 11.7696673,10.6128136 11.7803753,10.6120395 C11.787084,10.6115235 11.7939216,10.6111364 11.8007592,10.6106204 C11.8123704,10.6097173 11.8239815,10.6088142 11.8357216,10.6079111 C11.8415272,10.6073951 11.8474617,10.607008 11.8533963,10.606492 C11.870942,10.6049439 11.8884876,10.6033957 11.9061624,10.6017185 C11.9091296,10.6013315 11.9122259,10.6010735 11.9153223,10.6008155 C11.9452531,10.5978481 11.9747969,10.5943648 12.0042117,10.5907525 C12.017629,10.5890753 12.0310463,10.5873981 12.0444636,10.585592 C12.0560747,10.5840439 12.0678148,10.5823667 12.0794259,10.5808185 C13.1553889,10.4298741 13.9637803,9.87447594 14.4391908,8.96132652 C14.9407908,8.93384689 15.3391809,8.51842717 15.3391809,8.00983471 L15.3391809,6.10922481 C15.3391809,5.7746442 15.1666913,5.48054765 14.9058284,5.31052228 C14.8608031,4.68538007 14.7148901,4.07795124 14.4702827,3.49964049 C14.1815531,2.81719099 13.7685845,2.20447265 13.2426012,1.67848932 C12.7166179,1.15250599 12.1038092,0.73944716 11.4214629,0.450794939 C10.7144753,0.151757223 9.9638815,0.00014191358 9.19068471,0.00014191358 C8.417475,0.00014191358 7.66695858,0.151757223 6.95995803,0.450794939 C6.27749561,0.73944716 5.66477728,1.15250599 5.13879395,1.67848932 C4.61281061,2.20447265 4.19976469,2.81719099 3.91111247,3.49964049 C3.66604061,4.07906074 3.52005025,4.68771519 3.47530876,5.31412173 C3.2176066,5.48468895 3.04754253,5.77704383 3.04754253,6.10922481 L3.04754253,8.00983471 C3.04754253,8.53610188 3.47419926,8.96287471 4.00051803,8.96287471" id="Fill-10"></path>
                            <path d="M5.5677729,8.67233887 C5.54207364,8.73310368 5.51298136,8.79193331 5.48072827,8.84882774 C5.49134599,8.89604632 5.50223463,8.94365188 5.5133942,8.99138642 C6.22810969,12.0510432 9.0024299,12.3702197 9.0024299,12.3702197 L9.36926358,12.3702197 C9.36926358,12.3702197 10.4822531,12.2421105 11.4799056,11.3708901 C11.4755191,11.3708901 11.4712617,11.3708901 11.4668753,11.3708901 C11.2331049,11.3708901 10.9962383,11.3563117 10.7595007,11.327284 C10.5566932,11.4268815 10.3324697,11.4796475 10.1030858,11.4796475 C9.70495368,11.4796475 9.33068887,11.3245747 9.04909367,11.0430697 C8.76753708,10.7615648 8.61249009,10.387171 8.61249009,9.98903887 C8.61249009,9.59090679 8.76753708,9.21651293 9.04909367,8.93500802 C9.33068887,8.65337406 9.70495368,8.49843028 10.1030858,8.49843028 C10.4907679,8.49843028 10.8579371,8.64640744 11.1369908,8.91526915 C11.2418777,9.01628584 11.3302512,9.1304617 11.4005629,9.25418454 C11.4239142,9.25470065 11.4471364,9.25495867 11.4702296,9.25495867 C11.5811803,9.25495867 11.6899376,9.24941113 11.7934056,9.23857406 C12.1270315,9.2036117 12.4129228,9.11433519 12.6433389,8.97332471 C12.7277129,8.92159075 12.8056364,8.86276113 12.8774963,8.79619075 C12.7515803,8.55493764 12.6850099,8.28308283 12.6850099,8.00983471 L12.6850099,6.10922481 C12.6850099,5.75895629 12.7908,5.42236309 12.9910272,5.13581376 C13.0463735,5.05652277 13.1080413,4.98270191 13.1749988,4.91472531 C13.1320376,4.66209333 13.0658543,4.41735691 12.978384,4.18298019 C12.8922037,3.91619556 12.7873167,3.68881129 12.6684963,3.50108543 C12.6634648,3.49325439 12.6584333,3.48539753 12.6532728,3.47759228 C12.6459191,3.4662779 12.6385655,3.45500223 12.6310827,3.44398457 C12.6299216,3.44210099 12.6286315,3.44023031 12.6273413,3.43835963 C12.5824451,3.37262784 12.5357426,3.31227587 12.487492,3.25738111 C12.4158901,3.15646765 12.3395148,3.05903753 12.2590111,2.96528426 C12.1662512,2.86239691 12.0679439,2.76367667 11.9643469,2.66967827 C11.2036901,1.97982345 10.2185519,1.599895 9.19068471,1.599895 C8.16306264,1.599895 7.17823401,1.97961704 6.41764173,2.66913642 C6.31723142,2.76015463 6.22180099,2.85557216 6.13154395,2.95495037 C6.06179988,3.0356734 5.9951134,3.11910568 5.93183284,3.20520852 C5.93153611,3.20551815 5.93122648,3.20578908 5.93092975,3.20609871 C5.91021037,3.22773408 5.88978772,3.25040155 5.86961019,3.2739592 C5.75829833,3.42418117 5.6575784,3.58136981 5.56800512,3.74446723 C5.47826413,3.92868395 5.39965691,4.14067704 5.33509913,4.38024007 C5.28093975,4.55212321 5.23804315,4.72897333 5.20705439,4.90990025 C5.27470845,4.97805747 5.33698272,5.05216216 5.39298697,5.13185309 C5.59500741,5.41925389 5.70177803,5.75722753 5.70177803,6.10922481 L5.70177803,8.00983471 C5.70177803,8.23917991 5.65668821,8.46204877 5.5677729,8.67233887" id="Fill-11"></path>
                        </g>
                    </g>
                </g>
            </g>
        </g>
    </g>
</svg>