<?xml version="1.0" encoding="UTF-8"?>
<svg width="63px" height="40px" viewBox="0 0 63 40" version="1.1" xmlns="http://www.w3.org/2000/svg" xmlns:xlink="http://www.w3.org/1999/xlink">
    <!-- Generator: Sketch 64 (93537) - https://sketch.com -->
    <title>Group</title>
    <desc>Created with Sketch.</desc>
    <defs>
        <linearGradient x1="78.8223077%" y1="78.3446154%" x2="25.7215385%" y2="25.2438462%" id="linearGradient-1">
            <stop stop-color="#9DABAA" offset="0%"></stop>
            <stop stop-color="#A3B0AF" offset="27.39%"></stop>
            <stop stop-color="#B5BEBD" offset="67.31%"></stop>
            <stop stop-color="#C8CDCD" offset="100%"></stop>
        </linearGradient>
        <linearGradient x1="-0.1169077%" y1="50.1540883%" x2="99.9799238%" y2="50.1540883%" id="linearGradient-2">
            <stop stop-color="#C5C6CA" offset="0%"></stop>
            <stop stop-color="#CDCED1" offset="36.93%"></stop>
            <stop stop-color="#E3E3E6" offset="90.78%"></stop>
            <stop stop-color="#E7E8EA" offset="100%"></stop>
        </linearGradient>
        <linearGradient x1="78.3884615%" y1="78.3446154%" x2="25.2884615%" y2="25.2438462%" id="linearGradient-3">
            <stop stop-color="#9DABAA" offset="0%"></stop>
            <stop stop-color="#A3B0AF" offset="27.39%"></stop>
            <stop stop-color="#B5BEBD" offset="67.31%"></stop>
            <stop stop-color="#C8CDCD" offset="100%"></stop>
        </linearGradient>
        <linearGradient x1="-49.2732673%" y1="47.275%" x2="69.6485149%" y2="47.275%" id="linearGradient-4">
            <stop stop-color="#333333" offset="0%"></stop>
            <stop stop-color="#50545A" offset="19.01%"></stop>
            <stop stop-color="#3F464C" offset="46.78%"></stop>
            <stop stop-color="#283238" offset="79.77%"></stop>
            <stop stop-color="#18252B" offset="100%"></stop>
        </linearGradient>
    </defs>
    <g id="Page-1" stroke="none" stroke-width="1" fill="none" fill-rule="evenodd">
        <g id="Group" fill-rule="nonzero">
            <polygon id="Path" fill="#F39700" points="22.5123457 22 26.962963 19.8301887 28 18.0377358 21 17"></polygon>
            <path d="M31,17.6367925 L33.1417323,23.1981132 C33.1417323,23.1981132 33.9895013,25.7877358 36.5328084,26 L39.4330709,26 L47.7769029,19.0801887 L48,17 L31,17.6367925 Z" id="Path" fill="#333333"></path>
            <g transform="translate(40.000000, 20.000000)">
                <g transform="translate(8.444444, 2.222222)" fill="#AAB3B3" id="Rectangle">
                    <rect x="0" y="0.4" width="1" height="14.6666667"></rect>
                    <rect x="2.88888889" y="0.4" width="1" height="14.6666667"></rect>
                </g>
                <g transform="translate(3.888889, 1.666667)" fill="#AAB3B3" id="Rectangle">
                    <polygon transform="translate(4.867022, 9.046356) rotate(-30.000728) translate(-4.867022, -9.046356) " points="4.73369182 1.71318356 5.00035262 1.71318356 5.00035262 16.3795276 4.73369182 16.3795276"></polygon>
                    <polygon transform="translate(7.382844, 7.564311) rotate(-30.000728) translate(-7.382844, -7.564311) " points="7.24951404 0.231139113 7.51617484 0.231139113 7.51617484 14.8974831 7.24951404 14.8974831"></polygon>
                </g>
                <g transform="translate(2.666667, 4.888889)" fill="#AAB3B3" id="Path">
                    <polygon points="12.9333333 10.1333333 0.222222222 2.8 0.355555556 2.57777778 13.0666667 9.91111111"></polygon>
                    <polygon points="14.3555556 7.64444444 1.64444444 0.266666667 1.77777778 0.0444444444 14.4888889 7.37777778"></polygon>
                </g>
                <g transform="translate(2.666667, 8.000000)" fill="#AAB3B3" id="Rectangle">
                    <rect x="0" y="3.28888889" width="14.6666667" height="1"></rect>
                    <rect x="0" y="0.4" width="14.6666667" height="1"></rect>
                </g>
                <g transform="translate(2.666667, 4.888889)" fill="#AAB3B3" id="Path">
                    <polygon points="1.77777778 10.1333333 1.64444444 9.91111111 14.3555556 2.57777778 14.4888889 2.8"></polygon>
                    <polygon points="0.355555556 7.64444444 0.222222222 7.37777778 12.9333333 0.0444444444 13.0666667 0.266666667"></polygon>
                </g>
                <g transform="translate(3.888889, 1.666667)" fill="#AAB3B3" id="Rectangle">
                    <polygon transform="translate(7.377058, 9.056249) rotate(-60.007099) translate(-7.377058, -9.056249) " points="0.0436173052 8.92291361 14.7104983 8.92291361 14.7104983 9.18958417 0.0436173052 9.18958417"></polygon>
                    <polygon transform="translate(4.862449, 7.594600) rotate(-60.007099) translate(-4.862449, -7.594600) " points="-2.47099158 7.46126472 12.1958894 7.46126472 12.1958894 7.72793528 -2.47099158 7.72793528"></polygon>
                </g>
                <circle id="Oval" fill="#9DABAA" cx="10" cy="9.91111111" r="3.6"></circle>
                <circle id="Oval" fill="url(#linearGradient-1)" cx="10" cy="9.91111111" r="2.88888889"></circle>
                <path d="M10,0.177777778 C4.62222222,0.177777778 0.266666667,4.53333333 0.266666667,9.91111111 C0.266666667,15.2888889 4.62222222,19.6444444 10,19.6444444 C15.3777778,19.6444444 19.7333333,15.2888889 19.7333333,9.91111111 C19.7333333,4.53333333 15.3777778,0.177777778 10,0.177777778 Z M10,16.9777778 C6.08888889,16.9777778 2.88888889,13.8222222 2.88888889,9.86666667 C2.88888889,5.91111111 6.04444444,2.75555556 10,2.75555556 C13.9555556,2.75555556 17.1111111,5.91111111 17.1111111,9.86666667 C17.1111111,13.8222222 13.9555556,16.9777778 10,16.9777778 Z" id="Shape" fill="#F39700"></path>
                <path d="M10,2.31111111 C5.82222222,2.31111111 2.4,5.68888889 2.4,9.91111111 C2.4,14.1333333 5.77777778,17.5111111 10,17.5111111 C14.1777778,17.5111111 17.6,14.1333333 17.6,9.91111111 C17.6,5.68888889 14.2222222,2.31111111 10,2.31111111 Z M10,16.9777778 C6.08888889,16.9777778 2.88888889,13.8222222 2.88888889,9.86666667 C2.88888889,5.91111111 6.04444444,2.75555556 10,2.75555556 C13.9555556,2.75555556 17.1111111,5.91111111 17.1111111,9.86666667 C17.1111111,13.8222222 13.9555556,16.9777778 10,16.9777778 Z" id="Shape" fill="#9DABAA"></path>
            </g>
            <g transform="translate(21.000000, 0.000000)" id="Path">
                <path d="M0.12,6.62666667 C0.12,6.34666667 0.04,2.00666667 0.88,1.91333333 L0.88,2.1 C0.32,2.19333333 0.24,5.92666667 0.28,6.62666667 L0.12,6.62666667 Z" fill="#737373"></path>
                <path d="M1.76,0.42 C1.24,0.513333333 0.84,1.21333333 0.84,2.05333333 C0.84,2.89333333 1.24,3.64 1.76,3.68666667 L1.76,0.42 Z" fill="#333333"></path>
            </g>
            <polygon id="Path" fill="#18252B" points="32.5421053 35 26.2342105 30.3478261 26.2342105 30.2608696 21 17.2173913 21.6263158 17 26.7710526 29.9565217 32.6763158 34.3043478 37.8210526 32.6956522 38 33.3043478"></polygon>
            <g transform="translate(58.000000, 16.000000)" id="Path">
                <path d="M3.37777778,3.375 L1.86666667,3.375 C1.73333333,3.375 1.64444444,3.29166667 1.64444444,3.16666667 L1.64444444,0.541666667 C1.64444444,0.416666667 1.73333333,0.333333333 1.86666667,0.333333333 L3.37777778,0.333333333 C3.51111111,0.333333333 3.6,0.416666667 3.6,0.541666667 L3.6,3.16666667 C3.6,3.29166667 3.46666667,3.375 3.37777778,3.375 Z" fill="#FFC043"></path>
                <path d="M2.13333333,0.125 L2.13333333,3.75 L1.24444444,3.75 L1.24444444,5 L0.177777778,4.04166667 L0.177777778,1.66666667 C0.177777778,1.66666667 0,0.125 1.37777778,0.125 L2.13333333,0.125 Z" fill="#333333"></path>
            </g>
            <g transform="translate(47.000000, 17.000000)" id="Path">
                <path d="M0.778378378,2.625 C0.778378378,2.625 7.95675676,-0.35 12.4540541,6.86875 L15.827027,6.86875 L13.5783784,6.0375 C13.5783784,6.0375 11.372973,1.35625 4.97297297,0.13125 L0.12972973,0.13125 L0.778378378,2.625 Z" fill="#F39700"></path>
                <path d="M13.5783784,5.99375 C13.5783784,5.99375 12.4108108,3.5 9.2972973,1.70625 C9.03783784,1.96875 8.86486486,2.66875 10.4216216,3.85 C10.4216216,3.85 12.2378378,5.1625 12.5405405,5.99375 L14.0540541,6.86875 L15.827027,6.86875 L13.5783784,5.99375 Z" fill="#FFC043"></path>
            </g>
            <g transform="translate(13.000000, 10.000000)" id="Path">
                <path d="M6,0.84 C6,0.84 4.07142857,1.84 3.51428571,0.16 L1.24285714,0.16 C1.24285714,0.16 0.0857142857,5.55111512e-17 0.0857142857,0.8 L0.0857142857,2.92 C0.0857142857,2.92 0.257142857,3.64 1.15714286,3.64 L3.12857143,3.64 C3.12857143,3.64 3.68571429,2.04 5.31428571,2.84 L6,0.84 Z" fill="#333333"></path>
                <path d="M1.02857143,0.12 C0.685714286,0.12 0.128571429,0.2 0.128571429,0.76 L0.128571429,2.88 C0.128571429,2.88 0.257142857,3.52 1.02857143,3.6 L1.02857143,0.12 Z" fill="#FFC043"></path>
            </g>
            <g transform="translate(22.000000, 23.000000)" id="Path">
                <path d="M38.9133333,6.42857143 C38.7833333,5.52857143 37.96,4.92857143 37.05,5.05714286 L14.04,8.18571429 C13.39,8.27142857 12.9133333,8.7 12.6966667,9.25714286 L5.80666667,9.25714286 C4.33333333,9.25714286 3.20666667,7.62857143 3.07666667,7.45714286 L1.86333333,5.05714286 C1.3,4.11428571 1.60333333,3 1.64666667,2.87142857 C2.29666667,1.41428571 4.81,1.5 4.85333333,1.5 C5.2,1.5 5.50333333,1.24285714 5.50333333,0.9 C5.50333333,0.557142857 5.24333333,0.257142857 4.89666667,0.257142857 C4.76666667,0.257142857 1.43,0.128571429 0.476666667,2.44285714 L0.476666667,2.48571429 C0.433333333,2.57142857 -0.0866666667,4.2 0.78,5.65714286 L1.99333333,8.05714286 L2.03666667,8.1 C2.08,8.18571429 3.59666667,10.5 5.85,10.5 L12.7833333,10.5 C13.0433333,11.0571429 13.65,11.4428571 14.3,11.4428571 C14.3866667,11.4428571 14.43,11.4428571 14.5166667,11.4428571 L37.5266667,8.31428571 C38.4366667,8.14285714 39.0433333,7.32857143 38.9133333,6.42857143 Z" fill="#C5C6CA"></path>
                <g transform="translate(0.000000, 0.428571)" fill="#AAADB3">
                    <path d="M4.89666667,0.514285714 C4.85333333,0.514285714 2.34,0.428571429 1.69,1.88571429 C1.64666667,1.97142857 1.56,2.44285714 1.60333333,3 C1.64666667,2.7 1.69,2.44285714 1.69,2.4 C2.34,0.942857143 4.85333333,1.02857143 4.89666667,1.02857143 C5.24333333,1.02857143 5.54666667,0.771428571 5.54666667,0.428571429 C5.54666667,0.342857143 5.54666667,0.214285714 5.50333333,0.128571429 C5.37333333,0.342857143 5.15666667,0.514285714 4.89666667,0.514285714 Z"></path>
                    <path d="M38.9133333,5.95714286 C38.7833333,6.64285714 38.2633333,7.2 37.5266667,7.32857143 L14.5166667,10.4571429 C14.43,10.4571429 14.3866667,10.4571429 14.3,10.4571429 C13.65,10.4571429 13.0866667,10.0714286 12.7833333,9.51428571 L5.85,9.51428571 C3.59666667,9.51428571 2.12333333,7.2 2.03666667,7.11428571 L1.99333333,7.07142857 L0.78,4.67142857 C0.476666667,4.11428571 0.346666667,3.55714286 0.303333333,3.04285714 C0.26,3.64285714 0.346666667,4.45714286 0.78,5.18571429 L1.99333333,7.58571429 L2.03666667,7.62857143 C2.08,7.71428571 3.59666667,10.0285714 5.85,10.0285714 L12.7833333,10.0285714 C13.0433333,10.5857143 13.65,10.9714286 14.3,10.9714286 C14.3866667,10.9714286 14.43,10.9714286 14.5166667,10.9714286 L37.5266667,7.84285714 C38.4366667,7.71428571 39.0433333,6.9 38.9133333,5.95714286 C38.9133333,6 38.9133333,6 38.9133333,5.95714286 Z"></path>
                </g>
                <path d="M37.3966667,6.17142857 L18.85,8.61428571 C18.6766667,8.65714286 18.5466667,8.78571429 18.59,8.95714286 L18.59,8.95714286 C18.6333333,9.12857143 18.7633333,9.25714286 18.9366667,9.21428571 L37.4833333,6.77142857 C37.6566667,6.72857143 37.7866667,6.6 37.7433333,6.42857143 L37.7433333,6.42857143 C37.7,6.25714286 37.57,6.12857143 37.3966667,6.17142857 Z" fill="url(#linearGradient-2)"></path>
                <path d="M38.48,6.42857143 C38.5666667,7.02857143 38.3933333,7.54285714 38.0466667,7.58571429 C37.7,7.62857143 37.31,7.24285714 37.2233333,6.64285714 C37.1366667,6.04285714 37.31,5.52857143 37.6566667,5.48571429 C38.0033333,5.44285714 38.3933333,5.82857143 38.48,6.42857143 Z" fill="#18252B"></path>
            </g>
            <g transform="translate(0.000000, 20.000000)">
                <g transform="translate(8.000000, 2.222222)" fill="#AAB3B3" id="Rectangle">
                    <rect x="0.4" y="0.4" width="1" height="14.6666667"></rect>
                    <rect x="3.28888889" y="0.4" width="1" height="14.6666667"></rect>
                </g>
                <g transform="translate(3.888889, 1.666667)" fill="#AAB3B3" id="Rectangle">
                    <polygon transform="translate(4.864933, 9.034178) rotate(-30.000728) translate(-4.864933, -9.034178) " points="4.73160293 1.70100578 4.99826373 1.70100578 4.99826373 16.3673498 4.73160293 16.3673498"></polygon>
                    <polygon transform="translate(7.343600, 7.578844) rotate(-30.000728) translate(-7.343600, -7.578844) " points="7.2102696 0.245672446 7.4769304 0.245672446 7.4769304 14.9120164 7.2102696 14.9120164"></polygon>
                </g>
                <g transform="translate(2.666667, 4.888889)" fill="#AAB3B3" id="Path">
                    <polygon points="12.8888889 10.1333333 0.177777778 2.8 0.311111111 2.57777778 13.0222222 9.91111111"></polygon>
                    <polygon points="14.3555556 7.64444444 1.64444444 0.266666667 1.77777778 0.0444444444 14.4888889 7.37777778"></polygon>
                </g>
                <g transform="translate(2.666667, 8.000000)" fill="#AAB3B3" id="Rectangle">
                    <rect x="0" y="3.28888889" width="14.6666667" height="1"></rect>
                    <rect x="0" y="0.4" width="14.6666667" height="1"></rect>
                </g>
                <g transform="translate(2.666667, 4.888889)" fill="#AAB3B3" id="Path">
                    <polygon points="1.77777778 10.1333333 1.64444444 9.91111111 14.3555556 2.57777778 14.4888889 2.8"></polygon>
                    <polygon points="0.311111111 7.64444444 0.177777778 7.37777778 12.8888889 0.0444444444 13.0222222 0.266666667"></polygon>
                </g>
                <g transform="translate(3.888889, 1.666667)" fill="#AAB3B3" id="Rectangle">
                    <polygon transform="translate(7.365902, 9.036738) rotate(-60.007099) translate(-7.365902, -9.036738) " points="0.0324617497 8.9034025 14.6993427 8.9034025 14.6993427 9.17007306 0.0324617497 9.17007306"></polygon>
                    <polygon transform="translate(4.850222, 7.583289) rotate(-59.999272) translate(-4.850222, -7.583289) " points="-2.48294978 7.44995849 12.1833942 7.44995849 12.1833942 7.71661929 -2.48294978 7.71661929"></polygon>
                </g>
                <circle id="Oval" fill="#9DABAA" transform="translate(9.998080, 9.906978) rotate(-9.241904) translate(-9.998080, -9.906978) " cx="9.99808" cy="9.90697778" r="3.59993045"></circle>
                <circle id="Oval" fill="url(#linearGradient-3)" cx="10" cy="9.91111111" r="2.88888889"></circle>
                <path d="M10,0.177777778 C4.62222222,0.177777778 0.266666667,4.53333333 0.266666667,9.91111111 C0.266666667,15.2888889 4.62222222,19.6444444 10,19.6444444 C15.3777778,19.6444444 19.7333333,15.2888889 19.7333333,9.91111111 C19.7333333,4.53333333 15.3777778,0.177777778 10,0.177777778 Z M10,16.9777778 C6.08888889,16.9777778 2.88888889,13.8222222 2.88888889,9.86666667 C2.88888889,5.91111111 6.04444444,2.75555556 10,2.75555556 C13.9111111,2.75555556 17.1111111,5.91111111 17.1111111,9.86666667 C17.1111111,13.8222222 13.9111111,16.9777778 10,16.9777778 Z" id="Shape" fill="#F39700"></path>
                <path d="M10,2.31111111 C5.82222222,2.31111111 2.4,5.68888889 2.4,9.91111111 C2.4,14.1333333 5.77777778,17.5111111 10,17.5111111 C14.1777778,17.5111111 17.6,14.1333333 17.6,9.91111111 C17.6,5.68888889 14.1777778,2.31111111 10,2.31111111 Z M10,16.9777778 C6.08888889,16.9777778 2.88888889,13.8222222 2.88888889,9.86666667 C2.88888889,5.91111111 6.04444444,2.75555556 10,2.75555556 C13.9111111,2.75555556 17.1111111,5.91111111 17.1111111,9.86666667 C17.1111111,13.8222222 13.9111111,16.9777778 10,16.9777778 Z" id="Shape" fill="#9DABAA"></path>
            </g>
            <g transform="translate(15.000000, 14.000000)">
                <path d="M1.64,1.08 C1.64,1.6 1.28,2 0.84,2 C0.4,2 0.04,1.6 0.04,1.08 C0.04,0.56 0.4,0.16 0.84,0.16 C1.32,0.12 1.64,0.56 1.64,1.08 Z" id="Path" fill="#18252B"></path>
                <ellipse id="Oval" fill="#FFC043" cx="0.44" cy="1.08" rx="1" ry="1"></ellipse>
            </g>
            <path d="M18.6363636,7 L17.5909091,9.03773585 L18.7272727,10.9849057 L19.6363636,11.5735849 L17,17.4603774 L20,19 L23,12.1169811 L20.4545455,10.9396226 L21.1363636,9.53584906 C21.0909091,9.62641509 20.5909091,7.67924528 18.6363636,7 Z" id="Path" fill="#333333"></path>
            <g transform="translate(20.000000, 11.000000)" id="Path">
                <path d="M2.48571429,1.01052632 L0.128571429,2.77894737 C0.128571429,2.77894737 -0.257142857,7.62105263 3.72857143,7.62105263 L17.6571429,7.62105263 L16.2428571,3.78947368 C16.2857143,3.74736842 7.32857143,0.0842105263 2.48571429,1.01052632 Z" fill="#F4B500"></path>
                <path d="M16.2428571,5.34736842 L15.8142857,4.21052632 C14.5714286,3.70526316 8.52857143,1.43157895 4.24285714,1.43157895 C3.68571429,1.43157895 3.17142857,1.47368421 2.74285714,1.55789474 L0.728571429,3.07368421 C0.728571429,3.07368421 1.07142857,5.13684211 3.6,5.13684211 L16.2428571,5.34736842 Z" fill="#F39700"></path>
                <path d="M16.9714286,5.72631579 L3.47142857,5.72631579 C1.37142857,5.72631579 0.471428571,4.37894737 0.128571429,3.11578947 C0.128571429,4.25263158 0.428571429,7.62105263 3.72857143,7.62105263 L17.6571429,7.62105263 L16.9714286,5.72631579 Z" fill="#FFC043"></path>
                <path d="M6.9,1.22105263 L4.92857143,1.01052632 C4.75714286,1.01052632 4.62857143,0.842105263 4.62857143,0.673684211 L4.62857143,0.673684211 C4.62857143,0.505263158 4.8,0.378947368 4.97142857,0.378947368 L6.94285714,0.589473684 C7.11428571,0.589473684 7.24285714,0.757894737 7.24285714,0.926315789 L7.24285714,0.926315789 C7.24285714,1.09473684 7.07142857,1.22105263 6.9,1.22105263 Z" fill="#18252B"></path>
                <path d="M4.45714286,4.37894737 C4.45714286,4.37894737 3.25714286,4.50526316 2.48571429,3.78947368 L11.5714286,3.78947368 L2.27142857,3.24210526 L2.48571429,2.69473684 L7.28571429,2.69473684 L2.57142857,2.35789474 L2.78571429,1.85263158 L1.32857143,3.15789474 C1.32857143,3.15789474 1.92857143,4.71578947 4.41428571,4.71578947 L14.8714286,4.71578947 L4.45714286,4.37894737 Z" fill="#333333"></path>
            </g>
            <g transform="translate(20.000000, 5.000000)">
                <path d="M2.47058824,0.577777778 C2.47058824,0.577777778 1.64705882,0.533333333 1.15294118,1.6 L0.370588235,3.55555556 L1.07058824,3.86666667 L1.64705882,2.44444444 C1.64705882,2.44444444 1.89411765,1.46666667 2.42941176,1.46666667 L2.47058824,0.577777778 Z" id="Path" fill="#737373"></path>
                <g transform="translate(2.058824, 0.000000)">
                    <ellipse id="Oval" fill="#373A40" cx="1.07058824" cy="1.15555556" rx="1.07058824" ry="1.15555556"></ellipse>
                    <path d="M3.82941176,3.2 C3.74705882,3.2 3.66470588,3.2 3.58235294,3.15555556 L0.947058824,1.73333333 C0.658823529,1.6 0.535294118,1.2 0.7,0.888888889 C0.823529412,0.577777778 1.19411765,0.444444444 1.48235294,0.622222222 L4.11764706,2.04444444 C4.40588235,2.17777778 4.52941176,2.57777778 4.36470588,2.88888889 C4.24117647,3.06666667 4.03529412,3.2 3.82941176,3.2 Z" id="Path" fill="#333333"></path>
                </g>
            </g>
            <g transform="translate(33.000000, 19.000000)" id="Path">
                <path d="M1.37777778,0.3 L10.7111111,0.3 C10.7111111,0.3 11.3333333,0.3 11.5555556,0.728571429 L11.8666667,1.58571429 C11.8666667,1.58571429 12.0888889,2.22857143 11.3777778,2.52857143 L7.55555556,4.92857143 C7.55555556,4.92857143 6.4,5.61428571 5.02222222,5.52857143 L3.11111111,5.52857143 C3.11111111,5.52857143 1.73333333,5.4 1.2,4.02857143 L0.177777778,1.15714286 C0.222222222,1.2 -0.0444444444,0.3 1.37777778,0.3 Z" fill="#FFC043"></path>
                <path d="M11.7777778,1.92857143 L7.95555556,4.32857143 C7.95555556,4.32857143 6.8,5.01428571 5.42222222,4.92857143 L3.51111111,4.92857143 C3.51111111,4.92857143 2.17777778,4.8 1.6,3.42857143 L0.577777778,0.557142857 C0.577777778,0.557142857 0.577777778,0.514285714 0.577777778,0.428571429 C0.0888888889,0.685714286 0.222222222,1.2 0.222222222,1.2 L1.24444444,4.07142857 C1.77777778,5.44285714 3.15555556,5.57142857 3.15555556,5.57142857 L5.06666667,5.57142857 C6.44444444,5.65714286 7.6,4.97142857 7.6,4.97142857 L11.4222222,2.57142857 C11.8666667,2.4 11.9555556,2.05714286 11.9555556,1.84285714 C11.9111111,1.84285714 11.8666667,1.88571429 11.7777778,1.92857143 Z" fill="#F39700"></path>
                <path d="M5.28888889,5.01428571 C5.24444444,5.01428571 5.15555556,5.01428571 5.11111111,5.01428571 L3.2,5.01428571 C3.06666667,4.97142857 2.17777778,4.8 1.82222222,3.9 L0.8,1.07142857 C0.8,1.07142857 0.8,1.02857143 0.8,0.985714286 C0.844444444,0.942857143 1.02222222,0.857142857 1.37777778,0.857142857 L10.7111111,0.857142857 C10.8,0.857142857 10.9777778,0.9 11.0222222,0.942857143 L11.3333333,1.75714286 C11.3777778,1.88571429 11.2444444,1.97142857 11.1555556,2.01428571 L11.1111111,2.01428571 L7.24444444,4.45714286 C7.24444444,4.45714286 6.35555556,5.01428571 5.28888889,5.01428571 Z" fill="#FFC043"></path>
                <path d="M6.04444444,1.58571429 L1.73333333,1.58571429 C1.64444444,1.58571429 1.6,1.54285714 1.6,1.45714286 L1.6,1.45714286 C1.6,1.37142857 1.64444444,1.32857143 1.73333333,1.32857143 L6.04444444,1.32857143 C6.13333333,1.32857143 6.17777778,1.37142857 6.17777778,1.45714286 L6.17777778,1.45714286 C6.13333333,1.54285714 6.08888889,1.58571429 6.04444444,1.58571429 Z" fill="#FFFFFF"></path>
                <path d="M6.26666667,2.14285714 L1.95555556,2.14285714 C1.86666667,2.14285714 1.82222222,2.1 1.82222222,2.01428571 L1.82222222,2.01428571 C1.82222222,1.92857143 1.86666667,1.88571429 1.95555556,1.88571429 L6.26666667,1.88571429 C6.35555556,1.88571429 6.4,1.92857143 6.4,2.01428571 L6.4,2.01428571 C6.35555556,2.1 6.31111111,2.14285714 6.26666667,2.14285714 Z" fill="#FFFFFF"></path>
                <path d="M6.48888889,2.7 L2.17777778,2.7 C2.08888889,2.7 2.04444444,2.65714286 2.04444444,2.57142857 L2.04444444,2.57142857 C2.04444444,2.48571429 2.08888889,2.44285714 2.17777778,2.44285714 L6.48888889,2.44285714 C6.57777778,2.44285714 6.62222222,2.48571429 6.62222222,2.57142857 L6.62222222,2.57142857 C6.57777778,2.65714286 6.53333333,2.7 6.48888889,2.7 Z" fill="#FFFFFF"></path>
                <path d="M6.71111111,3.25714286 L2.4,3.25714286 C2.31111111,3.25714286 2.26666667,3.21428571 2.26666667,3.12857143 L2.26666667,3.12857143 C2.26666667,3.04285714 2.31111111,3 2.4,3 L6.71111111,3 C6.8,3 6.84444444,3.04285714 6.84444444,3.12857143 L6.84444444,3.12857143 C6.8,3.21428571 6.75555556,3.25714286 6.71111111,3.25714286 Z" fill="#FFFFFF"></path>
                <path d="M6.93333333,3.85714286 L2.62222222,3.85714286 C2.53333333,3.85714286 2.48888889,3.81428571 2.48888889,3.72857143 L2.48888889,3.72857143 C2.48888889,3.64285714 2.53333333,3.6 2.62222222,3.6 L6.93333333,3.6 C7.02222222,3.6 7.06666667,3.64285714 7.06666667,3.72857143 L7.06666667,3.72857143 C7.02222222,3.77142857 6.97777778,3.85714286 6.93333333,3.85714286 Z" fill="#FFFFFF"></path>
            </g>
            <g transform="translate(36.000000, 14.000000)" id="Path">
                <path d="M1.84285714,0.5 L7.92857143,0.5 L10.7142857,0 L19.9714286,0 C19.9714286,0 21.0428571,1.79166667 20.5714286,4.625 L1.8,4.625 L0.385714286,0.833333333 C0.385714286,0.791666667 1.02857143,0.5 1.84285714,0.5 Z" fill="#F4B500"></path>
                <path d="M1.54285714,2.375 L1.11428571,1.16666667 C1.32857143,1.125 1.58571429,1.08333333 1.84285714,1.08333333 L7.97142857,1.08333333 L10.7571429,0.541666667 L19.5857143,0.541666667 C19.7142857,0.875 19.9714286,1.5 20.0571429,2.375 L1.54285714,2.375 Z" fill="#F39700"></path>
                <path d="M1.11428571,2.79166667 L1.8,4.625 L20.5714286,4.625 C20.7,3.95833333 20.7,3.33333333 20.7,2.79166667 L1.11428571,2.79166667 Z" fill="#FFC043"></path>
            </g>
            <path d="M41.3104599,25.6170199 L41.3104599,25.6170199 C40.8681286,25.1599739 40.9123617,24.3829957 41.3546931,23.9259498 L44.0529142,21.3207877 C44.4952455,20.8637417 45.2472087,20.9094463 45.6895401,21.3664923 L45.6895401,21.3664923 C46.1318714,21.8235383 46.0876383,22.6005164 45.6453069,23.0575624 L42.9470858,25.6627245 C42.4605214,26.1197705 41.7085581,26.1197705 41.3104599,25.6170199 Z" id="Path" fill="#AAADB3"></path>
            <path d="M36.084023,25.1958178 C36.2940805,24.9604599 36.7982185,25.0075315 37.0502875,25.0075315 C37.512414,25.0075315 37.9745405,25.0075315 38.436667,25.0075315 C38.856782,25.0075315 39.276897,25.0075315 39.697012,25.0075315 C39.9910925,25.0075315 40.285173,24.9604599 40.5792535,25.1016746 C40.873334,25.2428894 41.04138,25.5723905 41.209426,25.8077485 C41.377472,26.0431064 41.545518,26.2313928 41.6715525,26.4667507 C41.713564,26.5608939 41.8395985,26.6550371 41.88161,26.7491802 C42.1756905,27.4552541 41.8395985,28.3966859 41.7555755,29.1027597 C41.6715525,29.526404 41.6715525,29.9971199 41.3354605,30.2324778 C40.9993685,30.4678358 40.5792535,30.4678358 40.1591385,30.5619789 C39.3189085,30.7031937 38.4786785,30.8444085 37.6384485,30.9856232 C37.2183335,31.0326948 36.924253,30.9856232 36.756207,30.5149073 C36.6301725,30.1383346 36.6301725,29.7146903 36.588161,29.3381176 C36.4621265,28.5849722 36.336092,27.8318268 36.252069,27.0786814 C36.2100575,26.7021087 36.1260345,26.3255359 36.084023,25.9018916 C36.0420115,25.7606769 36,25.6194621 36,25.4782473 C36,25.3370326 36.0420115,25.2428894 36.084023,25.1958178 Z" id="Path" fill="#333333"></path>
            <path d="M40.6039604,27 L37.3960396,27 C37.1584158,27 37,26.75 37,26.5 L37,26.5 C37,26.2 37.1980198,26 37.3960396,26 L40.6039604,26 C40.8415842,26 41,26.25 41,26.5 L41,26.5 C41,26.75 40.8415842,27 40.6039604,27 Z" id="Path" fill="url(#linearGradient-4)"></path>
            <circle id="Oval" fill="#737373" cx="33.5" cy="23.5" r="1.5"></circle>
            <path d="M9.34276727,29.9226472 L9.34276727,29.9226472 C9.03482411,29.7499464 8.90284846,29.4045449 9.07881599,29.0591434 L16.7773951,14.3364039 C16.9533626,14.0341776 17.3052977,13.904652 17.6572327,14.0773528 L17.6572327,14.0773528 C17.9651759,14.2500536 18.0971515,14.5954551 17.921184,14.9408566 L10.2226049,29.6635961 C10.0466374,29.9658224 9.65071044,30.095348 9.34276727,29.9226472 Z" id="Path" fill="#C5C6CA"></path>
            <g transform="translate(16.000000, 8.000000)" id="Path">
                <path d="M0.772727273,6.83529412 L0.772727273,6.83529412 C0.318181818,6.62941176 0.0909090909,6.21764706 0.272727273,5.92941176 L3.18181818,0.658823529 C3.36363636,0.370588235 3.86363636,0.288235294 4.27272727,0.494117647 L4.27272727,0.494117647 C4.72727273,0.7 4.95454545,1.11176471 4.77272727,1.4 L1.86363636,6.67058824 C1.68181818,6.95882353 1.22727273,7.04117647 0.772727273,6.83529412 Z" fill="#AAADB3"></path>
                <path d="M0.727272727,6.83529412 L0.727272727,6.83529412 C0.545454545,6.75294118 0.545454545,6.46470588 0.727272727,6.17647059 L3.68181818,0.905882353 C3.86363636,0.617647059 4.13636364,0.452941176 4.27272727,0.535294118 L4.27272727,0.535294118 C4.45454545,0.617647059 4.45454545,0.905882353 4.27272727,1.19411765 L1.36363636,6.42352941 C1.18181818,6.71176471 0.909090909,6.87647059 0.727272727,6.83529412 Z" fill="#C5C6CA"></path>
            </g>
            <path d="M11.4849168,25 L9.07860817,29.8268099 C8.90036309,30.1910974 9.0340469,30.6464568 9.39053707,30.8286006 L9.56878215,30.9196725 C9.92527232,31.1018162 10.370885,30.9652084 10.5491301,30.6009209 L13,25.7285751 L11.4849168,25 Z" id="Path" fill="#18252B"></path>
            <g transform="translate(25.000000, 20.000000)" id="Path">
                <path d="M3.92,6.86 L0.886666667,3.82666667 C0.886666667,3.82666667 -0.326666667,2.94 0.98,2.33333333 L5.6,0.233333333 C5.6,0.233333333 6.90666667,-0.513333333 6.86,0.98 L6.95333333,5.83333333 L3.92,6.86 Z" fill="#F39700"></path>
                <path d="M6.3,2.14666667 L1.91333333,4.06 C1.82,4.10666667 1.77333333,4.2 1.82,4.29333333 L1.82,4.29333333 C1.86666667,4.38666667 1.96,4.43333333 2.05333333,4.38666667 L6.44,2.47333333 C6.53333333,2.42666667 6.58,2.33333333 6.53333333,2.24 L6.53333333,2.24 C6.48666667,2.14666667 6.34666667,2.1 6.3,2.14666667 Z" fill="#FFFFFF"></path>
                <path d="M6.25333333,1.35333333 L1.4,3.5 C1.30666667,3.54666667 1.26,3.64 1.30666667,3.73333333 L1.30666667,3.73333333 C1.35333333,3.82666667 1.44666667,3.87333333 1.54,3.82666667 L6.39333333,1.72666667 C6.48666667,1.68 6.53333333,1.58666667 6.48666667,1.49333333 L6.48666667,1.49333333 C6.48666667,1.35333333 6.34666667,1.30666667 6.25333333,1.35333333 Z" fill="#FFFFFF"></path>
                <path d="M6.34666667,2.89333333 L2.38,4.62 C2.28666667,4.66666667 2.28666667,4.76 2.28666667,4.80666667 L2.28666667,4.80666667 C2.33333333,4.9 2.42666667,4.9 2.47333333,4.9 L6.44,3.17333333 C6.53333333,3.12666667 6.53333333,3.03333333 6.53333333,2.98666667 L6.53333333,2.98666667 C6.53333333,2.89333333 6.44,2.84666667 6.34666667,2.89333333 Z" fill="#FFFFFF"></path>
                <path d="M6.44,3.68666667 L2.89333333,5.22666667 C2.84666667,5.27333333 2.8,5.32 2.8,5.41333333 L2.8,5.41333333 C2.84666667,5.46 2.89333333,5.50666667 2.98666667,5.50666667 L6.53333333,3.96666667 C6.58,3.92 6.62666667,3.87333333 6.62666667,3.78 L6.62666667,3.78 C6.58,3.68666667 6.48666667,3.64 6.44,3.68666667 Z" fill="#FFFFFF"></path>
                <path d="M6.44,4.29333333 L3.31333333,5.64666667 C3.26666667,5.69333333 3.22,5.74 3.26666667,5.78666667 L3.26666667,5.78666667 C3.31333333,5.83333333 3.36,5.88 3.40666667,5.83333333 L6.53333333,4.48 C6.58,4.43333333 6.62666667,4.38666667 6.58,4.34 L6.58,4.34 C6.58,4.29333333 6.48666667,4.24666667 6.44,4.29333333 Z" fill="#FFFFFF"></path>
            </g>
            <path d="M30.6931934,19.9106386 L25.7342977,21.9537581 C25.477803,22.0716304 25.1358102,21.9537581 25.050312,21.7180136 L25.050312,21.7180136 C24.9220647,21.482269 25.050312,21.1679429 25.3068066,21.0893614 L30.2657023,19.0462419 C30.522197,18.9283696 30.8641898,19.0462419 30.949688,19.2819864 L30.949688,19.2819864 C31.0779353,19.517731 30.949688,19.7927663 30.6931934,19.9106386 Z" id="Path" fill="#FFC043"></path>
            <path d="M33.5820896,31 L29.4179104,31 C28.0746269,31 27,30 27,28.75 L27,28.25 C27,27 28.0746269,26 29.4179104,26 L33.5820896,26 C34.9253731,26 36,27 36,28.25 L36,28.75 C36,30 34.9253731,31 33.5820896,31 Z" id="Path" fill="#FFC043"></path>
            <path d="M32.9993311,30 L32.9993311,30 C31.8976589,30 31,29.1020408 31,28 L31,28 C31,26.8979592 31.8976589,26 32.9993311,26 L32.9993311,26 C34.1010034,26 34.9986623,26.8979592 34.9986623,28 L34.9986623,28 C35.0394649,29.1020408 34.1418061,30 32.9993311,30 Z" id="Path" fill="#F39700"></path>
        </g>
    </g>
</svg>