<?xml version="1.0" encoding="UTF-8"?>
<svg width="22px" height="18px" viewBox="0 0 22 18" version="1.1" xmlns="http://www.w3.org/2000/svg" xmlns:xlink="http://www.w3.org/1999/xlink">
    <!-- Generator: sketchtool 64 (101010) - https://sketch.com -->
    <title>9BF3DDE7-865F-4E84-B8B3-3B46F9EF8F7A</title>
    <desc>Created with sketchtool.</desc>
    <g id="Page-1" stroke="none" stroke-width="1" fill="none" fill-rule="evenodd">
        <g id="Chat-screen-support" transform="translate(-264.000000, -587.000000)" fill="#215549" fill-rule="nonzero" stroke="#215549" stroke-width="0.5">
            <g id="camera-(1)" transform="translate(265.000000, 588.000000)">
                <path d="M19.3254157,2.48931116 C18.9263658,2.07125891 18.3752969,1.82422803 17.7482185,1.82422803 L14.5938242,1.82422803 L14.5938242,1.78622328 C14.5938242,1.3111639 14.4038005,0.855106888 14.0807601,0.551068884 C13.7577197,0.228028504 13.3206651,0.0380047506 12.8456057,0.0380047506 L7.14489311,0.0380047506 C6.65083135,0.0380047506 6.21377672,0.228028504 5.89073634,0.551068884 C5.56769596,0.874109264 5.37767221,1.3111639 5.37767221,1.78622328 L5.37767221,1.82422803 L2.24228029,1.82422803 C1.6152019,1.82422803 1.06413302,2.07125891 0.665083135,2.48931116 C0.266033254,2.88836105 1.35019997e-15,3.4584323 1.35019997e-15,4.06650831 L1.35019997e-15,13.5296912 C1.35019997e-15,14.1567696 0.247030879,14.7078385 0.665083135,15.1068884 C1.06413302,15.5059382 1.63420428,15.7719715 2.24228029,15.7719715 L17.7482185,15.7719715 C18.3752969,15.7719715 18.9263658,15.5249406 19.3254157,15.1068884 C19.7244656,14.7078385 19.9904988,14.1377672 19.9904988,13.5296912 L19.9904988,4.06650831 C19.9904988,3.43942993 19.7434679,2.88836105 19.3254157,2.48931116 Z M19.0023753,13.5296912 L18.9833729,13.5296912 C18.9833729,13.871734 18.8503563,14.175772 18.6223278,14.4038005 C18.3942993,14.631829 18.0902613,14.7648456 17.7482185,14.7648456 L2.24228029,14.7648456 C1.90023753,14.7648456 1.59619952,14.631829 1.36817102,14.4038005 C1.14014252,14.175772 1.00712589,13.871734 1.00712589,13.5296912 L1.00712589,4.06650831 C1.00712589,3.72446556 1.14014252,3.42042755 1.36817102,3.19239905 C1.59619952,2.96437055 1.90023753,2.83135392 2.24228029,2.83135392 L5.90973872,2.83135392 C6.19477435,2.83135392 6.42280285,2.60332542 6.42280285,2.31828979 L6.42280285,1.7672209 C6.42280285,1.55819477 6.49881235,1.36817102 6.63182898,1.23515439 C6.76484561,1.10213777 6.95486936,1.02612827 7.16389549,1.02612827 L12.8456057,1.02612827 C13.0546318,1.02612827 13.2446556,1.10213777 13.3776722,1.23515439 C13.5106888,1.36817102 13.5866983,1.55819477 13.5866983,1.7672209 L13.5866983,2.31828979 C13.5866983,2.60332542 13.8147268,2.83135392 14.0997625,2.83135392 L17.7672209,2.83135392 C18.1092637,2.83135392 18.4133017,2.96437055 18.6413302,3.19239905 C18.8693587,3.42042755 19.0023753,3.72446556 19.0023753,4.06650831 L19.0023753,13.5296912 Z" id="Shape"></path>
                <path d="M9.99524941,4.12351544 C8.70308789,4.12351544 7.52494062,4.65558195 6.6888361,5.49168646 C5.83372922,6.34679335 5.32066508,7.50593824 5.32066508,8.79809976 C5.32066508,10.0902613 5.85273159,11.2684086 6.6888361,12.1045131 C7.54394299,12.95962 8.70308789,13.4726841 9.99524941,13.4726841 C11.2874109,13.4726841 12.4655582,12.9406176 13.3016627,12.1045131 C14.1567696,11.2494062 14.6698337,10.0902613 14.6698337,8.79809976 C14.6698337,7.50593824 14.1377672,6.32779097 13.3016627,5.49168646 C12.4655582,4.65558195 11.2874109,4.12351544 9.99524941,4.12351544 Z M12.5795724,11.4014252 C11.9144893,12.0475059 11.0023753,12.4655582 9.99524941,12.4655582 C8.98812352,12.4655582 8.0760095,12.0475059 7.41092637,11.4014252 C6.74584323,10.736342 6.34679335,9.82422803 6.34679335,8.81710214 C6.34679335,7.80997625 6.76484561,6.89786223 7.41092637,6.2327791 C8.0760095,5.56769596 8.98812352,5.16864608 9.99524941,5.16864608 C11.0023753,5.16864608 11.9144893,5.58669834 12.5795724,6.2327791 C13.2446556,6.89786223 13.6437055,7.80997625 13.6437055,8.81710214 C13.6627078,9.82422803 13.2446556,10.736342 12.5795724,11.4014252 Z" id="Shape"></path>
                <circle id="Oval" cx="16.760095" cy="5.03562945" r="1"></circle>
            </g>
        </g>
    </g>
</svg>