<?xml version="1.0" encoding="utf-8"?>
<!-- Generator: Adobe Illustrator 25.3.1, SVG Export Plug-In . SVG Version: 6.00 Build 0)  -->
<svg version="1.1" id="Layer_1" xmlns="http://www.w3.org/2000/svg" xmlns:xlink="http://www.w3.org/1999/xlink" x="0px" y="0px"
	 viewBox="0 0 52 52" style="enable-background:new 0 0 52 52;" xml:space="preserve">
<style type="text/css">
	.st0{fill:#C60B2B;}
		#Layer_1{
animation: Layer_1-anim 1.5s infinite;
animation-duration:1.5 s;
s
<!-- animation-timing-function: cubic-bezier(0.61, 0.04, 0.43, 1); -->
animation-timing-function: cubic-bezier(1, 1, 1, 1);
opacity:1;
transform:scale(1);
transform:position(1);
}

@keyframes Layer_1-anim{
 33% { 
 opacity:1; 
 }
  33%,66% { 
  opacity:0;
  }
  66%,100% { 
  opacity:1;
  }

  50% { scale:0.5;}
  51%,100% {scale:1;}

</style>
<desc>Created with Sketch.</desc>
<g id="Page-1">
	<g id="Alert-message-task-end" transform="translate(-155.000000, -217.000000)">
		<g id="cancel" transform="translate(155.000000, 217.000000)">
			<path id="Shape" class="st0" d="M44.4,7.6C34.2-2.5,17.8-2.5,7.6,7.6c-10.1,10.1-10.1,26.6,0,36.8C12.7,49.5,19.3,52,26,52
				s13.3-2.5,18.4-7.6C54.5,34.3,54.5,17.7,44.4,7.6z M37.4,34.3c0.9,0.9,0.9,2.2,0,3.1c-0.4,0.4-1,0.6-1.6,0.6
				c-0.6,0-1.1-0.2-1.6-0.6l-7.8-7.8l-7.8,7.8c-0.4,0.4-1,0.6-1.6,0.6c-0.6,0-1.1-0.2-1.6-0.6c-0.9-0.9-0.9-2.2,0-3.1l7.8-7.8
				l-7.8-7.8c-0.9-0.9-0.9-2.2,0-3.1c0.9-0.9,2.2-0.9,3.1,0l7.8,7.8l7.8-7.8c0.9-0.9,2.2-0.9,3.1,0c0.9,0.9,0.9,2.2,0,3.1l-7.8,7.8
				L37.4,34.3z"/>
		</g>
	</g>
</g>
</svg>
