<?xml version="1.0" encoding="UTF-8"?>
<svg width="32px" height="32px" viewBox="0 0 32 32" version="1.1" xmlns="http://www.w3.org/2000/svg" xmlns:xlink="http://www.w3.org/1999/xlink">
    <!-- Generator: sketchtool 64 (101010) - https://sketch.com -->
    <title>83ED4685-39D6-433A-96E0-2A69FDD01341</title>
    <desc>Created with sketchtool.</desc>
    <g id="Page-1" stroke="none" stroke-width="1" fill="none" fill-rule="evenodd">
        <g id="Settings-1-Copy-2" transform="translate(-38.000000, -304.000000)">
            <g id="Group-14" transform="translate(38.000000, 304.000000)">
                <g id="Group-9-Copy" fill="#FFF7E5">
                    <circle id="Oval-Copy-5" cx="16" cy="16" r="16"></circle>
                </g>
                <g id="ic_person_add" transform="translate(9.000000, 9.000000)" fill="#FFC043">
                    <path d="M6.87878788,6.78787879 C8.75393939,6.78787879 10.2727273,5.26909091 10.2727273,3.39393939 C10.2727273,1.51878788 8.75393939,0 6.87878788,0 C5.00363636,0 3.48484848,1.51878788 3.48484848,3.39393939 C3.48484848,5.26909091 5.00363636,6.78787879 6.87878788,6.78787879 L6.87878788,6.78787879 Z M6.87878788,8.48484848 C4.61333333,8.48484848 0.0909090909,9.62181818 0.0909090909,11.8787879 L0.0909090909,13.5757576 L13.6666667,13.5757576 L13.6666667,11.8787879 C13.6666667,9.62181818 9.14424242,8.48484848 6.87878788,8.48484848 L6.87878788,8.48484848 Z" id="Shape"></path>
                </g>
            </g>
        </g>
    </g>
</svg>