<?xml version="1.0" encoding="UTF-8"?>
<svg width="103px" height="103px" viewBox="0 0 103 103" version="1.1" xmlns="http://www.w3.org/2000/svg" xmlns:xlink="http://www.w3.org/1999/xlink">
    <!-- Generator: sketchtool 64 (101010) - https://sketch.com -->
    <title>73A8ED9F-B909-4EEA-8D2A-D4B442491E8C</title>
    <desc>Created with sketchtool.</desc>
    <defs>
        <circle id="path-1" cx="51.5" cy="51.5" r="51.5"></circle>
    </defs>
    <g id="Page-1" stroke="none" stroke-width="1" fill="none" fill-rule="evenodd">
        <g id="Audio-general-tasker" transform="translate(-128.000000, -217.000000)">
            <g id="Group-5" transform="translate(64.000000, 152.000000)">
                <g id="Asset-7@3x" transform="translate(64.000000, 65.000000)">
                    <mask id="mask-2" fill="white">
                        <use xlink:href="#path-1"></use>
                    </mask>
                    <use id="Mask" fill="#FFFFFF" xlink:href="#path-1"></use>
                    <path d="M89.848809,87.8137874 C85.8436456,81.2119714 72.5465787,81.0225363 66.8219508,81.0623176 C64.5683386,81.0774725 62.1448562,79.2456343 61.9145876,75.4455646 C61.8579554,73.9237486 61.9585268,72.4001378 62.2146917,70.8991203 C65.2742439,68.1523102 67.5618302,64.155228 69.0340391,59.669403 C69.919252,60.8912599 71.2612271,59.669403 71.425435,58.5214258 C71.7255391,56.4376388 72.5409164,54.0033968 72.7277737,51.4005574 C72.914631,48.7977181 70.9913221,49.1652223 70.9913221,49.1652223 L70.9441359,49.2618343 C70.9441359,49.1784828 70.9441359,49.0951313 70.9554606,49.0117798 C71.1781794,48.0248225 72.3446219,42.3133519 71.387686,34.7870923 C70.6912179,29.3086269 65.5365991,23.3433132 56.6146353,22.3582502 L57.8358138,21.5588338 C55.4368681,21.134499 53.3153773,21.7331141 51.9111164,22.3430954 C51.7223717,22.3639333 51.5166399,22.3866655 51.3203454,22.4131864 C52.3848657,21.6554457 53.4229618,21 53.4229618,21 C49.6971406,21.2708923 46.6055018,23.121674 45.4182974,23.9267735 C43.9479759,23.4797065 41.6603896,23.0951531 39.2199202,23.8737317 L41.0526316,24.7508165 C36.8530611,26.1299046 31.0699223,31.1916126 33.9350675,49.1519619 C33.5858897,49.1159692 32.1080184,49.09892 32.2722263,51.3967687 C32.4609711,53.9996081 33.2744609,56.4376388 33.574565,58.5176371 C33.7387729,59.6542481 35.0845229,60.8912599 35.9697358,59.6542481 C37.4419447,64.1438619 39.7314184,68.1409441 42.7909706,70.8896486 C43.0471356,72.390666 43.1477069,73.9142768 43.0910748,75.4360928 C42.8589187,79.2361625 40.4354363,81.0680007 38.1837115,81.0528459 C32.4553087,81.0130645 19.1582419,81.2024997 15.1568534,87.8043156 C11.1554649,94.4061316 9,102.6674 9,102.6674 L52.5,108 L96,102.6674 C96,102.6674 93.8539723,94.4156034 89.848809,87.8137874 Z M34.9745195,48.9441166 L35.0254805,48.9441166 C35.0254805,48.9801093 35.0254805,49.0179963 35.0254805,49.0558834 L34.9745195,48.9441166 Z" id="Shape" fill="#333333" fill-rule="nonzero" mask="url(#mask-2)"></path>
                </g>
            </g>
        </g>
    </g>
</svg>