<?xml version="1.0" encoding="UTF-8"?>
<svg width="20px" height="20px" viewBox="0 0 20 20" version="1.1" xmlns="http://www.w3.org/2000/svg" xmlns:xlink="http://www.w3.org/1999/xlink">
    <!-- Generator: sketchtool 64 (101010) - https://sketch.com -->
    <title>91902AB0-835F-483B-B168-0EE158560808</title>
    <desc>Created with sketchtool.</desc>
    <g id="Page-1" stroke="none" stroke-width="1" fill="none" fill-rule="evenodd">
        <g id="Chat-screen-support" transform="translate(-277.000000, -31.000000)" fill="#215549" fill-rule="nonzero">
            <g id="call" transform="translate(277.000000, 31.000000)">
                <g id="phone-receiver">
                    <g id="Group_491-2">
                        <path d="M19.99,15.774 C20.035212,16.0884727 19.9230683,16.4050918 19.69,16.621 L16.878,19.412 C16.7364853,19.5635498 16.5666098,19.6858601 16.378,19.772 C16.1889934,19.8660965 15.9866207,19.9305185 15.778,19.963 C15.764,19.963 15.7216667,19.9666667 15.651,19.974 C15.5803333,19.9813333 15.4886667,19.985 15.376,19.985 C14.9400697,19.9681028 14.5057625,19.9219994 14.076,19.847 C13.318772,19.7074198 12.580437,19.4798783 11.876,19.169 C10.8440664,18.7200599 9.85529267,18.1778076 8.922,17.549 C7.64782106,16.6876987 6.46737868,15.6952825 5.4,14.588 C4.50782417,13.7235894 3.68651691,12.7889177 2.944,11.793 C2.36301685,11.0103848 1.84027834,10.1861692 1.38,9.327 C1.02607557,8.66859138 0.728352265,7.98148614 0.49,7.273 C0.317035835,6.75444562 0.183325242,6.22361456 0.09,5.685 C0.0249521054,5.33956589 -0.005199534,4.9884668 1.0093391e-13,4.637 C0.0166666667,4.383 0.025,4.24133333 0.025,4.212 C0.0575125271,4.00338663 0.121933037,3.80101854 0.216,3.612 C0.302184861,3.42341633 0.424489293,3.25354906 0.576,3.112 L3.391,0.296 C3.56586029,0.106642821 3.81126364,-0.00194273253 4.069,-0.00408459841 C4.24448836,-0.00656759765 4.41583523,0.0493752229 4.556,0.155 C4.69882172,0.26270704 4.82081539,0.395544589 4.916,0.547 L7.181,4.847 C7.30801159,5.07196596 7.34584561,5.33644718 7.287,5.588 C7.23681622,5.84467319 7.11151667,6.08065401 6.927,6.266 L5.89,7.305 C5.85531307,7.34487993 5.83002428,7.3920401 5.816,7.443 C5.7971145,7.49400908 5.78631754,7.54765648 5.784,7.602 C5.86204741,7.95705906 5.99033934,8.2991709 6.165,8.618 C6.39310272,9.05089544 6.65491052,9.46517367 6.948,9.857 C7.40109948,10.4581046 7.90278457,11.0209952 8.448,11.54 C8.97079067,12.089651 9.53731595,12.5959788 10.142,13.054 C10.534478,13.3494007 10.9486497,13.6148182 11.381,13.848 C11.6211849,13.9817491 11.8771777,14.0848853 12.143,14.155 L12.408,14.208 C12.4552856,14.2039368 12.5017518,14.1931621 12.546,14.176 C12.5969472,14.161944 12.6441007,14.1366588 12.684,14.102 L13.891,12.874 C14.1338503,12.6527238 14.4514762,12.5316044 14.78,12.535 C14.9786168,12.52514 15.1762181,12.569013 15.352,12.662 L15.373,12.662 L19.459,15.076 C19.7280313,15.2216074 19.9214601,15.4758698 19.99,15.774 Z" id="Path_1189"></path>
                    </g>
                </g>
            </g>
        </g>
    </g>
</svg>