<?xml version="1.0" encoding="UTF-8"?>
<svg width="44px" height="35px" viewBox="0 0 44 35" version="1.1" xmlns="http://www.w3.org/2000/svg" xmlns:xlink="http://www.w3.org/1999/xlink">
    <!-- Generator: Sketch 64 (93537) - https://sketch.com -->
    <title>Group</title>
    <desc>Created with Sketch.</desc>
    <g id="Page-1" stroke="none" stroke-width="1" fill="none" fill-rule="evenodd">
        <g id="Group">
            <g>
                <path d="M25.1680668,17.0227408 C25.7191924,17.1620757 26.5977983,17.3730685 26.7056273,18.4041466 C26.7655322,18.965467 26.4700011,19.8373053 26.2184003,20.3428918 C25.6672748,21.4535898 24.9204597,22.4528199 24.1776383,23.444088 L24.2894609,23.523708 C24.0897777,23.5913849 23.9659742,23.8222827 23.9060692,24.0810475 C23.8461643,24.3398122 24.0338664,24.7617979 24.2215686,24.9489047 C24.3094292,25.0325056 24.4292391,25.1001826 24.549049,25.0723156 C24.6369096,25.0484296 24.7048019,24.9807527 24.7647068,24.9130757 C25.7351671,23.8183017 26.5498744,22.5881738 27.1848669,21.270464 C27.480398,20.6613715 27.7359924,20.0204311 27.8198594,19.3476427 C27.9037263,18.6748543 27.799891,17.9622559 27.420493,17.3969545 C27.041095,16.835634 25.6233445,15.9637957 24.9484154,16.0513777 L25.1680668,17.0227408 Z" id="Path" fill="#F39700" fill-rule="nonzero"></path>
                <g transform="translate(0.000000, 5.095675)" fill-rule="nonzero" id="Path">
                    <path d="M14.6287891,13.419939 L0.519176244,13.419939 C0.243613468,13.419939 0.0239619805,13.1970032 0.0239619805,12.9262954 L0.0239619805,0.505586548 C0.0239619805,0.230897794 0.247607132,0.0119429893 0.519176244,0.0119429893 L14.6287891,0.0119429893 C14.9043519,0.0119429893 15.1240034,0.23487879 15.1240034,0.505586548 L15.1240034,12.9262954 C15.1240034,13.2009842 14.9003582,13.419939 14.6287891,13.419939 Z" fill="#333333"></path>
                    <path d="M15.4395028,13.419939 L1.32988992,13.419939 C1.05432714,13.419939 0.834675654,13.1970032 0.834675654,12.9262954 L0.834675654,0.505586548 C0.834675654,0.230897794 1.05832081,0.0119429893 1.32988992,0.0119429893 L15.4395028,0.0119429893 C15.7150655,0.0119429893 15.934717,0.23487879 15.934717,0.505586548 L15.934717,12.9262954 C15.934717,13.2009842 15.7150655,13.419939 15.4395028,13.419939 Z" fill="#F39700"></path>
                </g>
                <g transform="translate(5.511256, 18.432014)" id="Path" stroke="#333333" stroke-linecap="round" stroke-linejoin="round" stroke-width="0.5">
                    <line x1="1.54155408" y1="0.0238859787" x2="6.03043176" y2="3.39180897"></line>
                    <line x1="10.4234615" y1="0.086563717" x2="0.0119809902" y2="0.086563717"></line>
                </g>
                <g transform="translate(23.107194, 3.065367)" fill-rule="nonzero">
                    <polygon id="Rectangle" fill="#FE9592" transform="translate(1.436674, 1.692354) rotate(10.632326) translate(-1.436674, -1.692354) " points="0.523129197 0.174014116 2.3519711 0.172962121 2.35021854 3.21069435 0.521376637 3.21174634"></polygon>
                    <path d="M0.822837618,0.035828968 L0.60318613,1.19031794 C1.23817861,1.76756242 1.7094309,2.50404676 2.0688606,3.28830306 L2.61998616,0.370232669 L0.822837618,0.035828968 Z" id="Path" fill="#FB7874"></path>
                </g>
                <g transform="translate(18.890028, 5.135485)" fill-rule="nonzero" id="Path">
                    <path d="M5.63106542,8.62283829 C5.99049512,6.52883416 6.32596285,5.02799851 6.59753196,2.9101084 C6.72532919,1.92680228 6.09832404,0.505586548 5.17578779,0.159239858 C4.51283966,-0.0915629182 3.74206262,-0.0119429893 3.11505746,0.322460712 C2.1286226,0.851933239 1.62941467,1.95865025 1.25001665,2.95389936 C0.742821395,4.29549516 0.47923961,5.7007869 0.219651488,7.10209765 C0.0519176244,8.01374584 -0.103835249,9.00103295 0.179714854,9.8410232 C2.06073032,9.91666214 3.96171411,9.49069552 5.63106542,8.62283829 Z" fill="#FFC043"></path>
                    <path d="M6.54561434,2.07011815 C6.52963968,4.84885367 5.36748363,7.42057737 3.49445549,9.45486655 C4.23328322,9.25183573 4.95214264,8.97714698 5.63106542,8.62283829 C5.99049512,6.52883416 6.32596285,5.02799851 6.59753196,2.9101084 C6.62948127,2.65134363 6.60951295,2.36073089 6.54561434,2.07011815 Z" fill="#F39700"></path>
                    <path d="M10.5352841,10.6531465 C9.824412,9.6220684 8.52247773,8.92539402 7.32038504,8.73828719 C7.14067019,8.71042021 5.6550274,8.47952242 5.61509076,8.71042021 C5.61908443,8.67857224 5.62707175,8.65070527 5.63106542,8.62283829 C3.96171411,9.49069552 2.06472399,9.92064313 0.183708517,9.8410232 C0.235626142,9.99628207 0.299524756,10.1435789 0.387385351,10.2868948 C1.31391526,11.8434644 3.35068361,11.6085856 4.89223768,11.6404336 C5.92659651,11.6603386 7.83157396,11.6603386 8.15905436,12.9342574 C8.24691495,13.2766231 8.21097198,13.6349128 8.14707337,13.9852405 C7.95937119,15.0083566 7.52406188,15.9677767 7.02884761,16.8754439 C6.91303137,17.0864367 5.53921116,19.4352246 5.50726185,19.4113386 C5.77084364,19.5825215 6.03043176,19.7497233 6.29401354,19.9209062 C6.58954464,20.111994 8.02726347,18.4121085 8.20298466,18.1692678 C8.80602783,17.3252965 9.42903932,16.4733633 9.97217755,15.5895821 C10.5712271,14.6142379 11.046473,13.5274259 11.0744287,12.3848799 C11.0864096,11.7359775 10.8787391,11.154752 10.5352841,10.6531465 Z" fill="#FFC043"></path>
                    <path d="M8.42263614,12.0823242 C7.01287296,9.87287118 2.55195092,12.5998537 0.810713673,9.8450042 C0.603043176,9.8489852 0.391379015,9.8489852 0.183708517,9.8410232 C0.235626142,9.99628207 0.299524756,10.1435789 0.387385351,10.2868948 C1.31391526,11.8434644 3.35068361,11.6085856 4.89223768,11.6404336 C5.92659651,11.6603386 7.83157396,11.6603386 8.15905436,12.9342574 C8.24691495,13.2766231 8.21097198,13.6349128 8.14707337,13.9852405 C7.95937119,15.0083566 7.52406188,15.9677767 7.02884761,16.8754439 C6.91303137,17.0864367 5.53921116,19.4352246 5.50726185,19.4113386 C5.55518581,19.4431866 5.60310977,19.4750346 5.6550274,19.5068826 C7.75968802,17.2257716 10.1199431,14.7894018 8.42263614,12.0823242 Z" fill="#F39700"></path>
                </g>
                <g transform="translate(8.412125, 8.917432)" fill-rule="nonzero">
                    <g transform="translate(0.000000, 13.336338)" id="Oval">
                        <circle fill="#333333" transform="translate(8.005057, 7.383325) rotate(-45.000000) translate(-8.005057, -7.383325) " cx="8.00505704" cy="7.3833248" r="5.20330948"></circle>
                        <circle fill="#F4B500" transform="translate(8.005057, 7.383325) rotate(-45.000000) translate(-8.005057, -7.383325) " cx="8.00505704" cy="7.3833248" r="3.48880904"></circle>
                        <circle fill="#FFFFFF" transform="translate(8.005057, 7.383325) rotate(-45.000000) translate(-8.005057, -7.383325) " cx="8.00505704" cy="7.3833248" r="1.4274213"></circle>
                    </g>
                    <path d="M27.5747762,2.90214641 L24.3878327,2.90214641 C24.7472625,4.30345715 25.8854565,6.52485317 24.9749013,11.230391 C24.6274526,13.0298014 22.866247,16.8953489 20.6417765,16.8435959 C18.7328054,16.799805 16.1129622,16.5927932 15.2064006,14.1604043 C14.0322635,11.0074552 16.1249431,9.04880491 16.1249431,9.04880491 L8.03777472,9.04482392 C6.08487331,9.04482392 1.25254058,10.3386478 0.649497405,18.2011157 C0.589592454,19.001296 1.2725089,19.6701034 2.07922891,19.6701034 L25.6578177,19.6701034 L27.5308459,15.0282616 L30.1227334,15.9160238 C31.0812126,14.8331927 32.9622281,17.3292775 33.2657465,15.9160238 C34.9071422,8.2764916 27.5747762,2.90214641 27.5747762,2.90214641 Z" id="Path" fill="#FFC043"></path>
                    <path d="M26.6442526,2.90214641 C25.7097353,2.90214641 24.3838391,2.90214641 24.3838391,2.90214641 C24.7432688,4.30345715 25.8814629,6.52485317 24.9709076,11.230391 C24.6514145,12.8785235 23.1497971,16.2106175 21.192902,16.763976 C23.0539492,16.6326031 29.3878993,12.7869606 26.6442526,2.90214641 Z" id="Path" fill="#F39700"></path>
                    <g transform="translate(21.246289, 13.336338)">
                        <g id="Oval">
                            <circle fill="#333333" transform="translate(8.009015, 7.383719) rotate(-45.000000) translate(-8.009015, -7.383719) " cx="8.00901516" cy="7.38371852" r="5.20321403"></circle>
                            <circle fill="#F4B500" transform="translate(8.009015, 7.383719) rotate(-45.000000) translate(-8.009015, -7.383719) " cx="8.00901516" cy="7.38371852" r="3.48874504"></circle>
                            <ellipse fill="#FFFFFF" transform="translate(8.012809, 7.391053) rotate(-76.714204) translate(-8.012809, -7.391053) " cx="8.01280874" cy="7.39105271" rx="1.42531766" ry="1.42937141"></ellipse>
                        </g>
                        <path d="M13.0098857,6.11082954 C13.2694738,6.29793637 13.6209162,6.06305758 13.5410429,5.75253986 C12.8701075,3.14498719 10.6695989,1.2301279 8.05774304,1.2301279 C5.4418935,1.2301279 3.24138496,3.14498719 2.57444317,5.75253986 C2.4945699,6.06305758 2.84601228,6.29793637 3.10560041,6.11082954 C4.50737626,5.09169445 6.21666421,4.49454498 8.05774304,4.49454498 C9.89882188,4.49454498 11.6041162,5.09169445 13.0098857,6.11082954 Z" id="Path" fill="#F39700"></path>
                    </g>
                    <path d="M28.0460284,0.0119429893 L28.0460284,2.89816541 C28.7768688,2.82252648 29.3479627,2.20547203 29.3479627,1.4570447 L29.3479627,1.4570447 C29.3479627,0.70463637 28.7808625,0.0875819217 28.0460284,0.0119429893 Z" id="Path" fill="#FFC043"></path>
                    <path d="M27.8942692,0.00398099644 L24.491668,0.00398099644 C24.064346,0.00398099644 23.7168973,0.350327687 23.7168973,0.776294306 L23.7168973,2.13381409 C23.7168973,2.55978071 24.064346,2.9061274 24.491668,2.9061274 L27.8942692,2.9061274 C27.9461869,2.9061274 27.9981045,2.90214641 28.0460284,2.89816541 L28.0460284,0.0119429893 C27.9981045,0.00398099644 27.9461869,0.00398099644 27.8942692,0.00398099644 Z" id="Path" fill="#333333"></path>
                    <path d="M25.3982296,1.69988548 L22.0195903,3.39180897 C21.7520149,3.52716285 21.4245345,3.41967594 21.2887499,3.15294918 C21.1529654,2.88622242 21.2607943,2.55978071 21.5283697,2.42442683 C21.5363571,2.42044584 21.5483381,2.41248384 21.560319,2.40850285 L25.0348062,0.927572171 C25.250464,0.836009253 25.5020648,0.935534164 25.5939191,1.15050797 C25.6857734,1.36150078 25.5939191,1.60036057 25.3982296,1.69988548 Z" id="Path" fill="#FFC043"></path>
                    <path d="M7.1232258,10.5854695 C6.11282896,10.5854695 5.14636241,10.7725764 4.25178181,11.1109611 C8.28937552,11.14679 11.6640211,13.5831599 12.2630706,17.4686124 C12.3469375,18.0219709 12.8102025,18.4359945 13.373309,18.4359945 L13.9404093,18.4359945 C14.6472877,18.4359945 15.1744512,17.7870921 15.0386667,17.0943987 C14.3238009,13.388091 11.0529906,10.5854695 7.1232258,10.5854695 Z" id="Path" fill="#F39700"></path>
                </g>
                <path d="M24.9603963,16.6923181 L15.5673,16.6923181 C15.187902,16.6923181 14.8843836,16.9988548 14.8843836,17.3730685 L14.8843836,17.3730685 C14.8843836,17.7512631 15.1918956,18.0538189 15.5673,18.0538189 L24.9603963,18.0538189 C25.3397944,18.0538189 25.6433128,17.7472821 25.6433128,17.3730685 L25.6433128,17.3730685 C25.6433128,16.9988548 25.3358007,16.6923181 24.9603963,16.6923181 Z" id="Path" fill="#333333" fill-rule="nonzero"></path>
                <g transform="translate(11.342004, 23.288829)" fill="#333333" fill-rule="nonzero" id="Path">
                    <path d="M6.30200087,0.429947616 L0.199683171,0.429947616 C0.0878605951,0.429947616 0,0.342365694 0,0.230897794 C0,0.119429893 0.0878605951,0.0318479715 0.199683171,0.0318479715 L6.30599453,0.0318479715 C6.41781711,0.0318479715 6.5056777,0.119429893 6.5056777,0.230897794 C6.5056777,0.342365694 6.41382345,0.429947616 6.30200087,0.429947616 Z"></path>
                    <path d="M6.30200087,1.62424655 L0.199683171,1.62424655 C0.0878605951,1.62424655 0,1.53666463 0,1.42519673 C0,1.31372883 0.0878605951,1.2261469 0.199683171,1.2261469 L6.30599453,1.2261469 C6.41781711,1.2261469 6.5056777,1.31372883 6.5056777,1.42519673 C6.5056777,1.53268363 6.41382345,1.62424655 6.30200087,1.62424655 Z"></path>
                    <path d="M6.30200087,2.81456448 L0.199683171,2.81456448 C0.0878605951,2.81456448 0,2.72698256 0,2.61551466 C0,2.50404676 0.0878605951,2.41646484 0.199683171,2.41646484 L6.30599453,2.41646484 C6.41781711,2.41646484 6.5056777,2.50404676 6.5056777,2.61551466 C6.5056777,2.72300157 6.41382345,2.81456448 6.30200087,2.81456448 Z"></path>
                </g>
                <path d="M26.234375,9.6220684 C26.7934879,10.1993129 27.5003663,10.6292605 28.263156,10.8760823 C28.630573,10.9955122 29.0099711,11.1029991 29.3933627,11.0512461 C29.8805897,10.9835692 30.3678166,10.8681203 30.8550436,10.7805384 C31.1186253,10.7327664 31.3901944,10.6849944 31.6497826,10.7526714 C31.905377,10.8203483 32.1449968,11.0472651 32.1330158,11.3139919 C32.1250285,11.4851747 32.0211933,11.6404336 31.8854087,11.7479205 C31.6457889,11.9350273 31.4341247,12.1340772 31.1385937,11.9031794 C30.9908281,11.7877305 30.8829992,11.6245096 30.7232527,11.5329467 C30.4237279,11.3617638 30.0523172,11.4772127 29.7248368,11.5727567 C28.3829659,11.9589133 26.9013168,12.0027043 25.6513001,11.3299159 C24.1416953,10.5177926 23.0673999,9.08065288 22.2407116,7.57981723 C22.068984,7.26531851 21.9731361,6.97470577 22.1688256,6.64030206 C22.3645151,6.30987936 22.6959892,6.06305758 23.0673999,5.96751367 C24.0498411,5.72069189 24.2455306,6.4930052 24.6448969,7.19366057 C25.1201429,8.02966982 25.5514585,8.91743203 26.234375,9.6220684 Z" id="Path" fill="#FE9592" fill-rule="nonzero"></path>
                <path d="M26.5338997,11.3498209 C25.8270213,11.0472651 25.2000162,10.6013935 24.6728526,10.040073 C24.3932961,9.74149829 24.1416953,9.41903758 23.9060692,9.08463388 C23.6784304,8.76217317 23.4667662,8.42776947 23.2391274,8.10530876 C23.0194759,7.79479103 22.7878435,7.4922353 22.5921539,7.1657936 C22.4643567,6.95480078 22.3445468,6.72788399 22.2646735,6.4890242 C22.2287306,6.53281516 22.1967813,6.58058712 22.1688256,6.62835908 C21.9731361,6.96276278 22.068984,7.25337552 22.2407116,7.56787424 C23.0673999,9.06870989 24.1416953,10.5058496 25.6513001,11.3179729 C26.57783,11.8195784 27.6361508,11.9230843 28.666516,11.7837495 C27.9316819,11.7837495 27.2088289,11.6364526 26.5338997,11.3498209 Z" id="Path" fill="#FB7874" fill-rule="nonzero"></path>
                <path d="M21.73751,5.88391274 C21.3581119,6.30987936 21.6496494,7.18569858 21.7654656,7.5001973 C21.9611551,8.01772683 22.2806482,8.47952242 22.5961476,8.93733701 C23.303026,8.53923737 25.024295,7.53602626 25.024295,7.53602626 C25.024295,7.53602626 24.0817904,5.01605552 22.4403947,5.42211715 C22.2047686,5.4818321 21.9331995,5.66495794 21.73751,5.88391274 Z" id="Path" fill="#F39700" fill-rule="nonzero"></path>
                <path d="M23.2111718,8.10928975 C23.1233112,7.96995488 23.0394442,7.826639 22.9555773,7.68332313 C22.8677167,7.52806427 22.7838498,7.37280541 22.7039765,7.21754655 C22.6280969,7.06228769 22.556211,6.90304783 22.4923124,6.74380797 C22.4324074,6.5965111 22.3804898,6.44523324 22.3445468,6.28997438 C22.3125975,6.1586015 22.2886355,6.02324762 22.2926292,5.88789374 C22.2926292,5.78040683 22.3125975,5.66495794 22.3645151,5.56941402 C22.4004581,5.50173708 22.4563694,5.45396513 22.5162743,5.41017416 C22.4923124,5.41415516 22.4683504,5.41813616 22.4443884,5.42609815 C22.2087623,5.4858131 21.9331995,5.66893893 21.7415036,5.88391274 C21.3621056,6.30987936 21.653643,7.18569858 21.7694593,7.5001973 C21.9651488,8.01772683 22.2846419,8.47952242 22.6001413,8.93733701 C22.8118054,8.81790712 23.1153239,8.64274327 23.4348169,8.45961744 C23.3589373,8.34416854 23.2830577,8.22473865 23.2111718,8.10928975 Z" id="Path" fill="#F4B500" fill-rule="nonzero"></path>
                <g transform="translate(23.003501, 0.000000)" fill-rule="nonzero" id="Path">
                    <path d="M4.40745959,2.46821779 C4.42433826,2.51997075 4.47497426,2.58764769 4.55936761,2.66726762 C4.5087316,2.59959068 4.45809559,2.53589473 4.40745959,2.46821779 Z" fill="#FE9592"></path>
                    <path d="M4.75245946,3.42763794 C4.74447214,3.48735288 4.69255451,3.53512484 4.64063689,3.5749348 C4.56475728,3.62668776 4.48887768,3.67445972 4.40101708,3.71426968 C4.26523253,4.30345715 3.92577114,4.78913872 3.41058856,5.02799851 C2.3802234,5.50173708 1.04633981,4.80108171 0.427321985,3.4674479 C-0.187702181,2.13381409 0.147765546,0.668807402 1.17413704,0.195068826 C2.20450221,-0.278669751 3.53838579,0.421985623 4.15340995,1.75561943 C4.26523253,1.99447922 4.34111213,2.23732 4.39302976,2.47219879 C4.39702342,2.52395174 4.40900441,2.59162868 4.42897273,2.67124861 C4.47689669,2.87029843 4.56875095,3.11313922 4.67657986,3.26043609 C4.72051016,3.30820804 4.76044679,3.36394199 4.75245946,3.42763794 Z" fill="#FE9592"></path>
                    <path d="M4.40745959,2.46821779 C4.42433826,2.51997075 4.47497426,2.58764769 4.55936761,2.66726762 C4.5087316,2.59959068 4.45809559,2.53589473 4.40745959,2.46821779 Z" fill="#FE9592"></path>
                    <path d="M4.97211095,1.71979046 C4.90821234,1.95466925 4.7045355,2.1258521 4.49686501,2.25722498 C3.77001826,2.72698256 2.88741865,2.94991836 2.02478735,2.88224142 C2.02478735,3.0175953 2.04874933,3.15294918 2.09267963,3.27636007 C1.99283804,3.23256911 1.88500913,3.18877815 1.77718022,3.19275915 C1.66535764,3.19674014 1.55353507,3.27237908 1.53756042,3.38384698 C1.52557942,3.47540989 1.58947804,3.56299182 1.66935131,3.60678278 C1.76919289,3.66251673 1.92893943,3.63066875 1.94491408,3.75009865 C1.95689507,3.83768057 1.84107883,3.95711046 1.78516755,4.01682541 C1.70928794,4.10042633 1.61743368,4.17208427 1.5175921,4.22781822 C1.45369348,4.26364719 1.28595962,4.28355217 1.24202932,4.33132413 C1.28196596,4.29151416 1.30193427,4.23179922 1.29794061,4.17208427 C1.17413704,4.32336214 0.9824412,4.41492505 0.790745356,4.41890605 C0.826688327,4.37909609 0.858637634,4.33928612 0.894580605,4.29947616 C0.766783376,4.43483004 0.591062186,4.52241196 0.407353668,4.55027893 C0.531157234,4.37511509 0.551125551,4.14819829 0.511188917,3.94118648 C0.475245946,3.74213666 0.323486737,3.55104883 0.307512083,3.359961 C0.291537429,3.18877815 0.379398025,2.97778534 0.47923961,2.84243146 C0.603043176,2.67921061 0.774770703,2.55579972 0.950491893,2.4602558 C1.4297315,2.19751004 1.97686339,2.07808014 2.51600795,1.97855523 C2.97527924,1.89097331 3.4385442,1.81533438 3.90580282,1.74367644 C4.08152401,1.71580947 4.2133149,1.71979046 4.38504243,1.74367644 C4.44494738,1.74765744 4.96012996,1.75960043 4.97211095,1.71979046 Z" fill="#333333"></path>
                    <g>
                        <path d="M0.323486737,3.20470214 C0.323486737,3.20470214 5.49528086,1.99049822 5.70694502,1.03505907 C5.75486898,0.816104271 3.96570777,1.39732975 3.96570777,1.39732975 L0.323486737,3.20470214 Z" fill="#215549"></path>
                        <path d="M1.17813071,0.195068826 C-0.195689507,0.804161281 -0.13977822,1.94670726 0.323486737,3.20868313 L3.96570777,1.40131075 C3.29077865,0.298574733 2.32830577,-0.314498719 1.17813071,0.195068826 Z" fill="#FFC043"></path>
                        <path d="M0.407353668,0.732503345 C-0.143771883,1.36946278 -0.0279556439,2.25324399 0.323486737,3.20470214 L0.591062186,3.06934826 C0.223645151,2.33286391 0.0439302976,1.57647459 0.407353668,0.732503345 Z" fill="#215549"></path>
                    </g>
                    <path d="M4.75245946,3.42763794 C4.75245946,3.41569495 4.75245946,3.40375196 4.7484658,3.39180897 C4.68456719,3.47939089 4.58871926,3.53910584 4.48089035,3.55104883 C4.44095372,3.55502982 4.40101708,3.55502982 4.36906778,3.57095381 C4.33312481,3.58687779 4.30516916,3.62668776 4.32114382,3.66251673 C4.33312481,3.6943647 4.37306144,3.70630769 4.40900441,3.71028868 C4.40900441,3.71028868 4.41299807,3.71028868 4.41299807,3.71028868 C4.49287134,3.67445972 4.57274461,3.62668776 4.64463055,3.5749348 C4.69255451,3.53512484 4.74447214,3.48735288 4.75245946,3.42763794 Z" fill="#FB7874"></path>
                    <path d="M2.60386855,3.5749348 C2.55993825,3.62668776 2.55594459,3.69834569 2.57990657,3.76204164 C2.60386855,3.82573758 2.64779884,3.87350954 2.69971647,3.9133195 C2.76760875,3.96507246 2.84348835,4.00488242 2.92735528,4.0287684 C2.99524756,4.04867338 3.07512083,4.04867338 3.11905113,3.99692043 C3.14301311,3.96905345 3.15100044,3.92924349 3.14301311,3.88943352 C3.13502578,3.85360456 3.11905113,3.81777559 3.09908281,3.78592762 C3.01920954,3.68242171 2.73565944,3.41967594 2.60386855,3.5749348 Z" fill="#FB7874"></path>
                </g>
                <path d="M27.3885437,25.3907953 C27.4524423,25.4146813 27.5323156,25.4505103 27.5442966,25.5221682 C27.5562776,25.5858641 27.5043599,25.6455791 27.444455,25.6654841 C27.38455,25.685389 27.3206514,25.677427 27.2567528,25.6694651 C26.3422039,25.5380922 25.4556106,25.2315554 24.6528843,24.7737409 C24.4651821,24.666254 24.3333912,24.4791471 24.3893025,24.2522303 C24.4092708,24.1845534 24.7886688,23.6670238 24.8485738,23.7108148 C25.2878767,24.0253135 25.7990657,24.2761163 26.2144067,24.61052 C26.5977983,24.9170567 26.9212851,25.2076695 27.3885437,25.3907953 Z" id="Path" fill="#F39700" fill-rule="nonzero"></path>
                <path d="M14.5928461,6.4930052 L1.92494577,6.4930052 C1.76519923,6.4930052 1.63340834,6.36163231 1.63340834,6.20239246 L1.63340834,6.20239246 C1.63340834,6.0431526 1.76519923,5.91177972 1.92494577,5.91177972 L14.5928461,5.91177972 C14.7525927,5.91177972 14.8843836,6.0431526 14.8843836,6.20239246 L14.8843836,6.20239246 C14.8843836,6.36561331 14.7525927,6.4930052 14.5928461,6.4930052 Z" id="Path" fill="#FFFFFF" fill-rule="nonzero"></path>
                <g transform="translate(24.960396, 2.866317)" fill-rule="nonzero" id="Path">
                    <path d="M2.18054023,0.127391886 C1.94491408,0.246821779 1.71328161,0.366251673 1.46168081,0.449852598 C1.21008001,0.529472527 0.942504566,0.569282491 0.686910108,0.517529537 C0.615024166,0.501605552 0.527163571,0.485681566 0.47923961,0.545396513 C0.459271293,0.573263488 0.455277629,0.609092456 0.455277629,0.644921424 C0.431315649,1.10671701 0.567100205,1.57647459 0.834675654,1.95466925 C0.938510903,2.10196612 1.08228279,2.24528199 1.26199764,2.26120598 C1.3977822,2.26916797 1.52158576,2.20547203 1.637402,2.13381409 C1.85705349,1.99846021 2.06472399,1.83922036 2.25641983,1.66405651 C2.48006498,1.4530637 2.68773548,1.20624192 2.77160241,0.911648185 C2.8275137,0.70463637 2.81952637,0.473738577 2.71968479,0.282650747 C2.68773548,0.214973808 2.61584954,0.0915629182 2.54795726,0.0557339502 C2.43613468,-0.00398099644 2.27638815,0.0796199288 2.18054023,0.127391886 Z" fill="#4F94F9"></path>
                    <path d="M0.702884761,1.73571445 C0.742821395,1.81135338 0.786751693,1.88301132 0.834675654,1.95068826 C0.938510903,2.09798512 1.08228279,2.241301 1.26199764,2.25722498 C1.3977822,2.26518698 1.52158576,2.20149103 1.637402,2.1298331 C1.65337665,2.1218711 1.66535764,2.10992811 1.6813323,2.09798512 C1.30193427,2.10594712 0.950491893,1.97457424 0.702884761,1.73571445 Z" fill="#4A87DA"></path>
                    <path d="M0.595055849,0.660845409 C0.575087532,0.660845409 0.555119215,0.652883416 0.539144561,0.64890242 C0.50320159,0.636959431 0.0439302976,0.394118648 0.0119809902,0.362270676 C0.0678922781,0.35828968 0.123803566,0.362270676 0.179714854,0.370232669 C0.231632478,0.378194662 0.283550103,0.410042633 0.331474064,0.433928612 C0.403360005,0.46975758 0.475245946,0.505586548 0.551125551,0.53743452 C0.567100205,0.545396513 0.634992483,0.636959431 0.634992483,0.636959431 C0.619017829,0.64890242 0.615024166,0.660845409 0.595055849,0.660845409 Z" fill="#4F94F9"></path>
                </g>
            </g>
        </g>
    </g>
</svg>