<?xml version="1.0" encoding="UTF-8"?>
<svg width="32px" height="32px" viewBox="0 0 32 32" version="1.1" xmlns="http://www.w3.org/2000/svg" xmlns:xlink="http://www.w3.org/1999/xlink">
    <title>walk through</title>
    <defs>
        <polygon id="path-1" points="0 0 13 0 13 18 0 18"></polygon>
    </defs>
    <g id="Page-1" stroke="none" stroke-width="1" fill="none" fill-rule="evenodd">
        <g id="walk-through">
            <circle id="Oval" fill="#FEF6E4" cx="16" cy="16" r="16"></circle>
            <g id="Group-9" transform="translate(5.000000, 7.000000)">
                <g id="Group-8">
                    <g id="Group-3" transform="translate(5.000000, 0.000000)">
                        <mask id="mask-2" fill="white">
                            <use xlink:href="#path-1"></use>
                        </mask>
                        <g id="Clip-2"></g>
                        <path d="M11.5553529,9.00600561 C11.5553529,6.87573727 11.5558724,4.74546892 11.5550931,2.61524263 C11.5548333,1.84002228 11.1042372,1.39948449 10.3108554,1.39923215 C7.77146241,1.39847514 5.23206939,1.39847514 2.69267636,1.3992742 C1.89738955,1.39952654 1.44700991,1.83863443 1.44692331,2.61356039 C1.44636045,6.86703165 1.44652281,11.1205029 1.44683672,15.3739742 C1.44692331,16.1646712 1.89271343,16.6006249 2.70176881,16.6008351 C5.23393118,16.601466 7.76609354,16.601466 10.2982992,16.6008351 C11.1074412,16.6006249 11.5549199,16.1643768 11.5551364,15.3756985 C11.5557858,13.2524535 11.5553962,11.1292085 11.5553529,9.00600561 L11.5553529,9.00600561 Z M10.6575811,-1.68224456e-05 C11.1868919,0.0806468043 11.6761526,0.252151638 12.0860492,0.600123925 C12.7119565,1.13150293 12.9997111,1.80915309 12.9997977,2.60906038 C13.0001441,6.86947091 13.0001874,11.1299655 12.9987586,15.3904181 C12.9987153,15.5159556 12.985856,15.6420399 12.9707019,15.7669045 C12.829509,16.9319429 11.9513077,17.8072568 10.7610186,17.9726215 C10.7259477,17.9775 10.6920458,17.9907056 10.6575811,18 L2.3444786,18 C1.72355046,17.9029765 1.17059925,17.6753268 0.727493566,17.2248638 C0.250442716,16.7398727 0.0068947909,16.1574375 0.00589895049,15.4953902 C-0.000725553059,11.1648721 -0.00315020795,6.83431199 0.00598554531,2.50383598 C0.00866998466,1.22474133 0.947617593,0.216067492 2.26243001,0.0247542287 C2.29040013,0.0207168418 2.31715793,0.00843645648 2.3444786,-1.68224456e-05 L10.6575811,-1.68224456e-05 Z" id="Fill-1" fill="#FFBE02" mask="url(#mask-2)"></path>
                    </g>
                    <path d="M0,8.30842002 C0.512863108,7.60103405 1.07886928,6.92257955 1.63929124,6.24160421 C1.86638242,5.96566939 2.3500215,5.9268097 2.68144433,6.12134084 C3.0048166,6.31121813 3.10281948,6.69058488 2.87838079,6.98416557 C2.54128068,7.42500199 2.19445473,7.86106821 1.83357519,8.28848601 C1.70104329,8.44551484 1.70034526,8.55833204 1.83334252,8.71559356 C2.19022004,9.13746552 2.52946077,9.569925 2.86656088,10.0031213 C3.06177554,10.2540417 3.0342733,10.5650743 2.81881589,10.7791129 C2.61513185,10.9815168 2.25560182,11.0550865 1.95065745,10.956735 C1.82519888,10.9162465 1.71095526,10.8578018 1.6364526,10.7647247 C1.08664063,10.077583 0.513142318,9.40347212 0,8.69624128 L0,8.30842002 Z" id="Fill-4" fill="#FFBE02"></path>
                    <path d="M22,8.69354826 C21.4878151,9.40067932 20.9216108,10.0784418 20.360478,10.758374 C20.1318374,11.0353218 19.6514779,11.072788 19.3182879,10.8780179 C18.9944501,10.6886722 18.8972988,10.3089733 19.1222172,10.0160627 C19.464201,9.57061394 19.8158163,9.12989202 20.1796221,8.69664785 C20.3017592,8.55116118 20.3015265,8.44748014 20.1793894,8.30257465 C19.832427,7.89102755 19.5029127,7.46917434 19.1706067,7.04918088 C18.8985085,6.70520468 18.9709533,6.3121001 19.3376437,6.1100848 C19.7121045,5.90376882 20.1748296,5.99245563 20.4441827,6.33414589 C20.9626023,6.99152864 21.5161975,7.62977147 22,8.30610042 L22,8.69354826 Z" id="Fill-6" fill="#FFBE02"></path>
                </g>
                <rect id="Rectangle" fill="#FFBE02" x="7" y="2" width="9" height="14"></rect>
            </g>
        </g>
    </g>
</svg>