<?xml version="1.0" encoding="UTF-8"?>
<svg width="19px" height="18px" viewBox="0 0 19 18" version="1.1" xmlns="http://www.w3.org/2000/svg" xmlns:xlink="http://www.w3.org/1999/xlink">
    <!-- Generator: sketchtool 64 (101010) - https://sketch.com -->
    <title>E66AEF17-B897-489A-AB66-378415EB8E94</title>
    <desc>Created with sketchtool.</desc>
    <g id="Page-1" stroke="none" stroke-width="1" fill="none" fill-rule="evenodd">
        <g id="Task-history" transform="translate(-37.000000, -595.000000)" fill="#BEC2C2" fill-rule="nonzero">
            <g id="Group-7" transform="translate(0.000000, 587.000000)">
                <g id="Group-4">
                    <g id="Group-14">
                        <g id="Group-10" transform="translate(29.250000, 8.000000)">
                            <g id="Group-19">
                                <g id="home" transform="translate(8.000000, 0.000000)">
                                    <path d="M17.5164835,7.82913206 C17.5160715,7.8287201 17.5156595,7.82830811 17.5152474,7.82789611 L10.1719236,0.485595703 C9.85891866,0.172485352 9.44276903,0 9.00011219,0 C8.55745539,0 8.14130576,0.172348031 7.82816348,0.485458383 L0.488685275,7.82405089 C0.486213081,7.82652284 0.483740888,7.82913206 0.481268729,7.831604 C-0.161497006,8.47801209 -0.160398261,9.52679443 0.48442763,10.1715546 C0.779028583,10.4662628 1.16812159,10.6369629 1.58413389,10.6548157 C1.60102706,10.6564636 1.61805761,10.6572876 1.63522549,10.6572876 L1.92790365,10.6572876 L1.92790365,16.0607758 C1.92790365,17.1300201 2.79797224,18 3.86760035,18 L6.74054345,18 C7.03171084,18 7.26794098,17.7639313 7.26794098,17.4726562 L7.26794098,13.2363281 C7.26794098,12.7483978 7.66486254,12.3515167 8.15284258,12.3515167 L9.84738184,12.3515167 C10.3353619,12.3515167 10.7322835,12.7483978 10.7322835,13.2363281 L10.7322835,17.4726562 C10.7322835,17.7639313 10.9683763,18 11.259681,18 L14.1326241,18 C15.2022522,18 16.0723208,17.1300201 16.0723208,16.0607758 L16.0723208,10.6572876 L16.3437107,10.6572876 C16.7862302,10.6572876 17.2023798,10.4849396 17.5156595,10.1718292 C18.1611721,9.52597048 18.1614467,8.47540283 17.5164835,7.82913206 L17.5164835,7.82913206 Z" id="Path"></path>
                                </g>
                            </g>
                        </g>
                    </g>
                </g>
            </g>
        </g>
    </g>
</svg>