<?xml version="1.0" encoding="UTF-8"?>
<svg width="24px" height="24px" viewBox="0 0 24 24" version="1.1" xmlns="http://www.w3.org/2000/svg" xmlns:xlink="http://www.w3.org/1999/xlink">
    <!-- Generator: Sketch 64 (93537) - https://sketch.com -->
    <title>Group 15</title>
    <desc>Created with Sketch.</desc>
    <g id="Page-1" stroke="none" stroke-width="1" fill="none" fill-rule="evenodd">
        <g id="Location-tasker-Copy-4" transform="translate(-168.000000, -291.000000)">
            <g id="Group-15" transform="translate(168.000000, 291.000000)">
                <path d="M11.9999891,7.97452392 C10.8957463,7.97452392 9.95311471,8.36522567 9.17176594,9.14630079 C8.39069081,9.92764956 7.99998907,10.8702811 7.99998907,11.9745239 C7.99998907,13.0786572 8.3904719,14.021453 9.17176594,14.8024734 C9.95311471,15.5838222 10.8959105,15.9745239 11.9999891,15.9745239 C13.1043413,15.9745239 14.0471371,15.5838222 14.8281027,14.8024734 C15.6092873,14.021453 15.9999891,13.0786572 15.9999891,11.9745239 C15.9999891,10.8702811 15.6092873,9.92764956 14.8281027,9.14630079 C14.0471371,8.36517094 13.1043413,7.97452392 11.9999891,7.97452392" id="Fill-4" fill="#F9B025"></path>
                <path d="M19.3389704,16.2482733 C18.5793349,17.5489203 17.549303,18.5790068 16.248656,19.3389704 C14.9480091,20.0985513 13.5276902,20.477959 11.987426,20.477959 C10.4475444,20.477959 9.02711617,20.0985513 7.72630524,19.3389704 C6.42565831,18.5790068 5.39557175,17.5489203 4.63599089,16.2482733 C3.87624601,14.9476264 3.49651025,13.5272528 3.49651025,11.987262 C3.49651025,10.4471617 3.87641002,9.02678815 4.63599089,7.72614123 C5.39540774,6.42549431 6.42576765,5.39518907 7.72630524,4.63566287 C9.02695216,3.87602733 10.4473257,3.49634624 11.987426,3.49634624 C13.5276355,3.49634624 14.9480091,3.87602733 16.248656,4.63566287 C17.549303,5.39524374 18.5793895,6.42549431 19.3389704,7.72614123 C20.0986059,9.02678815 20.4781777,10.4471617 20.4781777,11.987262 C20.4781777,13.5272528 20.0986059,14.9476264 19.3389704,16.2482733 M18.0046469,1.60767198 C16.1677995,0.535817768 14.1625695,1.0125234e-13 11.98759,1.0125234e-13 C9.81277449,1.0125234e-13 7.80699772,0.535817768 5.97047836,1.60767198 C4.13384966,2.67941686 2.67979954,4.13346697 1.60783599,5.97009567 C0.535817768,7.80683371 1.7408297e-13,9.81261048 1.7408297e-13,11.987262 C1.7408297e-13,14.1620228 0.535981777,16.1674715 1.60767198,18.0043189 C2.67958087,19.8407836 4.13363098,21.2948337 5.97025968,22.3668519 C7.80699772,23.4386515 9.81261048,23.9745239 11.9873713,23.9745239 C14.1621321,23.9745239 16.1679636,23.4386515 18.0045923,22.3668519 C19.8411116,21.2952164 21.2951071,19.8407836 22.3669613,18.0043189 C23.4386515,16.1676355 23.9744146,14.1619134 23.9744146,11.987262 C23.9744146,9.8123918 23.4386515,7.80656036 22.36718,5.97009567 C21.2952164,4.13363098 19.8411663,2.67958087 18.0046469,1.60767198 Z" id="Fill-1" fill="#FFC043"></path>
            </g>
        </g>
    </g>
</svg>