<?xml version="1.0" encoding="UTF-8"?>
<svg width="32px" height="32px" viewBox="0 0 32 32" version="1.1" xmlns="http://www.w3.org/2000/svg" xmlns:xlink="http://www.w3.org/1999/xlink">
    <!-- Generator: sketchtool 64 (101010) - https://sketch.com -->
    <title>E8E285FC-7697-4E70-9356-33A1AA34AE59</title>
    <desc>Created with sketchtool.</desc>
    <g id="Page-1" stroke="none" stroke-width="1" fill="none" fill-rule="evenodd">
        <g id="Bottom-nav-tasker" transform="translate(-28.000000, -209.000000)">
            <g id="Group-3" transform="translate(28.000000, 209.000000)">
                <circle id="Oval" fill="#FEF6E4" cx="16" cy="16" r="16"></circle>
                <path d="M22.8228267,17.1247905 C22.8597112,16.8297146 22.8873745,16.5346387 22.8873745,16.2211206 C22.8873745,15.9076025 22.8597112,15.6125267 22.8228267,15.3174508 L24.7684831,13.7959659 C24.9436844,13.6576491 24.98979,13.4086788 24.8791366,13.2058142 L23.0349125,10.0153064 C22.924259,9.81244179 22.6752887,9.73867283 22.4724241,9.81244179 L20.1763651,10.7345539 C19.6968668,10.365709 19.180484,10.0614121 18.6179957,9.83088404 L18.2675931,7.38728707 C18.2399297,7.16598017 18.0462862,7 17.8157582,7 L14.1273099,7 C13.8967819,7 13.7031384,7.16598017 13.675475,7.38728707 L13.3250724,9.83088404 C12.7625841,10.0614121 12.2462013,10.3749302 11.766703,10.7345539 L9.47064399,9.81244179 C9.25855822,9.72945171 9.01880908,9.81244179 8.90815564,10.0153064 L7.06393151,13.2058142 C6.94405694,13.4086788 6.99938366,13.6576491 7.17458496,13.7959659 L9.12024141,15.3174508 C9.08335693,15.6125267 9.05569357,15.9168237 9.05569357,16.2211206 C9.05569357,16.5254176 9.08335693,16.8297146 9.12024141,17.1247905 L7.17458496,18.6462754 C6.99938366,18.7845922 6.95327806,19.0335624 7.06393151,19.2364271 L8.90815564,22.4269348 C9.01880908,22.6297995 9.26777934,22.7035684 9.47064399,22.6297995 L11.766703,21.7076874 C12.2462013,22.0765322 12.7625841,22.3808292 13.3250724,22.6113572 L13.675475,25.0549542 C13.7031384,25.2762611 13.8967819,25.4422413 14.1273099,25.4422413 L17.8157582,25.4422413 C18.0462862,25.4422413 18.2399297,25.2762611 18.2675931,25.0549542 L18.6179957,22.6113572 C19.180484,22.3808292 19.6968668,22.0673111 20.1763651,21.7076874 L22.4724241,22.6297995 C22.6845099,22.7127896 22.924259,22.6297995 23.0349125,22.4269348 L24.8791366,19.2364271 C24.98979,19.0335624 24.9436844,18.7845922 24.7684831,18.6462754 L22.8228267,17.1247905 L22.8228267,17.1247905 Z M15.971534,19.4485129 C14.1918578,19.4485129 12.7441418,18.0007969 12.7441418,16.2211206 C12.7441418,14.4414444 14.1918578,12.9937284 15.971534,12.9937284 C17.7512103,12.9937284 19.1989263,14.4414444 19.1989263,16.2211206 C19.1989263,18.0007969 17.7512103,19.4485129 15.971534,19.4485129 L15.971534,19.4485129 Z" id="Shape" fill="#FFC043"></path>
            </g>
        </g>
    </g>
</svg>