<?xml version="1.0" encoding="UTF-8"?>
<svg width="32px" height="32px" viewBox="0 0 32 32" version="1.1" xmlns="http://www.w3.org/2000/svg" xmlns:xlink="http://www.w3.org/1999/xlink">
    <!-- Generator: sketchtool 64 (101010) - https://sketch.com -->
    <title>2A505056-3184-47F6-82E0-7FB323E6BF12</title>
    <desc>Created with sketchtool.</desc>
    <g id="Page-1" stroke="none" stroke-width="1" fill="none" fill-rule="evenodd">
        <g id="Bottom-nav-tasker-1" transform="translate(-29.000000, -469.000000)">
            <g id="Group" transform="translate(29.000000, 469.000000)">
                <g id="Group-14">
                    <g id="Group-9-Copy">
                        <g id="Group-6">
                            <circle id="Oval-Copy-5" fill="#FEF6E4" cx="16" cy="16" r="16"></circle>
                            <g id="logout-(4)" transform="translate(9.000000, 8.000000)" fill="#FFC043" fill-rule="nonzero">
                                <path d="M7.31903834,9.98050682 C6.21852112,9.98050682 5.32293697,9.08492268 5.32293697,7.98440546 C5.32293697,6.88388824 6.21852112,5.98830409 7.31903834,5.98830409 L10.6458739,5.98830409 L10.6458739,1.82975958 C10.6458739,0.820397661 9.82547628,0 8.81611436,0 L1.82975958,0 C0.820397661,0 0,0.820397661 0,1.82975958 L0,14.1390513 C0,15.1484133 0.820397661,15.9688109 1.82975958,15.9688109 L8.81611436,15.9688109 C9.82547628,15.9688109 10.6458739,15.1484133 10.6458739,14.1390513 L10.6458739,9.98050682 L7.31903834,9.98050682 Z" id="Path"></path>
                                <path d="M12.3871397,11.2606732 C12.1389578,11.1575413 11.9766082,10.9146823 11.9766082,10.6458739 L11.9766082,8.64977258 L7.31903834,8.64977258 C6.95175569,8.64977258 6.65367122,8.35168811 6.65367122,7.98440546 C6.65367122,7.61712281 6.95175569,7.31903834 7.31903834,7.31903834 L11.9766082,7.31903834 L11.9766082,5.32293697 C11.9766082,5.05412865 12.1389578,4.81126966 12.3871397,4.70813775 C12.635987,4.60500585 12.9220949,4.66222742 13.1123899,4.85252242 L15.7738583,7.5139909 C16.0340169,7.77414945 16.0340169,8.19466147 15.7738583,8.45482001 L13.1123899,11.1162885 C12.9220949,11.3065835 12.635987,11.3638051 12.3871397,11.2606732 Z" id="Path"></path>
                            </g>
                        </g>
                    </g>
                </g>
            </g>
        </g>
    </g>
</svg>