<?xml version="1.0" encoding="UTF-8"?>
<svg width="17px" height="17px" viewBox="0 0 17 17" version="1.1" xmlns="http://www.w3.org/2000/svg" xmlns:xlink="http://www.w3.org/1999/xlink">
    <!-- Generator: sketchtool 64 (101010) - https://sketch.com -->
    <title>24057EEC-35A4-4593-8C01-D70DE84CB6A9</title>
    <desc>Created with sketchtool.</desc>
    <g id="Page-1" stroke="none" stroke-width="1" fill="none" fill-rule="evenodd">
        <g id="Settings-2-Copy" transform="translate(-45.000000, -314.000000)" fill="#FFC043" fill-rule="nonzero">
            <g id="phone-call-(3)" transform="translate(45.000000, 314.000000)">
                <path d="M16.5257198,12.4675486 L14.1549805,10.0968093 C13.3082879,9.25011673 11.8689105,9.58882685 11.5302335,10.6894942 C11.2762257,11.4515506 10.4295331,11.8748969 9.66750973,11.7055253 C7.97412451,11.282179 5.68805447,9.08077821 5.26470817,7.30272374 C5.01070039,6.54066732 5.51871595,5.69397471 6.2807393,5.44 C7.38143969,5.10132296 7.72011673,3.66194553 6.87342412,2.81525292 L4.50268482,0.444513619 C3.82533074,-0.148171206 2.80929961,-0.148171206 2.21661479,0.444513619 L0.607898833,2.05322957 C-1.00081712,3.74661479 0.777237354,8.2340856 4.75669261,12.2135409 C8.73614786,16.1929961 13.2236187,18.0557529 14.9170039,16.3623346 L16.5257198,14.7536187 C17.1184377,14.0762646 17.1184377,13.0602335 16.5257198,12.4675486 Z" id="Path"></path>
            </g>
        </g>
    </g>
</svg>