<?xml version="1.0" encoding="UTF-8"?>
<svg width="14px" height="18px" viewBox="0 0 14 18" version="1.1" xmlns="http://www.w3.org/2000/svg" xmlns:xlink="http://www.w3.org/1999/xlink">
    <!-- Generator: sketchtool 64 (101010) - https://sketch.com -->
    <title>DBF5BD04-BE29-4229-B68E-3458B32858B7</title>
    <desc>Created with sketchtool.</desc>
    <g id="Page-1" stroke="none" stroke-width="1" fill="none" fill-rule="evenodd">
        <g id="Task-history-on-click" transform="translate(-33.000000, -420.000000)" fill="#FFC043" fill-rule="nonzero">
            <g id="Group" transform="translate(0.000000, 295.000000)">
                <g id="placeholder-(2)-copy" transform="translate(33.500000, 125.000000)">
                    <path d="M6.5,0 C2.916,0 0,3.02887082 0,6.7515982 C0,8.22483155 0.448,9.62466291 1.29666667,10.7990948 L6.09933333,17.5178352 C6.11133333,17.5341083 6.12966667,17.5403405 6.143,17.5548824 C6.383,17.8218302 6.72933333,17.7546605 6.90033333,17.5178352 C8.28333333,15.6010738 10.8183333,12.0213071 11.793,10.6709875 C11.793,10.6709875 11.7933333,10.6699488 11.7936667,10.6692563 L11.7996667,10.6609467 C12.585,9.51490616 13,8.16320157 13,6.7515982 C13,3.02887082 10.084,0 6.5,0 Z M6.5,10.3939989 C4.57033333,10.3939989 2.99333333,8.75595727 2.99333333,6.7515982 C2.99333333,4.74723912 4.57033333,3.10919753 6.5,3.10919753 C8.42966667,3.10919753 10.0066667,4.74723912 10.0066667,6.7515982 C10.0066667,8.75595727 8.42966667,10.3939989 6.5,10.3939989 Z" id="Shape"></path>
                </g>
            </g>
        </g>
    </g>
</svg>