<?xml version="1.0" encoding="UTF-8"?>
<svg width="54px" height="90px" viewBox="0 0 54 90" version="1.1" xmlns="http://www.w3.org/2000/svg" xmlns:xlink="http://www.w3.org/1999/xlink">
    <!-- Generator: sketchtool 64 (101010) - https://sketch.com -->
    <title>3FA04DA4-D7BC-48D6-9232-46451E1BD419</title>
    <desc>Created with sketchtool.</desc>
    <defs>
        <ellipse id="path-1" cx="22" cy="22.5" rx="22" ry="22.5"></ellipse>
    </defs>
    <g id="Page-1" stroke="none" stroke-width="1" fill="none" fill-rule="evenodd">
        <g id="Location-tasker" transform="translate(-153.000000, -225.000000)">
            <g id="Group-2" transform="translate(146.000000, 225.000000)">
                <g id="Group-5" transform="translate(7.000000, 0.000000)">
                    <g id="Group-11">
                        <path d="M26.9999891,73.9745239 C25.8957463,73.9745239 24.9531147,74.3652257 24.1717659,75.1463008 C23.3906908,75.9276496 22.9999891,76.8702811 22.9999891,77.9745239 C22.9999891,79.0786572 23.3904719,80.021453 24.1717659,80.8024734 C24.9531147,81.5838222 25.8959105,81.9745239 26.9999891,81.9745239 C28.1043413,81.9745239 29.0471371,81.5838222 29.8281027,80.8024734 C30.6092873,80.021453 30.9999891,79.0786572 30.9999891,77.9745239 C30.9999891,76.8702811 30.6092873,75.9276496 29.8281027,75.1463008 C29.0471371,74.3651709 28.1043413,73.9745239 26.9999891,73.9745239" id="Fill-4" fill="#F9B025"></path>
                        <path d="M27,0 C12.1126803,0 0,12.0969391 0,26.796875 C0,32.6148988 1.86382218,38.142395 5.41514423,42.8143311 L27,70 L48.6108173,42.7806854 C52.1361778,38.142395 54,32.6148988 54,26.796875 C54,12.3319245 42.3021635,0 27,0 Z" id="Shape" fill="#0B9777" fill-rule="nonzero"></path>
                        <path d="M34.3389704,82.2482733 C33.5793349,83.5489203 32.549303,84.5790068 31.248656,85.3389704 C29.9480091,86.0985513 28.5276902,86.477959 26.987426,86.477959 C25.4475444,86.477959 24.0271162,86.0985513 22.7263052,85.3389704 C21.4256583,84.5790068 20.3955718,83.5489203 19.6359909,82.2482733 C18.876246,80.9476264 18.4965103,79.5272528 18.4965103,77.987262 C18.4965103,76.4471617 18.87641,75.0267882 19.6359909,73.7261412 C20.3954077,72.4254943 21.4257677,71.3951891 22.7263052,70.6356629 C24.0269522,69.8760273 25.4473257,69.4963462 26.987426,69.4963462 C28.5276355,69.4963462 29.9480091,69.8760273 31.248656,70.6356629 C32.549303,71.3952437 33.5793895,72.4254943 34.3389704,73.7261412 C35.0986059,75.0267882 35.4781777,76.4471617 35.4781777,77.987262 C35.4781777,79.5272528 35.0986059,80.9476264 34.3389704,82.2482733 M33.0046469,67.607672 C31.1677995,66.5358178 29.1625695,66 26.98759,66 C24.8127745,66 22.8069977,66.5358178 20.9704784,67.607672 C19.1338497,68.6794169 17.6797995,70.133467 16.607836,71.9700957 C15.5358178,73.8068337 15,75.8126105 15,77.987262 C15,80.1620228 15.5359818,82.1674715 16.607672,84.0043189 C17.6795809,85.8407836 19.133631,87.2948337 20.9702597,88.3668519 C22.8069977,89.4386515 24.8126105,89.9745239 26.9873713,89.9745239 C29.1621321,89.9745239 31.1679636,89.4386515 33.0045923,88.3668519 C34.8411116,87.2952164 36.2951071,85.8407836 37.3669613,84.0043189 C38.4386515,82.1676355 38.9744146,80.1619134 38.9744146,77.987262 C38.9744146,75.8123918 38.4386515,73.8065604 37.36718,71.9700957 C36.2952164,70.133631 34.8411663,68.6795809 33.0046469,67.607672 Z" id="Fill-1" fill="#F9B025"></path>
                    </g>
                    <g id="Group-3">
                        <g id="Group">
                            <g id="pin-(2)">
                                <path d="M27,28.8235294 C22.4183293,28.8235294 18.6923077,32.5170802 18.6923077,37.0588235 L35.3076923,37.0588235 C35.3076923,32.5170802 31.5816707,28.8235294 27,28.8235294 Z" id="Path" fill="#333333" fill-rule="nonzero"></path>
                                <g id="Group-8">
                                    <g id="Group-9"></g>
                                </g>
                                <path d="M27,12.3529412 C24.709976,12.3529412 22.8461538,14.2005209 22.8461538,16.4705882 C22.8461538,18.7406556 24.709976,20.5882353 27,20.5882353 C29.290024,20.5882353 31.1538462,18.7406556 31.1538462,16.4705882 C31.1538462,14.2005209 29.290024,12.3529412 27,12.3529412 Z" id="Path" fill="#333333" fill-rule="nonzero"></path>
                            </g>
                            <g id="shutterstock_524561431-copy-2" transform="translate(5.000000, 3.000000)">
                                <mask id="mask-2" fill="white">
                                    <use xlink:href="#path-1"></use>
                                </mask>
                                <use id="Mask" fill="#FFFFFF" xlink:href="#path-1"></use>
                                <path d="M39.2425695,38.9510081 C37.4471515,35.9915734 31.4863974,35.9066542 28.9201848,35.9244872 C27.9099449,35.9312808 26.8235562,35.1101119 26.7203324,33.4066324 C26.6949455,32.724439 26.7400292,32.0414411 26.8548618,31.3685712 C28.2263852,30.1372425 29.2518549,28.345447 29.9118106,26.3345599 C30.3086302,26.8822889 30.9102052,26.3345599 30.9838157,25.8199495 C31.1183451,24.8858381 31.4838591,23.7946261 31.5676227,22.6278361 C31.6513863,21.461046 30.7892133,21.6257893 30.7892133,21.6257893 L30.7680609,21.6690981 C30.7680609,21.6317337 30.7680609,21.5943692 30.7731375,21.5570047 C30.872977,21.1145756 31.395865,18.5542612 30.9668937,15.1804207 C30.6546839,12.7245569 28.3439927,10.0504507 24.3444917,9.60887079 L24.8919165,9.25051169 C23.8165271,9.06029264 22.8655139,9.32863737 22.2360177,9.60207725 C22.151408,9.61141837 22.0591834,9.62160867 21.9711893,9.63349737 C22.4483881,9.29382049 22.9137415,9 22.9137415,9 C21.2435458,9.12143448 19.8576387,9.95109524 19.3254437,10.3120019 C18.666334,10.1115926 17.6408643,9.93920655 16.5468608,10.2882245 L17.3684211,10.6814005 C15.485855,11.2996124 12.8934135,13.5686539 14.1777889,21.619845 C14.0212609,21.6037103 13.3587669,21.5960676 13.4323773,22.6261377 C13.516987,23.7929278 13.8816549,24.8858381 14.0161843,25.8182511 C14.0897948,26.3277664 14.693062,26.8822889 15.0898815,26.3277664 C15.7498373,28.3403519 16.7761531,30.1321474 18.1476765,31.3643252 C18.2625091,32.0371951 18.3075928,32.720193 18.2822059,33.4023864 C18.178136,35.105866 17.0917473,35.9270348 16.0823535,35.9202413 C13.5144487,35.9024082 7.55369462,35.9873274 5.75996876,38.9467622 C3.96624289,41.9061969 3,45.609524 3,45.609524 L22.5,48 L42,45.609524 C42,45.609524 41.0379876,41.9104429 39.2425695,38.9510081 Z M13.9849571,20.9671286 L14.0150429,20.9671286 C14.0150429,20.9883 14.0150429,21.0105857 14.0150429,21.0328714 L13.9849571,20.9671286 Z" id="Shape" fill="#215549" fill-rule="nonzero" mask="url(#mask-2)"></path>
                            </g>
                        </g>
                    </g>
                </g>
            </g>
        </g>
    </g>
</svg>