<?xml version="1.0" encoding="UTF-8"?>
<svg width="291px" height="437px" viewBox="0 0 291 437" version="1.1" xmlns="http://www.w3.org/2000/svg" xmlns:xlink="http://www.w3.org/1999/xlink">
    <!-- Generator: Sketch 54.1 (76490) - https://sketchapp.com -->
    <title>Fill 1 Copy</title>
    <desc>Created with Sketch.</desc>
    <g id="Page-1" stroke="none" stroke-width="1" fill="none" fill-rule="evenodd">
        <path d="M282.559617,0 L282.559617,4.28088987 C282.559617,6.78969618 280.690467,8.84314119 278.4057,8.84314119 C276.122056,8.84314119 274.252906,6.78969618 274.252906,4.28088987 L274.252906,0 L265.946194,0 L265.946194,4.28088987 C265.946194,6.78969618 264.077044,8.84314119 261.7934,8.84314119 C259.508633,8.84314119 257.639483,6.78969618 257.639483,4.28088987 L257.639483,0 L249.332771,0 L249.332771,4.28088987 C249.332771,6.78969618 247.463621,8.84314119 245.179977,8.84314119 C242.89521,8.84314119 241.026059,6.78969618 241.026059,4.28088987 L241.026059,0 L232.719348,0 L232.719348,4.28088987 C232.719348,6.78969618 230.850197,8.84314119 228.566554,8.84314119 C226.281787,8.84314119 224.412636,6.78969618 224.412636,4.28088987 L224.412636,0 L216.105925,0 L216.105925,4.28088987 C216.105925,6.78969618 214.236774,8.84314119 211.953131,8.84314119 C209.668364,8.84314119 207.799213,6.78969618 207.799213,4.28088987 L207.799213,0 L199.492502,0 L199.492502,4.28088987 C199.492502,6.78969618 197.623351,8.84314119 195.339708,8.84314119 C193.054941,8.84314119 191.18579,6.78969618 191.18579,4.28088987 L191.18579,0 L182.879079,0 L182.879079,4.28088987 C182.879079,6.78969618 181.011051,8.84314119 178.726285,8.84314119 C176.441518,8.84314119 174.57349,6.78969618 174.57349,4.28088987 L174.57349,0 L166.266779,0 L166.266779,4.28088987 C166.266779,6.78969618 164.397628,8.84314119 162.112861,8.84314119 C159.829218,8.84314119 157.960067,6.78969618 157.960067,4.28088987 L157.960067,0 L149.653356,0 L149.653356,4.28088987 C149.653356,6.78969618 147.784205,8.84314119 145.499438,8.84314119 C143.215795,8.84314119 141.346644,6.78969618 141.346644,4.28088987 L141.346644,0 L133.039933,0 L133.039933,4.28088987 C133.039933,6.78969618 131.170782,8.84314119 128.886015,8.84314119 C126.602372,8.84314119 124.733221,6.78969618 124.733221,4.28088987 L124.733221,0 L116.42651,0 L116.42651,4.28088987 C116.42651,6.78969618 114.557359,8.84314119 112.272592,8.84314119 C109.988949,8.84314119 108.119798,6.78969618 108.119798,4.28088987 L108.119798,0 L99.8130865,0 L99.8130865,4.28088987 C99.8130865,6.78969618 97.943936,8.84314119 95.6602924,8.84314119 C93.3755255,8.84314119 91.5063749,6.78969618 91.5063749,4.28088987 L91.5063749,0 L83.1996634,0 L83.1996634,4.28088987 C83.1996634,6.78969618 81.3305129,8.84314119 79.0468693,8.84314119 C76.7621024,8.84314119 74.8929519,6.78969618 74.8929519,4.28088987 L74.8929519,0 L66.5862403,0 L66.5862403,4.28088987 C66.5862403,6.78969618 64.7170898,8.84314119 62.4334462,8.84314119 C60.1486793,8.84314119 58.2795288,6.78969618 58.2795288,4.28088987 L58.2795288,0 L49.9728172,0 L49.9728172,4.28088987 C49.9728172,6.78969618 48.1036667,8.84314119 45.8200231,8.84314119 L45.8200231,8.84314119 C43.5352562,8.84314119 41.6661057,6.78969618 41.6661057,4.28088987 L41.6661057,0 L33.3593941,0 L33.3593941,4.28088987 C33.3593941,6.78969618 31.4902436,8.84314119 29.2066,8.84314119 C26.9218331,8.84314119 25.0526826,6.78969618 25.0526826,4.28088987 L25.0526826,0 L16.745971,0 L16.745971,4.28088987 C16.745971,6.78969618 14.8779438,8.84314119 12.5931769,8.84314119 C10.30841,8.84314119 8.44038277,6.78969618 8.44038277,4.28088987 L8.44038277,0 L0,0 L0,437 L8.44038277,437 L8.44038277,432.71911 C8.44038277,430.210304 10.30841,428.156859 12.5931769,428.156859 C14.8779438,428.156859 16.745971,430.210304 16.745971,432.71911 L16.745971,437 L25.0526826,437 L25.0526826,432.71911 C25.0526826,430.210304 26.9218331,428.156859 29.2066,428.156859 C31.4902436,428.156859 33.3593941,430.210304 33.3593941,432.71911 L33.3593941,437 L41.6661057,437 L41.6661057,432.71911 C41.6661057,430.210304 43.5352562,428.156859 45.8200231,428.156859 L45.8200231,428.156859 C48.1036667,428.156859 49.9728172,430.210304 49.9728172,432.71911 L49.9728172,437 L58.2795288,437 L58.2795288,432.71911 C58.2795288,430.210304 60.1486793,428.156859 62.4334462,428.156859 C64.7170898,428.156859 66.5862403,430.210304 66.5862403,432.71911 L66.5862403,437 L74.8929519,437 L74.8929519,432.71911 C74.8929519,430.210304 76.7621024,428.156859 79.0468693,428.156859 C81.3305129,428.156859 83.1996634,430.210304 83.1996634,432.71911 L83.1996634,437 L91.5063749,437 L91.5063749,432.71911 C91.5063749,430.210304 93.3755255,428.156859 95.6602924,428.156859 C97.943936,428.156859 99.8130865,430.210304 99.8130865,432.71911 L99.8130865,437 L108.119798,437 L108.119798,432.71911 C108.119798,430.210304 109.988949,428.156859 112.272592,428.156859 C114.557359,428.156859 116.42651,430.210304 116.42651,432.71911 L116.42651,437 L124.733221,437 L124.733221,432.71911 C124.733221,430.210304 126.602372,428.156859 128.886015,428.156859 C131.170782,428.156859 133.039933,430.210304 133.039933,432.71911 L133.039933,437 L141.346644,437 L141.346644,432.71911 C141.346644,430.210304 143.215795,428.156859 145.499438,428.156859 C147.784205,428.156859 149.653356,430.210304 149.653356,432.71911 L149.653356,437 L157.960067,437 L157.960067,432.71911 C157.960067,430.210304 159.829218,428.156859 162.112861,428.156859 C164.397628,428.156859 166.266779,430.210304 166.266779,432.71911 L166.266779,437 L174.57349,437 L174.57349,432.71911 C174.57349,430.210304 176.441518,428.156859 178.726285,428.156859 C181.011051,428.156859 182.879079,430.210304 182.879079,432.71911 L182.879079,437 L191.18579,437 L191.18579,432.71911 C191.18579,430.210304 193.054941,428.156859 195.339708,428.156859 C197.623351,428.156859 199.492502,430.210304 199.492502,432.71911 L199.492502,437 L207.799213,437 L207.799213,432.71911 C207.799213,430.210304 209.668364,428.156859 211.953131,428.156859 C214.236774,428.156859 216.105925,430.210304 216.105925,432.71911 L216.105925,437 L224.412636,437 L224.412636,432.71911 C224.412636,430.210304 226.281787,428.156859 228.566554,428.156859 C230.850197,428.156859 232.719348,430.210304 232.719348,432.71911 L232.719348,437 L241.026059,437 L241.026059,432.71911 C241.026059,430.210304 242.89521,428.156859 245.179977,428.156859 C247.463621,428.156859 249.332771,430.210304 249.332771,432.71911 L249.332771,437 L257.639483,437 L257.639483,432.71911 C257.639483,430.210304 259.508633,428.156859 261.7934,428.156859 C264.077044,428.156859 265.946194,430.210304 265.946194,432.71911 L265.946194,437 L274.252906,437 L274.252906,432.71911 C274.252906,430.210304 276.122056,428.156859 278.4057,428.156859 C280.690467,428.156859 282.559617,430.210304 282.559617,432.71911 L282.559617,437 L291,437 L291,0 L282.559617,0 Z" id="Fill-1-Copy" fill="#F7FAFE"></path>
    </g>
</svg>