<?xml version="1.0" encoding="UTF-8"?>
<svg width="40px" height="40px" viewBox="0 0 40 40" version="1.1" xmlns="http://www.w3.org/2000/svg" xmlns:xlink="http://www.w3.org/1999/xlink">
    <!-- Generator: sketchtool 54.1 (76490) - https://sketchapp.com -->
    <title>C8CA3603-6538-454F-8A0C-E2D2372C321D</title>
    <desc>Created with sketchtool.</desc>
    <g id="Page-1" stroke="none" stroke-width="1" fill="none" fill-rule="evenodd">
        <g id="EasyPaisa-(Easypaisa-deposit-screen)" transform="translate(-12.000000, -101.000000)">
            <g id="Group-9" transform="translate(12.000000, 101.000000)">
                <circle id="Oval-Copy-5" fill="#FEF6E4" cx="20" cy="20" r="20"></circle>
                <g id="wallet-filled-money-tool-(1)" transform="translate(8.666667, 9.333333)" fill="#FFB116" fill-rule="nonzero">
                    <path d="M5.9938816,4.74074074 L15.4897959,1.91761541 L14.9869137,0.810507438 C14.6579003,0.0908872553 13.8554287,-0.206283832 13.194727,0.152069538 L4.69387755,4.74074074 L5.9938816,4.74074074 Z" id="Path"></path>
                    <path d="M16.6468124,2.37037037 C16.5324033,2.37037037 16.4179421,2.38548432 16.3035069,2.41571221 L14.1344662,2.99004211 L7.51020408,4.74074074 L15.0291152,4.74074074 L18.3061224,4.74074074 L17.9003977,3.29987799 C17.7443498,2.73814303 17.2189883,2.37037037 16.6468124,2.37037037 Z" id="Path"></path>
                    <path d="M21.1907426,5.68888889 L20.8846422,5.68888889 L20.468453,5.68888889 L20.0522638,5.68888889 L16.8758005,5.68888889 L5.20370745,5.68888889 L3.67320526,5.68888889 L2.38436131,5.68888889 L2.14538816,5.68888889 L1.34523087,5.68888889 C0.920986405,5.68888889 0.542388495,5.8626896 0.295360072,6.13648523 C0.182586226,6.2626693 0.0966632962,6.40790003 0.0483316481,6.56741575 C0.0187956409,6.66741068 0,6.77216727 0,6.87930469 L0,7.02215458 L0,8.3792286 L0,20.1429175 C0,20.8000509 0.60146051,21.3333333 1.34254578,21.3333333 L21.1880575,21.3333333 C21.9291696,21.3333333 22.5306033,20.8000509 22.5306033,20.1429175 L22.5306033,16.8216575 L14.5639366,16.8216575 C13.3046287,16.8216575 12.2816088,15.9145606 12.2816088,14.7979506 L12.2816088,13.7075297 L12.2816088,13.3385008 L12.2816088,12.9694719 L12.2816088,12.1504659 C12.2816088,11.6028746 12.5286104,11.1053046 12.9287159,10.7410374 C13.283148,10.4172204 13.7584092,10.1981839 14.2900573,10.1434248 C14.3786653,10.1339253 14.4699584,10.1291398 14.5612515,10.1291398 L21.4136052,10.1291398 L21.8297944,10.1291398 L22.2459836,10.1291398 L22.5306033,10.1291398 L22.5306033,6.87930469 C22.5332884,6.22219517 21.9318279,5.68888889 21.1907426,5.68888889 Z" id="Path"></path>
                    <path d="M22.5964043,10.7822993 C22.472602,10.6584517 22.3265152,10.5642197 22.1630961,10.5022959 C22.036793,10.456553 21.9031112,10.4296296 21.7619765,10.4296296 L21.7297879,10.4296296 L21.7050275,10.4296296 L21.3212402,10.4296296 L19.9371299,10.4296296 L14.3808806,10.4296296 C13.6974669,10.4296296 13.1428571,11.032687 13.1428571,11.7758 L13.1428571,12.4461659 L13.1428571,12.8634787 L13.1428571,13.2807915 L13.1428571,14.7723482 C13.1428571,15.5154342 13.6974669,16.1185185 14.3808806,16.1185185 L21.7297879,16.1185185 L21.7619765,16.1185185 C21.9031112,16.1185185 22.0368177,16.0915951 22.1630961,16.0458253 C22.3265152,15.9865938 22.472602,15.8896696 22.5964043,15.7658219 C22.844009,15.5208189 23,15.1654299 23,14.7723751 L23,11.7758 C23,11.3826913 22.844009,11.0272754 22.5964043,10.7822993 Z M16.9658736,13.5419485 C16.9658736,13.9134915 16.6885564,14.2150337 16.3468619,14.2150337 L15.9358381,14.2150337 C15.5941436,14.2150337 15.3168264,13.9134915 15.3168264,13.5419485 L15.3168264,13.09502 C15.3168264,12.8796327 15.4084401,12.6884496 15.5545269,12.5672943 C15.6609969,12.478447 15.7922521,12.4219348 15.9358381,12.4219348 L16.0398321,12.4219348 L16.3468619,12.4219348 C16.6885564,12.4219348 16.9658736,12.72345 16.9658736,13.09502 L16.9658736,13.5419485 L16.9658736,13.5419485 Z" id="Shape"></path>
                </g>
            </g>
        </g>
    </g>
</svg>