<?xml version="1.0" encoding="UTF-8"?>
<svg width="140px" height="127px" viewBox="0 0 140 127" version="1.1" xmlns="http://www.w3.org/2000/svg" xmlns:xlink="http://www.w3.org/1999/xlink">
    <!-- Generator: sketchtool 54.1 (76490) - https://sketchapp.com -->
    <title>AD07A2DE-6C81-4CA4-B096-3BC7B86D1C76</title>
    <desc>Created with sketchtool.</desc>
    <g id="Page-1" stroke="none" stroke-width="1" fill="none" fill-rule="evenodd">
        <g id="Easypaisa-Shop" transform="translate(-110.000000, -157.000000)" fill-rule="nonzero">
            <g id="shutterstock_1014402667-[Converted]" transform="translate(110.000000, 157.000000)">
                <g id="Group" transform="translate(24.000000, 0.000000)">
                    <g id="Path">
                        <path d="M70.2779661,26.38 C58.9861582,31.46 50.8231638,35.54 42.640113,40.68 C34.5372881,45.72 26.4344633,51.82 16.9878531,58.82 C12.7158192,48.48 7.58135593,40.58 0.762146893,31.04 C11.7330508,25.18 19.8358757,20.9 28.159322,16.06 C36.4025424,11.32 44.8663842,6.02 55.0149718,0.48 C59.2870056,10.76 64.100565,18.06 70.2779661,26.38 Z" fill="#FFFFFF"></path>
                        <path d="M69.8367232,26.38 C62.3355932,29.76 55.9977401,32.82 50.2615819,35.98 C41.2161017,40.94 33.0932203,46.64 23.3858757,53.82 C21.179661,55.46 18.9132768,57.14 16.6268362,58.82 C16.9076271,58.76 17.1884181,58.7 17.469209,58.62 C14.7615819,52.12 11.8132768,46.64 8.26327684,41.06 C6.3779661,38.12 4.33220339,35.14 2.1460452,32.04 C1.94548023,31.76 1.74491525,31.3 1.46412429,31.08 C1.28361582,30.94 1.34378531,30.84 1.22344633,31 C1.4240113,30.72 2.24632768,30.44 2.56723164,30.28 C8.90508475,26.88 14.4607345,23.94 19.5951977,21.08 C26.8355932,17.1 33.4341808,13.16 41.0155367,8.68 C43.9838983,6.94 47.0725989,5.12 50.2816384,3.3 C51.8661017,2.4 53.5909605,1.62 55.1553672,0.6 C55.2355932,0.56 55.3158192,0.52 55.3759887,0.48 C55.0751412,0.5 54.7742938,0.54 54.4734463,0.56 C58.2641243,9.58 62.3355932,16.26 67.4700565,23.42 C68.1920904,24.42 68.9141243,25.44 69.6762712,26.46 C69.8367232,26.68 70.9398305,26.32 70.8596045,26.2 C65.4443503,18.9 60.9717514,12.36 57.1409605,4 C56.599435,2.82 56.0378531,1.58 55.4963277,0.3 C55.3960452,0.06 54.7542373,0.3 54.5937853,0.38 C47.8748588,4.06 41.5771186,7.84 35.820904,11.24 C26.6550847,16.7 18.5322034,21.26 7.94237288,26.88 C5.51553672,28.18 2.94830508,29.54 0.260734463,30.96 C0.240677966,30.96 0.0802259887,31.06 0.120338983,31.1 C6.13728814,39.46 10.9107345,46.6 14.8217514,55.16 C15.3833333,56.38 15.9248588,57.62 16.4663842,58.9 C16.5666667,59.14 17.1483051,58.82 17.3087571,58.7 C23.5663842,54.06 29.5432203,49.58 35.0988701,45.74 C43.9437853,39.6 52.0265537,34.96 62.8169492,29.88 C65.3039548,28.7 67.9313559,27.5 70.679096,26.28 C71.2206215,26.16 70.0372881,26.28 69.8367232,26.38 Z" fill="#F39700"></path>
                    </g>
                    <path d="M66.9084746,25.74 C56.840113,30.42 49.2186441,34.32 41.6573446,39.02 C34.1361582,43.66 26.6350282,49.08 17.9305085,55.44 C14.1398305,46.84 9.74745763,39.8 4.17175141,31.78 C13.9392655,26.4 21.500565,22.3 29.1822034,17.84 C36.8237288,13.46 44.6257062,8.7 53.9118644,3.58 C57.7225989,12.1 61.8341808,18.64 66.9084746,25.74 Z" id="Path" fill="#FFC043"></path>
                    <g transform="translate(6.819209, 6.200000)" id="Path">
                        <path d="M56.880226,18.9 C39.1502825,27.26 28.159322,34.3 12.0338983,45.96 C8.74463277,38.96 5.09435028,32.9 0.621751412,26.26 C17.8502825,16.7 29.0016949,10 46.069774,0.38 C49.3389831,7.28 52.7887006,12.96 56.880226,18.9 Z" fill="#FFFFFF"></path>
                        <path d="M56.5392655,18.74 C50.5624294,21.62 45.3076271,24.28 40.4338983,27 C32.6920904,31.32 25.6121469,35.96 17.429096,41.74 C15.5638418,43.04 13.6785311,44.4 11.7531073,45.78 C11.9937853,45.76 12.2344633,45.72 12.4951977,45.7 C9.60706215,39.58 6.47824859,34.18 2.74774011,28.48 C2.22627119,27.66 1.68474576,26.86 1.12316384,26.02 C1.08305085,26.16 1.02288136,26.28 0.982768362,26.42 C6.77909605,23.12 11.9336158,20.24 16.8073446,17.48 C24.529096,13.1 31.789548,8.82 40.3737288,3.92 C42.319209,2.82 44.3248588,1.68 46.3706215,0.56 C46.109887,0.56 45.8491525,0.56 45.6084746,0.56 C48.4765537,6.62 51.4649718,11.7 54.8946328,16.86 C55.3759887,17.6 55.8774011,18.34 56.3788136,19.06 C56.5793785,19.34 57.6423729,19.04 57.3816384,18.68 C53.7915254,13.48 50.6627119,8.48 47.7745763,2.68 C47.3533898,1.86 46.9522599,1 46.5310734,0.14 C46.4107345,-0.1 45.9293785,0.04 45.7689266,0.14 C40.1330508,3.26 34.9183616,6.32 30.0245763,9.16 C22.2225989,13.72 15.0824859,17.78 6.4180791,22.6 C4.45254237,23.7 2.40677966,24.86 0.28079096,26.04 C0.120338983,26.12 0.0401129944,26.28 0.14039548,26.44 C4.07146893,32.26 7.40084746,37.64 10.3491525,43.6 C10.770339,44.46 11.1915254,45.32 11.6127119,46.2 C11.7330508,46.46 12.1943503,46.24 12.3548023,46.12 C17.669774,42.3 22.6638418,38.76 27.4172316,35.62 C35.0186441,30.58 42.1186441,26.5 50.9635593,22.1 C52.969209,21.1 55.0751412,20.08 57.2612994,19.02 C57.8629944,18.76 56.9403955,18.54 56.5392655,18.74 Z" fill="#F39700"></path>
                    </g>
                    <g transform="translate(27.677966, 21.000000)" id="Path">
                        <path d="M14.1398305,3.98 C12.1341808,0.56 7.62146893,-0.72 4.13163842,1.28 C0.661864407,3.28 -0.421186441,7.82 1.60451977,11.32 C3.65028249,14.82 8.06271186,15.88 11.4923729,13.8 C14.9220339,11.7 16.1254237,7.38 14.1398305,3.98 Z" fill="#FFC043"></path>
                        <path d="M14.5610169,3.86 C12.9364407,1.2 9.84774011,-0.24 6.69887006,0.24 C3.59011299,0.7 0.962711864,2.9 0.300847458,6.04 C-0.381073446,9.3 1.18333333,12.76 4.09152542,14.24 C6.73898305,15.6 10.0683616,15.14 12.4550847,13.36 C15.5036723,11.1 16.3861582,7.08 14.5610169,3.86 C14.440678,3.64 13.6183616,3.96 13.6785311,4.08 C15.0022599,6.42 14.9621469,9.26 13.4579096,11.54 C11.7330508,14.18 8.44378531,15.34 5.51553672,14.18 C2.98841808,13.18 1.22344633,10.72 1.02288136,7.94 C0.802259887,5.04 2.38672316,2.16 5.03418079,0.98 C8.22316384,-0.44 11.9737288,1.26 13.6785311,4.06 C13.8189266,4.3 14.6412429,3.98 14.5610169,3.86 Z" fill="#F39700"></path>
                    </g>
                    <g transform="translate(45.127119, 17.200000)" id="Path">
                        <path d="M7.20028249,1.98 C6.27768362,0.4 4.13163842,-0.12 2.42683616,0.82 C0.722033898,1.76 0.120338983,3.8 1.02288136,5.34 C1.92542373,6.88 4.01129944,7.38 5.71610169,6.48 C7.44096045,5.56 8.12288136,3.56 7.20028249,1.98 Z" fill="#FFC043"></path>
                        <path d="M7.70169492,1.86 C6.63870056,0.18 4.43248588,-0.3 2.50706215,0.56 C0.541525424,1.44 -0.461299435,3.7 0.581638418,5.46 C1.54435028,7.14 3.79067797,7.54 5.6759887,6.74 C7.68163842,5.86 8.66440678,3.7 7.70169492,1.86 C7.56129944,1.6 6.61864407,1.9 6.73898305,2.1 C7.38079096,3.34 7.24039548,4.84 6.13728814,5.88 C4.65310734,7.26 2.40677966,6.74 1.50423729,5.22 C0.802259887,4.04 1.00282486,2.46 2.06581921,1.42 C3.55,-0.04 5.79632768,0.58 6.73898305,2.1 C6.87937853,2.36 7.8019774,2.04 7.70169492,1.86 Z" fill="#F39700"></path>
                    </g>
                    <g transform="translate(17.850282, 32.800000)" id="Path">
                        <path d="M7.05988701,1.96 C6.13728814,0.36 4.05141243,-0.14 2.36666667,0.86 C0.681920904,1.86 0.100282486,4.06 1.06299435,5.72 C2.02570621,7.38 4.13163842,7.82 5.77627119,6.76 C7.44096045,5.68 8.00254237,3.54 7.05988701,1.96 Z" fill="#FFC043"></path>
                        <path d="M7.48107345,1.76 C6.3779661,0.02 4.05141243,-0.46 2.18615819,0.62 C0.340960452,1.68 -0.441242938,4.12 0.64180791,5.94 C1.72485876,7.78 4.19180791,8.14 5.97683616,7 C7.8420904,5.82 8.44378531,3.56 7.48107345,1.76 C7.32062147,1.44 6.43813559,1.78 6.65875706,2.16 C7.38079096,3.54 7.1,5.38 5.71610169,6.42 C4.2720339,7.5 2.32655367,6.96 1.50423729,5.5 C0.722033898,4.1 1.08305085,2.16 2.44689266,1.2 C3.97118644,0.14 5.77627119,0.8 6.63870056,2.18 C6.85932203,2.48 7.72175141,2.12 7.48107345,1.76 Z" fill="#F39700"></path>
                    </g>
                    <path d="M33.6146893,24.84 C33.6949153,24.98 33.7751412,25.12 33.8754237,25.26 C34.1762712,25.12 34.4370056,25.04 34.6977401,25.02 C34.9384181,25 35.1991525,25.02 35.459887,25.12 C35.660452,25.18 35.820904,25.28 35.9813559,25.38 C36.1217514,25.48 36.2420904,25.6 36.3022599,25.72 C36.3824859,25.86 36.4025424,26 36.3624294,26.14 C36.3223164,26.3 36.2420904,26.4 36.1016949,26.48 C35.8409605,26.62 35.6002825,26.58 35.3596045,26.36 C35.0788136,26.08 34.7378531,25.98 34.3567797,26.08 C34.6776836,26.62 34.9985876,27.16 35.3194915,27.7 C35.700565,27.6 36.0014124,27.54 36.2220339,27.5 C36.4627119,27.46 36.6833333,27.46 36.9240113,27.52 C37.1646893,27.56 37.3853107,27.66 37.6059322,27.82 C37.8064972,27.96 37.9870056,28.16 38.1274011,28.4 C38.3079096,28.7 38.3881356,29 38.4081921,29.34 C38.4282486,29.68 38.3480226,30 38.1675141,30.32 C37.9870056,30.64 37.7262712,30.92 37.3853107,31.18 C37.5658192,31.5 37.7663842,31.82 37.9468927,32.14 C38.0271186,32.3 38.0872881,32.42 38.1073446,32.5 C38.1274011,32.58 38.0672316,32.66 37.9669492,32.72 C37.8666667,32.78 37.7864407,32.78 37.7262712,32.76 C37.6460452,32.72 37.5858757,32.64 37.5056497,32.52 C37.3050847,32.18 37.1045198,31.82 36.8838983,31.48 C36.5629944,31.62 36.2621469,31.72 35.9612994,31.74 C35.6805085,31.76 35.3997175,31.74 35.1590395,31.68 C34.9183616,31.6 34.6977401,31.5 34.5172316,31.38 C34.3367232,31.24 34.1963277,31.1 34.0960452,30.92 C34.0158192,30.8 33.9957627,30.66 34.0358757,30.5 C34.0759887,30.34 34.1762712,30.22 34.3166667,30.14 C34.4370056,30.08 34.5573446,30.04 34.6576271,30.04 C34.7779661,30.04 34.8782486,30.1 34.9584746,30.18 C35.1590395,30.36 35.3194915,30.48 35.419774,30.56 C35.540113,30.64 35.6805085,30.7 35.8409605,30.72 C36.0014124,30.76 36.1819209,30.74 36.3824859,30.68 C36.0214689,30.08 35.6805085,29.48 35.3194915,28.88 C34.9183616,28.98 34.5573446,29.06 34.2564972,29.08 C33.9556497,29.1 33.6548023,29.04 33.3940678,28.92 C33.1132768,28.78 32.8725989,28.54 32.6720339,28.2 C32.4112994,27.76 32.3310734,27.3 32.4514124,26.84 C32.5717514,26.38 32.8725989,25.98 33.3940678,25.62 C33.3138418,25.48 33.2336158,25.34 33.1533898,25.2 C33.0129944,24.98 33.0330508,24.82 33.2135593,24.72 C33.3539548,24.56 33.4943503,24.62 33.6146893,24.84 Z M34.7177966,27.82 C34.4169492,27.32 34.1361582,26.82 33.8353107,26.32 C33.6548023,26.52 33.5344633,26.7 33.4742938,26.88 C33.4141243,27.06 33.4542373,27.26 33.5745763,27.48 C33.6949153,27.68 33.8353107,27.8 34.0158192,27.84 C34.1963277,27.88 34.4370056,27.86 34.7177966,27.82 Z M35.8810734,28.68 C36.2220339,29.24 36.5429379,29.82 36.8838983,30.38 C37.1245763,30.18 37.2649718,29.96 37.3050847,29.72 C37.3451977,29.48 37.3251412,29.26 37.2048023,29.04 C37.0644068,28.82 36.9039548,28.68 36.6833333,28.64 C36.4827684,28.6 36.2019774,28.6 35.8810734,28.68 Z" id="Shape" fill="#FFFFFF"></path>
                </g>
                <g id="Group" transform="translate(20.000000, 39.000000)" fill="#6A79A8">
                    <path d="M0.971428571,10.2934426 C1.67619048,6.45737705 3.12380952,2.81311475 5.98095238,0.383606557 C6.36190476,0.0426229508 5.44761905,0.127868852 5.25714286,0.298360656 C2.32380952,2.81311475 0.8,6.5 0.0571428571,10.4639344 C2.77555756e-17,10.7622951 0.914285714,10.5918033 0.971428571,10.2934426 L0.971428571,10.2934426 Z" id="Path"></path>
                    <path d="M4.47619048,12.4672131 C5.02857143,9.52622951 5.98095238,6.69180328 7.75238095,4.39016393 C8.11428571,3.92131148 7.23809524,3.87868852 7.00952381,4.17704918 C5.16190476,6.5852459 4.13333333,9.50491803 3.56190476,12.595082 C3.48571429,13.0213115 4.41904762,12.8508197 4.47619048,12.4672131 L4.47619048,12.4672131 Z" id="Path"></path>
                </g>
                <g id="Group" transform="translate(94.000000, 13.000000)" fill="#6A79A8">
                    <path d="M0.906060606,0.574468085 C3.13181818,0.229787234 5.47575758,0.995744681 7.42575758,1.99148936 C9.23787879,2.92978723 11.030303,4.23191489 11.9954545,6.01276596 C12.1333333,6.28085106 13.0590909,5.95531915 12.9409091,5.76382979 C11.8575758,3.79148936 9.86818182,2.39361702 7.83939394,1.41702128 C5.75151515,0.421276596 3.36818182,-0.210638298 1.04393939,0.153191489 C0.63030303,0.229787234 0.236363636,0.689361702 0.906060606,0.574468085 L0.906060606,0.574468085 Z" id="Path"></path>
                    <path d="M0.374242424,4.55744681 C3.4469697,4.09787234 7.50454545,6.14680851 8.98181818,8.80851064 C9.13939394,9.07659574 10.0454545,8.75106383 9.92727273,8.55957447 C8.29242424,5.59148936 3.91969697,3.63829787 0.531818182,4.13617021 C0.0984848485,4.19361702 -0.295454545,4.65319149 0.374242424,4.55744681 L0.374242424,4.55744681 Z" id="Path"></path>
                </g>
                <g id="Group" transform="translate(0.000000, 52.000000)">
                    <g transform="translate(0.199469, 33.427276)" id="Path">
                        <path d="M1.21676017,37.8775338 L52.3206875,38.0386291 C52.9190941,38.0386291 53.3978194,37.5553432 53.3978194,36.9713727 L53.3978194,1.57067923 C53.3978194,0.986708748 52.9190941,0.503422831 52.3206875,0.503422831 L2.65293612,0.503422831 L2.53325479,0.503422831 C0.817822412,0.543696657 0.239362657,1.69150071 0.219415769,2.57752489 L0.219415769,2.63793563 L0.179521993,35.6826102 C0.179521993,35.6826102 0.219415769,36.5686344 0.378990874,36.9915096 C0.538565979,37.4143848 0.738034859,37.8573969 0.738034859,37.8573969 L1.21676017,37.8775338 Z" fill="#E3E3E3"></path>
                        <path d="M1.3364415,38.2198613 C5.8643851,38.2399982 10.3923287,38.2399982 14.9202723,38.2601351 C23.2181777,38.280272 31.4961363,38.3205459 39.7940417,38.3406828 C42.8658625,38.3406828 45.9376833,38.3608197 49.009504,38.3608197 C49.8273265,38.3608197 50.6650958,38.3608197 51.4829182,38.3608197 C52.0813248,38.3608197 52.6797315,38.4010935 53.1983505,38.058766 C53.9563323,37.5553432 53.8765447,36.8102774 53.8765447,36.0249378 C53.8765447,34.8771337 53.8765447,33.7494666 53.8765447,32.6016625 C53.8765447,28.775649 53.8765447,24.9496355 53.8765447,21.123622 C53.8765447,14.6596728 54.0361198,8.19572368 53.8765447,1.73177454 C53.836651,-0.100684566 52.1212186,0.161095306 50.8446177,0.161095306 C48.1517879,0.161095306 45.458958,0.161095306 42.7661281,0.161095306 C34.5480102,0.161095306 26.3298923,0.161095306 18.0918275,0.161095306 C13.1051055,0.161095306 8.13833034,0.100684566 3.15160832,0.161095306 C1.59575105,0.181232219 0.119681329,0.946434922 0.0398937762,2.67820946 C0.0199468881,3.2017692 0.0398937762,3.72532895 0.0398937762,4.24888869 C0.0398937762,7.51106863 0.0398937762,10.7933855 0.0199468881,14.0555654 C0.0199468881,21.0833482 -1.13384931e-14,28.1111309 -1.13384931e-14,35.1389136 C-1.13384931e-14,36.1457592 0.119681329,37.0519203 0.538565979,37.9782183 C0.598406643,38.0990398 0.718087971,38.1795875 0.8377693,38.1795875 C1.01729129,38.1997244 1.1768664,38.1997244 1.3364415,38.2198613 C1.77527304,38.2399982 2.33378591,37.595617 1.6755386,37.5754801 C1.5159635,37.5754801 1.35638839,37.5553432 1.19681329,37.5553432 C1.29654773,37.6157539 1.39628217,37.6761647 1.49601661,37.7567123 C0.678194195,35.964527 0.957450628,33.7696035 0.957450628,31.7559122 C0.957450628,28.0507201 0.957450628,24.3455281 0.977397517,20.6403361 C0.977397517,16.6733642 0.997344405,12.7063922 0.997344405,8.73942034 C0.997344405,6.70559211 0.917556852,4.67176387 0.997344405,2.63793563 C1.07713196,0.463149004 3.31118342,0.825613442 4.82714692,0.825613442 C7.5399237,0.825613442 10.2726474,0.825613442 12.9854241,0.825613442 C20.9841263,0.825613442 28.9828284,0.825613442 36.9815305,0.825613442 C40.3326077,0.825613442 43.7036318,0.825613442 47.054709,0.825613442 C48.1717347,0.825613442 49.2887605,0.825613442 50.3858393,0.825613442 C50.9044584,0.825613442 51.5028651,0.745065789 52.0015373,0.825613442 C52.7994128,0.946434922 52.8792003,1.49013158 52.8792003,2.1345128 C52.8792003,3.06081081 52.8792003,4.00724573 52.8792003,4.93354374 C52.8792003,8.45750356 52.8792003,11.9814634 52.8792003,15.5054232 C52.8792003,22.3721106 52.8792003,29.238798 52.8792003,36.1054854 C52.8792003,36.5887713 53.0188286,37.5150693 52.4403688,37.6963016 C52.1012717,37.817123 51.5028651,37.6963016 51.1438211,37.6963016 C48.7302476,37.6963016 46.3166742,37.6761647 43.8831538,37.6761647 C36.004133,37.6560277 28.1450591,37.6358908 20.2660383,37.595617 C14.3817063,37.5754801 8.47742744,37.5553432 2.59309545,37.5352063 C2.27394524,37.5352063 1.95479503,37.5352063 1.65559171,37.5352063 C1.25665395,37.5553432 0.678194195,38.1997244 1.3364415,38.2198613 Z" fill="#333333"></path>
                    </g>
                    <g transform="translate(3.789909, 0.000000)">
                        <g id="Path">
                            <path d="M0.578459755,64.6394915 C2.63298923,53.1010402 5.08645646,42.1666963 7.06119838,32.1385135 C9.07583408,21.9290985 10.6117445,12.6459815 12.1077611,0.362464438 C22.8591338,4.08779339 32.3937463,7.71243777 43.3246409,9.56503378 C40.7714393,19.3314367 37.9988218,28.9367443 35.7847172,38.0386291 C33.510772,47.3016092 31.8152865,56.0611664 30.2195355,68.1030405 C20.1264101,66.7135935 11.1104167,64.981819 0.578459755,64.6394915 Z" fill="#FFFFFF"></path>
                            <path d="M1.07713196,64.4582592 C2.47341412,56.7055477 4.08911206,49.0535206 5.56518178,41.9451903 C7.91891457,30.5678343 9.83381583,20.7611575 11.4694607,8.96092639 C11.8484515,6.22230619 12.2274424,3.36286451 12.6064333,0.302053698 C12.30723,0.382601351 12.0279735,0.463149004 11.7287702,0.543696657 C18.3910308,2.85944168 24.774035,5.19532361 31.1370923,7.0076458 C34.5280633,7.97421764 37.9389812,8.81996799 41.5493679,9.48448613 C41.9084119,9.54489687 42.2874028,9.62544452 42.6663936,9.68585526 C42.9456501,9.72612909 42.8259687,9.70599218 42.8060218,9.66571835 C42.8658625,9.98790896 42.5666592,10.5718794 42.4868716,10.8940701 C40.9509613,16.7337749 39.2953695,22.6338905 37.8192998,28.2520893 C35.6849828,36.2464438 33.869816,43.6568279 32.3538525,51.8726885 C31.7554458,55.1147315 31.1769861,58.5178698 30.6384201,62.202925 C30.4588981,63.3910028 30.2793761,64.6193546 30.0998541,65.8879801 C30.0200666,66.5323613 29.8205977,67.297564 29.8205977,67.9620821 C29.8205977,68.0426298 29.8006508,68.1433144 29.7807039,68.2439989 C30.0599604,68.1030405 30.3392168,67.9822191 30.6184732,67.8412607 C21.8218956,66.6330459 13.723459,65.1227774 4.88698758,64.5589438 C3.63033363,64.4783962 2.33378591,64.4179854 1.01729129,64.3575747 C0.777928636,64.3575747 -0.0797875524,64.8811344 0.199468881,64.9012713 C9.49471873,65.203325 17.4535271,66.5323613 26.1902641,67.8211238 C27.4070242,68.002356 28.6437313,68.1835882 29.8804384,68.3446835 C30.0400135,68.3648204 30.6783139,68.2037251 30.7182077,67.9419452 C31.7953396,59.8469061 32.9323122,53.2017248 34.2687537,46.8585971 C36.363177,36.9310989 39.1357944,27.2049698 41.9881994,16.6532272 C42.6464467,14.2569346 43.2847472,11.840505 43.8831538,9.48448613 C43.9031007,9.42407539 43.8632069,9.40393848 43.8033663,9.40393848 C34.1690193,7.77284851 25.7514325,4.83285917 16.4761296,1.57067923 C15.1795818,1.10753023 13.8630872,0.664518137 12.5465926,0.201369132 C12.3670706,0.140958393 11.6888764,0.161095306 11.6689295,0.443012091 C10.6715851,8.71928343 9.63434695,15.6866554 8.43753366,22.513069 C6.56252618,33.2057699 4.08911206,44.1401138 1.69548549,56.403494 C1.15691951,59.2025249 0.618353531,62.0418297 0.139628217,64.8408606 C0.0598406643,65.0422297 1.03723818,64.7200391 1.07713196,64.4582592 Z" fill="#F39700"></path>
                        </g>
                        <path d="M3.13166143,62.4445679 C5.22608468,51.6310455 7.40029548,41.8042319 9.17556852,32.6016625 C10.9907353,23.2984086 12.4269113,14.619399 13.902981,3.5038229 C23.0187089,6.70559211 31.2567736,9.52475996 40.6118642,11.1155761 C38.1185031,20.4389669 35.6849828,29.1783873 33.7102409,37.6358908 C31.6956052,46.1940789 30.119801,54.4502134 28.5639437,65.4248311 C19.966835,64.0957948 12.1676017,62.8070324 3.13166143,62.4445679 Z" id="Path" fill="#FFC043"></path>
                        <g transform="translate(4.986722, 6.041074)" id="Path">
                            <path d="M0.678194195,54.2085704 C2.69282989,44.2609353 4.60773115,35.4006935 6.22342909,27.0036006 C7.85907391,18.5259602 9.2154623,10.4913318 10.6715851,0.523559744 C18.2314557,3.14135846 25.1729728,5.31614509 32.9522591,6.68545519 C30.6184732,15.4248755 28.5041031,23.3990932 26.72883,31.2122155 C24.9336101,39.1058855 23.4774873,46.8183233 21.9814707,56.7458215 C14.8205379,55.5778805 8.19817101,54.5911718 0.678194195,54.2085704 Z" fill="#FFFFFF"></path>
                            <path d="M1.1768664,54.0877489 C2.53325479,47.4022937 3.8497494,41.1397137 5.04656269,35.2597351 C6.96146394,25.8356597 8.5372681,17.4385669 10.0731785,7.59161629 C10.4322225,5.33628201 10.7713196,3.00040007 11.1303636,0.543696657 C10.871054,0.644381223 10.6316914,0.745065789 10.3723818,0.845750356 C16.9748018,3.14135846 23.1184433,5.09463905 29.7408101,6.44381223 C30.6783139,6.64518137 31.6357645,6.82641358 32.613162,6.98750889 C32.5533214,6.90696124 32.4735338,6.82641358 32.4136932,6.74586593 C30.8578359,12.6258446 29.3618193,18.2440434 28.0453247,23.6205992 C25.9110076,32.2391981 24.2155221,40.1731419 22.5998242,49.8589972 C22.2208333,52.0740576 21.8617893,54.3898026 21.4827985,56.846506 C21.7221611,56.7055477 21.9615238,56.5645893 22.2008864,56.4236309 C15.9575105,55.3765114 10.0931254,54.4904872 3.73006807,54.0273382 C2.81251122,53.9669275 1.89495437,53.9065167 0.957450628,53.846106 C0.598406643,53.8259691 -0.219415769,54.5508979 0.359043986,54.5710349 C6.96146394,54.8932255 12.8457959,55.6785651 19.0293312,56.6652738 C19.9069943,56.8062322 20.7846574,56.9471906 21.6822674,57.088149 C21.92163,57.1284228 22.3604616,57.0076014 22.4003553,56.6652738 C23.3976997,49.9999555 24.3950441,44.3012091 25.492123,38.8441056 C27.2275022,30.2456437 29.3219255,22.04992 31.7554458,12.9278983 C32.3139587,10.8537962 32.8724716,8.75955725 33.4309844,6.62504445 C33.4708782,6.50422297 33.3511969,6.40353841 33.2315156,6.38340149 C26.3897329,5.1751867 20.2460914,3.36286451 13.7035121,1.16794097 C12.7660084,0.845750356 11.8484515,0.543696657 10.9109478,0.201369132 C10.6516382,0.120821479 10.1928598,0.161095306 10.152966,0.503422831 C9.19551541,7.22915185 8.25801167,13.1091305 7.24072038,18.8280139 C5.64496933,27.9097617 3.75001496,36.8706881 1.61569794,47.1606508 C1.13697262,49.4965327 0.638300419,51.8928254 0.159575105,54.3293919 C0.0997344405,54.8126778 1.09707885,54.5106241 1.1768664,54.0877489 Z" fill="#F39700"></path>
                        </g>
                        <g transform="translate(13.962822, 25.573880)" id="Path">
                            <path d="M6.50268552,14.7200836 C10.3524349,15.4248755 14.2021843,12.9077614 15.0997943,9.04147404 C15.9774574,5.15504979 13.364415,1.3693101 9.39498429,0.443012091 C5.42555356,-0.483285917 1.55585727,1.89286984 0.757981748,6.00080014 C-2.22044605e-16,10.1087304 2.65293612,14.0354285 6.50268552,14.7200836 Z" fill="#FFC043"></path>
                            <path d="M6.16358842,14.9013158 C9.01599342,15.3644648 12.0878142,14.3173453 14.0226623,12.0418741 C16.1968731,9.4442123 16.2966076,5.69874644 14.1622905,3.0406739 C10.0532316,-2.09423898 1.07713196,-0.181232219 0.239362657,6.62504445 C-0.219415769,10.6322902 2.5133079,14.1965238 6.16358842,14.9013158 C6.3630573,14.9415896 7.10109216,14.5992621 6.8617295,14.5388514 C4.20879339,13.9951547 2.0146357,11.9814634 1.31649461,9.16229552 C0.618353531,6.36326458 1.59575105,3.30245377 3.80985563,1.63108997 C6.34311041,-0.281916785 9.89365649,0.181232219 12.30723,2.23519737 C14.441547,4.04751956 15.3391569,6.94723506 14.5412814,9.5851707 C13.543937,12.9077614 10.2925943,15.1026849 6.88167639,14.5388514 C6.66226062,14.5187144 5.92422576,14.861042 6.16358842,14.9013158 Z" fill="#F39700"></path>
                        </g>
                        <g transform="translate(14.561228, 47.120377)" id="Path">
                            <path d="M3.15160832,7.45065789 C4.94682825,7.69230085 6.7021544,6.2424431 7.06119838,4.28916252 C7.42024237,2.33588193 6.28326975,0.56383357 4.5279436,0.302053698 C2.77261744,0.0201369132 0.997344405,1.3693101 0.598406643,3.38300142 C0.199468881,5.37655583 1.35638839,7.22915185 3.15160832,7.45065789 Z" fill="#BBF9BC"></path>
                            <path d="M2.87235189,7.73257468 C4.6875187,7.89366999 6.7021544,6.74586593 7.36040171,4.75231152 C8.07848968,2.57752489 6.84178262,0.402738265 4.84709381,0.0805476529 C3.15160832,-0.201369132 1.21676017,0.845750356 0.41888465,2.67820946 C-0.558512867,4.97381757 0.698141083,7.34997333 2.79256433,7.71243777 C3.03192699,7.75271159 3.82980251,7.26942568 3.5106523,7.20901494 C2.15426391,6.96737198 1.11702573,5.87997866 0.977397517,4.32943634 C0.817822412,2.35601885 2.31383902,0.281916785 4.20879339,0.56383357 C7.71944569,1.04711949 7.30056104,7.49093172 3.43086475,7.20901494 C3.19150209,7.16874111 2.39362657,7.69230085 2.87235189,7.73257468 Z" fill="#6A79A6"></path>
                        </g>
                        <g transform="translate(20.944232, 15.908161)" id="Path">
                            <path d="M3.19150209,7.41038407 C4.98672202,7.83325925 6.80188884,6.66531828 7.24072038,4.81272226 C7.67955192,2.93998933 6.50268552,1.04711949 4.64762493,0.56383357 C2.77261744,0.0805476529 0.957450628,1.26862553 0.598406643,3.18163229 C0.219415769,5.09463905 1.37633528,6.98750889 3.19150209,7.41038407 Z" fill="#FFC043"></path>
                            <path d="M3.0119801,7.71243777 C4.92688136,8.09503912 7.00135772,7.02778272 7.61971125,5.03422831 C8.25801167,2.98026316 6.92157017,0.785339616 4.84709381,0.241642959 C2.93219255,-0.241642959 0.897609964,0.765202703 0.259309545,2.65807255 C-0.478725314,4.85299609 0.857716188,7.10833037 2.91224566,7.69230085 C3.27128965,7.79298542 3.96943073,7.26942568 3.43086475,7.12846728 C1.97474192,6.72572902 0.877663076,5.35641892 0.957450628,3.70519203 C1.01729129,1.87273293 2.59309545,0.402738265 4.38831538,0.865887269 C8.17822412,1.85259602 7.16093283,7.83325925 3.33113031,7.08819346 C2.93219255,7.02778272 2.43352035,7.6117532 3.0119801,7.71243777 Z" fill="#F39700"></path>
                        </g>
                        <path d="M17.8524648,31.9774182 C18.0120399,32.017692 18.1716151,32.0579659 18.3311902,32.0781028 C18.4309246,31.7559122 18.5506059,31.4941323 18.6902341,31.2927632 C18.8298624,31.091394 19.0293312,30.9101618 19.248747,30.7893403 C19.428269,30.6886558 19.607791,30.628245 19.787313,30.5879712 C19.966835,30.5476974 20.1064632,30.5476974 20.2460914,30.5879712 C20.3857196,30.628245 20.505401,30.7087927 20.6051354,30.8296142 C20.684923,30.9705725 20.7248167,31.1115309 20.684923,31.2524893 C20.6250823,31.554543 20.4256134,31.6955014 20.1064632,31.7156383 C19.7075254,31.7357752 19.428269,31.9170075 19.2288001,32.259335 C19.8471537,32.4002934 20.4655072,32.5412518 21.0639138,32.6620733 C21.2434358,32.3197457 21.383064,32.0378289 21.5226923,31.8364598 C21.6423736,31.6350907 21.8019487,31.4739954 22.0014176,31.333037 C22.2008864,31.1920786 22.4203022,31.091394 22.6796118,31.0309833 C22.9189744,30.9907095 23.178284,30.9907095 23.4575404,31.0511202 C23.7966375,31.1316679 24.0958408,31.2726262 24.3551504,31.4941323 C24.6144599,31.7156383 24.8139288,31.9975551 24.9336101,32.3398826 C25.0532914,32.6822102 25.0931852,33.0648115 25.0333446,33.4876867 C25.4123354,33.5682344 25.7713794,33.6286451 26.1503703,33.7091927 C26.3298923,33.7494666 26.4495736,33.7897404 26.5293612,33.8300142 C26.6091487,33.8702881 26.6290956,33.9709726 26.6091487,34.0716572 C26.5892018,34.1723417 26.5293612,34.2528894 26.4695205,34.2730263 C26.3897329,34.2931632 26.2899985,34.3133001 26.1503703,34.2730263 C25.7514325,34.1924787 25.3524948,34.111931 24.953557,34.0313834 C24.8338757,34.3737109 24.6942475,34.6556277 24.5147255,34.8771337 C24.3352035,35.1187767 24.1357346,35.3000089 23.9163188,35.4208304 C23.6969031,35.5617888 23.4774873,35.6423364 23.2580715,35.6826102 C23.0386557,35.7228841 22.8391869,35.7228841 22.639718,35.6826102 C22.5000898,35.6624733 22.3804084,35.5819257 22.3006209,35.4409673 C22.2008864,35.3000089 22.1809396,35.1590505 22.2208333,34.9979552 C22.2407802,34.8569968 22.3006209,34.7563122 22.3804084,34.6757646 C22.460196,34.5952169 22.5599304,34.5549431 22.6796118,34.5348062 C22.9389213,34.5146693 23.1383902,34.4743954 23.2780184,34.4341216 C23.4176466,34.3938478 23.5572748,34.3334371 23.6769562,34.2327525 C23.8165844,34.1320679 23.9163188,33.9911095 24.0160533,33.8098773 C23.3378591,33.6689189 22.639718,33.5279605 21.9615238,33.3870021 C21.7820018,33.7696035 21.5825329,34.0716572 21.4030109,34.3133001 C21.2234889,34.5549431 20.9841263,34.7361753 20.7048698,34.8368599 C20.4256134,34.9576814 20.0865163,34.9778183 19.7075254,34.8972706 C19.2088532,34.7965861 18.8099155,34.5348062 18.5506059,34.1522048 C18.2912964,33.7494666 18.1915619,33.2460437 18.2514026,32.6016625 C18.0918275,32.5613887 17.9322524,32.5412518 17.7726773,32.500978 C17.5133677,32.4405672 17.4136333,32.3197457 17.4535271,32.1385135 C17.473474,31.9774182 17.6131022,31.9170075 17.8524648,31.9774182 Z M20.8046043,33.2057699 C20.2460914,33.0849484 19.6676317,32.964127 19.1091188,32.8433055 C19.1290657,33.1050853 19.1889063,33.3265914 19.2886408,33.4876867 C19.3883752,33.648782 19.5479503,33.7696035 19.787313,33.8098773 C20.0266756,33.8501511 20.2061976,33.8300142 20.3458259,33.7293297 C20.505401,33.6286451 20.6450292,33.4675498 20.8046043,33.2057699 Z M22.2208333,32.9238531 C22.8591338,33.0648115 23.5173811,33.2057699 24.1556815,33.3265914 C24.1556815,33.0245377 24.0958408,32.7627578 23.9362657,32.5613887 C23.7966375,32.3600196 23.5971686,32.2391981 23.357806,32.1787873 C23.0984964,32.1183766 22.8790806,32.1586504 22.7195055,32.2794719 C22.5399835,32.4405672 22.3804084,32.6419363 22.2208333,32.9238531 Z" id="Shape" fill="#FFFFFF"></path>
                    </g>
                    <g transform="translate(0.000000, 35.642336)">
                        <path d="M0.777928636,33.7696035 L0.817822412,0.724928876 L0.857716188,0.422875178 C0.857716188,0.422875178 1.13697262,1.08739331 2.19415769,1.02698257 L49.7076451,1.02698257 C50.2462111,1.02698257 50.6850426,1.46999467 50.6850426,2.03382824 L50.6850426,37.353974 C50.6850426,37.8976707 50.2462111,38.3608197 49.7076451,38.3608197 L5.28592534,38.3608197 C2.79256433,38.3608197 0.777928636,36.3068546 0.777928636,33.7696035 Z" id="XMLID_21_" fill="#EFEFEF"></path>
                        <path d="M0.738034859,32.2190612 L0.777928636,1.02698257 L0.877663076,0.805476529 L1.15691951,1.02698257 C9.83381583,1.02698257 18.5107122,1.02698257 27.1876085,1.02698257 C32.9522591,1.02698257 38.7368567,1.02698257 44.5015073,1.02698257 C47.1743903,1.02698257 48.7701414,1.28876245 49.2688136,4.36971017 C50.0467422,9.02133713 49.9869016,13.7736486 49.6079107,18.4655494 C49.2688136,22.5332059 49.2089729,27.386202 47.1743903,31.0108464 C42.6863405,39.0454748 29.7408101,36.6089083 22.2208333,36.6089083 C16.5160233,36.6089083 10.7912665,36.6089083 5.08645646,36.6089083 C2.69282989,36.5887713 0.738034859,34.6354908 0.738034859,32.2190612 Z" id="XMLID_20_" fill="#FFFFFF"></path>
                        <g id="XMLID_18_" fill="#333333">
                            <path d="M1.11702573,33.7494666 C1.13697262,23.9830637 1.13697262,14.2367977 1.15691951,4.47039474 C1.15691951,3.14135846 1.01729129,1.71163762 1.19681329,0.402738265 C0.877663076,0.483285917 0.578459755,0.56383357 0.259309545,0.644381223 C0.738034859,1.61095306 2.33378591,1.38944701 3.27128965,1.38944701 C5.00666891,1.38944701 6.74204818,1.38944701 8.47742744,1.38944701 C14.3019188,1.38944701 20.146357,1.38944701 25.9708483,1.38944701 C31.7554458,1.38944701 37.5599903,1.38944701 43.3445878,1.38944701 C45.0600202,1.38944701 46.7555057,1.38944701 48.4709381,1.38944701 C49.3286543,1.38944701 50.0467422,1.32903627 50.086636,2.4365665 C50.1863704,6.92709815 50.086636,11.4377667 50.086636,15.9484353 C50.086636,21.8284139 50.086636,27.6882557 50.086636,33.5682344 C50.086636,34.4139847 50.086636,35.279872 50.086636,36.1256223 C50.086636,36.5082237 50.1664236,36.9713727 50.086636,37.3338371 C49.8672202,38.3608197 48.4509912,37.9983553 47.7129563,37.9983553 C42.8459156,37.9983553 37.9788749,37.9983553 33.1118342,37.9983553 C26.9681927,37.9983553 20.8245512,37.9983553 14.6809096,37.9983553 C11.5093544,37.9983553 8.33779922,38.0990398 5.16624402,37.9983553 C2.89229877,37.9178076 1.1768664,36.0249378 1.11702573,33.7494666 C1.09707885,33.2460437 0.119681329,33.3870021 0.139628217,33.8300142 C0.219415769,36.8505512 2.55320168,38.7232841 5.42555356,38.7232841 C6.8617295,38.7232841 8.29790545,38.7232841 9.7141345,38.7232841 C15.5585727,38.7232841 21.383064,38.7232841 27.2275022,38.7232841 C33.0519936,38.7232841 38.856538,38.7232841 44.6810293,38.7232841 C46.1770459,38.7232841 47.6531157,38.7232841 49.1491323,38.7232841 C49.6876982,38.7232841 50.1863704,38.6830103 50.625202,38.300409 C51.0839804,37.8775338 51.0839804,37.374111 51.0839804,36.8102774 C51.0839804,26.1578503 51.0839804,15.5054232 51.0839804,4.85299609 C51.0839804,4.12806721 51.0839804,3.42327525 51.0839804,2.69834637 C51.0839804,2.27547119 51.1438211,1.79218528 50.9443522,1.40958393 C50.44568,0.422875178 48.8499289,0.68465505 47.9323721,0.68465505 C43.0653314,0.68465505 38.1982907,0.68465505 33.33125,0.68465505 C23.0386557,0.68465505 12.7261146,0.886024182 2.43352035,0.68465505 C1.97474192,0.68465505 1.39628217,0.724928876 1.15691951,0.221506046 C0.977397517,-0.140958393 0.279256433,0.161095306 0.219415769,0.463149004 C0.0598406643,1.53040541 0.179521993,2.69834637 0.179521993,3.76560277 C0.179521993,6.40353841 0.179521993,9.02133713 0.159575105,11.6592728 C0.159575105,17.639936 0.139628217,23.6205992 0.139628217,29.6213994 C0.139628217,31.0108464 0.139628217,32.4204303 0.139628217,33.8098773 C0.139628217,34.3133001 1.11702573,34.1723417 1.11702573,33.7494666 Z" id="Path"></path>
                        </g>
                        <path d="M50.2861049,16.8747333 L41.1304832,16.8747333 L39.0759538,19.3515736 C38.13845,20.4792408 38.1783438,22.3116999 39.1557413,23.3789563 L41.0307488,25.4329214 L50.2861049,25.4329214 L50.2861049,16.8747333 L50.2861049,16.8747333 Z" id="Path" fill="#EFEFEF"></path>
                        <path d="M44.2621447,15.7672031 L41.8685181,15.7672031 L39.6344666,18.2440434 C38.6171753,19.3717105 38.6570691,21.2041696 39.7142542,22.271426 L41.7488368,24.3253912 L53.3180319,24.3253912 C53.7768103,24.3253912 54.1358543,23.9226529 54.1358543,23.4192301 L54.1358543,16.6733642 C54.1358543,16.1699413 53.7768103,15.7672031 53.3180319,15.7672031 L46.7156119,15.7672031 L44.2621447,15.7672031 Z" id="XMLID_16_" fill="#EFEFEF"></path>
                        <path d="M43.9230476,15.7672031 L41.8286243,15.7672031 L39.8937762,17.9822635 C39.0161131,18.9891092 39.0560069,20.6201991 39.9735637,21.586771 L41.7488368,23.4192301 C43.4443223,23.4192301 45.1398078,23.4192301 46.8352932,23.4192301 C48.8100352,23.4192301 51.163768,24.0434744 52.1212186,21.7680032 C52.7794659,20.197324 52.5401032,18.2440434 52.5401032,16.5726796 C52.5401032,16.1296675 52.220953,15.7470661 51.8220153,15.7470661 L46.0773115,15.7470661 L43.9230476,15.7470661 L43.9230476,15.7672031 Z" id="XMLID_14_" fill="#FFFFFF"></path>
                        <g id="XMLID_12_" transform="translate(38.298025, 15.505423)" fill="#333333">
                            <path d="M6.26332286,0.0604107397 C5.10640335,0.0604107397 3.63033363,-0.281916785 2.79256433,0.664518137 C1.53591038,2.07410206 -0.398937762,3.58437055 0.239362657,5.71888336 C0.498672202,6.60490754 1.21676017,7.18887802 1.8351137,7.83325925 C2.19415769,8.19572368 2.65293612,8.90051565 3.15160832,9.04147404 C3.5106523,9.14215861 4.02927139,9.04147404 4.40826227,9.04147404 C5.24603157,9.04147404 6.08380087,9.04147404 6.94151706,9.04147404 C8.93620587,9.04147404 10.9308947,9.04147404 12.9255835,9.04147404 C13.8032466,9.04147404 15.3989976,9.30325391 16.0572449,8.57832504 C16.396342,8.19572368 16.3165545,7.63189011 16.3165545,7.1486042 C16.3165545,6.20216927 16.3165545,5.27587127 16.3165545,4.32943634 C16.3165545,3.42327525 16.3165545,2.49697724 16.3165545,1.59081615 C16.3165545,1.02698257 16.396342,0.382601351 15.7580416,0.140958393 C15.2194756,-0.0604107397 14.4216001,0.0805476529 13.8830341,0.0805476529 C12.7460615,0.0805476529 11.6090889,0.0805476529 10.4721162,0.0805476529 C9.05588719,0.0604107397 7.65960503,0.0604107397 6.26332286,0.0604107397 C6.06385398,0.0604107397 5.16624402,0.463149004 5.64496933,0.463149004 C8.11838345,0.463149004 10.5917976,0.463149004 13.0652117,0.463149004 C13.5638839,0.463149004 14.2221312,0.362464438 14.7208034,0.463149004 C15.3192101,0.583970484 15.3391569,1.04711949 15.3391569,1.55054232 C15.3591038,3.08094772 15.3391569,4.59121622 15.3391569,6.12162162 C15.3391569,6.72572902 15.3591038,7.34997333 15.3391569,7.97421764 C15.3391569,8.11517603 15.3989976,8.43736664 15.3591038,8.5179143 C15.2793163,8.73942034 15.4588383,8.55818812 15.1795818,8.63873578 C14.7806441,8.75955725 14.1622905,8.63873578 13.7434059,8.63873578 C13.005371,8.63873578 12.2673362,8.63873578 11.5293013,8.63873578 C9.83381583,8.63873578 8.13833034,8.63873578 6.44284485,8.63873578 C5.80454444,8.63873578 5.16624402,8.63873578 4.5279436,8.63873578 C4.30852783,8.63873578 3.94948384,8.71928343 3.73006807,8.63873578 C3.98937762,8.73942034 3.41091786,8.2158606 3.31118342,8.11517603 C2.97208633,7.77284851 2.65293612,7.45065789 2.31383902,7.10833037 C1.55585727,6.34312767 0.957450628,5.53765114 1.05718507,4.38984708 C1.1768664,2.75875711 2.95213944,1.38944701 3.96943073,0.241642959 C3.71012119,0.322190612 3.47075853,0.402738265 3.21144898,0.483285917 C4.00932451,0.483285917 4.80720003,0.483285917 5.60507555,0.483285917 C5.84443821,0.463149004 6.74204818,0.0604107397 6.26332286,0.0604107397 Z" id="Path"></path>
                        </g>
                        <g id="XMLID_1_" transform="translate(42.287403, 16.915007)">
                            <ellipse id="Oval" fill="#F9F9F9" transform="translate(3.195890, 3.217901) rotate(-76.643335) translate(-3.195890, -3.217901) " cx="3.19589041" cy="3.21790088" rx="2.59620925" ry="2.57431352"></ellipse>
                            <path d="M5.28592534,3.26217994 C5.22608468,4.45025782 4.42820916,5.61819879 3.11171454,5.4772404 C1.95479503,5.35641892 1.11702573,4.24888869 1.11702573,3.12122155 C1.11702573,1.87273293 2.15426391,0.68465505 3.47075853,0.986708748 C4.58778426,1.22835171 5.22608468,2.23519737 5.28592534,3.3427276 C5.30587223,3.72532895 6.26332286,3.5038229 6.24337597,3.08094772 C6.04390709,-0.724928876 0.0997344405,-0.422875178 0.119681329,3.30245377 C0.139628217,7.1486042 6.04390709,6.8465505 6.24337597,3.16149538 C6.28326975,2.71848329 5.30587223,2.87957859 5.28592534,3.26217994 Z" id="Path" fill="#333333"></path>
                        </g>
                    </g>
                </g>
                <g id="Group" transform="translate(93.000000, 25.000000)">
                    <g>
                        <g id="Path">
                            <path d="M16.4336647,68.5425169 C14.3843828,56.4018482 12.3942148,47.356648 9.69467992,37.3868274 C7.0739636,27.5979107 3.76358509,16.8642732 0.650252921,5.28641699 C11.468097,4.4823992 20.6110471,2.27135027 31.1136171,0.241205338 C33.2220129,12.4622758 35.1333624,21.1255675 37.576737,30.231069 C39.9412931,39.175767 42.8575789,48.5827751 45.4191813,58.3113904 C34.9954299,60.462138 26.3056864,64.3415239 16.4336647,68.5425169 Z" fill="#FFFFFF"></path>
                            <path d="M16.906576,68.3415124 C15.5075469,60.1606314 14.1479272,53.3063797 12.5715565,46.6732329 C10.1281819,36.2813029 6.97544043,25.8089712 3.50742485,13.648202 C2.71923949,10.8743407 1.93105413,8.06027838 1.18227804,5.22611566 C1.02464097,5.28641699 0.867003895,5.36681877 0.709366823,5.4271201 C10.2464097,4.70350409 18.3253096,2.97486583 27.3303273,1.14572536 C28.5914239,0.884419572 29.8722251,0.643214234 31.1530263,0.402008897 C30.9756846,0.381908452 30.7983429,0.361808007 30.6210012,0.341707562 C32.0791441,8.60299039 33.4190592,15.2964385 34.8772021,21.5878777 C37.1629397,31.4169953 39.9807023,40.7838026 42.9363974,51.2762348 C43.606355,53.6681877 44.2763125,56.0601406 44.9068608,58.4520936 C45.0644979,58.3716918 45.222135,58.29129 45.3797721,58.2108882 C36.1974126,60.0802296 28.5126054,63.215899 20.0002035,66.8540795 C18.7982208,67.3565906 17.6159428,67.8792022 16.3942555,68.3817133 C15.8622304,68.6028182 15.9016396,68.9445258 16.4533694,68.7234209 C25.0642944,65.0450395 32.9264434,61.5676625 41.616187,59.3566136 C42.8575789,59.0350065 44.1383801,58.7536002 45.438886,58.472194 C45.5177045,58.4520936 45.9512064,58.3515913 45.9117972,58.2309887 C44.2171986,51.7586454 42.2664399,45.1254986 40.4930228,38.8943607 C37.6358509,28.9044397 35.2909995,20.020043 33.1234897,8.60299039 C32.6111692,5.94973167 32.1185534,3.15576984 31.5865283,0.140703114 C31.5668236,-0.0201004448 31.1136171,0.0603013345 31.0545031,0.0804017793 C21.8918483,1.82914048 13.6356067,3.79898407 4.57147508,4.76380542 C3.27096924,4.90450854 1.95075876,5.02511121 0.591139019,5.14571388 C0.512320483,5.14571388 0.0591139019,5.18591477 0.0985231699,5.34671832 C2.1478051,13.0652891 4.41383801,20.7436591 6.44341531,27.7788148 C9.69467992,39.0551643 12.2365777,48.6430765 14.4237921,60.2611336 C14.9361126,62.9545932 15.4287284,65.7686555 15.9410489,68.7636218 C16.0001628,69.0048271 16.9459852,68.5827178 16.906576,68.3415124 Z" fill="#F39700"></path>
                        </g>
                        <path d="M17.9509216,65.3465461 C15.9804582,54.4119041 14.1085179,45.9697173 11.7045526,36.8441154 C9.33999651,27.8391161 6.44341531,18.1708021 3.44831095,7.37686325 C12.6700796,6.57284546 20.6110471,4.86430765 29.4978371,3.05526761 C31.547119,14.1105123 33.3402407,22.2913933 35.5471597,30.7335801 C37.7146694,39.0551643 40.2565672,47.6179538 42.798465,56.8641584 C33.9116751,58.7334998 26.3450956,61.7887674 17.9509216,65.3465461 Z" id="Path" fill="#FFC043"></path>
                        <g transform="translate(5.517298, 5.427120)" id="Path">
                            <path d="M13.9114716,56.844058 C12.0395314,47.0551413 10.2858189,39.2159679 8.13801383,30.8943837 C6.00991336,22.6532013 3.46801558,13.9296083 0.689662189,4.04018941 C8.33506017,3.27637251 15.074045,1.94974315 22.4238735,0.381908452 C24.3746322,10.3316286 26.0889354,17.9898981 28.0988081,25.7687703 C30.0692714,33.4672406 32.3155997,41.3064141 34.7195651,49.9094045 C27.3303273,51.557641 20.886912,53.9495939 13.9114716,56.844058 Z" fill="#FFFFFF"></path>
                            <path d="M14.3646782,56.6430535 C13.083877,50.0501076 11.8818943,44.3214808 10.5616838,38.7335572 C8.49269724,29.8893615 6.06902727,21.2059693 3.1921507,11.0552447 C2.54189778,8.7436935 1.87194023,6.39194146 1.20198267,3.97988808 C1.06405023,4.10049074 0.926117797,4.24119386 0.788185359,4.36179653 C7.48776091,3.6783814 13.458265,2.59295738 19.7637479,1.28642847 C20.670161,1.10552447 21.5765742,0.904520017 22.4829874,0.723616014 C22.3056457,0.643214234 22.128304,0.5829129 21.9312576,0.502511121 C23.2711727,7.21605969 24.49286,12.924586 25.7539566,18.3115052 C27.7441246,26.8541943 29.9510436,34.8139704 32.4732368,43.8189697 C33.0446712,45.8692151 33.6161056,47.9395609 34.2072446,50.0501076 C34.345177,49.9094045 34.4831095,49.7888018 34.6013373,49.6480987 C28.1382173,51.0752303 22.4238735,53.0651743 16.4139601,55.4772277 C15.5666608,55.8189353 14.6996569,56.1807433 13.8326531,56.5224509 C13.2809233,56.7435557 13.3991511,57.38677 13.9705855,57.1656651 C20.0593174,54.633009 25.8130705,52.462161 32.0594395,50.8541254 C32.946148,50.6330205 33.8525612,50.4119156 34.778679,50.1908107 C34.936316,50.1506098 35.2318856,50.0099067 35.1727716,49.7888018 C33.5766963,44.0199742 31.9806209,38.4722514 30.5421827,33.1858344 C28.2170359,24.6833462 26.2662771,16.8441728 24.2761091,7.21605969 C23.8229025,5.00501076 23.3499913,2.69345961 22.87708,0.261305783 C22.8376708,0.0201004448 22.4829874,0.0201004448 22.3253503,0.0402008897 C15.9016396,1.38693069 9.89172626,2.61305783 3.40890168,3.37687473 C2.48278388,3.4974774 1.53696145,3.59797962 0.571434385,3.69848185 C0.39409268,3.71858229 0.0985231699,3.83918496 0.157637072,4.0803903 C2.0295773,10.7135371 3.82269899,16.9848759 5.43847898,22.8140049 C8.01978603,32.1607117 10.1084772,40.442095 12.059236,50.110409 C12.5124426,52.3214579 12.9656492,54.6129086 13.4188557,57.024962 C13.5370835,57.4671718 14.4434967,57.0852633 14.3646782,56.6430535 Z" fill="#F39700"></path>
                        </g>
                        <g transform="translate(15.369615, 23.919529)" id="Path">
                            <path d="M9.45822431,14.7135256 C13.241514,13.6683025 15.6454794,9.82911752 14.6996569,5.96983211 C13.7341299,2.1507476 9.81290772,-0.321607117 5.93109483,0.502511121 C2.04928193,1.30652891 -0.334978778,5.36681877 0.729071457,9.44720907 C1.77341706,13.5275994 5.69463922,15.7587487 9.45822431,14.7135256 Z" fill="#FFC043"></path>
                            <path d="M9.47792894,14.8341283 C12.4139194,13.9698092 14.8178848,11.658258 15.2710913,8.52258861 C15.7242979,5.30651743 13.8523577,2.13064715 10.8178441,0.804017793 C8.07889993,-0.402008897 4.74881679,0.0603013345 2.52219315,1.98994404 C0.0591139019,4.10049074 -0.669957555,7.95977615 0.827594627,11.0150438 C2.50248852,14.4723203 6.10843653,15.6984474 9.47792894,14.8341283 C9.97054479,14.7135256 9.91143089,14.4321194 9.39911041,14.5728225 C6.60105238,15.2964385 3.60594802,14.01001 2.0295773,11.4572536 C0.571434385,9.08540106 0.512320483,5.92963122 1.93105413,3.59797962 C3.60594802,0.844218683 6.87691726,-0.160803559 9.85231699,1.06532358 C12.433624,2.13064715 14.2464504,4.60300187 14.4237921,7.31656192 C14.640543,10.5527335 12.5124426,13.6683025 9.39911041,14.5728225 C8.92619919,14.7135256 8.98531309,14.9949318 9.47792894,14.8341283 Z" fill="#F39700"></path>
                        </g>
                        <g transform="translate(23.645561, 45.024996)" id="Path">
                            <path d="M4.53206581,7.15575836 C6.28577824,6.5929459 7.34982847,4.6633032 6.85721262,2.83416272 C6.38430141,1.00502224 4.59117972,-0.0804017793 2.87687656,0.422109341 C1.1625734,0.924620462 0.118227804,2.83416272 0.551729751,4.72360453 C0.985231699,6.63314679 2.77835339,7.71857081 4.53206581,7.15575836 Z" fill="#BBF9BC"></path>
                            <path d="M4.57147508,7.35676281 C6.44341531,6.67334768 7.84244432,4.82410676 7.29071457,2.71356005 C6.75868945,0.663314679 4.65029362,-0.301506672 2.81776266,0.241205338 C0.985231699,0.783917348 -0.374388046,2.75376094 0.118227804,4.88440809 C0.630548287,7.07535658 2.67983022,7.87937437 4.57147508,7.35676281 C5.1035002,7.21605969 4.9852724,6.8140508 4.47295191,6.95475391 C0.847299261,7.91957526 -0.571434385,1.58793514 2.91628583,0.62311379 C6.40400604,-0.381908452 8.01978603,5.66832544 4.47295191,6.95475391 C3.96063143,7.15575836 4.0591546,7.55776725 4.57147508,7.35676281 Z" fill="#6A79A6"></path>
                        </g>
                        <g transform="translate(15.960754, 14.070311)" id="Path">
                            <path d="M4.82763532,7.49746592 C6.58134775,7.13565791 7.64539798,5.30651743 7.1921914,3.37687473 C6.73898482,1.44723203 4.88674923,0.0804017793 3.05421827,0.402008897 C1.22168731,0.723616014 0.177341706,2.63315827 0.689662189,4.62310231 C1.22168731,6.61304635 3.0739229,7.87937437 4.82763532,7.49746592 Z" fill="#FFC043"></path>
                            <path d="M4.90645386,7.79897259 C6.79809872,7.31656192 8.13801383,5.48742144 7.64539798,3.27637251 C7.15278213,1.10552447 4.96556776,-0.281406228 2.97539973,0.0804017793 C0.985231699,0.442209786 -0.334978778,2.49245516 0.256160242,4.70350409 C0.867003895,6.9949548 2.99510436,8.12057971 4.90645386,7.79897259 C5.45818361,7.71857081 5.28084191,7.11555747 4.74881679,7.21605969 C1.1625734,7.85927393 -0.571434385,1.42713158 3.1330368,0.743716459 C6.83750799,0.140703114 8.27594627,6.37184101 4.74881679,7.21605969 C4.21679167,7.33666236 4.37442874,7.93967571 4.90645386,7.79897259 Z" fill="#F39700"></path>
                        </g>
                        <path d="M27.1529856,30.8742833 C26.9953485,30.9144841 26.8377115,30.954685 26.6800744,30.9948859 C26.7194837,31.316493 26.7194837,31.5978993 26.6800744,31.8391046 C26.6406651,32.0803099 26.542142,32.3215153 26.3845049,32.5225197 C26.2662771,32.6833233 26.1480493,32.8240264 26.0101169,32.9446291 C25.8721844,33.0451313 25.734252,33.1255331 25.6160242,33.165734 C25.4780917,33.2059349 25.3401593,33.1858344 25.2022269,33.1054326 C25.0642944,33.0250309 24.9854759,32.9044282 24.9460666,32.7637251 C24.8672481,32.4823188 24.9854759,32.2612139 25.2613408,32.1004104 C25.5963195,31.9195064 25.7736612,31.6179997 25.8130705,31.2159908 C25.2022269,31.3566939 24.6110878,31.5174975 24.0199488,31.6582006 C24.0199488,32.0401091 24.0002442,32.3617162 23.9608349,32.5828211 C23.9411303,32.8240264 23.8623117,33.0451313 23.7637886,33.2461357 C23.6455608,33.4672406 23.4879237,33.6481446 23.310582,33.8089482 C23.1135357,33.9697518 22.8967847,34.070254 22.6209198,34.1506558 C22.285941,34.2310575 21.9706669,34.2310575 21.6356881,34.1506558 C21.3007093,34.070254 21.0248445,33.88935 20.7686842,33.6280442 C20.512524,33.3667384 20.3154776,33.0250309 20.1578406,32.6029215 C19.8031571,32.7034237 19.4287691,32.7838255 19.0740857,32.8843277 C18.896744,32.9245286 18.7785162,32.9446291 18.679993,32.9245286 C18.6011745,32.9044282 18.5420606,32.8441268 18.5026513,32.7235242 C18.4829467,32.623022 18.4829467,32.5225197 18.5420606,32.4622184 C18.6011745,32.4019171 18.679993,32.3617162 18.8179254,32.3215153 C19.2120181,32.2210131 19.6061108,32.1205108 20.0002035,32.0200086 C19.9410896,31.6582006 19.9607942,31.3365935 20.0002035,31.0350868 C20.0593174,30.7335801 20.1578406,30.4923748 20.295773,30.2712699 C20.4337054,30.050165 20.5913425,29.869261 20.7686842,29.7486583 C20.9460259,29.6280557 21.1233676,29.5275535 21.320414,29.4873526 C21.4583464,29.4471517 21.5962788,29.4873526 21.7342113,29.5677543 C21.8721437,29.6481561 21.9706669,29.7888592 22.0100762,29.9496628 C22.0494854,30.0903659 22.0494854,30.2109686 22.0100762,30.3114708 C21.9706669,30.411973 21.911553,30.5124752 21.7933252,30.5727766 C21.5765742,30.7134797 21.4189371,30.8340824 21.3007093,30.9144841 C21.1824815,30.9948859 21.103663,31.1154886 21.0248445,31.2762922 C20.9460259,31.4169953 20.9066167,31.5978993 20.9066167,31.8190042 C21.5765742,31.6582006 22.2465318,31.4772966 22.9164893,31.316493 C22.9164893,30.8943837 22.9558986,30.5325757 23.0347171,30.231069 C23.093831,29.9295623 23.2317635,29.6682566 23.4288098,29.4471517 C23.6258561,29.2260468 23.9214256,29.0652432 24.2958137,28.964741 C24.7884295,28.8441383 25.2416361,28.9044397 25.6357288,29.145645 C26.0298215,29.3868503 26.325391,29.8089597 26.542142,30.3918726 C26.699779,30.3516717 26.8574161,30.3114708 26.9953485,30.2712699 C27.2318042,30.2109686 27.3894412,30.2712699 27.4288505,30.4521739 C27.4879644,30.6933793 27.3894412,30.8139819 27.1529856,30.8742833 Z M22.8967847,31.9195064 C22.2662364,32.0803099 21.6356881,32.2411135 21.0051398,32.4019171 C21.1430723,32.6833233 21.320414,32.8843277 21.5371649,33.0049304 C21.7539159,33.1255331 21.9706669,33.1456335 22.2071225,33.0853322 C22.4632827,33.0250309 22.6209198,32.8843277 22.719443,32.7034237 C22.8179661,32.5225197 22.87708,32.2612139 22.8967847,31.9195064 Z M24.0396535,31.0551873 C24.5913832,30.9144841 25.143113,30.773781 25.6948427,30.6531784 C25.5569103,30.4320735 25.4189778,30.2511695 25.2613408,30.1506672 C25.1037037,30.050165 24.9066573,30.0099641 24.6702017,30.0702655 C24.4337461,30.1305668 24.2958137,30.231069 24.1972905,30.3918726 C24.118472,30.5325757 24.0593581,30.7536806 24.0396535,31.0551873 Z" id="Shape" fill="#FFFFFF"></path>
                    </g>
                    <g transform="translate(8.275946, 35.778792)">
                        <path d="M4.55177045,0.281406228 L31.5274144,0.281406228 C33.9904936,0.281406228 35.9806616,2.35175204 35.9806616,4.90450854 L35.9806616,60.8440465 C35.9806616,63.396803 33.9904936,65.4671488 31.5274144,65.4671488 L4.55177045,65.4671488 C2.0886912,65.4671488 0.0985231699,63.396803 0.0985231699,60.8440465 L0.0985231699,4.90450854 C0.0985231699,2.35175204 2.0886912,0.281406228 4.55177045,0.281406228 Z" id="Path" fill="#E3E3E3"></path>
                        <g transform="translate(1.379324, 0.000000)" id="Path">
                            <path d="M4.9852724,0.281406228 L31.9609163,0.281406228 C34.4239956,0.281406228 36.4141636,2.35175204 36.4141636,4.90450854 L36.4141636,60.8440465 C36.4141636,63.396803 34.4239956,65.4671488 31.9609163,65.4671488 L4.9852724,65.4671488 C2.52219315,65.4671488 0.532025117,63.396803 0.532025117,60.8440465 L0.532025117,4.90450854 C0.532025117,2.35175204 2.52219315,0.281406228 4.9852724,0.281406228 Z" fill="#FFFFFF"></path>
                            <path d="M4.66999825,0.482410676 C10.8966626,0.482410676 17.1233269,0.482410676 23.3302866,0.482410676 C26.0298215,0.482410676 28.7096517,0.462310231 31.4091866,0.482410676 C33.6949241,0.502511121 35.6062736,2.11054671 35.8821385,4.46229875 C35.9412524,4.92460898 35.9215477,5.40701966 35.9215477,5.86932989 C35.9215477,11.7185593 35.9215477,17.5677888 35.9215477,23.4170182 C35.9215477,31.7788033 35.9215477,40.1405883 35.9215477,48.5023734 C35.9215477,51.5174401 35.9215477,54.5325068 35.9215477,57.567674 C35.9215477,58.9747051 36.1185941,60.6028412 35.8033199,61.9897718 C35.3304087,63.9998163 33.7146287,65.2259435 31.7244607,65.2259435 C30.5618873,65.2259435 29.3993139,65.2259435 28.2564451,65.2259435 C24.3155183,65.2259435 20.3548869,65.2259435 16.4139601,65.2259435 C13.1035816,65.2259435 9.77349845,65.2259435 6.46311994,65.2259435 C5.35966044,65.2259435 4.29561021,65.2661444 3.29067387,64.7033319 C1.75371242,63.8390128 1.00493633,62.2108767 1.00493633,60.4822385 C0.965527065,55.3767255 1.00493633,50.2712125 1.00493633,45.1656995 C1.00493633,36.7436131 1.00493633,28.3416272 1.00493633,19.9195408 C1.00493633,14.9145301 0.965527065,9.9095193 1.00493633,4.92460898 C1.02464097,2.69345961 2.44337461,0.54271201 4.76852142,0.482410676 C5.02468166,0.482410676 5.81286702,0.0603013345 5.18231874,0.0804017793 C2.60101169,0.160803559 0.216750974,1.98994404 0.0591139019,4.74370498 C0.039409268,5.16581432 0.0591139019,5.56782322 0.0591139019,5.98993256 C0.0591139019,8.36178505 0.0591139019,10.7336375 0.0591139019,13.10549 C0.0591139019,21.4270742 0.0591139019,29.7687588 0.0591139019,38.0903429 C0.0591139019,45.004896 0.0591139019,51.919449 0.0591139019,58.834002 C0.0591139019,61.0852518 -0.039409268,63.3767025 2.06898657,64.844035 C3.1330368,65.5877515 4.29561021,65.6480528 5.53700215,65.6480528 C6.85721262,65.6480528 8.1774231,65.6480528 9.49763358,65.6480528 C16.7292342,65.6480528 23.9608349,65.6480528 31.1924356,65.6480528 C34.2466539,65.6480528 36.8673702,63.8189123 36.8870748,60.462138 C36.9067794,58.6329976 36.8870748,56.7837566 36.8870748,54.9546162 C36.8870748,46.9747396 36.8870748,38.994863 36.8870748,31.0149864 C36.8870748,23.5175204 36.8870748,15.9999541 36.8870748,8.50248816 C36.8870748,7.1758588 36.9658933,5.80902856 36.8870748,4.4823992 C36.7294377,1.9296427 34.6604512,0.140703114 32.2367812,0.0804017793 C31.4288912,0.0603013345 30.6210012,0.0804017793 29.8131112,0.0804017793 C22.2662364,0.0804017793 14.7193616,0.0804017793 7.17248677,0.0804017793 C6.56164311,0.0804017793 5.93109483,0.0804017793 5.32025117,0.0804017793 C5.08379557,0.0804017793 4.21679167,0.482410676 4.66999825,0.482410676 Z" fill="#333333"></path>
                        </g>
                        <g transform="translate(12.019827, 3.015067)" id="Path">
                            <path d="M4.61088435,2.03014493 C5.83257166,2.03014493 7.03455433,2.03014493 8.25624164,2.03014493 C9.14295017,2.03014493 10.7784348,2.35175204 11.5666201,1.76883914 C12.1577592,1.3467298 12.1971684,0.462310231 11.4878016,0.120602669 C11.1331182,-0.0402008897 10.6207977,0.0201004448 10.226705,0.0201004448 C8.70944822,0.0201004448 7.1921914,0.0201004448 5.65522995,0.0201004448 C5.18231874,0.0201004448 4.65029362,-0.0402008897 4.21679167,0.201004448 C3.36949241,0.683415124 3.56653875,1.78893959 4.49265655,1.98994404 C4.86704459,2.07034582 5.61582068,1.50753336 5.06409093,1.38693069 C5.20202337,1.40703114 4.29561021,0.864319128 4.65029362,0.663314679 C4.68970289,0.643214234 4.76852142,0.683415124 4.80793069,0.663314679 C4.9852724,0.603013345 5.28084191,0.663314679 5.45818361,0.663314679 C6.16755043,0.663314679 6.87691726,0.663314679 7.56657945,0.663314679 C8.25624164,0.663314679 8.96560846,0.663314679 9.65527065,0.663314679 C10.1084772,0.663314679 10.5813884,0.54271201 10.8966626,0.864319128 C11.5075062,1.52763381 10.6207977,1.36683025 10.226705,1.36683025 C9.51733821,1.36683025 8.80797139,1.36683025 8.1183092,1.36683025 C7.05425896,1.36683025 6.00991336,1.36683025 4.94586313,1.36683025 C4.53206581,1.38693069 3.96063143,2.03014493 4.61088435,2.03014493 Z" fill="#6A79A8"></path>
                            <path d="M1.20198267,2.05024537 C1.75371242,2.05024537 2.38426071,1.62813603 2.40396535,1.02512269 C2.42366998,0.422109341 1.95075876,0.0402008897 1.39902901,0.0402008897 C0.847299261,0.0402008897 0.19704634,0.381908452 0.137932438,1.00502224 C0.0788185359,1.58793514 0.532025117,2.03014493 1.08375487,2.07034582 C1.30050584,2.09044626 1.59607535,2.01004448 1.71430316,1.78893959 C1.81282633,1.58793514 1.63548462,1.42713158 1.43843828,1.40703114 C1.24139194,1.38693069 1.12316414,1.22612713 1.1034595,1.02512269 C1.1034595,0.924620462 1.12316414,0.824118238 1.18227804,0.743716459 C1.18227804,0.743716459 1.24139194,0.683415124 1.18227804,0.723616014 C1.12316414,0.763816903 1.26109657,0.743716459 1.22168731,0.723616014 C1.33991511,0.743716459 1.45814291,0.944720907 1.45814291,1.10552447 C1.45814291,1.22612713 1.41873365,1.28642847 1.37932438,1.38693069 C1.35961974,1.40703114 1.30050584,1.42713158 1.41873365,1.38693069 C1.37932438,1.38693069 1.33991511,1.38693069 1.30050584,1.38693069 C1.1034595,1.38693069 0.807889993,1.54773425 0.768480725,1.76883914 C0.729071457,2.01004448 1.02464097,2.05024537 1.20198267,2.05024537 Z" fill="#6A79A8"></path>
                            <path d="M6.38430141,60.2410331 C7.50746555,60.2410331 9.18235943,60.5626403 10.2070004,59.9596269 C11.9410082,58.9747051 11.251346,56.48225 9.33999651,56.3817477 C8.72915285,56.3415469 8.09860456,56.3817477 7.48776091,56.3817477 C6.89662189,56.3817477 6.24636897,56.301346 5.69463922,56.5425513 C3.78328972,57.3465691 4.25620094,60.0601291 6.2660736,60.2410331 C6.73898482,60.281234 7.23160067,59.5777185 6.58134775,59.5174171 C5.65522995,59.4370154 4.96556776,58.2309887 5.67493459,57.4470713 C6.029618,57.0651629 6.46311994,57.1254642 6.89662189,57.1254642 C7.64539798,57.1254642 8.59122041,56.9646606 9.33999651,57.1656651 C10.1478865,57.38677 10.6010931,58.5324953 9.99024943,59.2159105 C9.63556601,59.6179194 9.14295017,59.5375176 8.68974358,59.5375176 C7.94096749,59.5375176 7.21189604,59.5375176 6.46311994,59.5375176 C5.91139019,59.4973167 5.73404849,60.2410331 6.38430141,60.2410331 Z" fill="#333333"></path>
                        </g>
                        <rect id="Rectangle" fill="#EFEFEF" x="34.0693121" y="8.02007749" width="1.73400779" height="49.0450854"></rect>
                        <path d="M3.72417582,57.38677 C13.0641723,57.38677 22.4041688,57.38677 31.7441653,57.38677 C33.0446712,57.38677 34.345177,57.38677 35.6259782,57.38677 C35.8033199,57.38677 36.2762312,57.3063682 36.2762312,57.024962 C36.2762312,51.5174401 36.2762312,46.0099182 36.2762312,40.4822959 C36.2762312,31.6582006 36.2762312,22.8341053 36.2762312,14.01001 C36.2762312,11.9999656 36.2762312,9.98992108 36.2762312,7.95977615 C36.2762312,7.79897259 36.1382987,7.67836992 35.960957,7.67836992 C26.6209605,7.67836992 17.280964,7.67836992 7.94096749,7.67836992 C6.64046165,7.67836992 5.33995581,7.67836992 4.0591546,7.67836992 C3.88181289,7.67836992 3.40890168,7.7587717 3.40890168,8.04017793 C3.40890168,13.5476998 3.40890168,19.0552217 3.40890168,24.582844 C3.40890168,33.4069393 3.40890168,42.2310346 3.40890168,51.0551299 C3.40890168,53.0651743 3.40890168,55.0752188 3.40890168,57.1053638 C3.40890168,57.567674 4.37442874,57.38677 4.37442874,57.0048615 C4.37442874,51.4973396 4.37442874,45.9898178 4.37442874,40.4621954 C4.37442874,31.6381002 4.37442874,22.8140049 4.37442874,13.9899096 C4.37442874,11.9798651 4.37442874,9.96982063 4.37442874,7.93967571 C4.15767777,8.06027838 3.9409268,8.18088104 3.72417582,8.30148371 C13.0641723,8.30148371 22.4041688,8.30148371 31.7441653,8.30148371 C33.0446712,8.30148371 34.345177,8.30148371 35.6259782,8.30148371 C35.5274551,8.20098149 35.4289319,8.12057971 35.3107041,8.02007749 C35.3107041,13.5275994 35.3107041,19.0351213 35.3107041,24.5627436 C35.3107041,33.3868389 35.3107041,42.2109341 35.3107041,51.0350294 C35.3107041,53.0450739 35.3107041,55.0551184 35.3107041,57.0852633 C35.5274551,56.9646606 35.744206,56.844058 35.960957,56.7234553 C26.6209605,56.7234553 17.280964,56.7234553 7.94096749,56.7234553 C6.64046165,56.7234553 5.33995581,56.7234553 4.0591546,56.7234553 C3.66506192,56.7435557 3.0739229,57.38677 3.72417582,57.38677 Z" id="Path" fill="#333333"></path>
                        <g transform="translate(7.093668, 16.683369)" id="Path">
                            <path d="M23.3302866,4.44219831 L1.9113495,4.44219831 C0.906413163,4.44219831 0.0985231699,3.61808007 0.0985231699,2.59295738 L0.0985231699,1.88944181 C0.0985231699,0.864319128 0.906413163,0.0402008897 1.9113495,0.0402008897 L23.3302866,0.0402008897 C24.335223,0.0402008897 25.143113,0.864319128 25.143113,1.88944181 L25.143113,2.59295738 C25.1628176,3.59797962 24.335223,4.44219831 23.3302866,4.44219831 Z" fill="#F9F9F9"></path>
                            <path d="M5.87198093,2.31155116 C10.2464097,2.31155116 14.640543,2.31155116 19.0149718,2.31155116 C19.4287691,2.31155116 20.0002035,1.66833692 19.3696552,1.66833692 C14.9952265,1.66833692 10.6010931,1.66833692 6.22666434,1.66833692 C5.81286702,1.66833692 5.24143264,2.31155116 5.87198093,2.31155116 L5.87198093,2.31155116 Z" fill="#FFFFFF"></path>
                            <path d="M0.512320483,10.7336375 C7.50746555,10.7336375 14.5223152,10.7336375 21.5174603,10.7336375 C22.5223966,10.7336375 23.527333,10.7336375 24.5322693,10.7336375 C24.7490203,10.7336375 25.6160242,10.3115282 25.143113,10.3115282 C18.1479679,10.3115282 11.1331182,10.3115282 4.13797314,10.3115282 C3.1330368,10.3115282 2.12810047,10.3115282 1.12316414,10.3115282 C0.906413163,10.3115282 0.039409268,10.7336375 0.512320483,10.7336375 L0.512320483,10.7336375 Z" fill="#EFEFEF"></path>
                            <path d="M0.532025117,14.1507132 C7.58628408,14.1507132 14.640543,14.1507132 21.694802,14.1507132 C22.6997383,14.1507132 23.7243793,14.1507132 24.7293156,14.1507132 C25.0642944,14.1507132 25.7539566,13.6281016 25.1037037,13.6281016 C18.0494447,13.6281016 10.9951858,13.6281016 3.9409268,13.6281016 C2.93599046,13.6281016 1.9113495,13.6281016 0.906413163,13.6281016 C0.571434385,13.648202 -0.0985231699,14.1507132 0.532025117,14.1507132 L0.532025117,14.1507132 Z" fill="#EFEFEF"></path>
                            <path d="M0.413797314,17.3868848 C5.37936508,17.3868848 10.3449328,17.3868848 15.3105006,17.3868848 C15.5272516,17.3868848 16.3942555,16.9647754 15.9213443,16.9647754 C10.9557765,16.9647754 5.99020873,16.9647754 1.02464097,16.9647754 C0.807889993,16.9647754 -0.0591139019,17.3868848 0.413797314,17.3868848 L0.413797314,17.3868848 Z" fill="#EFEFEF"></path>
                            <path d="M21.694802,31.0551873 L3.50742485,31.0551873 C1.71430316,31.0551873 0.256160242,29.5677543 0.256160242,27.7386139 L0.256160242,25.6280672 C0.256160242,23.7989267 1.71430316,22.3114938 3.50742485,22.3114938 L21.694802,22.3114938 C23.4879237,22.3114938 24.9460666,23.7989267 24.9460666,25.6280672 L24.9460666,27.7386139 C24.9460666,29.5677543 23.4879237,31.0551873 21.694802,31.0551873 Z" fill="#F9F9F9"></path>
                        </g>
                    </g>
                </g>
            </g>
        </g>
    </g>
</svg>