<?xml version="1.0" encoding="UTF-8"?>
<svg width="20px" height="17px" viewBox="0 0 20 17" version="1.1" xmlns="http://www.w3.org/2000/svg" xmlns:xlink="http://www.w3.org/1999/xlink">
    <!-- Generator: sketchtool 64 (101010) - https://sketch.com -->
    <title>5D01BD08-F502-4EAB-BF73-A743D54BF983</title>
    <desc>Created with sketchtool.</desc>
    <g id="Page-1" stroke="none" stroke-width="1" fill="none" fill-rule="evenodd">
        <g id="Task-history" transform="translate(-223.000000, -596.000000)" fill="#BEC2C2">
            <g id="Group-7" transform="translate(0.000000, 587.000000)">
                <g id="Group-4">
                    <g id="Group-14">
                        <g id="Group-12" transform="translate(213.083333, 9.000000)">
                            <path d="M28.730159,14.0476193 L28.730159,14.9841272 C28.730159,16.014286 27.7936511,16.8571431 26.6490303,16.8571431 L12.0811288,16.8571431 C10.9261023,16.8571431 10,16.014286 10,14.9841272 L10,1.8730159 C10,0.842857157 10.9261023,4.97379915e-14 12.0811288,4.97379915e-14 L26.6490303,4.97379915e-14 C27.7936511,4.97379915e-14 28.730159,0.842857157 28.730159,1.8730159 L28.730159,2.80952386 L19.3650795,2.80952386 C18.210053,2.80952386 17.2839507,3.65238101 17.2839507,4.68253976 L17.2839507,12.1746034 C17.2839507,13.2047621 18.210053,14.0476193 19.3650795,14.0476193 L28.730159,14.0476193 L28.730159,14.0476193 Z M19.3650795,12.1746034 L29.666667,12.1746034 L29.666667,4.68253976 L19.3650795,4.68253976 L19.3650795,12.1746034 L19.3650795,12.1746034 Z M23.1111113,10.3015875 C22.0747092,10.3015875 21.2380954,9.67412715 21.2380954,8.89682555 C21.2380954,8.11952395 22.0747092,7.49206362 23.1111113,7.49206362 C24.1475135,7.49206362 24.9841272,8.11952395 24.9841272,8.89682555 C24.9841272,9.67412715 24.1475135,10.3015875 23.1111113,10.3015875 L23.1111113,10.3015875 Z" id="Wallet"></path>
                        </g>
                    </g>
                </g>
            </g>
        </g>
    </g>
</svg>