<?xml version="1.0" encoding="UTF-8"?>
<svg width="18px" height="18px" viewBox="0 0 18 18" version="1.1" xmlns="http://www.w3.org/2000/svg" xmlns:xlink="http://www.w3.org/1999/xlink">
    <!-- Generator: sketchtool 64 (101010) - https://sketch.com -->
    <title>5FBE7DE5-956A-4336-B0AA-35B8EAFD8335</title>
    <desc>Created with sketchtool.</desc>
    <g id="Page-1" stroke="none" stroke-width="1" fill="none" fill-rule="evenodd">
        <g id="Bottom-nav-Copy" transform="translate(-241.000000, -31.000000)" fill="#FFFFFF" fill-rule="nonzero">
            <g id="wallet-filled-money-tool-(1)" transform="translate(241.000000, 31.000000)">
                <path d="M4.46071075,3.42857143 L12,1.38684686 L11.6007362,0.586170558 C11.3395158,0.0657309615 10.7023928,-0.149187414 10.1778281,0.109978862 L3.42857143,3.42857143 L4.46071075,3.42857143 Z" id="Path"></path>
                <path d="M13.254018,1.71428571 C13.1631827,1.71428571 13.0723062,1.72521634 12.9814503,1.74707758 L11.2593385,2.16244117 L6,3.42857143 L11.9696459,3.42857143 L14.5714286,3.42857143 L14.2493031,2.3865189 C14.1254087,1.98026416 13.7082975,1.71428571 13.254018,1.71428571 Z" id="Path"></path>
                <path d="M16.1233911,4.28571429 L15.8904886,4.28571429 L15.5738229,4.28571429 L15.2571572,4.28571429 L12.840283,4.28571429 L3.95934262,4.28571429 L2.79483009,4.28571429 L1.81418795,4.28571429 L1.63236055,4.28571429 L1.02354523,4.28571429 C0.700750526,4.28571429 0.412686899,4.42854969 0.224730489,4.65356436 C0.138924303,4.75726678 0.0735481602,4.87662239 0.0367740801,5.00771789 C0.0143010311,5.08989717 0,5.17598974 0,5.26403896 L0,5.38143792 L0,6.49672805 L0,16.1645325 C0,16.7045873 0.457632997,17.1428571 1.02150222,17.1428571 L16.1213481,17.1428571 C16.6852378,17.1428571 17.1428571,16.7045873 17.1428571,16.1645325 L17.1428571,13.4350066 L11.0812561,13.4350066 C10.123087,13.4350066 9.34470235,12.6895232 9.34470235,11.7718547 L9.34470235,10.8757093 L9.34470235,10.5724286 L9.34470235,10.269148 L9.34470235,9.59606061 C9.34470235,9.14603126 9.53263833,8.73711112 9.83706642,8.43774377 C10.106743,8.17161989 10.4683548,7.99160815 10.8728697,7.94660521 C10.9402888,7.93879818 11.009751,7.93486532 11.0792131,7.93486532 L16.2929605,7.93486532 L16.6096262,7.93486532 L16.9262919,7.93486532 L17.1428571,7.93486532 L17.1428571,5.26403896 C17.1448933,4.72400374 16.6872603,4.28571429 16.1233911,4.28571429 Z" id="Path"></path>
                <path d="M17.6841425,8.83711166 C17.5872537,8.74381124 17.472925,8.67282179 17.3450318,8.62617158 C17.2461858,8.59171127 17.1415653,8.57142857 17.0311121,8.57142857 L17.005921,8.57142857 L16.9865432,8.57142857 L16.686188,8.57142857 L15.6029713,8.57142857 L11.2546022,8.57142857 C10.7197567,8.57142857 10.2857143,9.02574077 10.2857143,9.58556359 L10.2857143,10.0905825 L10.2857143,10.4049644 L10.2857143,10.7193462 L10.2857143,11.8430078 C10.2857143,12.4028104 10.7197567,12.8571429 11.2546022,12.8571429 L17.005921,12.8571429 L17.0311121,12.8571429 C17.1415653,12.8571429 17.2462052,12.8368602 17.3450318,12.8023796 C17.472925,12.7577576 17.5872537,12.6847399 17.6841425,12.5914395 C17.8779201,12.4068669 18,12.1391353 18,11.8430281 L18,9.58556359 C18,9.28941588 17.8779201,9.02166395 17.6841425,8.83711166 Z M13.2776402,10.9160884 C13.2776402,11.1959897 13.0606093,11.4231559 12.7931963,11.4231559 L12.4715255,11.4231559 C12.2041124,11.4231559 11.9870815,11.1959897 11.9870815,10.9160884 L11.9870815,10.5793956 C11.9870815,10.417134 12.0587792,10.2731066 12.173108,10.1818344 C12.2564323,10.1149015 12.3591538,10.0723281 12.4715255,10.0723281 L12.552912,10.0723281 L12.7931963,10.0723281 C13.0606093,10.0723281 13.2776402,10.2994741 13.2776402,10.5793956 L13.2776402,10.9160884 L13.2776402,10.9160884 Z" id="Shape"></path>
            </g>
        </g>
    </g>
</svg>