<?xml version="1.0" encoding="UTF-8"?>
<svg width="28px" height="41px" viewBox="0 0 28 41" version="1.1" xmlns="http://www.w3.org/2000/svg" xmlns:xlink="http://www.w3.org/1999/xlink">
    <!-- Generator: sketchtool 54.1 (76490) - https://sketchapp.com -->
    <title>3EE6F69F-0321-453E-8E23-C5D535BB78F9</title>
    <desc>Created with sketchtool.</desc>
    <g id="Page-1" stroke="none" stroke-width="1" fill="none" fill-rule="evenodd">
        <g id="Moody-Poster-side-share-location-2" transform="translate(-155.000000, -196.000000)" fill="#FFC043" fill-rule="nonzero">
            <g id="pin-(1)" transform="translate(155.000000, 196.000000)">
                <path d="M14,0 C6.28054633,0 0,6.13102148 0,13.6666934 C0,15.9289004 0.579385587,18.1718887 1.68081703,20.1613496 L13.2344038,40.5595703 C13.3882121,40.8315156 13.6813092,41 14,41 C14.3186908,41 14.6117879,40.8315156 14.7655962,40.5595703 L26.3234486,20.154623 C27.4206144,18.1718887 28,15.9288203 28,13.6666133 C28,6.13102148 21.7194537,0 14,0 Z M14,21 C10.1402505,21 7,17.8597495 7,14 C7,10.1402505 10.1402505,7 14,7 C17.8597495,7 21,10.1402505 21,14 C21,17.8597495 17.8597495,21 14,21 Z" id="Shape"></path>
            </g>
        </g>
    </g>
</svg>