<?xml version="1.0" encoding="UTF-8"?>
<svg width="52px" height="52px" viewBox="0 0 52 52" version="1.1" xmlns="http://www.w3.org/2000/svg" xmlns:xlink="http://www.w3.org/1999/xlink">
    <!-- Generator: Sketch 54.1 (76490) - https://sketchapp.com -->
    <title>Sound Off</title>
    <desc>Created with Sketch.</desc>
    <g id="Page-1" stroke="none" stroke-width="1" fill="none" fill-rule="evenodd">
        <g id="Sound-Off">
            <circle id="Oval-Copy-9" fill="#0B9777" cx="26" cy="26" r="26"></circle>
            <g id="volume_off_black_24dp-copy" transform="translate(10.000000, 10.000000)">
                <polygon id="Path" points="0 0 32 0 32 32 0 32"></polygon>
                <path d="M22,16 C22,13.64 20.64,11.6133333 18.6666667,10.6266667 L18.6666667,13.5733333 L21.9333333,16.84 C21.9733333,16.5733333 22,16.2933333 22,16 L22,16 Z M25.3333333,16 C25.3333333,17.2533333 25.0666667,18.4266667 24.6133333,19.52 L26.6266667,21.5333333 C27.5066667,19.88 28,18 28,16 C28,10.2933333 24.0133333,5.52 18.6666667,4.30666667 L18.6666667,7.05333333 C22.52,8.2 25.3333333,11.7733333 25.3333333,16 Z M5.69333333,4 L4,5.69333333 L10.3066667,12 L4,12 L4,20 L9.33333333,20 L16,26.6666667 L16,17.6933333 L21.6666667,23.36 C20.7733333,24.0533333 19.7733333,24.6 18.6666667,24.9333333 L18.6666667,27.68 C20.5066667,27.2666667 22.1733333,26.4133333 23.5866667,25.2666667 L26.3066667,28 L28,26.3066667 L16,14.3066667 L5.69333333,4 Z M16,5.33333333 L13.2133333,8.12 L16,10.9066667 L16,5.33333333 Z" id="Shape" fill="#FFFFFF" fill-rule="nonzero"></path>
            </g>
        </g>
    </g>
</svg>