<?xml version="1.0" encoding="UTF-8"?>
<svg width="39px" height="39px" viewBox="0 0 39 39" version="1.1" xmlns="http://www.w3.org/2000/svg" xmlns:xlink="http://www.w3.org/1999/xlink">
    <!-- Generator: sketchtool 64 (101010) - https://sketch.com -->
    <title>51090CEC-6F93-42AB-A566-E305965CD316</title>
    <desc>Created with sketchtool.</desc>
    <g id="Page-1" stroke="none" stroke-width="1" fill="none" fill-rule="evenodd">
        <g id="Moody-Poster-side--active-tasks" transform="translate(-30.000000, -34.000000)" fill="#FFC043" fill-rule="nonzero">
            <g id="Group" transform="translate(30.000000, 34.000000)">
                <g id="play-button">
                    <path d="M19.5,0 C8.73045163,0 0,8.73045163 0,19.5 C0,30.2695484 8.73045163,39 19.5,39 C30.2695484,39 39,30.2695484 39,19.5 C38.9885742,8.73526679 30.2648148,0.01150741 19.5,0 Z M27.7122101,20.1213185 C27.5772225,20.3921099 27.3577656,20.6116485 27.0868926,20.7466361 L27.0868926,20.7535732 L15.9440471,26.3250367 C15.2558876,26.6688716 14.4193561,26.3898373 14.0754396,25.7016779 C13.9776674,25.5060519 13.9273123,25.2901043 13.9285147,25.0714635 L13.9285147,13.9286181 C13.92821,13.1593355 14.5514872,12.5354869 15.3207698,12.5350788 C15.5371255,12.5350788 15.750543,12.5852708 15.9440471,12.681982 L27.0868926,18.2534455 C27.7753785,18.5965459 28.0553921,19.4328326 27.7122101,20.1213185 Z" id="Shape"></path>
                </g>
            </g>
        </g>
    </g>
</svg>