<?xml version="1.0" encoding="UTF-8"?>
<svg width="42px" height="42px" viewBox="0 0 42 42" version="1.1" xmlns="http://www.w3.org/2000/svg" xmlns:xlink="http://www.w3.org/1999/xlink">
    <!-- Generator: Sketch 54.1 (76490) - https://sketchapp.com -->
    <title>Group 2</title>
    <desc>Created with Sketch.</desc>
    <g id="Page-1" stroke="none" stroke-width="1" fill="none" fill-rule="evenodd">
        <g id="Share-Ride-Details" transform="translate(-141.000000, -221.000000)">
            <g id="Group-18" transform="translate(17.000000, 149.000000)">
                <g id="Group-2" transform="translate(124.000000, 72.000000)">
                    <circle id="Oval" fill="#FFE1AA" cx="21" cy="21" r="21"></circle>
                    <g id="Group-20-Copy-4" transform="translate(5.727273, 5.727273)" fill="#FFC043">
                        <g id="Group-2-Copy-8">
                            <circle id="Oval-Copy" cx="15.75" cy="15.75" r="15.75"></circle>
                        </g>
                    </g>
                    <g id="scooter-front-view-(1)" transform="translate(14.318182, 11.454545)" fill="#333333" fill-rule="nonzero">
                        <path d="M7.08293037,13.2056738 C6.11949952,13.2056738 5.33123791,13.9966081 5.33123791,14.9633056 L5.33123791,18.52251 C5.33123791,19.4892075 6.11949952,20.2801418 7.08293037,20.2801418 C8.04636122,20.2801418 8.83462282,19.4892075 8.83462282,18.52251 L8.83462282,14.9633056 C8.83462282,13.9966081 8.04639557,13.2056738 7.08293037,13.2056738 Z" id="Path"></path>
                        <path d="M13.4070567,2.2201469 L10.0661396,2.2201469 C9.67564283,0.932461697 8.50418647,0 7.11571939,0 C5.72725231,0 4.55579595,0.932461697 4.16529916,2.2201469 L0.867770657,2.2201469 C0.390496796,2.2201469 0,2.61977334 0,3.10820566 C0,3.59663797 0.390496796,3.99626441 0.867770657,3.99626441 L4.20868769,3.99626441 L4.20868769,3.99626441 C4.42563035,4.75111436 4.90290421,5.37275549 5.55373221,5.77238193 C3.21075143,6.48282894 1.47521012,8.70297584 1.47521012,11.3227492 L1.47521012,15.9850577 C1.47521012,16.7843105 2.12603811,17.4503546 2.9070317,17.4503546 L4.07852209,17.4503546 L4.07852209,14.9193871 C4.07852209,13.1876377 5.46695514,11.7667786 7.15910792,11.7667786 C8.85126071,11.7667786 10.2396938,13.1876726 10.2396938,14.9193871 L10.2396938,17.4503546 L11.4111841,17.4503546 C12.1921777,17.4503546 12.8430057,16.7843105 12.8430057,15.9850577 L12.8430057,11.3671521 C12.8430057,8.74734395 11.1074644,6.48282894 8.76444961,5.81678487 C9.4152776,5.41715843 9.89255147,4.7955173 10.1094941,4.04066735 L10.1094941,4.04066735 L13.4504112,4.04066735 C13.927685,4.04066735 14.3181818,3.64104091 14.3181818,3.15260859 C14.2748273,2.61977334 13.8843305,2.2201469 13.4070567,2.2201469 Z M7.11571939,4.92872611 C6.16117167,4.92872611 5.38017808,4.12947323 5.38017808,3.15260859 C5.38017808,2.17574396 6.16117167,1.37649108 7.11571939,1.37649108 C8.07026711,1.37649108 8.85126071,2.17574396 8.85126071,3.15260859 C8.89464924,4.12947323 8.11365565,4.92872611 7.11571939,4.92872611 Z" id="Shape"></path>
                    </g>
                </g>
            </g>
        </g>
    </g>
</svg>