<?xml version="1.0" encoding="UTF-8"?>
<svg width="20px" height="16px" viewBox="0 0 20 16" version="1.1" xmlns="http://www.w3.org/2000/svg" xmlns:xlink="http://www.w3.org/1999/xlink">
    <!-- Generator: sketchtool 64 (101010) - https://sketch.com -->
    <title>55E3D381-E69B-4663-81DE-55F22091367E</title>
    <desc>Created with sketchtool.</desc>
    <g id="Page-1" stroke="none" stroke-width="1" fill="none" fill-rule="evenodd">
        <g id="Chat-screen-support" transform="translate(-317.000000, -33.000000)" fill="#215549" fill-rule="nonzero">
            <g id="video" transform="translate(317.000000, 33.910000)">
                <path d="M19.565,0.5 C19.4762403,0.464317363 19.3816544,0.445332371 19.286,0.444 C19.096733,0.44016088 18.914826,0.517289438 18.786,0.656 L14.286,5.143 L14.286,3.3 C14.2826981,1.52632631 12.8456737,0.0893019143 11.072,0.086 L3.214,0.086 C2.3593701,0.0738177957 1.53763059,0.415033277 0.943,1.029 C0.329033277,1.62363059 -0.0121822043,2.4453701 5.42101086e-20,3.3 L5.42101086e-20,11.157 C-0.0121822043,12.0116299 0.329033277,12.8333694 0.943,13.428 C1.53763059,14.0419667 2.3593701,14.3831822 3.214,14.371 L11.071,14.371 C12.8446737,14.3676981 14.2816981,12.9306737 14.285,11.157 L14.285,9.309 L18.785,13.809 C18.913826,13.9477106 19.095733,14.0248391 19.285,14.021 C19.3806495,14.0196219 19.4752272,14.0006386 19.564,13.965 C19.8400241,13.8636666 20.0171312,13.5935375 20,13.3 L20,1.161 C20.0154677,0.86916169 19.8391513,0.601241838 19.565,0.5 Z" id="Path_1190"></path>
            </g>
        </g>
    </g>
</svg>