<?xml version="1.0" encoding="UTF-8"?>
<svg width="52px" height="52px" viewBox="0 0 52 52" version="1.1" xmlns="http://www.w3.org/2000/svg" xmlns:xlink="http://www.w3.org/1999/xlink">
    <!-- Generator: Sketch 54.1 (76490) - https://sketchapp.com -->
    <title>Sound Default</title>
    <desc>Created with Sketch.</desc>
    <g id="Page-1" stroke="none" stroke-width="1" fill="none" fill-rule="evenodd">
        <g id="Sound-Default">
            <circle id="Oval-Copy-8" fill="#0B9777" cx="26" cy="26" r="26"></circle>
            <g id="volume_up_black_24dp-(1)-copy" transform="translate(10.000000, 10.000000)">
                <polygon id="Path" points="0 0 32 0 32 32 0 32"></polygon>
                <path d="M4,12 L4,20 L9.33333333,20 L16,26.6666667 L16,5.33333333 L9.33333333,12 L4,12 Z M22,16 C22,13.64 20.64,11.6133333 18.6666667,10.6266667 L18.6666667,21.36 C20.64,20.3866667 22,18.36 22,16 Z M18.6666667,4.30666667 L18.6666667,7.05333333 C22.52,8.2 25.3333333,11.7733333 25.3333333,16 C25.3333333,20.2266667 22.52,23.8 18.6666667,24.9466667 L18.6666667,27.6933333 C24.0133333,26.48 28,21.7066667 28,16 C28,10.2933333 24.0133333,5.52 18.6666667,4.30666667 Z" id="Shape" fill="#FFFFFF" fill-rule="nonzero"></path>
            </g>
        </g>
    </g>
</svg>