<?xml version="1.0" encoding="UTF-8"?>
<svg width="52px" height="52px" viewBox="0 0 52 52" version="1.1" xmlns="http://www.w3.org/2000/svg" xmlns:xlink="http://www.w3.org/1999/xlink">
    <!-- Generator: sketchtool 54.1 (76490) - https://sketchapp.com -->
    <title>C3573F7D-B6EF-427B-ACFA-7C0DD9430645</title>
    <desc>Created with sketchtool.</desc>
    <g id="Page-1" stroke="none" stroke-width="1" fill="none" fill-rule="evenodd">
        <g id="Video-new" transform="translate(-28.000000, -554.000000)">
            <g id="Camera-Flip" transform="translate(28.000000, 554.000000)">
                <circle id="Oval-Copy-8" fill="#0B9777" cx="26" cy="26" r="26"></circle>
                <g id="flip_camera_ios_black_24dp" transform="translate(10.000000, 10.000000)">
                    <rect id="Rectangle" x="0" y="0" width="32" height="32"></rect>
                    <path d="M26.6666667,6.66666667 L22.44,6.66666667 L20,4 L12,4 L9.56,6.66666667 L5.33333333,6.66666667 C3.86666667,6.66666667 2.66666667,7.86666667 2.66666667,9.33333333 L2.66666667,25.3333333 C2.66666667,26.8 3.86666667,28 5.33333333,28 L26.6666667,28 C28.1333333,28 29.3333333,26.8 29.3333333,25.3333333 L29.3333333,9.33333333 C29.3333333,7.86666667 28.1333333,6.66666667 26.6666667,6.66666667 Z M16,24 C12.32,24 9.33333333,21.0133333 9.33333333,17.3333333 L6.66666667,17.3333333 L10,14 L13.3333333,17.3333333 L10.6666667,17.3333333 C10.6666667,20.28 13.0533333,22.6666667 16,22.6666667 C16.7733333,22.6666667 17.5066667,22.4933333 18.16,22.2 L19.1466667,23.1866667 C18.2,23.68 17.1466667,24 16,24 Z M22,20.6666667 L18.6666667,17.3333333 L21.3333333,17.3333333 C21.3333333,14.3866667 18.9466667,12 16,12 C15.2266667,12 14.4933333,12.1733333 13.84,12.4666667 L12.8533333,11.4933333 C13.8,10.9866667 14.8533333,10.6666667 16,10.6666667 C19.68,10.6666667 22.6666667,13.6533333 22.6666667,17.3333333 L25.3333333,17.3333333 L22,20.6666667 Z" id="Shape" fill="#FFFFFF" fill-rule="nonzero"></path>
                </g>
            </g>
        </g>
    </g>
</svg>