<?xml version="1.0" encoding="UTF-8"?>
<svg width="63px" height="63px" viewBox="0 0 63 63" version="1.1" xmlns="http://www.w3.org/2000/svg" xmlns:xlink="http://www.w3.org/1999/xlink">
    <!-- Generator: sketchtool 54.1 (76490) - https://sketchapp.com -->
    <title>205F3F06-5ED8-4B9A-9003-88ACB7B86DF1</title>
    <desc>Created with sketchtool.</desc>
    <g id="Page-1" stroke="none" stroke-width="1" fill="none" fill-rule="evenodd">
        <g id="EasyPaisa-(transaction-processed-message)" transform="translate(-149.000000, -205.000000)">
            <g id="Group-23" transform="translate(29.000000, 177.000000)">
                <g id="Group-16" transform="translate(120.000000, 28.000000)">
                    <circle id="Oval" fill="#FFB116" cx="31.5" cy="31.5" r="31.5"></circle>
                    <g id="bell" transform="translate(17.000000, 15.000000)" fill="#FFFFFF" fill-rule="nonzero">
                        <path d="M28.6370299,13.902439 C27.8845386,13.902439 27.2740597,13.3202493 27.2740597,12.602628 C27.2740597,8.95644515 25.7855496,5.5299521 23.0825709,2.95079954 C22.5497122,2.44263323 22.5497122,1.62123646 23.0825709,1.11283209 C23.6154296,0.604665725 24.4769884,0.604665725 25.0098471,1.11283209 C28.2282137,4.18182366 30,8.26238756 30,12.602628 C30,13.3202493 29.3895212,13.902439 28.6370299,13.902439 Z" id="Path"></path>
                        <path d="M1.36293527,13.902439 C0.610712822,13.902439 0,13.3202493 0,12.602628 C0,8.26238756 1.77199057,4.18182366 4.99002524,1.11283209 C5.52287031,0.604665725 6.38440713,0.604665725 6.9172522,1.11283209 C7.45034683,1.62123646 7.45034683,2.44263323 6.9172522,2.95079954 C4.21434267,5.52852397 2.72612016,8.95644515 2.72612016,12.602628 C2.72612016,13.3202493 2.11540733,13.902439 1.36293527,13.902439 Z" id="Path"></path>
                        <path d="M27.6733707,22.8944733 C25.5712103,21.1643998 24.3658664,18.6357165 24.3658664,15.9568292 L24.3658664,12.1828896 C24.3658664,7.4194869 20.7317609,3.47625786 16.0244284,2.81570692 L16.0244284,1.35357177 C16.0244284,0.605029965 15.4015189,0 14.6342736,0 C13.8667738,0 13.2438642,0.605029965 13.2438642,1.35357177 L13.2438642,2.81570692 C8.53525898,3.47625786 4.90242629,7.4194869 4.90242629,12.1828896 L4.90242629,15.9568292 C4.90242629,18.6357165 3.69708245,21.1643998 1.58270303,22.9051313 C1.04176202,23.3559915 0.731707317,24.0110894 0.731707317,24.7041103 C0.731707317,26.0105884 1.82300813,27.0731707 3.16479646,27.0731707 L26.1037508,27.0731707 C27.4452846,27.0731707 28.5365854,26.0105884 28.5365854,24.7041103 C28.5365854,24.0110894 28.2265307,23.3559915 27.6733707,22.8944733 Z" id="Path"></path>
                        <path d="M15.3658537,32.195122 C17.8904536,32.195122 20.0025405,30.3057415 20.4878049,27.804878 L10.2439024,27.804878 C10.7289116,30.3057415 12.8409985,32.195122 15.3658537,32.195122 Z" id="Path"></path>
                    </g>
                </g>
            </g>
        </g>
    </g>
</svg>