<?xml version="1.0" encoding="UTF-8"?>
<svg width="58px" height="58px" viewBox="0 0 58 58" version="1.1" xmlns="http://www.w3.org/2000/svg" xmlns:xlink="http://www.w3.org/1999/xlink">
    <!-- Generator: sketchtool 64 (101010) - https://sketch.com -->
    <title>A2903054-072F-45FD-B934-49D190E436B0</title>
    <desc>Created with sketchtool.</desc>
    <defs>
        <circle id="path-1" cx="24" cy="24" r="24"></circle>
        <filter x="-15.6%" y="-11.5%" width="131.2%" height="131.2%" filterUnits="objectBoundingBox" id="filter-2">
            <feMorphology radius="0.5" operator="dilate" in="SourceAlpha" result="shadowSpreadOuter1"></feMorphology>
            <feOffset dx="0" dy="2" in="shadowSpreadOuter1" result="shadowOffsetOuter1"></feOffset>
            <feGaussianBlur stdDeviation="2" in="shadowOffsetOuter1" result="shadowBlurOuter1"></feGaussianBlur>
            <feComposite in="shadowBlurOuter1" in2="SourceAlpha" operator="out" result="shadowBlurOuter1"></feComposite>
            <feColorMatrix values="0 0 0 0 0.716768569   0 0 0 0 0.702646261   0 0 0 0 0.702646261  0 0 0 0.5 0" type="matrix" in="shadowBlurOuter1"></feColorMatrix>
        </filter>
    </defs>
    <g id="Page-1" stroke="none" stroke-width="1" fill="none" fill-rule="evenodd">
        <g id="Chat-screen---add-button" transform="translate(-288.000000, -351.000000)">
            <g id="Group-5" transform="translate(293.000000, 354.000000)">
                <g id="Group-3">
                    <g id="Oval">
                        <use fill="black" fill-opacity="1" filter="url(#filter-2)" xlink:href="#path-1"></use>
                        <use stroke="#2B6AD8" stroke-width="1" fill="#2B6AD8" fill-rule="evenodd" xlink:href="#path-1"></use>
                    </g>
                </g>
                <g id="pin-(1)" transform="translate(15.000000, 11.000000)" fill="#FFFFFF" fill-rule="nonzero">
                    <path d="M9,0 C4.03749407,0 0,4.03750195 0,9.00001758 C0,10.4897637 0.372462163,11.9668535 1.08052523,13.2769863 L8.50783104,26.7099609 C8.6067078,26.8890469 8.79512735,27 9,27 C9.20487265,27 9.3932922,26.8890469 9.49216896,26.7099609 L16.9222169,13.2725566 C17.6275378,11.9668535 18,10.4897109 18,8.99996484 C18,4.03750195 13.9625059,0 9,0 Z M9,13.5 C6.51874703,13.5 4.50002637,11.4812754 4.50002637,9.00001758 C4.50002637,6.51875977 6.51874703,4.50003516 9,4.50003516 C11.481253,4.50003516 13.4999736,6.51875977 13.4999736,9.00001758 C13.4999736,11.4812754 11.481253,13.5 9,13.5 Z" id="Shape"></path>
                </g>
            </g>
        </g>
    </g>
</svg>