<?xml version="1.0" encoding="UTF-8"?>
<svg width="52px" height="52px" viewBox="0 0 52 52" version="1.1" xmlns="http://www.w3.org/2000/svg" xmlns:xlink="http://www.w3.org/1999/xlink">
    <!-- Generator: Sketch 54.1 (76490) - https://sketchapp.com -->
    <title>End Call</title>
    <desc>Created with Sketch.</desc>
    <g id="Page-1" stroke="none" stroke-width="1" fill="none" fill-rule="evenodd">
        <g id="End-Call">
            <circle id="Oval-Copy-7" fill="#EF5350" cx="26" cy="26" r="26"></circle>
            <g id="call_end_black_24dp-copy" transform="translate(10.000000, 10.000000)">
                <polygon id="Path" points="0 0 32 0 32 32 0 32"></polygon>
                <path d="M16,12 C13.8666667,12 11.8,12.3333333 9.86666667,12.96 L9.86666667,17.0933333 C9.86666667,17.6133333 9.56,18.08 9.12,18.2933333 C7.81333333,18.9466667 6.62666667,19.7866667 5.57333333,20.76 C5.33333333,21 5,21.1333333 4.64,21.1333333 C4.26666667,21.1333333 3.93333333,20.9866667 3.69333333,20.7466667 L0.386666667,17.44 C0.146666667,17.2133333 0,16.88 0,16.5066667 C0,16.1333333 0.146666667,15.8 0.386666667,15.56 C4.45333333,11.7066667 9.94666667,9.33333333 16,9.33333333 C22.0533333,9.33333333 27.5466667,11.7066667 31.6133333,15.56 C31.8533333,15.8 32,16.1333333 32,16.5066667 C32,16.88 31.8533333,17.2133333 31.6133333,17.4533333 L28.3066667,20.76 C28.0666667,21 27.7333333,21.1466667 27.36,21.1466667 C27,21.1466667 26.6666667,21 26.4266667,20.7733333 C25.3733333,19.7866667 24.1733333,18.96 22.8666667,18.3066667 C22.4266667,18.0933333 22.12,17.64 22.12,17.1066667 L22.12,12.9733333 C20.2,12.3333333 18.1333333,12 16,12 Z" id="Path" fill="#FFFFFF" fill-rule="nonzero"></path>
            </g>
        </g>
    </g>
</svg>