<?xml version="1.0" encoding="UTF-8"?>
<svg width="88px" height="88px" viewBox="0 0 88 88" version="1.1" xmlns="http://www.w3.org/2000/svg" xmlns:xlink="http://www.w3.org/1999/xlink">
    <!-- Generator: sketchtool 64 (101010) - https://sketch.com -->
    <title>5FBAC241-AED3-4323-9539-239ED910364F</title>
    <desc>Created with sketchtool.</desc>
    <g id="Page-1" stroke="none" stroke-width="1" fill="none" fill-rule="evenodd">
        <g id="New-select-categories-" transform="translate(-218.000000, -98.000000)">
            <g id="Group-4" transform="translate(218.000000, 98.000000)">
                <circle id="Oval" fill="#EDF7F2" cx="44" cy="44" r="44"></circle>
                <g id="Group" transform="translate(13.000000, 19.000000)">
                    <g>
                        <path d="M33.9221771,22.9436941 C34.6649984,23.1314933 35.8492065,23.4158749 35.9945411,24.8055888 C36.0752825,25.5621512 35.676958,26.7372375 35.3378439,27.4186803 C34.5950225,28.915708 33.5884457,30.2624964 32.5872516,31.5985535 L32.737969,31.7058673 C32.4688308,31.797084 32.3019652,32.1082941 32.2212237,32.457064 C32.1404823,32.8058339 32.3934722,33.3745971 32.646462,33.6267846 C32.7648829,33.7394641 32.9263658,33.8306808 33.0878487,33.793121 C33.2062695,33.7609269 33.2977765,33.6697101 33.3785179,33.5784934 C34.6865295,32.1029284 35.7846133,30.4449299 36.6404727,28.6688862 C37.0387973,27.8479355 37.3832941,26.9840593 37.4963322,26.0772576 C37.6093702,25.1704558 37.4694184,24.2099971 36.9580558,23.448069 C36.4466932,22.6915066 34.5358121,21.5164203 33.626125,21.6344655 L33.9221771,22.9436941 Z" id="Path" fill="#03277D" fill-rule="nonzero"></path>
                        <g transform="translate(0.000000, 6.868084)" fill-rule="nonzero" id="Path">
                            <path d="M19.7170636,18.0877439 L0.699759285,18.0877439 C0.328348588,18.0877439 0.0322965824,17.7872652 0.0322965824,17.4223982 L0.0322965824,0.681442739 C0.0322965824,0.31121007 0.333731352,0.0160970726 0.699759285,0.0160970726 L19.7170636,0.0160970726 C20.0884743,0.0160970726 20.3845263,0.316575761 20.3845263,0.681442739 L20.3845263,17.4223982 C20.3845263,17.7926309 20.0830915,18.0877439 19.7170636,18.0877439 Z" fill="#215549"></path>
                            <path d="M20.8097646,18.0877439 L1.79246032,18.0877439 C1.42104963,18.0877439 1.12499762,17.7872652 1.12499762,17.4223982 L1.12499762,0.681442739 C1.12499762,0.31121007 1.42643239,0.0160970726 1.79246032,0.0160970726 L20.8097646,0.0160970726 C21.1811753,0.0160970726 21.4772273,0.316575761 21.4772273,0.681442739 L21.4772273,17.4223982 C21.4772273,17.7926309 21.1811753,18.0877439 20.8097646,18.0877439 Z" fill="#0B9777"></path>
                        </g>
                        <g transform="translate(7.428214, 24.843149)" id="Path" stroke="#333333" stroke-linecap="round" stroke-linejoin="round" stroke-width="0.5">
                            <line x1="2.0777468" y1="0.0321941451" x2="8.12797324" y2="4.57156861"></line>
                            <line x1="14.0490133" y1="0.116672836" x2="0.0161482912" y2="0.116672836"></line>
                        </g>
                        <g transform="translate(31.144478, 4.131582)" fill-rule="nonzero">
                            <polygon id="Rectangle" fill="#FE9592" transform="translate(1.936387, 2.280999) rotate(10.632326) translate(-1.936387, -2.280999) " points="0.705087178 0.234540765 3.17004801 0.233122858 3.16768586 4.3274576 0.702725032 4.3288755"></polygon>
                            <path d="M1.10904201,0.0482912177 L0.812990002,1.60434157 C1.66884944,2.38236674 2.30401556,3.37501955 2.78846429,4.43206065 L3.53128569,0.49900925 L1.10904201,0.0482912177 Z" id="Path" fill="#FB7874"></path>
                        </g>
                        <g transform="translate(25.460472, 6.921741)" fill-rule="nonzero" id="Path">
                            <path d="M7.58969687,11.6220864 C8.0741456,8.799733 8.52629776,6.77686755 8.89232569,3.92232002 C9.06457413,2.59699437 8.21948022,0.681442739 6.9760618,0.214627634 C6.08252302,-0.12341089 5.04364962,-0.0160970726 4.19855571,0.434620959 C2.86901307,1.14825784 2.1961676,2.6399199 1.68480505,3.98134262 C1.00119405,5.78958043 0.645931648,7.68366931 0.296052005,9.57239249 C0.0699759285,10.8011357 -0.139951857,12.131827 0.242224368,13.2639878 C2.77750609,13.3659359 5.33970162,12.791807 7.58969687,11.6220864 Z" fill="#70BB92"></path>
                            <path d="M8.82234976,2.79015925 C8.80081871,6.53541146 7.23443446,10.0016478 4.70991827,12.7435158 C5.70572956,12.4698655 6.67462703,12.0996329 7.58969687,11.6220864 C8.0741456,8.799733 8.52629776,6.77686755 8.89232569,3.92232002 C8.9353878,3.57355011 8.90847398,3.18185468 8.82234976,2.79015925 Z" fill="#48956B"></path>
                            <path d="M14.1997307,14.3585887 C13.2415988,12.9688748 11.4868178,12.0298789 9.86660593,11.7776914 C9.62438156,11.7401316 7.62199345,11.4289215 7.56816581,11.7401316 C7.57354857,11.6972061 7.5843141,11.6596462 7.58969687,11.6220864 C5.33970162,12.791807 2.78288885,13.3713016 0.247607132,13.2639878 C0.31758306,13.4732497 0.40370728,13.6717803 0.522128082,13.8649452 C1.77092927,15.9629303 4.51613877,15.6463545 6.59388557,15.6892801 C7.98802138,15.7161085 10.5555997,15.7161085 10.9969863,17.4331296 C11.1154071,17.894579 11.0669622,18.3774912 10.980838,18.849672 C10.7278481,20.2286545 10.1411269,21.521786 9.47366417,22.7451635 C9.31756402,23.0295452 7.4658933,26.1953028 7.42283119,26.1631086 C7.7780936,26.3938333 8.12797324,26.6191923 8.48323565,26.849917 C8.88156016,27.1074702 10.8193551,24.8163202 11.0561967,24.4890131 C11.868994,23.3514866 12.7087052,22.2032288 13.440761,21.0120454 C14.2481756,19.6974511 14.8887245,18.2326175 14.9264038,16.6926643 C14.9425521,15.8180566 14.6626484,15.0346658 14.1997307,14.3585887 Z" fill="#436DD6"></path>
                            <path d="M11.3522487,16.2848717 C9.45213312,13.3069133 3.43958603,16.9824116 1.09270104,13.2693535 C0.812797324,13.2747192 0.527510846,13.2747192 0.247607132,13.2639878 C0.31758306,13.4732497 0.40370728,13.6717803 0.522128082,13.8649452 C1.77092927,15.9629303 4.51613877,15.6463545 6.59388557,15.6892801 C7.98802138,15.7161085 10.5555997,15.7161085 10.9969863,17.4331296 C11.1154071,17.894579 11.0669622,18.3774912 10.980838,18.849672 C10.7278481,20.2286545 10.1411269,21.521786 9.47366417,22.7451635 C9.31756402,23.0295452 7.4658933,26.1953028 7.42283119,26.1631086 C7.48742435,26.2060341 7.55201752,26.2489597 7.62199345,26.2918852 C10.4587099,23.2173443 13.6399233,19.9335415 11.3522487,16.2848717 Z" fill="#315FD2"></path>
                        </g>
                        <g transform="translate(11.338081, 12.019148)" fill-rule="nonzero">
                            <g transform="translate(0.000000, 17.975064)" id="Oval">
                                <circle fill="#333333" transform="translate(10.789425, 9.951438) rotate(-45.000000) translate(-10.789425, -9.951438) " cx="10.7894247" cy="9.95143777" r="7.01315626"></circle>
                                <circle fill="#DAFFF6" transform="translate(10.789425, 9.951438) rotate(-45.000000) translate(-10.789425, -9.951438) " cx="10.7894247" cy="9.95143777" r="4.70230784"></circle>
                                <circle fill="#FFFFFF" transform="translate(10.789425, 9.951438) rotate(-45.000000) translate(-10.789425, -9.951438) " cx="10.7894247" cy="9.95143777" r="1.92391566"></circle>
                            </g>
                            <path d="M37.1660026,3.91158863 L32.8705572,3.91158863 C33.3550059,5.80031182 34.8890936,8.79436731 33.6618235,15.1366139 C33.193523,17.5619062 30.8197242,22.771992 27.8215248,22.702238 C25.2485637,22.6432154 21.7174707,22.3641995 20.4955834,19.0857624 C18.9130508,14.8361352 21.733619,12.1962153 21.733619,12.1962153 L10.8335225,12.1908496 C8.20135099,12.1908496 1.68820687,13.9346992 0.875409546,24.5319386 C0.79466809,25.6104425 1.71512069,26.5118785 2.80243896,26.5118785 L34.5822761,26.5118785 L37.1067922,20.255483 L40.6002059,21.452032 C41.8920692,19.9925641 44.4273509,23.3568523 44.836441,21.452032 C47.0487569,11.1552713 37.1660026,3.91158863 37.1660026,3.91158863 Z" id="Path" fill="#215549"></path>
                            <path d="M35.9118187,3.91158863 C34.652252,3.91158863 32.8651744,3.91158863 32.8651744,3.91158863 C33.3496232,5.80031182 34.8837108,8.79436731 33.6564407,15.1366139 C33.2258196,17.3580099 31.2019004,21.8490932 28.5643462,22.5949242 C31.0727141,22.4178564 39.6097774,17.234599 35.9118187,3.91158863 Z" id="Path" fill="#215549"></path>
                            <g transform="translate(28.636303, 17.975064)">
                                <g id="Oval">
                                    <circle fill="#333333" transform="translate(10.794760, 9.951968) rotate(-45.000000) translate(-10.794760, -9.951968) " cx="10.7947596" cy="9.95196843" r="7.0130276"></circle>
                                    <circle fill="#DAFFF6" transform="translate(10.794760, 9.951968) rotate(-45.000000) translate(-10.794760, -9.951968) " cx="10.7947596" cy="9.95196843" r="4.70222157"></circle>
                                    <ellipse fill="#FFFFFF" transform="translate(10.799873, 9.961854) rotate(-76.714204) translate(-10.799873, -9.961854) " cx="10.7998726" cy="9.96185365" rx="1.92108033" ry="1.92654408"></ellipse>
                                </g>
                                <path d="M17.5350633,8.23633546 C17.8849429,8.48852293 18.3586262,8.17194717 18.2509709,7.75342329 C17.3466666,4.23889578 14.3807638,1.65799847 10.8604363,1.65799847 C7.33472603,1.65799847 4.36882321,4.23889578 3.46990167,7.75342329 C3.36224639,8.17194717 3.8359296,8.48852293 4.18580924,8.23633546 C6.07515931,6.86271861 8.37898219,6.05786498 10.8604363,6.05786498 C13.3418904,6.05786498 15.6403305,6.86271861 17.5350633,8.23633546 Z" id="Path" fill="#00E89C"></path>
                            </g>
                            <path d="M37.8011688,0.0160970726 L37.8011688,3.90622294 C38.7862145,3.80427482 39.5559497,2.97259273 39.5559497,1.96384285 L39.5559497,1.96384285 C39.5559497,0.949727282 38.7915973,0.118045199 37.8011688,0.0160970726 Z" id="Path" fill="#215549"></path>
                            <path d="M37.5966237,0.00536569086 L33.010509,0.00536569086 C32.4345533,0.00536569086 31.9662529,0.472180795 31.9662529,1.04630972 L31.9662529,2.8760103 C31.9662529,3.45013922 32.4345533,3.91695433 33.010509,3.91695433 L37.5966237,3.91695433 C37.6665997,3.91695433 37.7365756,3.91158863 37.8011688,3.90622294 L37.8011688,0.0160970726 C37.7365756,0.00536569086 37.6665997,0.00536569086 37.5966237,0.00536569086 Z" id="Path" fill="#00AC74"></path>
                            <path d="M34.2323964,2.29115 L29.6785783,4.57156861 C29.3179331,4.7540021 28.8765465,4.60912845 28.6935325,4.24962716 C28.5105186,3.89012587 28.6558532,3.45013922 29.0164983,3.26770573 C29.0272639,3.26234004 29.0434122,3.25160866 29.0595605,3.24624297 L33.7425649,1.25020597 C34.0332341,1.12679508 34.3723483,1.26093735 34.4961518,1.55068466 C34.6199554,1.83506627 34.4961518,2.15700772 34.2323964,2.29115 Z" id="Path" fill="#03277D"></path>
                            <path d="M9.60086956,14.267372 C8.23903033,14.267372 6.93640151,14.5195595 5.73066243,14.9756432 C11.1726366,15.0239344 15.7210719,18.3077372 16.5284865,23.5446515 C16.6415245,24.2904825 17.2659251,24.8485144 18.0248948,24.8485144 L18.7892473,24.8485144 C19.7419964,24.8485144 20.4525212,23.9739067 20.2695073,23.0402765 C19.3059926,18.0448183 14.8975091,14.267372 9.60086956,14.267372 Z" id="Path" fill="#215549"></path>
                        </g>
                        <path d="M33.6422733,22.4983418 L20.982013,22.4983418 C20.4706505,22.4983418 20.0615604,22.9115 20.0615604,23.4158749 L20.0615604,23.4158749 C20.0615604,23.9256155 20.4760332,24.333408 20.982013,24.333408 L33.6422733,24.333408 C34.1536359,24.333408 34.5627259,23.9202498 34.5627259,23.4158749 L34.5627259,23.4158749 C34.5627259,22.9115 34.1482531,22.4983418 33.6422733,22.4983418 Z" id="Path" fill="#333333" fill-rule="nonzero"></path>
                        <g transform="translate(15.287049, 31.389292)" fill="#00E89C" fill-rule="nonzero" id="Path">
                            <path d="M8.49400117,0.579494612 L0.269138187,0.579494612 C0.118420802,0.579494612 0,0.461449414 0,0.31121007 C0,0.160970726 0.118420802,0.0429255268 0.269138187,0.0429255268 L8.49938394,0.0429255268 C8.65010132,0.0429255268 8.76852212,0.160970726 8.76852212,0.31121007 C8.76852212,0.461449414 8.64471856,0.579494612 8.49400117,0.579494612 Z"></path>
                            <path d="M8.49400117,2.18920187 L0.269138187,2.18920187 C0.118420802,2.18920187 0,2.07115667 0,1.92091733 C0,1.77067798 0.118420802,1.65263278 0.269138187,1.65263278 L8.49938394,1.65263278 C8.65010132,1.65263278 8.76852212,1.77067798 8.76852212,1.92091733 C8.76852212,2.06579098 8.64471856,2.18920187 8.49400117,2.18920187 Z"></path>
                            <path d="M8.49400117,3.79354344 L0.269138187,3.79354344 C0.118420802,3.79354344 0,3.67549824 0,3.52525889 C0,3.37501955 0.118420802,3.25697435 0.269138187,3.25697435 L8.49938394,3.25697435 C8.65010132,3.25697435 8.76852212,3.37501955 8.76852212,3.52525889 C8.76852212,3.67013255 8.64471856,3.79354344 8.49400117,3.79354344 Z"></path>
                        </g>
                        <path d="M35.359375,12.9688748 C36.1129619,13.7469 37.0657111,14.3263946 38.0938189,14.6590674 C38.5890332,14.8200381 39.1003958,14.9649118 39.6171411,14.8951578 C40.2738383,14.8039411 40.9305354,14.648336 41.5872326,14.5302908 C41.942495,14.4659025 42.308523,14.4015143 42.6584026,14.492731 C43.0028995,14.5839477 43.3258653,14.8897921 43.309717,15.2492934 C43.2989515,15.4800181 43.1589996,15.6892801 42.9759857,15.8341537 C42.6530198,16.0863412 42.3677334,16.3546257 41.9694088,16.0434157 C41.7702466,15.8878106 41.624912,15.6678173 41.4096014,15.5444064 C41.0058941,15.3136817 40.5052971,15.4692867 40.0639105,15.5980633 C38.2553019,16.1185353 36.2582965,16.1775579 34.5734915,15.2707562 C32.5388068,14.1761552 31.0908433,12.2391408 29.9766112,10.2162754 C29.7451524,9.79238581 29.6159661,9.40069038 29.8797215,8.94997235 C30.1434769,8.50462001 30.5902463,8.17194717 31.0908433,8.04317059 C32.4150032,7.71049776 32.6787586,8.75144179 33.217035,9.69580338 C33.8575839,10.8225985 34.4389224,12.0191475 35.359375,12.9688748 Z" id="Path" fill="#FE9592" fill-rule="nonzero"></path>
                        <path d="M35.7630823,15.2975846 C34.8103331,14.8897921 33.9652392,14.2888348 33.2547144,13.5322723 C32.8779209,13.1298455 32.5388068,12.6952246 32.2212237,12.2445065 C31.9144062,11.8098856 31.6291197,11.3591675 31.3223022,10.9245466 C31.0262502,10.5060227 30.7140499,10.0982302 30.4502944,9.65824354 C30.278046,9.37386193 30.1165631,9.06801755 30.0089078,8.7460761 C29.9604629,8.8050987 29.9174008,8.86948699 29.8797215,8.93387528 C29.6159661,9.38459331 29.7451524,9.77628874 29.9766112,10.2001783 C31.0908433,12.2230438 32.5388068,14.1600582 34.5734915,15.2546591 C35.8222927,15.9307362 37.248725,16.0702441 38.6374781,15.8824449 C37.6470496,15.8824449 36.6727693,15.6839144 35.7630823,15.2975846 Z" id="Path" fill="#FB7874" fill-rule="nonzero"></path>
                        <path d="M29.298383,7.93049109 C28.7870205,8.50462001 29.1799622,9.685072 29.3360624,10.1089616 C29.5998178,10.8065014 30.0304389,11.4289215 30.4556772,12.045976 C31.4084264,11.5094069 33.7283976,10.1572528 33.7283976,10.1572528 C33.7283976,10.1572528 32.4580653,6.76077048 30.2457494,7.30807095 C29.9281664,7.38855631 29.5621384,7.63537809 29.298383,7.93049109 Z" id="Path" fill="#7FC29D" fill-rule="nonzero"></path>
                        <path d="M31.2846228,10.9299123 C31.166202,10.7421131 31.053164,10.5489482 30.9401259,10.3557834 C30.8217051,10.1465214 30.7086671,9.93725947 30.6010118,9.72799752 C30.4987393,9.51873558 30.4018496,9.30410794 30.3157254,9.08948031 C30.2349839,8.89094975 30.165008,8.6870535 30.1165631,8.47779155 C30.073501,8.30072375 30.0412044,8.11829027 30.0465872,7.93585678 C30.0465872,7.79098312 30.073501,7.63537809 30.1434769,7.50660151 C30.1919218,7.41538476 30.2672805,7.35099647 30.3480219,7.29197387 C30.3157254,7.29733956 30.2834288,7.30270526 30.2511322,7.31343664 C29.9335491,7.393922 29.5621384,7.64074378 29.3037658,7.93049109 C28.7924032,8.50462001 29.185345,9.685072 29.3414451,10.1089616 C29.6052005,10.8065014 30.0358216,11.4289215 30.46106,12.045976 C30.7463465,11.8850052 31.1554365,11.6489148 31.5860576,11.4020931 C31.4837851,11.246488 31.3815126,11.0855173 31.2846228,10.9299123 Z" id="Path" fill="#5BB182" fill-rule="nonzero"></path>
                        <g transform="translate(31.004719, 0.000000)" fill-rule="nonzero" id="Path">
                            <path d="M5.94048901,3.32672833 C5.96323852,3.39648231 6.03148705,3.48769906 6.14523461,3.59501287 C6.07698607,3.50379613 6.00873754,3.41794508 5.94048901,3.32672833 Z" fill="#FE9592"></path>
                            <path d="M6.40548884,4.61985983 C6.39472332,4.70034519 6.32474739,4.76473348 6.25477146,4.81839039 C6.15249895,4.88814437 6.05022644,4.95253266 5.93180564,5.00618957 C5.74879167,5.80031182 5.29125675,6.4549261 4.59688023,6.77686755 C3.20812719,7.41538476 1.4102841,6.47102317 0.57595572,4.67351674 C-0.252989896,2.8760103 0.199162258,0.901436064 1.58253254,0.262918852 C2.97128558,-0.37559836 4.76912867,0.568763231 5.59807428,2.36626967 C5.74879167,2.68821112 5.85106418,3.01551826 5.92104011,3.33209402 C5.92642287,3.401848 5.94257116,3.49306475 5.96948498,3.60037856 C6.03407815,3.86866311 6.15788171,4.19597025 6.30321633,4.39450081 C6.36242673,4.4588891 6.41625437,4.53400877 6.40548884,4.61985983 Z" fill="#FE9592"></path>
                            <path d="M5.94048901,3.32672833 C5.96323852,3.39648231 6.03148705,3.48769906 6.14523461,3.59501287 C6.07698607,3.50379613 6.00873754,3.41794508 5.94048901,3.32672833 Z" fill="#FE9592"></path>
                            <path d="M6.70154085,2.31797845 C6.61541663,2.63455421 6.34089568,2.86527892 6.06099196,3.04234672 C5.08132897,3.67549824 3.89173818,3.97597692 2.72906121,3.88476018 C2.72906121,4.06719367 2.7613578,4.24962716 2.8205682,4.41596357 C2.6859991,4.35694098 2.54066448,4.29791838 2.39532986,4.30328407 C2.24461248,4.30864976 2.09389509,4.41059788 2.07236404,4.56083723 C2.05621575,4.68424812 2.14233997,4.80229332 2.24999524,4.86131592 C2.38456433,4.93643559 2.59987488,4.89351006 2.62140594,5.05448079 C2.63755423,5.17252599 2.48145408,5.33349671 2.40609539,5.41398207 C2.30382288,5.52666158 2.18001931,5.62324402 2.04545022,5.69836369 C1.959326,5.74665491 1.73324992,5.77348336 1.67403952,5.83787165 C1.72786716,5.78421474 1.75478098,5.70372938 1.74939821,5.62324402 C1.58253254,5.82714027 1.32415988,5.95055116 1.06578722,5.95591685 C1.11423209,5.90225994 1.1572942,5.84860303 1.20573908,5.79494612 C1.03349064,5.97737961 0.796649033,6.09542481 0.549041901,6.13298465 C0.715907577,5.89689425 0.742821395,5.59104987 0.688993758,5.31203395 C0.640548884,5.0437494 0.436003862,4.78619624 0.414472808,4.52864308 C0.392941753,4.29791838 0.511362555,4.01353676 0.645931648,3.83110327 C0.812797324,3.61110995 1.04425616,3.44477353 1.28109777,3.31599695 C1.92702942,2.96186135 2.66446805,2.80089063 3.39114115,2.66674836 C4.01015898,2.54870316 4.63455958,2.44675503 5.26434293,2.3501726 C5.50118454,2.31261276 5.67881574,2.31797845 5.91027458,2.3501726 C5.99101604,2.35553829 6.68539256,2.37163536 6.70154085,2.31797845 Z" fill="#333333"></path>
                            <g>
                                <path d="M0.436003862,4.31938114 C0.436003862,4.31938114 7.4066829,2.68284543 7.69196938,1.39507962 C7.75656254,1.09996663 5.34508439,1.88335749 5.34508439,1.88335749 L0.436003862,4.31938114 Z" fill="#215549"></path>
                                <path d="M1.5879153,0.262918852 C-0.263755423,1.08386955 -0.188396731,2.62382283 0.436003862,4.32474683 L5.34508439,1.88872318 C4.43539732,0.402426814 3.13815126,-0.423889578 1.5879153,0.262918852 Z" fill="#00E89C"></path>
                                <path d="M0.549041901,0.987287118 C-0.193779494,1.84579765 -0.0376793461,3.03698102 0.436003862,4.31938114 L0.796649033,4.13694765 C0.301434769,3.14429484 0.0592104011,2.12481358 0.549041901,0.987287118 Z" fill="#215549"></path>
                            </g>
                            <path d="M6.40548884,4.61985983 C6.40548884,4.60376275 6.40548884,4.58766568 6.40010608,4.57156861 C6.31398186,4.68961381 6.18479553,4.77009917 6.03946091,4.78619624 C5.98563327,4.79156193 5.93180564,4.79156193 5.88874353,4.8130247 C5.84029865,4.83448746 5.80261931,4.88814437 5.82415036,4.93643559 C5.84029865,4.97936111 5.89412629,4.99545819 5.94257116,5.00082388 C5.94257116,5.00082388 5.94795393,5.00082388 5.94795393,5.00082388 C6.0556092,4.95253266 6.16326448,4.88814437 6.26015422,4.81839039 C6.32474739,4.76473348 6.39472332,4.70034519 6.40548884,4.61985983 Z" fill="#FB7874"></path>
                            <path d="M3.50956195,4.81839039 C3.45035155,4.88814437 3.44496879,4.98472681 3.47726537,5.07057786 C3.50956195,5.15642891 3.56877236,5.2208172 3.63874828,5.27447411 C3.73025527,5.34422809 3.83252778,5.397885 3.94556582,5.43007915 C4.0370728,5.4569076 4.14472808,5.4569076 4.20393848,5.38715362 C4.23623506,5.34959378 4.24700059,5.29593688 4.23623506,5.24227997 C4.22546953,5.19398875 4.20393848,5.14569753 4.17702466,5.102772 C4.06936938,4.96326404 3.68719316,4.60912845 3.50956195,4.81839039 Z" fill="#FB7874"></path>
                        </g>
                        <path d="M36.9149937,34.2223763 C37.0011179,34.2545704 37.1087732,34.3028616 37.1249215,34.3994441 C37.1410698,34.4852951 37.0710938,34.5657805 36.9903524,34.592609 C36.9096109,34.6194374 36.8234867,34.608706 36.7373625,34.5979746 C35.5047096,34.4209068 34.309736,34.0077486 33.2278005,33.3906942 C32.9748106,33.2458205 32.7971794,32.9936331 32.8725381,32.6877887 C32.8994519,32.596572 33.4108145,31.8990321 33.491556,31.9580547 C34.08366,32.3819443 34.7726537,32.7199828 35.3324612,33.1707009 C35.8492065,33.5838591 36.2852103,33.9755545 36.9149937,34.2223763 Z" id="Path" fill="#03277D" fill-rule="nonzero"></path>
                        <path d="M19.6686187,8.75144179 L2.59449212,8.75144179 C2.37918157,8.75144179 2.20155037,8.57437399 2.20155037,8.35974635 L2.20155037,8.35974635 C2.20155037,8.14511872 2.37918157,7.96805092 2.59449212,7.96805092 L19.6686187,7.96805092 C19.8839292,7.96805092 20.0615604,8.14511872 20.0615604,8.35974635 L20.0615604,8.35974635 C20.0615604,8.57973968 19.8839292,8.75144179 19.6686187,8.75144179 Z" id="Path" fill="#FFFFFF" fill-rule="nonzero"></path>
                        <g transform="translate(33.642273, 3.863297)" fill-rule="nonzero" id="Path">
                            <path d="M2.938989,0.171702107 C2.62140594,0.332672833 2.30920564,0.493643559 1.97009153,0.606323067 C1.63097741,0.713636884 1.27033224,0.767293792 0.925835362,0.697539811 C0.828945615,0.676077048 0.710524813,0.654614284 0.645931648,0.735099647 C0.619017829,0.772659483 0.613635066,0.820950701 0.613635066,0.869241919 C0.581338483,1.49166206 0.76435245,2.12481358 1.12499762,2.63455421 C1.26494948,2.83308477 1.45872897,3.02624964 1.70095334,3.04771241 C1.88396731,3.05844379 2.05083298,2.97259273 2.20693313,2.8760103 C2.50298514,2.69357681 2.78288885,2.47894918 3.04126151,2.24285878 C3.34269628,1.95847716 3.62259999,1.62580433 3.73563803,1.22874321 C3.81099672,0.949727282 3.8002312,0.638517212 3.6656621,0.380964051 C3.62259999,0.289747306 3.52571025,0.12341089 3.43420326,0.075119672 C3.28348588,-0.00536569086 3.06817533,0.107313817 2.938989,0.171702107 Z" fill="#4F94F9"></path>
                            <path d="M0.947366417,2.33944121 C1.00119405,2.44138934 1.06040446,2.53797177 1.12499762,2.62918852 C1.26494948,2.82771908 1.45872897,3.02088395 1.70095334,3.04234672 C1.88396731,3.0530781 2.05083298,2.96722704 2.20693313,2.87064461 C2.22846419,2.85991323 2.24461248,2.84381615 2.26614353,2.82771908 C1.75478098,2.83845046 1.28109777,2.66138266 0.947366417,2.33944121 Z" fill="#4A87DA"></path>
                            <path d="M0.802031796,0.890704682 C0.775117978,0.890704682 0.748204159,0.8799733 0.726673104,0.87460761 C0.678228231,0.858510537 0.0592104011,0.531203395 0.0161482912,0.488277868 C0.0915069835,0.482912177 0.166865676,0.488277868 0.242224368,0.49900925 C0.312200297,0.509740631 0.382176225,0.552666158 0.44676939,0.584860303 C0.543659137,0.633151521 0.640548884,0.681442739 0.742821395,0.724368266 C0.76435245,0.735099647 0.855859434,0.858510537 0.855859434,0.858510537 C0.834328379,0.87460761 0.828945615,0.890704682 0.802031796,0.890704682 Z" fill="#4F94F9"></path>
                        </g>
                    </g>
                </g>
            </g>
        </g>
    </g>
</svg>