<?xml version="1.0" encoding="UTF-8"?>
<svg width="17px" height="12px" viewBox="0 0 17 12" version="1.1" xmlns="http://www.w3.org/2000/svg" xmlns:xlink="http://www.w3.org/1999/xlink">
    <!-- Generator: sketchtool 64 (101010) - https://sketch.com -->
    <title>C5D77B57-8AD7-490E-92E4-3BAFEF896873</title>
    <desc>Created with sketchtool.</desc>
    <g id="Page-1" stroke="none" stroke-width="1" fill="none" fill-rule="evenodd">
        <g id="Settings-2-Copy" transform="translate(-45.000000, -410.000000)" fill="#FFC043" fill-rule="nonzero">
            <g id="mail-(1)" transform="translate(45.000000, 410.000000)">
                <path d="M16.8489455,0.944444444 L11.6481481,6.13888889 L16.8489455,11.3333333 C16.942961,11.1357964 17,10.9174182 17,10.6842256 L17,1.59355219 C17,1.36032592 16.942961,1.14198141 16.8489455,0.944444444 Z" id="Path"></path>
                <path d="M15.7246397,0 L1.59017511,0 C1.35816223,0 1.14095369,0.0573176787 0.944444444,0.151792561 L7.59176256,6.79778245 C8.17951513,7.3883935 9.13529968,7.3883935 9.72305225,6.79778245 L16.3703704,0.151792561 C16.1738611,0.0573176787 15.9566526,0 15.7246397,0 Z" id="Path"></path>
                <path d="M0.151054527,0.944444444 C0.0570389933,1.14198141 0,1.36032592 0,1.59355219 L0,10.6842256 C0,10.9174519 0.0570389933,11.13583 0.151054527,11.3333333 L5.35185185,6.13888889 L0.151054527,0.944444444 Z" id="Path"></path>
                <path d="M11.1694568,6.61111111 L10.4334933,7.35169289 C9.45416249,8.33716919 7.86061883,8.33716919 6.881288,7.35169289 L6.14535801,6.61111111 L0.944444444,11.8109571 C1.14095369,11.9055648 1.35816223,11.962963 1.59017511,11.962963 L15.7246397,11.962963 C15.9566526,11.962963 16.1738611,11.9055648 16.3703704,11.8109571 L11.1694568,6.61111111 Z" id="Path"></path>
            </g>
        </g>
    </g>
</svg>