<?xml version="1.0" encoding="UTF-8"?>
<svg width="52px" height="52px" viewBox="0 0 52 52" version="1.1" xmlns="http://www.w3.org/2000/svg" xmlns:xlink="http://www.w3.org/1999/xlink">
    <!-- Generator: Sketch 54.1 (76490) - https://sketchapp.com -->
    <title>Video Off</title>
    <desc>Created with Sketch.</desc>
    <g id="Page-1" stroke="none" stroke-width="1" fill="none" fill-rule="evenodd">
        <g id="Video-Off">
            <circle id="Oval-Copy-12" fill="#0B9777" cx="26" cy="26" r="26"></circle>
            <g id="videocam_off_black_24dp-copy" transform="translate(10.000000, 10.000000)">
                <path d="M0,0 L32,0 L32,32 L0,32 L0,0 Z M0,0 L32,0 L32,32 L0,32 L0,0 Z" id="Shape"></path>
                <path d="M28,8.66666667 L22.6666667,14 L22.6666667,9.33333333 C22.6666667,8.6 22.0666667,8 21.3333333,8 L13.0933333,8 L28,22.9066667 L28,8.66666667 Z M4.36,2.66666667 L2.66666667,4.36 L6.30666667,8 L5.33333333,8 C4.6,8 4,8.6 4,9.33333333 L4,22.6666667 C4,23.4 4.6,24 5.33333333,24 L21.3333333,24 C21.6133333,24 21.8533333,23.8933333 22.0533333,23.76 L26.3066667,28 L28,26.3066667 L4.36,2.66666667 Z" id="Shape" fill="#FFFFFF" fill-rule="nonzero"></path>
            </g>
        </g>
    </g>
</svg>