<?xml version="1.0" encoding="UTF-8"?>
<svg width="52px" height="52px" viewBox="0 0 52 52" version="1.1" xmlns="http://www.w3.org/2000/svg" xmlns:xlink="http://www.w3.org/1999/xlink">
    <!-- Generator: Sketch 54.1 (76490) - https://sketchapp.com -->
    <title>Mute Voice</title>
    <desc>Created with Sketch.</desc>
    <g id="Page-1" stroke="none" stroke-width="1" fill="none" fill-rule="evenodd">
        <g id="Mute-Voice">
            <circle id="Oval-Copy-10" fill="#0B9777" cx="26" cy="26" r="26"></circle>
            <g id="mic_off_black_24dp-(1)-copy" transform="translate(10.000000, 10.000000)">
                <path d="M0,0 L32,0 L32,32 L0,32 L0,0 Z M0,0 L32,0 L32,32 L0,32 L0,0 Z" id="Shape"></path>
                <path d="M25.3333333,14.6666667 L23.0666667,14.6666667 C23.0666667,15.6533333 22.8533333,16.5733333 22.4933333,17.4 L24.1333333,19.04 C24.88,17.7333333 25.3333333,16.2533333 25.3333333,14.6666667 L25.3333333,14.6666667 Z M19.9733333,14.8933333 C19.9733333,14.8133333 20,14.7466667 20,14.6666667 L20,6.66666667 C20,4.45333333 18.2133333,2.66666667 16,2.66666667 C13.7866667,2.66666667 12,4.45333333 12,6.66666667 L12,6.90666667 L19.9733333,14.8933333 Z M5.69333333,4 L4,5.69333333 L12.0133333,13.7066667 L12.0133333,14.6666667 C12.0133333,16.88 13.7866667,18.6666667 16,18.6666667 C16.2933333,18.6666667 16.5866667,18.6266667 16.8666667,18.56 L19.08,20.7733333 C18.1333333,21.2133333 17.08,21.4666667 16,21.4666667 C12.32,21.4666667 8.93333333,18.6666667 8.93333333,14.6666667 L6.66666667,14.6666667 C6.66666667,19.2133333 10.2933333,22.9733333 14.6666667,23.6266667 L14.6666667,28 L17.3333333,28 L17.3333333,23.6266667 C18.5466667,23.4533333 19.6933333,23.0266667 20.72,22.4266667 L26.3066667,28 L28,26.3066667 L5.69333333,4 Z" id="Shape" fill="#FFFFFF" fill-rule="nonzero"></path>
            </g>
        </g>
    </g>
</svg>