<?xml version="1.0" encoding="UTF-8"?>
<svg width="20px" height="21px" viewBox="0 0 20 21" version="1.1" xmlns="http://www.w3.org/2000/svg" xmlns:xlink="http://www.w3.org/1999/xlink">
    <!-- Generator: Sketch 64 (93537) - https://sketch.com -->
    <title>Group 3</title>
    <desc>Created with Sketch.</desc>
    <g id="Page-1" stroke="none" stroke-width="1" fill="none" fill-rule="evenodd">
        <g id="Task-history-update" transform="translate(-303.000000, -596.000000)">
            <g id="Group-7" transform="translate(0.000000, 587.000000)">
                <g id="Group-4">
                    <g id="Group-14">
                        <g id="Group-13" transform="translate(294.000000, 9.000000)">
                            <g id="Group-17">
                                <g id="Group-3" transform="translate(9.000000, 0.000000)">
                                    <g id="user-(3)" fill="#FFC043" fill-rule="nonzero">
                                        <path d="M8.5,-9.05941988e-14 C5.68786,-9.05941988e-14 3.4,2.28786 3.4,5.1 C3.4,7.91214 5.68786,10.2 8.5,10.2 C11.31214,10.2 13.6,7.91214 13.6,5.1 C13.6,2.28786 11.31214,-9.05941988e-14 8.5,-9.05941988e-14 Z" id="Path"></path>
                                        <path d="M14.8453822,13.5110708 C13.4491156,12.1067211 11.5981178,11.3333333 9.63333333,11.3333333 L7.36666667,11.3333333 C5.40192,11.3333333 3.55088444,12.1067211 2.15461778,13.5110708 C0.765188889,14.9085349 0,16.7531846 0,18.7053459 C0,19.0153447 0.253715556,19.2666667 0.566666667,19.2666667 L16.4333333,19.2666667 C16.7462844,19.2666667 17,19.0153447 17,18.7053459 C17,16.7531846 16.2348111,14.9085349 14.8453822,13.5110708 Z" id="Path"></path>
                                    </g>
                                    <circle id="Oval" fill="#FF2222" cx="16" cy="17" r="4"></circle>
                                </g>
                            </g>
                        </g>
                    </g>
                </g>
            </g>
        </g>
    </g>
</svg>