<?xml version="1.0" encoding="UTF-8"?>
<svg width="25px" height="25px" viewBox="0 0 25 25" version="1.1" xmlns="http://www.w3.org/2000/svg" xmlns:xlink="http://www.w3.org/1999/xlink">
    <!-- Generator: sketchtool 64 (101010) - https://sketch.com -->
    <title>1566AD33-8D85-41A1-A63F-1DC4F5534C23</title>
    <desc>Created with sketchtool.</desc>
    <g id="Page-1" stroke="none" stroke-width="1" fill="none" fill-rule="evenodd">
        <g id="Chat-screen---reply-highlight-Copy-2" transform="translate(-75.000000, -144.000000)" fill="#FFFFFF" fill-rule="nonzero">
            <g id="money-(1)" transform="translate(75.000000, 144.000000)">
                <path d="M0.39871662,12.5941192 C0.0842893201,12.6934664 -0.0777801293,12.9924881 0.036759612,13.263279 L0.41945374,14.1666667 L3.33333333,11.6666667 L0.39871662,12.5941192 Z" id="Path"></path>
                <path d="M2.5,20.8333333 L4.13398693,24.6803699 C4.18504902,24.8018193 4.29169433,24.9009097 4.4278599,24.9543255 C4.50386795,24.9844261 4.5855673,25 4.66726665,25 C4.73423245,25 4.80002808,24.9903004 4.86358975,24.9698995 L6.66666667,24.400631 L2.5,20.8333333 Z" id="Path"></path>
                <path d="M24.966411,17.1277625 L23.1613871,12.5 L18.829525,16.5394596 L20.9762799,15.8020223 C21.257787,15.7019131 21.5753874,15.8387912 21.6794572,16.1043606 C21.7846052,16.3688766 21.6389485,16.6630281 21.3552337,16.7600732 L18.627957,17.6976809 C18.5655254,17.7191294 18.5020156,17.7293271 18.4384544,17.7293271 C18.2160931,17.7293271 18.005797,17.6016412 17.9247797,17.3953426 C17.9237015,17.3922785 17.9247797,17.3892144 17.9237015,17.3861504 L13.3333333,21.6666667 L24.6411093,17.7814164 C24.9247728,17.6844192 25.0704295,17.3922785 24.966411,17.1277625 Z" id="Path"></path>
                <path d="M24.8476533,8.48559392 L16.5141409,0.152341965 C16.3110119,-0.0507806549 15.9807809,-0.0507806549 15.7776519,0.152341965 L0.152346726,15.7771589 C-0.0507822418,15.9802815 -0.0507822418,16.3105022 0.152346726,16.5136248 L8.4858591,24.8468768 C8.58688646,24.9489752 8.72023868,25 8.85359089,25 C8.9869431,25 9.12024649,24.9489752 9.22234809,24.8479022 L24.8476533,9.22308528 C25.0507822,9.01893728 25.0507822,8.68974192 24.8476533,8.48559392 Z M6.09728706,14.4313739 L4.01389676,16.5146502 C3.91179515,16.6156744 3.77849177,16.666748 3.64513955,16.666748 C3.51178734,16.666748 3.37848395,16.6157233 3.27638235,16.5146502 C3.07325338,16.3115276 3.07325338,15.9813069 3.27638235,15.7781842 L5.35977265,13.694859 C5.56290162,13.4917364 5.89313268,13.4917364 6.09626165,13.694859 C6.29939061,13.8980305 6.30041602,14.227177 6.09728706,14.4313739 Z M15.0922381,15.0927919 C14.7234809,15.4615376 14.2224458,15.6386351 13.6651106,15.6386351 C12.7442431,15.6386351 11.6681966,15.1563654 10.7681791,14.2553017 C10.1098166,13.5969598 9.64730756,12.809469 9.46712826,12.0386773 C9.26712436,11.1793124 9.43172718,10.4314207 9.93066271,9.93142658 C10.4296471,9.43143244 11.1775621,9.26683476 12.0379793,9.46790663 C12.8088439,9.64812912 13.5963593,10.1095495 14.2546729,10.7689168 C15.701625,12.2147006 16.0703822,14.1146783 15.0922381,15.0927919 Z M21.7225922,9.22308528 L19.6392019,11.3064105 C19.5371003,11.4074347 19.4037969,11.4585083 19.2704447,11.4585083 C19.1370925,11.4585083 19.0037891,11.4074835 18.9016875,11.3064105 C18.6985586,11.1032879 18.6985586,10.7730671 18.9016875,10.5699445 L20.9850778,8.4866193 C21.1882068,8.28349668 21.5184379,8.28349668 21.7215668,8.4866193 C21.9246958,8.68974192 21.9257212,9.01893728 21.7225922,9.22308528 Z" id="Shape"></path>
            </g>
        </g>
    </g>
</svg>