<?xml version="1.0" encoding="UTF-8"?>
<svg width="61px" height="59px" viewBox="0 0 61 59" version="1.1" xmlns="http://www.w3.org/2000/svg" xmlns:xlink="http://www.w3.org/1999/xlink">
    <!-- Generator: sketchtool 64 (101010) - https://sketch.com -->
    <title>88605FFA-E5A5-4C07-B63E-23A894B18FB0</title>
    <desc>Created with sketchtool.</desc>
    <g id="Page-1" stroke="none" stroke-width="1" fill="none" fill-rule="evenodd">
        <g id="New-ticket" transform="translate(-24.000000, -125.000000)" fill-rule="nonzero">
            <g id="question-mark" transform="translate(24.000000, 125.000000)">
                <path d="M1.80722892,59 C0.808313253,59 0,58.19492 0,57.2 L0,24.8 C0,23.80508 0.808313253,23 1.80722892,23 L23.6144578,23 C24.6133735,23 25.4216867,23.80508 25.4216867,24.8 L25.4216867,30.2 L38.1927711,30.2 C39.1916867,30.2 40,31.00508 40,32 L40,53.6 C40,54.59492 39.1916867,55.4 38.1927711,55.4 L5.42168675,55.4 C4.42626506,55.4 3.61445783,56.20688 3.61445783,57.2 C3.61445783,58.19492 2.80614458,59 1.80722892,59 Z" id="Path" fill="#737373"></path>
                <path d="M38.1927711,30.1111111 L25.4216867,30.1111111 L25.4216867,24.7777778 C25.4216867,23.7951407 24.6133735,23 23.6144578,23 L20,23 L20,55 L38.1927711,55 C39.1916867,55 40,54.2048593 40,53.2222222 L40,31.8888889 C40,30.9062519 39.1916867,30.1111111 38.1927711,30.1111111 Z" id="Path" fill="#333333"></path>
                <path d="M23.2119205,34 L8.78807947,34 C7.79974834,34 7,33.1054667 7,32 C7,30.8945333 7.79974834,30 8.78807947,30 L23.2119205,30 C24.2002517,30 25,30.8945333 25,32 C25,33.1054667 24.2002517,34 23.2119205,34 Z" id="Path" fill="#F3F5F9"></path>
                <path d="M24,30 L20,30 L20,34 L24,34 C25.1054667,34 26,33.1054667 26,32 C26,30.8945333 25.1054667,30 24,30 Z" id="Path" fill="#E2DFF4"></path>
                <path d="M59.2326284,37 C58.2557432,37 57.4652568,36.2119587 57.4652568,35.2380952 C57.4652568,34.2659937 56.6713535,33.4761905 55.6978852,33.4761905 L23.7673716,33.4761905 C22.7904864,33.4761905 22,32.6881492 22,31.7142857 L22,1.76190476 C22,0.78804127 22.7904864,0 23.7673716,0 L59.2326284,0 C60.2095136,0 61,0.78804127 61,1.76190476 L61,35.2380952 C61,36.2119587 60.2095136,37 59.2326284,37 Z" id="Path" fill="#FFBE02"></path>
                <path d="M59.1818182,0 L41,0 L41,33.4761905 L55.5454545,33.4761905 C56.5469091,33.4761905 57.3636364,34.2659937 57.3636364,35.2380952 C57.3636364,36.2119587 58.1768485,37 59.1818182,37 C60.1867879,37 61,36.2119587 61,35.2380952 L61,1.76190476 C61,0.78804127 60.1867879,0 59.1818182,0 Z" id="Path" fill="#F39700"></path>
                <g id="Question_Message_1_" transform="translate(7.000000, 7.000000)" fill="#F3F5F9">
                    <path d="M40,5.3916185 C40,7.27560405 38.9519277,9.05306069 37.2891566,10.0130058 C36.7468675,10.3330665 36.3855422,10.9017341 36.3855422,11.5416185 C36.3855422,12.5371127 35.5904819,13.3190751 34.5783133,13.3190751 C33.5661446,13.3190751 32.7710843,12.5371127 32.7710843,11.5416185 C32.7710843,10.0486734 33.4578313,8.59092197 34.5783133,7.59566474 C35.0551807,7.12665318 35.4549398,6.92023121 35.4819277,6.92023121 C36.0242169,6.60017052 36.3855422,6.03150289 36.3855422,5.3916185 C36.3855422,4.39612428 35.5904819,3.61416185 34.5783133,3.61416185 C33.5661446,3.61416185 32.7710843,4.39612428 32.7710843,5.3916185 C32.7710843,6.38687572 31.9760241,7.16907514 30.9638554,7.16907514 C29.9516867,7.16907514 29.1566265,6.38687572 29.1566265,5.3916185 C29.1566265,2.44092197 31.5781928,0.0592485549 34.5783133,0.0592485549 C37.5784337,0.0592485549 40,2.44092197 40,5.3916185 Z" id="Path"></path>
                    <ellipse id="Oval" cx="34.5783133" cy="17.833815" rx="1.80722892" ry="1.77745665"></ellipse>
                    <path d="M23.7349398,40.9407514 L1.80722892,40.9407514 C0.808313253,40.9407514 0,40.1457543 0,39.1632948 C0,38.1808353 0.808313253,37.3858382 1.80722892,37.3858382 L23.7349398,37.3858382 C24.7338554,37.3858382 25.5421687,38.1808353 25.5421687,39.1632948 C25.5421687,40.1457543 24.7338554,40.9407514 23.7349398,40.9407514 Z" id="Path"></path>
                    <path d="M23.7349398,33.8309249 L1.80722892,33.8309249 C0.808313253,33.8309249 0,33.0359277 0,32.0534682 C0,31.0710087 0.808313253,30.2760116 1.80722892,30.2760116 L23.7349398,30.2760116 C24.7338554,30.2760116 25.5421687,31.0710087 25.5421687,32.0534682 C25.5421687,33.0359277 24.7338554,33.8309249 23.7349398,33.8309249 Z" id="Path"></path>
                </g>
                <g id="Group" transform="translate(19.000000, 7.000000)" fill="#E2DFF4">
                    <path d="M24.2831858,17.833815 C24.2831858,16.851948 23.451115,16.0563584 22.4247788,16.0563584 L22.4247788,19.6112717 C23.451115,19.6112717 24.2831858,18.8154451 24.2831858,17.833815 Z" id="Path"></path>
                    <path d="M28,5.3916185 C28,7.27560405 26.9222478,9.05306069 25.2123894,10.0130058 C24.6547434,10.3330665 24.2831858,10.9017341 24.2831858,11.5416185 C24.2831858,12.5371127 23.4656106,13.3190751 22.4247788,13.3190751 L22.4247788,7.59566474 C22.9151504,7.12665318 23.3262301,6.92023121 23.3539823,6.92023121 C23.9116283,6.60017052 24.2831858,6.03150289 24.2831858,5.3916185 C24.2831858,4.39612428 23.4656106,3.61416185 22.4247788,3.61416185 L22.4247788,0.0592485549 C25.5098584,0.0592485549 28,2.44092197 28,5.3916185 Z" id="Path"></path>
                    <path d="M11.2743363,37.3858382 L0,37.3858382 L0,40.9407514 L11.2743363,40.9407514 C12.3015398,40.9407514 13.1327434,40.1457543 13.1327434,39.1632948 C13.1327434,38.1808353 12.3015398,37.3858382 11.2743363,37.3858382 Z" id="Path"></path>
                    <path d="M11.2743363,30.2760116 L0,30.2760116 L0,33.8309249 L11.2743363,33.8309249 C12.3015398,33.8309249 13.1327434,33.0359277 13.1327434,32.0534682 C13.1327434,31.0710087 12.3015398,30.2760116 11.2743363,30.2760116 Z" id="Path"></path>
                </g>
            </g>
        </g>
    </g>
</svg>