<?xml version="1.0" encoding="UTF-8"?>
<svg width="30px" height="37px" viewBox="0 0 30 37" version="1.1" xmlns="http://www.w3.org/2000/svg" xmlns:xlink="http://www.w3.org/1999/xlink">
    <!-- Generator: sketchtool 64 (101010) - https://sketch.com -->
    <title>A3C4CBAD-5D3B-41AA-BEB8-1F63770B4B80</title>
    <desc>Created with sketchtool.</desc>
    <g id="Page-1" stroke="none" stroke-width="1" fill="none" fill-rule="evenodd">
        <g id="Tasker-timer" transform="translate(-16.000000, -94.000000)" fill="#FFBE02" fill-rule="nonzero">
            <g id="timer" transform="translate(16.000000, 94.000000)">
                <path d="M22.606747,4.13807229 L21.3685542,6.28066265 L25.6589759,8.75710843 L26.8972289,6.61445783 C27.238253,6.0196988 27.0351807,5.26506024 26.4427108,4.92144578 L24.3001205,3.68319277 C23.7073494,3.33993976 22.9504217,3.54301205 22.606747,4.13807229 Z" id="Path"></path>
                <path d="M15,5.57590361 C15.7831325,5.57590361 16.5481325,5.65253012 17.3042169,5.76054217 L17.3042169,3.75644578 L18.8883735,3.74433735 L18.8883735,1.15210843 C18.8883735,0.515301205 18.3730723,0 17.7362651,0 L12.2758434,0 C11.6390361,0 11.1237349,0.515301205 11.1237349,1.15210843 L11.1237349,3.74433735 L12.6957831,3.75644578 L12.6957831,5.76054217 C13.4518675,5.65253012 14.2168675,5.57590361 15,5.57590361 Z" id="Path"></path>
                <path d="M15,6.9126506 C6.72819277,6.9126506 0.0225903614,13.6181928 0.0225903614,21.8900602 C0.0225903614,30.1619277 6.72819277,36.8674699 15,36.8674699 C23.2718072,36.8674699 29.9774096,30.1619277 29.9774096,21.8900602 C29.9774096,13.6181928 23.2718072,6.9126506 15,6.9126506 Z M21.9990964,28.9294578 L13.2718072,22.8875301 L13.2718072,14.3578313 L15.7903614,14.3578313 L15.7903614,21.568012 L23.4325301,26.8587952 L21.9990964,28.9294578 Z" id="Shape"></path>
            </g>
        </g>
    </g>
</svg>