<?xml version="1.0" encoding="UTF-8"?>
<svg width="44px" height="45px" viewBox="0 0 44 45" version="1.1" xmlns="http://www.w3.org/2000/svg" xmlns:xlink="http://www.w3.org/1999/xlink">
    <!-- Generator: sketchtool 64 (101010) - https://sketch.com -->
    <title>FB7F4489-6720-4A6C-971A-396398903B86</title>
    <desc>Created with sketchtool.</desc>
    <g id="Page-1" stroke="none" stroke-width="1" fill="none" fill-rule="evenodd">
        <g id="Fare-details-pop-up" transform="translate(-158.000000, -190.000000)">
            <g id="Group-8" transform="translate(54.000000, 169.000000)">
                <g id="Group-6" transform="translate(104.000000, 21.071429)">
                    <ellipse id="Oval-Copy-5" fill="#FFC043" cx="22" cy="22.0748299" rx="22" ry="22.0748299"></ellipse>
                    <g id="money-(1)" transform="translate(9.000000, 9.030612)" fill-rule="nonzero">
                        <path d="M0.43061395,13.6479129 C0.0910324657,13.7555728 -0.0840025396,14.0796147 0.039700381,14.3730635 L0.453010039,15.3520408 L3.6,12.6428571 L0.43061395,13.6479129 Z" id="Path" fill="#FFC043"></path>
                        <path d="M2.7,22.5765306 L4.46470588,26.7454621 C4.51985294,26.8770736 4.63502987,26.9844552 4.78208869,27.0423405 C4.86417739,27.0749597 4.95241268,27.0918367 5.04064798,27.0918367 C5.11297105,27.0918367 5.18403033,27.0813256 5.25267693,27.0592176 L7.2,26.4423164 L2.7,22.5765306 Z" id="Path" fill="#333333"></path>
                        <path d="M26.9637238,18.5609018 L25.0142981,13.5459184 L20.3358869,17.9233735 L22.6543823,17.1242323 C22.9584099,17.0157467 23.3014184,17.1640778 23.4138138,17.4518683 C23.5273737,17.7385173 23.3700644,18.0572814 23.0636524,18.1624466 L20.1181936,19.1785072 C20.0507674,19.2017505 19.9821768,19.2128014 19.9135308,19.2128014 C19.6733805,19.2128014 19.4462608,19.0744316 19.358762,18.8508713 C19.3575976,18.8475508 19.358762,18.8442303 19.3575976,18.8409099 L14.4,23.4795918 L26.612398,19.2692492 C26.9187546,19.1641359 27.0760638,18.8475508 26.9637238,18.5609018 Z" id="Path" fill="#333333"></path>
                        <path d="M26.8354655,9.195613 L17.8352722,0.165088945 C17.6158929,-0.0550296485 17.2592433,-0.0550296485 17.0398641,0.165088945 L0.164534464,17.0972885 C-0.0548448212,17.3174071 -0.0548448212,17.6752585 0.164534464,17.8953771 L9.16472783,26.9259012 C9.27383738,27.0365425 9.41785777,27.0918367 9.56187816,27.0918367 C9.70589855,27.0918367 9.84986621,27.0365425 9.96013594,26.9270124 L26.8354655,9.99481282 C27.0548448,9.77358305 27.0548448,9.41684277 26.8354655,9.195613 Z M6.58507002,15.638897 L4.3350085,17.8964883 C4.22473876,18.0059656 4.08077111,18.0613127 3.93675072,18.0613127 C3.79273033,18.0613127 3.64876267,18.0060185 3.53849294,17.8964883 C3.31911365,17.6763697 3.31911365,17.3185182 3.53849294,17.0983997 L5.78855446,14.8407554 C6.00793375,14.6206368 6.36458329,14.6206368 6.58396258,14.8407554 C6.80334186,15.0609269 6.80444931,15.4176143 6.58507002,15.638897 Z M16.2996172,16.3556581 C15.9013594,16.755258 15.3602414,16.9471739 14.7583195,16.9471739 C13.7637825,16.9471739 12.6016524,16.424551 11.6296334,15.4480922 C10.9186019,14.7346646 10.4190922,13.8812817 10.2244985,13.0459952 C10.0084943,12.1147242 10.1862654,11.3042539 10.7251157,10.7624235 C11.2640188,10.2205931 12.071767,10.042223 13.0010176,10.2601192 C13.8335514,10.4554216 14.684068,10.9554506 15.3950468,11.6699894 C16.957755,13.236747 17.3560128,15.2957024 16.2996172,16.3556581 Z M23.4603996,9.99481282 L21.2103381,12.2524571 C21.1000684,12.3619343 20.9561007,12.4172814 20.8120803,12.4172814 C20.6680599,12.4172814 20.5240923,12.3619872 20.4138225,12.2524571 C20.1944433,12.0323385 20.1944433,11.674487 20.4138225,11.4543684 L22.6638841,9.19672418 C22.8832633,8.97660558 23.2399129,8.97660558 23.4592922,9.19672418 C23.6786715,9.41684277 23.6797789,9.77358305 23.4603996,9.99481282 Z" id="Shape" fill="#333333"></path>
                    </g>
                </g>
            </g>
        </g>
    </g>
</svg>