<?xml version="1.0" encoding="UTF-8"?>
<svg width="13px" height="20px" viewBox="0 0 13 20" version="1.1" xmlns="http://www.w3.org/2000/svg" xmlns:xlink="http://www.w3.org/1999/xlink">
    <!-- Generator: sketchtool 64 (101010) - https://sketch.com -->
    <title>37D1407A-6ACE-4C42-850E-7767066AF168</title>
    <desc>Created with sketchtool.</desc>
    <g id="Page-1" stroke="none" stroke-width="1" fill="none" fill-rule="evenodd" stroke-linecap="round" stroke-linejoin="round">
        <g id="Chat-screen-support" transform="translate(-236.000000, -587.000000)" stroke="#215549" stroke-width="1.5">
            <g id="mic" transform="translate(237.000000, 588.000000)">
                <g id="Group-21">
                    <path d="M5.5,0 C4.19818595,0 3.14285714,1.0553288 3.14285714,2.35714286 L3.14285714,8.64285714 C3.14285714,9.9446712 4.19818595,11 5.5,11 C6.80181405,11 7.85714286,9.9446712 7.85714286,8.64285714 L7.85714286,2.35714286 C7.85714286,1.0553288 6.80181405,0 5.5,0 Z" id="Shape"></path>
                    <path d="M11,7.07142857 L11,8.64285714 C11,11.6804232 8.53756609,14.1428571 5.5,14.1428571 C2.46243391,14.1428571 0,11.6804232 0,8.64285714 L0,7.07142857" id="Shape"></path>
                    <line x1="5.5" y1="14.1428571" x2="5.5" y2="17.2857143" id="Shape"></line>
                    <line x1="2.35714286" y1="17.2857143" x2="8.64285714" y2="17.2857143" id="Shape"></line>
                </g>
            </g>
        </g>
    </g>
</svg>