<?xml version="1.0" encoding="UTF-8"?>
<svg width="146px" height="42px" viewBox="0 0 146 42" version="1.1" xmlns="http://www.w3.org/2000/svg" xmlns:xlink="http://www.w3.org/1999/xlink">
    <!-- Generator: sketchtool 54.1 (76490) - https://sketchapp.com -->
    <title>1566DA6C-6A72-42F2-A44B-58C6D7D3B267</title>
    <desc>Created with sketchtool.</desc>
    <g id="Page-1" stroke="none" stroke-width="1" fill="none" fill-rule="evenodd">
        <g id="-30-SEC-play" transform="translate(-214.000000, -202.000000)" fill="#737373" fill-rule="nonzero" stroke="#FFFFFF">
            <g id="sound-waves-inactive" transform="translate(215.000000, 203.000000)">
                <rect id="Rectangle" x="0" y="18" width="3.65853659" height="4.53536585" rx="1.829268"></rect>
                <rect id="Rectangle" x="5" y="18" width="3.65853659" height="4.53536585" rx="1.829268"></rect>
                <rect id="Rectangle" x="11" y="16" width="3.65853659" height="8.37195122" rx="1.829268"></rect>
                <rect id="Rectangle" x="16" y="14" width="3.65853659" height="12.9073171" rx="1.829268"></rect>
                <rect id="Rectangle" x="22" y="10" width="3.65853659" height="20.9304878" rx="1.829268"></rect>
                <rect id="Rectangle" x="27" y="0" width="3.65853659" height="39.9426829" rx="1.829268"></rect>
                <rect id="Rectangle" x="33" y="3" width="3.65853659" height="33.1402439" rx="1.829268"></rect>
                <rect id="Rectangle" x="38" y="10" width="3.65853659" height="19.5353659" rx="1.829268"></rect>
                <rect id="Rectangle" x="44" y="14" width="3.65853659" height="11.3378049" rx="1.829268"></rect>
                <rect id="Rectangle" x="49" y="16" width="3.65853659" height="7.84878049" rx="1.829268"></rect>
                <rect id="Rectangle" x="54" y="18" width="3.65853659" height="4.53536585" rx="1.829268"></rect>
                <rect id="Rectangle-Copy-6" x="136" y="16" width="3.65853659" height="7.84878049" rx="1.829268"></rect>
                <rect id="Rectangle-Copy-5" x="141" y="18" width="3.65853659" height="4.53536585" rx="1.829268"></rect>
                <rect id="Rectangle" x="60" y="18" width="3.65853659" height="4.53536585" rx="1.829268"></rect>
                <rect id="Rectangle" x="65" y="18" width="3.65853659" height="4.53536585" rx="1.829268"></rect>
                <rect id="Rectangle" x="71" y="16" width="3.65853659" height="8.37195122" rx="1.829268"></rect>
                <rect id="Rectangle" x="76" y="14" width="3.65853659" height="12.9073171" rx="1.829268"></rect>
                <rect id="Rectangle" x="82" y="2" width="3.65853659" height="35" rx="1.829268"></rect>
                <rect id="Rectangle" x="87" y="0" width="3.65853659" height="39.9426829" rx="1.829268"></rect>
                <rect id="Rectangle-Copy-3" x="120" y="2" width="3.65853659" height="35" rx="1.829268"></rect>
                <rect id="Rectangle-Copy-2" x="125" y="0" width="3.65853659" height="39.9426829" rx="1.829268"></rect>
                <rect id="Rectangle" x="92" y="3" width="3.65853659" height="33.1402439" rx="1.829268"></rect>
                <rect id="Rectangle" x="98" y="10" width="3.65853659" height="19.5353659" rx="1.829268"></rect>
                <rect id="Rectangle-Copy" x="114" y="10" width="3.65853659" height="19.5353659" rx="1.829268"></rect>
                <rect id="Rectangle-Copy-4" x="131" y="10" width="3.65853659" height="19.5353659" rx="1.829268"></rect>
                <rect id="Rectangle" x="103" y="18" width="3.65853659" height="4.53536585" rx="1.829268"></rect>
                <rect id="Rectangle" x="109" y="18" width="3.65853659" height="4.53536585" rx="1.829268"></rect>
            </g>
        </g>
    </g>
</svg>