<?xml version="1.0" encoding="UTF-8"?>
<svg width="494px" height="495px" viewBox="0 0 494 495" version="1.1" xmlns="http://www.w3.org/2000/svg" xmlns:xlink="http://www.w3.org/1999/xlink">
    <!-- Generator: Sketch 54.1 (76490) - https://sketchapp.com -->
    <title>Group 24</title>
    <desc>Created with Sketch.</desc>
    <g id="Page-1" stroke="none" stroke-width="1" fill="none" fill-rule="evenodd">
        <g id="Group-24" transform="translate(0.477723, 0.968351)" fill="#0B9777">
            <path d="M404.196453,325.251649 C390.366453,311.421649 368.496453,309.521649 352.646453,320.981649 C311.416453,350.801649 290.516453,362.531649 251.356453,323.371649 L169.456453,241.471649 C130.296453,202.311649 142.516453,181.891649 172.326453,140.671649 C183.796453,124.821649 181.886453,102.951649 168.056453,89.1216487 L90.6964534,11.7516487 C72.6264534,-6.30835132 42.3564534,-3.14835132 28.7064534,18.4516487 C-41.6835466,129.801649 26.2464534,246.821649 136.366453,356.941649 C246.486453,467.061649 363.516453,534.991649 474.866453,464.601649 C496.456453,450.951649 499.626453,420.681649 481.556453,402.621649 L404.196453,325.251649" id="Fill-33"></path>
            <path d="M450.686453,37.1716487 C444.646453,31.1316487 434.856453,31.1316487 428.816453,37.1716487 L287.386453,178.591649 L287.386453,98.1716487 C287.386453,89.6316487 280.466453,82.7116487 271.926453,82.7116487 C263.386453,82.7116487 256.466453,89.6316487 256.466453,98.1716487 L256.466453,212.441649 C255.766453,215.071649 255.766453,217.851649 256.466453,220.481649 L256.466453,231.921649 L390.226453,231.921649 C398.766453,231.921649 405.686453,225.001649 405.686453,216.461649 C405.686453,207.921649 398.766453,201.001649 390.226453,201.001649 L308.716453,201.001649 L450.686453,59.0316487 C456.716453,52.9916487 456.716453,43.2016487 450.686453,37.1716487" id="Fill-34"></path>
        </g>
    </g>
</svg>