<?xml version="1.0" encoding="UTF-8"?>
<svg width="20px" height="19px" viewBox="0 0 20 19" version="1.1" xmlns="http://www.w3.org/2000/svg" xmlns:xlink="http://www.w3.org/1999/xlink">
    <!-- Generator: sketchtool 64 (101010) - https://sketch.com -->
    <title>90E0463E-4B89-421A-B3A0-834EB60D96D6</title>
    <desc>Created with sketchtool.</desc>
    <g id="Page-1" stroke="none" stroke-width="1" fill="none" fill-rule="evenodd">
        <g id="Bottom-nav-Copy" transform="translate(-127.000000, -595.000000)" fill="#BEC2C2" fill-rule="nonzero">
            <g id="Group-7" transform="translate(0.000000, 587.000000)">
                <g id="Group-4">
                    <g id="Group-14">
                        <g id="Group-6" transform="translate(104.166667, 8.000000)">
                            <g id="clock-(2)" transform="translate(23.750000, 0.000000)">
                                <path d="M9.5,0 C4.26148989,0 0,4.26148989 0,9.5 C0,14.7385101 4.26148989,19 9.5,19 C14.7385101,19 19,14.7385101 19,9.5 C19,4.26148989 14.7385101,0 9.5,0 Z M14.0180664,14.4138031 C13.8636856,14.5681839 13.6610336,14.6458817 13.4583817,14.6458817 C13.2557297,14.6458817 13.0529328,14.5681839 12.8986969,14.4138031 L8.94031526,10.4555664 C8.79144287,10.3075638 8.70838166,10.1063614 8.70838166,9.89588166 L8.70838166,4.75 C8.70838166,4.31222534 9.06295013,3.95838166 9.5,3.95838166 C9.93704988,3.95838166 10.2916183,4.31222534 10.2916183,4.75 L10.2916183,9.56813051 L14.0180664,13.2944336 C14.3275528,13.6040649 14.3275528,14.1043167 14.0180664,14.4138031 L14.0180664,14.4138031 Z" id="Shape"></path>
                            </g>
                        </g>
                    </g>
                </g>
            </g>
        </g>
    </g>
</svg>