<?xml version="1.0" encoding="UTF-8"?>
<svg width="38px" height="38px" viewBox="0 0 38 38" version="1.1" xmlns="http://www.w3.org/2000/svg" xmlns:xlink="http://www.w3.org/1999/xlink">
    <!-- Generator: sketchtool 54.1 (76490) - https://sketchapp.com -->
    <title>B7028D9E-1FC3-49D8-AD97-BFCF4F8C9A89</title>
    <desc>Created with sketchtool.</desc>
    <g id="Page-1" stroke="none" stroke-width="1" fill="none" fill-rule="evenodd">
        <g id="Moody-Poster-side-share-location-2" transform="translate(-16.000000, -396.000000)">
            <g id="Group-5" transform="translate(16.000000, 396.000000)">
                <circle id="Oval" fill="#FFC043" cx="19" cy="19" r="19"></circle>
                <g id="8673619_ic_fluent_location_live_filled_icon" transform="translate(9.500000, 8.636364)" fill="#333333" fill-rule="nonzero">
                    <path d="M6.33429389,0.765520556 C6.36298389,0.329227778 6.73992278,-0.00118222222 7.176205,0.0275077778 C13.5018222,0.443502222 18.55825,5.50099611 18.9725556,11.8270778 C19.0010556,12.2633389 18.6705611,12.6401722 18.2343,12.6687778 C17.7980389,12.6973833 17.4211,12.3667833 17.3926,11.9305222 C17.0302278,6.39725778 12.6051278,1.97129222 7.07230667,1.60743167 C6.63602444,1.57873111 6.30560389,1.20180278 6.33429389,0.765520556 Z" id="Path"></path>
                    <path d="M4.84247722,20.4634222 L5.25262389,20.8706556 C5.56134222,21.1770833 6.059955,21.1765556 6.36863111,20.8701278 L7.78862778,19.4593778 C8.55707222,18.6956833 9.44363333,17.8137667 9.91272222,17.3446778 C12.1783667,15.0790333 12.1783667,11.4055944 9.91272222,9.13995 C7.64707778,6.87427389 3.97368111,6.87427389 1.70801556,9.13995 C-0.557660556,11.4055944 -0.557660556,15.0790333 1.70801556,17.3446778 C2.21914722,17.8557778 3.105645,18.7375889 3.86361833,19.4909389 C4.24276333,19.8677722 4.59000944,20.2127278 4.84247722,20.4634222 Z M5.805545,14.5137833 C5.07683167,14.5137833 4.48610056,13.9230944 4.48610056,13.1943389 C4.48610056,12.4656889 5.07683167,11.8748944 5.805545,11.8748944 C6.53424778,11.8748944 7.12498944,12.4656889 7.12498944,13.1943389 C7.12498944,13.9230944 6.53424778,14.5137833 5.805545,14.5137833 Z" id="Shape"></path>
                    <path d="M7.19722111,3.69717833 C6.76176222,3.65789056 6.37690667,3.97904333 6.33761889,4.41450222 C6.29833111,4.84996111 6.61948389,5.23481667 7.05494278,5.27410444 C10.5891222,5.59299833 13.4052389,8.40826 13.7253889,11.9420278 C13.7648667,12.37755 14.1498278,12.6985444 14.5852444,12.6590667 C15.0207667,12.6195889 15.3417611,12.2346278 15.3022833,11.7992111 C14.9131,7.50362778 11.4932056,4.08481 7.19722111,3.69717833 Z" id="Path"></path>
                </g>
            </g>
        </g>
    </g>
</svg>