<?xml version="1.0" encoding="UTF-8"?>
<svg width="34px" height="29px" viewBox="0 0 34 29" version="1.1" xmlns="http://www.w3.org/2000/svg" xmlns:xlink="http://www.w3.org/1999/xlink">
    <!-- Generator: sketchtool 54.1 (76490) - https://sketchapp.com -->
    <title>51C94836-78FD-4627-A889-26F23F45C4BF</title>
    <desc>Created with sketchtool.</desc>
    <g id="Page-1" stroke="none" stroke-width="1" fill="none" fill-rule="evenodd">
        <g id="Easy-Paisa-(payment-method)" transform="translate(-32.000000, -353.000000)" fill-rule="nonzero">
            <g id="shop" transform="translate(32.000000, 353.000000)">
                <rect id="Rectangle" fill="#FFC043" x="2.03016667" y="8.47770707" width="29.4791414" height="20.3548485"></rect>
                <rect id="Rectangle" fill="#FFFFFF" x="21.3175051" y="15.4248283" width="6.13691919" height="12.8962626"></rect>
                <rect id="Rectangle" fill="#2B2825" x="2.33067677" y="0.0552828283" width="28.8396465" height="4.25526768"></rect>
                <rect id="Rectangle" fill="#FFFFFF" x="5.53957576" y="15.4963939" width="12.6342929" height="8.42308081"></rect>
                <g id="Group" transform="translate(4.792929, 14.772727)" fill="#333333">
                    <path d="M0.0449090909,0.0220606061 L0.0449090909,9.84868182 L14.0827424,9.84868182 L14.0827424,0.0220606061 L0.0449090909,0.0220606061 Z M12.6782828,8.44428788 L1.44831818,8.44428788 L1.44831818,1.42540404 L12.6782828,1.42540404 L12.6782828,8.44428788 Z" id="Shape"></path>
                    <path d="M15.4860859,0.0220606061 L15.4860859,14.0598283 L23.9083788,14.0598283 L23.9083788,0.0220606061 L15.4860859,0.0220606061 Z M22.5049697,12.6564192 L16.8894293,12.6564192 L16.8894293,1.42540404 L22.5049697,1.42540404 L22.5049697,12.6564192 Z" id="Shape"></path>
                </g>
                <g id="Group" transform="translate(11.095960, 16.873737)" fill="#F9F9F9">
                    <path d="M4.96678788,2.83386869 C4.77185354,2.83386869 4.5974697,2.91285354 4.47029293,3.04009596 L4.47029293,3.04009596 L3.06694949,4.44337374 L3.06694949,4.44337374 C2.93970707,4.57061616 2.86072222,4.74598485 2.86072222,4.93986869 C2.86072222,5.32763636 3.17567677,5.64160606 3.56344444,5.64160606 C3.75634343,5.64160606 3.93171212,5.56360606 4.05895455,5.43642929 L4.05895455,5.43642929 L5.46334848,4.03203535 L5.46334848,4.03203535 C5.5895404,3.90584343 5.66852525,3.72942424 5.66852525,3.53652525 C5.66852525,3.14875758 5.35455556,2.83386869 4.96678788,2.83386869 Z" id="Path"></path>
                    <path d="M5.46334848,1.22528283 C5.5895404,1.0980404 5.66852525,0.922671717 5.66852525,0.728787879 C5.66852525,0.341020202 5.35462121,0.0271161616 4.96678788,0.0271161616 C4.77185354,0.0271161616 4.5974697,0.105116162 4.47029293,0.232292929 L0.259146465,4.44337374 C0.13190404,4.57061616 0.0529191919,4.74598485 0.0529191919,4.93986869 C0.0529191919,5.32763636 0.366823232,5.64160606 0.754656566,5.64160606 C0.949590909,5.64160606 1.12397475,5.56360606 1.25115152,5.43642929 L5.46334848,1.22528283 Z" id="Path"></path>
                </g>
                <path d="M27.4538333,21.112 L20.9806869,21.112 C20.5929192,21.112 20.2789495,21.4258384 20.2789495,21.8136717 C20.2789495,22.2015051 20.5928535,22.5154091 20.9806869,22.5154091 L27.4538333,22.5154091 C27.841601,22.5154091 28.1555707,22.2015051 28.1555707,21.8136717 C28.1555707,21.4258384 27.8416667,21.112 27.4538333,21.112 Z" id="Path" fill="#333333"></path>
                <path d="M29.6040202,13.3913788 C31.8188131,13.3913788 33.6151111,11.5951465 33.6151111,9.38028788 C33.6151111,9.16690404 33.5976465,8.95759091 33.5658687,8.7535303 L33.5658687,8.7535303 L33.5432828,8.62733838 C33.5392121,8.60783838 33.5361263,8.58833838 33.5330404,8.56883838 L31.2084697,2.8630202 L25.4329242,2.8630202 L26.3951212,11.7869293 L26.5305051,11.9572424 C27.2671717,12.833298 28.3699394,13.3913788 29.6040202,13.3913788 Z" id="Path" fill="#FFC043"></path>
                <path d="M19.6573788,2.8630202 L19.9773889,11.7869293 C20.7098535,12.7604848 21.8751919,13.3913788 23.1862879,13.3913788 C24.4993535,13.3913788 25.6626566,12.7604848 26.3951212,11.7869293 L25.4329242,2.8630202 L19.6573788,2.8630202 Z" id="Path" fill="#333333"></path>
                <path d="M4.0100404,13.3913788 C1.79524747,13.3913788 0,11.5951465 0,9.38028788 C0,9.16690404 0.0163484848,8.95759091 0.0491767677,8.7535303 L0.0481262626,8.7535303 L0.0716969697,8.62733838 C0.0747828283,8.60783838 0.0778686869,8.58833838 0.0819393939,8.56883838 L2.4065101,2.8630202 L8.18107071,2.8630202 L7.21775758,11.7869293 L7.08335859,11.9572424 C6.34793939,12.833298 5.24412121,13.3913788 4.0100404,13.3913788 Z" id="Path" fill="#FFC043"></path>
                <path d="M13.9566818,2.8630202 L13.6355556,11.7869293 C12.9041414,12.7604848 11.7397879,13.3913788 10.4267222,13.3913788 C9.11562626,13.3913788 7.95028788,12.7604848 7.21782323,11.7869293 L8.18113636,2.8630202 L13.9566818,2.8630202 Z" id="Path" fill="#333333"></path>
                <path d="M13.8817677,2.8630202 L13.5616919,11.7869293 C14.2921212,12.7604848 15.4575253,13.3913788 16.7695404,13.3913788 C18.0815556,13.3913788 19.2469596,12.7604848 19.9773232,11.7869293 L19.6573131,2.8630202 L13.8817677,2.8630202 Z" id="Path" fill="#FFC043"></path>
                <path d="M0.0778686869,8.59037374 C0.0758333333,8.60271717 0.0737979798,8.61499495 0.0716969697,8.62727273 L0.0481262626,8.75346465 L0.0491767677,8.75346465 C0.0163484848,8.95759091 0,9.16683838 0,9.38022222 C0,11.5950152 1.79524747,13.3913131 4.0100404,13.3913131 C5.24412121,13.3913131 6.34793939,12.8332323 7.0834899,11.9571768 L7.21788889,11.7868636 L7.56363636,8.59030808 L0.0778686869,8.59030808 L0.0778686869,8.59037374 Z" id="Path" fill="#FFEDC5"></path>
                <path d="M7.56357071,8.59037374 L7.21782323,11.7869293 C7.95028788,12.7604848 9.11562626,13.3913788 10.4267222,13.3913788 C11.7397879,13.3913788 12.9041414,12.7604848 13.6355556,11.7869293 L13.7504545,8.59037374 L7.56357071,8.59037374 Z" id="Path" fill="#2B2825"></path>
                <path d="M13.6765909,8.59037374 L13.5616919,11.7869293 C14.2921212,12.7604848 15.4575253,13.3913788 16.7695404,13.3913788 C18.0815556,13.3913788 19.2469596,12.7604848 19.9773232,11.7869293 L19.8624899,8.59037374 L13.6765909,8.59037374 Z" id="Path" fill="#FFEDC5"></path>
                <path d="M19.8625556,8.59037374 L19.9773889,11.7869293 C20.7098535,12.7604848 21.8751919,13.3913788 23.1862879,13.3913788 C24.4993535,13.3913788 25.6626566,12.7604848 26.3951212,11.7869293 L26.0504242,8.59037374 L19.8625556,8.59037374 Z" id="Path" fill="#2B2825"></path>
                <path d="M33.5658687,8.7535303 L33.5432828,8.62733838 C33.5412475,8.61499495 33.5381616,8.60271717 33.5361263,8.59043939 L26.0504242,8.59043939 L26.3951212,11.7869949 L26.5305051,11.9573081 C27.2671061,12.8333636 28.3699394,13.3914444 29.6040202,13.3914444 C31.8188131,13.3914444 33.6151111,11.5952121 33.6151111,9.38035354 C33.6151111,9.16690404 33.5977121,8.95759091 33.5658687,8.7535303 L33.5658687,8.7535303 Z" id="Path" fill="#FFEDC5"></path>
            </g>
        </g>
    </g>
</svg>