<?xml version="1.0" encoding="UTF-8"?>
<svg width="28px" height="28px" viewBox="0 0 28 28" version="1.1" xmlns="http://www.w3.org/2000/svg" xmlns:xlink="http://www.w3.org/1999/xlink">
    <!-- Generator: sketchtool 64 (101010) - https://sketch.com -->
    <title>7E1FD195-30B0-4FA1-A6AF-211EB5B58C3B</title>
    <desc>Created with sketchtool.</desc>
    <g id="Page-1" stroke="none" stroke-width="1" fill="none" fill-rule="evenodd">
        <g id="Chat-screen-support" transform="translate(-12.000000, -446.000000)">
            <g id="Group-3" transform="translate(13.000000, 447.000000)">
                <g id="Group-2-Copy" fill="#0C4BC0" stroke="#0C4BC0">
                    <circle id="Oval" cx="13" cy="13" r="13"></circle>
                </g>
                <g id="Group" transform="translate(5.500000, 5.500000)">
                    <g id="customer-support-(2)" fill-rule="nonzero">
                        <path d="M7.5,4.015625 C6.30512051,4.015625 5.2217478,4.50188974 4.43701408,5.28662346 C3.65228036,6.07135718 3.16601562,7.15472988 3.16601562,8.34960938 C3.16601563,9.54448887 3.65228036,10.6278616 4.43701408,11.4125953 C5.2217478,12.197329 6.30512051,12.6835938 7.5,12.6835938 C8.69487949,12.6835938 9.7782522,12.197329 10.5629859,11.4125953 C11.3477196,10.6278616 11.8339844,9.54448887 11.8339844,8.34960938 C11.8339844,7.15472988 11.3477196,6.07135718 10.5629859,5.28662346 C9.7782522,4.50188974 8.69487949,4.015625 7.5,4.015625 Z" id="Shape" stroke="#FFFFFF"></path>
                        <path d="M1.78710937,8.34960938 C1.78710937,7.5712207 1.94472656,6.82921875 2.22791016,6.15234375 L1.31835937,6.15234375 C0.591386719,6.15234375 -7.10542736e-15,6.74373047 -7.10542736e-15,7.47070312 L-7.10542736e-15,9.22851562 C-7.10542736e-15,9.95548828 0.591386719,10.546875 1.31835937,10.546875 L2.22791016,10.546875 C1.94472656,9.87 1.78710937,9.12799805 1.78710937,8.34960938 Z" id="Path" fill="#FFFFFF"></path>
                        <path d="M13.6816406,6.15234375 L12.7721484,6.15234375 C13.055332,6.82921875 13.2128906,7.5712207 13.2128906,8.34960938 C13.2128906,9.12799805 13.055332,9.87 12.7721484,10.546875 L13.6816406,10.546875 C14.4086133,10.546875 15,9.95548828 15,9.22851562 L15,7.47070312 C15,6.74373047 14.4086133,6.15234375 13.6816406,6.15234375 Z" id="Path" fill="#FFFFFF"></path>
                        <path d="M13.0531934,5.2734375 L13.6523437,5.2734375 C13.7589844,5.2734375 13.8611133,5.29016602 13.9637402,5.30493164 C13.3633594,2.28427734 10.6944434,0 7.5,0 C4.30555664,0 1.63664062,2.28427734 1.03625977,5.30493164 C1.13888672,5.29016602 1.24101562,5.2734375 1.34765625,5.2734375 L1.94680664,5.2734375 C2.5443457,2.75789063 4.80439453,0.87890625 7.5,0.87890625 C10.1956055,0.87890625 12.4556543,2.75789063 13.0531934,5.2734375 Z" id="Path" fill="#FFFFFF"></path>
                        <path d="M13.6523438,11.4257812 L13.1684766,11.4257812 C12.9529395,12.9125977 11.6822754,14.1210938 10.1367188,14.1210938 L7.06054688,14.1210938 L7.06054688,15 L10.1367188,15 C12.1810547,15 13.8481055,13.3768066 14.0514551,11.3853809 C13.9216406,11.409375 13.789043,11.4257812 13.6523438,11.4257812 Z" id="Path" fill="#FFFFFF"></path>
                    </g>
                    <polygon id="Path" fill="#FFFFFF" points="7.93945312 10.9863281 7.06054688 10.9863281 7.06054688 10.1074219 7.93945312 10.1074219"></polygon>
                    <path d="M8.15961914,8.17280273 C8.02400391,8.25134766 7.93945312,8.39768555 7.93945312,8.55389648 L7.93945312,9.22851562 L7.06054688,9.22851562 L7.06054688,8.55389648 C7.06054688,8.08482422 7.31288086,7.64750977 7.71928711,7.41234375 C7.8553418,7.33379883 7.93945312,7.18790039 7.93945312,7.03125 C7.93945312,6.78878906 7.74246094,6.59179688 7.5,6.59179688 C7.25753906,6.59179688 7.06054688,6.78878906 7.06054688,7.03125 L6.18164062,7.03125 C6.18164062,6.30427734 6.77302734,5.71289062 7.5,5.71289062 C8.22697266,5.71289062 8.81835938,6.30427734 8.81835938,7.03125 C8.81835938,7.50032227 8.56602539,7.93804687 8.15961914,8.17280273 Z" id="Path" fill="#FFFFFF"></path>
                </g>
            </g>
        </g>
    </g>
</svg>