<?xml version="1.0" encoding="UTF-8"?>
<svg width="32px" height="32px" viewBox="0 0 32 32" version="1.1" xmlns="http://www.w3.org/2000/svg" xmlns:xlink="http://www.w3.org/1999/xlink">
    <!-- Generator: sketchtool 64 (101010) - https://sketch.com -->
    <title>91980909-74F0-480C-A818-4FB5358A2BB7</title>
    <desc>Created with sketchtool.</desc>
    <g id="Page-1" stroke="none" stroke-width="1" fill="none" fill-rule="evenodd">
        <g id="Settings-1-Copy-2" transform="translate(-38.000000, -370.000000)">
            <g id="Group-5" transform="translate(38.000000, 370.000000)">
                <g id="Group-14-Copy" fill="#FFF7E5">
                    <g id="Group-9-Copy">
                        <circle id="Oval-Copy-5" cx="16" cy="16" r="16"></circle>
                    </g>
                </g>
                <g id="language" transform="translate(8.000000, 8.000000)" fill="#FFC043" fill-rule="nonzero">
                    <polygon id="Path" points="4.60560547 4.54882812 4.39244141 4.54882812 3.99410352 6.54101562 5.00394336 6.54101562"></polygon>
                    <path d="M12.6628086,8.53320312 C12.8778652,9.1109043 13.1639102,9.57853711 13.4804687,9.97644336 C13.7970273,9.57853711 14.1162754,9.11087109 14.331332,8.53320312 L12.6628086,8.53320312 Z" id="Path"></path>
                    <path d="M15.5058594,3.02148438 L9.32068164,3.02148438 L10.6103574,13.3702012 C10.633168,13.7934746 10.5174551,14.1919785 10.2412051,14.5039551 L8.05716992,17 L15.5058594,17 C16.3297617,17 17,16.3297617 17,15.5058594 L17,4.54882812 C17,3.72492578 16.3297617,3.02148438 15.5058594,3.02148438 Z M15.5058594,8.53320312 L15.3728477,8.53320312 C15.089459,9.4424043 14.6400547,10.1538477 14.1730195,10.7147148 C14.5388848,11.0492031 14.9301172,11.3235937 15.3190918,11.6309219 C15.533584,11.8026152 15.5686133,12.1158203 15.3964219,12.3308105 C15.2250273,12.5454687 14.9105938,12.5802656 14.6965332,12.4081406 C14.2738906,12.0745488 13.8771797,11.7953105 13.4804688,11.4312715 C13.0837578,11.7953105 12.72025,12.0745488 12.2976074,12.4081406 C12.0835469,12.5802656 11.7691133,12.5454687 11.5977188,12.3308105 C11.4255273,12.1158203 11.4605566,11.8026152 11.6750488,11.6309219 C12.0640234,11.3235937 12.4220527,11.0492031 12.787918,10.7147148 C12.3208828,10.1538809 11.9046484,9.4424375 11.621293,8.53320312 L11.4882813,8.53320312 C11.2129941,8.53320312 10.9902344,8.31044336 10.9902344,8.03515625 C10.9902344,7.75986914 11.2129941,7.53710937 11.4882813,7.53710937 L12.9824219,7.53710937 L12.9824219,7.0390625 C12.9824219,6.76377539 13.2051816,6.54101562 13.4804688,6.54101562 C13.7557559,6.54101562 13.9785156,6.76377539 13.9785156,7.0390625 L13.9785156,7.53710937 L15.5058594,7.53710937 C15.7811465,7.53710937 16.0039063,7.75986914 16.0039063,8.03515625 C16.0039063,8.31044336 15.7811465,8.53320312 15.5058594,8.53320312 Z" id="Shape"></path>
                    <path d="M8.10700781,1.30883398 C8.01410547,0.562726563 7.37647266,0 6.62455469,0 L1.49414063,0 C0.670238281,0 0,0.670238281 0,1.49414062 L0,12.5175781 C0,13.3414805 0.670238281,14.0117188 1.49414063,14.0117188 C4.47146484,14.0117188 6.61329883,14.0117188 9.34837305,14.0117188 C9.49366992,13.8456367 9.61545898,13.7416445 9.62060626,13.5248613 C9.62186719,13.4705078 8.11374805,1.36275586 8.10700781,1.30883398 Z M6.10751562,9.51956836 C5.84341797,9.57392187 5.57590039,9.40246094 5.52144727,9.129 L5.20312891,7.53710937 L3.79495117,7.53710937 L3.47663281,9.129 C3.42314258,9.39844336 3.16339453,9.57548242 2.89056445,9.51956836 C2.62112109,9.46558008 2.44600781,9.20344141 2.49999609,8.9335 L3.49605664,3.95303125 C3.54274023,3.72054297 3.74703906,3.55273438 3.984375,3.55273438 L5.01367187,3.55273438 C5.25100781,3.55273438 5.45530664,3.72054297 5.50199023,3.95303125 L6.49808398,8.9335 C6.55207227,9.20344141 6.37699219,9.46558008 6.10751562,9.51956836 Z" id="Shape"></path>
                    <path d="M5.81921289,15.0078125 L5.90467773,15.691166 C5.9616543,16.1488047 6.26572852,16.6154746 6.76590039,16.8484941 C7.70979883,15.8094355 7.13873828,16.4380371 8.43797656,15.0078125 L5.81921289,15.0078125 Z" id="Path"></path>
                </g>
            </g>
        </g>
    </g>
</svg>