<?xml version="1.0" encoding="UTF-8"?>
<svg width="54px" height="90px" viewBox="0 0 54 90" version="1.1" xmlns="http://www.w3.org/2000/svg" xmlns:xlink="http://www.w3.org/1999/xlink">
    <!-- Generator: sketchtool 64 (101010) - https://sketch.com -->
    <title>46D9D2C3-04FA-46D2-95FF-EA88B326074F</title>
    <desc>Created with sketchtool.</desc>
    <defs>
        <ellipse id="path-1" cx="22" cy="22.5" rx="22" ry="22.5"></ellipse>
    </defs>
    <g id="Page-1" stroke="none" stroke-width="1" fill="none" fill-rule="evenodd">
        <g id="Location-tasker-yellow" transform="translate(-153.000000, -225.000000)">
            <g id="Group-2" transform="translate(146.000000, 225.000000)">
                <g id="Group-5" transform="translate(7.000000, 0.000000)">
                    <g id="Group-11">
                        <path d="M26.9999891,73.9745239 C25.8957463,73.9745239 24.9531147,74.3652257 24.1717659,75.1463008 C23.3906908,75.9276496 22.9999891,76.8702811 22.9999891,77.9745239 C22.9999891,79.0786572 23.3904719,80.021453 24.1717659,80.8024734 C24.9531147,81.5838222 25.8959105,81.9745239 26.9999891,81.9745239 C28.1043413,81.9745239 29.0471371,81.5838222 29.8281027,80.8024734 C30.6092873,80.021453 30.9999891,79.0786572 30.9999891,77.9745239 C30.9999891,76.8702811 30.6092873,75.9276496 29.8281027,75.1463008 C29.0471371,74.3651709 28.1043413,73.9745239 26.9999891,73.9745239" id="Fill-4" fill="#F9B025"></path>
                        <path d="M27,0 C12.1126803,0 0,12.0969391 0,26.796875 C0,32.6148988 1.86382218,38.142395 5.41514423,42.8143311 L27,70 L48.6108173,42.7806854 C52.1361778,38.142395 54,32.6148988 54,26.796875 C54,12.3319245 42.3021635,0 27,0 Z" id="Shape" fill="#FFC043" fill-rule="nonzero"></path>
                        <path d="M34.3389704,82.2482733 C33.5793349,83.5489203 32.549303,84.5790068 31.248656,85.3389704 C29.9480091,86.0985513 28.5276902,86.477959 26.987426,86.477959 C25.4475444,86.477959 24.0271162,86.0985513 22.7263052,85.3389704 C21.4256583,84.5790068 20.3955718,83.5489203 19.6359909,82.2482733 C18.876246,80.9476264 18.4965103,79.5272528 18.4965103,77.987262 C18.4965103,76.4471617 18.87641,75.0267882 19.6359909,73.7261412 C20.3954077,72.4254943 21.4257677,71.3951891 22.7263052,70.6356629 C24.0269522,69.8760273 25.4473257,69.4963462 26.987426,69.4963462 C28.5276355,69.4963462 29.9480091,69.8760273 31.248656,70.6356629 C32.549303,71.3952437 33.5793895,72.4254943 34.3389704,73.7261412 C35.0986059,75.0267882 35.4781777,76.4471617 35.4781777,77.987262 C35.4781777,79.5272528 35.0986059,80.9476264 34.3389704,82.2482733 M33.0046469,67.607672 C31.1677995,66.5358178 29.1625695,66 26.98759,66 C24.8127745,66 22.8069977,66.5358178 20.9704784,67.607672 C19.1338497,68.6794169 17.6797995,70.133467 16.607836,71.9700957 C15.5358178,73.8068337 15,75.8126105 15,77.987262 C15,80.1620228 15.5359818,82.1674715 16.607672,84.0043189 C17.6795809,85.8407836 19.133631,87.2948337 20.9702597,88.3668519 C22.8069977,89.4386515 24.8126105,89.9745239 26.9873713,89.9745239 C29.1621321,89.9745239 31.1679636,89.4386515 33.0045923,88.3668519 C34.8411116,87.2952164 36.2951071,85.8407836 37.3669613,84.0043189 C38.4386515,82.1676355 38.9744146,80.1619134 38.9744146,77.987262 C38.9744146,75.8123918 38.4386515,73.8065604 37.36718,71.9700957 C36.2952164,70.133631 34.8411663,68.6795809 33.0046469,67.607672 Z" id="Fill-1" fill="#333333"></path>
                    </g>
                    <g id="Group-3">
                        <g id="Group">
                            <g id="pin-(2)">
                                <path d="M27,28.8235294 C22.4183293,28.8235294 18.6923077,32.5170802 18.6923077,37.0588235 L35.3076923,37.0588235 C35.3076923,32.5170802 31.5816707,28.8235294 27,28.8235294 Z" id="Path" fill="#333333" fill-rule="nonzero"></path>
                                <g id="Group-8">
                                    <g id="Group-9"></g>
                                </g>
                                <path d="M27,12.3529412 C24.709976,12.3529412 22.8461538,14.2005209 22.8461538,16.4705882 C22.8461538,18.7406556 24.709976,20.5882353 27,20.5882353 C29.290024,20.5882353 31.1538462,18.7406556 31.1538462,16.4705882 C31.1538462,14.2005209 29.290024,12.3529412 27,12.3529412 Z" id="Path" fill="#333333" fill-rule="nonzero"></path>
                            </g>
                            <g id="shutterstock_524561431-copy-2" transform="translate(5.000000, 3.000000)">
                                <g id="Shape">
                                    <mask id="mask-2" fill="white">
                                        <use xlink:href="#path-1"></use>
                                    </mask>
                                    <use id="Mask" fill="#FFFFFF" xlink:href="#path-1"></use>
                                    <path d="M38,38.0700467 L38,43.3005112 C36.4450085,44.2967448 34.7537819,45.0631396 32.9788888,45.5758736 L32.9788888,39.3015231 L31.8933029,45.8826392 C28.888741,46.6425142 25.7995392,47.0177649 22.7000927,46.9993544 C19.5884495,47.0176656 16.4871915,46.6394279 13.471507,45.8738114 L12.3881321,39.3015231 L12.3881321,45.5648388 C10.2235932,44.9027547 8.38406676,44.0199759 7,43.0180219 L7,38.0700467 C7,32.8329613 8.79530704,27.9953334 18.6849725,27.0000003 C21.1993368,28.2874125 24.1809499,28.2874125 26.6953142,27.0000003 C36.7242707,27.9666431 38,32.8219266 38,38.0700467 Z M23.0022672,9.00000029 C19.7664209,8.99913073 16.8487134,10.947688 15.6098058,13.9369705 C14.3708983,16.9262529 15.0548034,20.3674979 17.3425847,22.6558943 C19.630366,24.9442907 23.071427,25.629121 26.0610425,24.3910172 C29.0506579,23.1529134 31,20.2357298 31,16.9998835 C31.0005702,14.8783804 30.1582062,12.8435734 28.6582785,11.3432425 C27.1583509,9.84291152 25.1237704,9.00000029 23.0022672,9.00000029 Z" fill="#333333" fill-rule="nonzero" mask="url(#mask-2)"></path>
                                </g>
                            </g>
                        </g>
                    </g>
                </g>
            </g>
        </g>
    </g>
</svg>