<?xml version="1.0" encoding="UTF-8"?>
<svg width="205px" height="157px" viewBox="0 0 205 157" version="1.1" xmlns="http://www.w3.org/2000/svg" xmlns:xlink="http://www.w3.org/1999/xlink">
    <!-- Generator: Sketch 60 (88103) - https://sketch.com -->
    <title>Group 20</title>
    <desc>Created with Sketch.</desc>
    <defs>
        <filter x="-33.1%" y="-45.2%" width="166.9%" height="190.9%" filterUnits="objectBoundingBox" id="filter-1">
            <feOffset dx="-9" dy="14" in="SourceAlpha" result="shadowOffsetOuter1"></feOffset>
            <feGaussianBlur stdDeviation="8" in="shadowOffsetOuter1" result="shadowBlurOuter1"></feGaussianBlur>
            <feColorMatrix values="0 0 0 0 0.738224638   0 0 0 0 0.738224638   0 0 0 0 0.738224638  0 0 0 0.452168925 0" type="matrix" in="shadowBlurOuter1" result="shadowMatrixOuter1"></feColorMatrix>
            <feMerge>
                <feMergeNode in="shadowMatrixOuter1"></feMergeNode>
                <feMergeNode in="SourceGraphic"></feMergeNode>
            </feMerge>
        </filter>
        <polygon id="path-2" points="0.000494173172 0.0329968591 75.6880972 0.0329968591 75.6880972 90.574099 0.000494173172 90.574099"></polygon>
    </defs>
    <g id="Page-1" stroke="none" stroke-width="1" fill="none" fill-rule="evenodd">
        <g id="Cash-Delivery---Amount-Received" transform="translate(-69.000000, -162.000000)">
            <g id="Group-20" filter="url(#filter-1)" transform="translate(93.000000, 163.000000)">
                <path d="M160.482063,54.9327354 C156.035127,66.7040359 149.233931,74.1591928 140.078475,77.2982063 C126.345291,82.0067265 108.295964,92.9932735 108.295964,100.840807 C108.295964,106.072496 130.530643,99.6636771 175,81.6143498 L160.482063,54.9327354 Z" id="Path-7" fill="#00E89C"></path>
                <path d="M95.7399103,12.5560538 L115.751121,33.3520179 C128.830344,45.6464873 132.100149,55.9790732 125.560538,64.3497758 C115.751121,76.9058296 74.1591928,106.334081 72.9820628,113.004484 C72.1973094,117.45142 72.0665172,122.552317 72.5896861,128.307175 L154.204036,51.0089686 L109.865471,1.56950673 L95.7399103,12.5560538 Z" id="Path-2" fill="#00E89C"></path>
                <path d="M49.3033922,71.9367909 L98.4450172,24.9720854 C100.722931,26.8508615 103.505319,27.9448342 106.439189,28.0879407 C108.15766,28.1717103 109.835588,27.9246972 111.426421,27.3536137 C112.524736,26.9593325 113.547776,26.4210722 114.48459,25.7480958 L130.04714,42.1944016 C129.331338,43.1008993 128.745112,44.1006311 128.298145,45.1831257 C127.650671,46.7511889 127.320856,48.4228903 127.317784,50.1518476 C127.312708,53.1038554 128.260074,55.9514867 130.012876,58.3321424 L80.8709168,105.296915 C78.5930697,103.418139 75.8107487,102.324233 72.8768117,102.181127 C71.1584745,102.09729 69.480546,102.34437 67.8895796,102.915454 C66.7913319,103.309668 65.7684247,103.847928 64.8315446,104.520905 L49.2688611,88.0745988 C49.984796,87.1681682 50.5710224,86.1683022 51.0180559,85.0858076 C51.665463,83.5177444 51.9953447,81.8459759 51.9984171,80.1170186 C52.0034932,77.1650779 51.0560601,74.3174466 49.3033922,71.9367909 M45.6681476,86.8252362 C44.9667732,87.4955277 44.9388545,88.6103085 45.605965,89.3151684 L45.9334422,89.6613223 L63.087092,107.788995 L63.4146361,108.135216 C64.0816798,108.840076 65.190948,108.868066 65.8923892,108.197775 C69.667027,104.59031 75.8239734,104.916864 79.6173127,108.925524 C80.2843565,109.630451 81.3936247,109.658441 82.0949991,108.988083 L133.619667,59.746091 C134.321042,59.0757324 134.348894,57.9609516 133.68185,57.2560917 C129.888577,53.2472975 129.873349,47.0512293 133.647987,43.4437642 C134.349361,42.7734728 134.37728,41.6586248 133.710236,40.9536978 L116.228975,22.4798039 L116.226638,22.4774546 L115.901365,22.1337842 C115.234388,21.4289243 114.125186,21.4009339 113.423745,22.0712254 C109.649107,25.6786905 103.492027,25.3522036 99.698688,21.3435437 C99.0317111,20.6386167 97.9224428,20.6106263 97.2210016,21.2809178 L45.6966006,70.5228423 C44.9951595,71.1931338 44.9673075,72.3079817 45.6342844,73.0127745 C49.4276238,77.0215016 49.4428522,83.217704 45.6681476,86.8252362" id="Fill-1" fill="#2D2D2C"></path>
                <g id="Group-5" transform="translate(23.150224, 0.000000)" fill="#2D2D2C">
                    <path d="M131.735324,47.4433851 L87.11114,0.569436106 C86.4406553,-0.134715409 85.3259552,-0.162540859 84.6210368,0.50694618 L33.7499141,48.8313722 C33.7212528,48.8586612 30.8288856,51.5980936 26.4817095,54.2914631 C22.5526382,56.7258212 16.5865392,59.627848 10.4775368,59.627848 C9.50480036,59.627848 8.71631464,60.4155429 8.71631464,61.387154 C8.71631464,62.3588322 9.50480036,63.14646 10.4775368,63.14646 C13.5768421,63.14646 16.8677145,62.5171355 20.2586663,61.2760534 C22.9287245,60.298676 25.670335,58.9404588 28.4071128,57.2390164 C33.0083468,54.378426 36.0088481,51.5417051 36.1801443,51.3783731 L85.7721843,4.26908116 L127.969159,48.5932802 L50.0510358,122.610654 L34.745405,106.533511 C34.4339575,106.190353 31.008035,102.475354 25.3931199,98.7315232 C21.9984093,96.4680737 18.5002632,94.6624367 14.9958077,93.364899 C10.5794285,91.7297012 6.14069754,90.9005699 1.8027843,90.9005699 C0.830114976,90.9005699 0.0415621315,91.6882648 0.0415621315,92.6598759 C0.0415621315,93.631554 0.830114976,94.4191148 1.8027843,94.4191148 C10.6759503,94.4191148 18.4220658,98.3268138 23.3577031,101.604987 C28.7823936,105.207813 32.1115257,108.86991 32.1436102,108.905379 C32.1547525,108.917784 32.1660961,108.929987 32.1775069,108.942122 L48.7121472,126.310299 C49.0339986,126.648496 49.4772743,126.84495 49.9442442,126.85722 C49.9590111,126.85722 49.9736438,126.85722 49.9884778,126.85722 C50.4396739,126.85722 50.874358,126.684166 51.2021162,126.372856 L131.672766,49.9307121 C132.377684,49.261091 132.405607,48.1475366 131.735324,47.4433851" id="Fill-3"></path>
                </g>
                <path d="M159.320037,68.1400113 C160.234744,67.8083223 160.707674,66.7969901 160.376207,65.8812327 L156.737386,55.777589 C156.508844,55.0601729 155.837719,54.5403587 155.045138,54.5403587 C154.064232,54.5403587 153.268966,55.3364124 153.268966,56.3183731 C153.268966,56.548035 153.312875,56.7672791 153.392032,56.9687121 L156.50542,65.5410078 C155.482686,66.0834722 154.541861,66.7639892 153.695972,67.5764424 C152.470746,68.7535183 151.496486,70.153871 150.800116,71.7385178 C149.611212,74.444186 149.341245,77.438595 150.000285,80.3296327 L113.904071,93.4282904 C113.158555,93.6394018 112.612108,94.3250941 112.612108,95.1388916 C112.612108,96.1209195 113.407374,96.9170404 114.388347,96.9170404 C114.54834,96.9170404 114.703231,96.8955327 114.850669,96.8557434 L114.850803,96.8561467 L114.855302,96.8546008 C114.949767,96.8287916 115.041009,96.7954547 115.128559,96.7551949 L152.754275,83.0822146 C153.669049,82.7503912 154.141912,81.7390589 153.810512,80.8233016 C151.925641,75.6154145 154.397109,69.9256878 159.320037,68.1400113" id="Fill-6" fill="#2D2D2C"></path>
                <g id="Group-10" transform="translate(99.271300, 19.226457)">
                    <mask id="mask-3" fill="white">
                        <use xlink:href="#path-2"></use>
                    </mask>
                    <g id="Clip-9"></g>
                    <path d="M75.5828116,61.9559526 L53.6360468,1.1925093 C53.3062864,0.279688013 52.3014454,-0.191996609 51.3916325,0.138537679 L38.5003907,4.82423302 C37.6912823,4.98635158 37.0815795,5.70255387 37.0815795,6.56184923 C37.0815795,7.54079077 37.8725237,8.33416685 38.8482486,8.33416685 C39.1247852,8.33416685 39.3862963,8.27032429 39.619359,8.15670732 L50.9380616,4.04278136 L71.6910643,61.5009488 L1.22003342,87.1166863 C1.18437282,87.1282757 1.14917968,87.141205 1.11452077,87.1550052 L1.10764242,87.1574839 L1.1077092,87.1576848 C0.4588064,87.4198882 0.000494173172,88.0570409 0.000494173172,88.8018484 C0.000494173172,89.780723 0.791505149,90.574099 1.76723004,90.574099 C1.98359776,90.574099 2.19074981,90.5349092 2.38234208,90.4635637 L2.38240886,90.4636306 L74.5323597,64.2073909 C75.4422394,63.8767226 75.9125053,62.8687069 75.5828116,61.9559526" id="Fill-8" fill="#2D2D2C" mask="url(#mask-3)"></path>
                </g>
                <path d="M44.920137,27.8587444 L62.5910738,27.8587444 C63.5623513,27.8587444 64.3497758,27.0682713 64.3497758,26.093083 C64.3497758,25.117962 63.5623513,24.3273543 62.5910738,24.3273543 L44.920137,24.3273543 C43.9488595,24.3273543 43.161435,25.117962 43.161435,26.093083 C43.161435,27.0682713 43.9488595,27.8587444 44.920137,27.8587444" id="Fill-11" fill="#2D2D2C"></path>
                <path d="M28.6434978,46.8890471 C28.6434978,45.9138889 27.8557322,45.1233184 26.8838841,45.1233184 L1.75961364,45.1233184 C0.787832657,45.1233184 0,45.9138889 0,46.8890471 C0,47.8642053 0.787832657,48.6547085 1.75961364,48.6547085 L26.8838841,48.6547085 C27.8557322,48.6547085 28.6434978,47.8642053 28.6434978,46.8890471" id="Fill-13" fill="#2D2D2C"></path>
                <path d="M40.1568026,48.6547085 L42.6347421,48.6547085 C43.5756825,48.6547085 44.338565,47.8642203 44.338565,46.8890807 C44.338565,45.9139412 43.5756825,45.1233184 42.6347421,45.1233184 L40.1568026,45.1233184 C39.2157973,45.1233184 38.4529148,45.9139412 38.4529148,46.8890807 C38.4529148,47.8642203 39.2157973,48.6547085 40.1568026,48.6547085" id="Fill-15" fill="#2D2D2C"></path>
                <path d="M13.9413602,76.9058296 C12.9596,76.9058296 12.1636771,77.6963027 12.1636771,78.671491 C12.1636771,79.646612 12.9596,80.4372197 13.9413602,80.4372197 L24.9039313,80.4372197 C25.8856914,80.4372197 26.6816143,79.646612 26.6816143,78.671491 C26.6816143,77.6963027 25.8856914,76.9058296 24.9039313,76.9058296 L13.9413602,76.9058296 Z" id="Fill-20" fill="#2D2D2C"></path>
                <path d="M24.1365746,111.434978 L11.5697035,111.434978 C10.5975509,111.434978 9.80941704,112.225518 9.80941704,113.200706 C9.80941704,114.175827 10.5975509,114.966368 11.5697035,114.966368 L24.1365746,114.966368 C25.1087942,114.966368 25.896861,114.175827 25.896861,113.200706 C25.896861,112.225518 25.1087942,111.434978 24.1365746,111.434978" id="Fill-22" fill="#2D2D2C"></path>
                <path d="M37.5075863,111.434978 L35.4744105,111.434978 C34.5189755,111.434978 33.7443946,112.225518 33.7443946,113.200706 C33.7443946,114.175827 34.5189755,114.966368 35.4744105,114.966368 L37.5075863,114.966368 C38.4630873,114.966368 39.2376682,114.175827 39.2376682,113.200706 C39.2376682,112.225518 38.4630873,111.434978 37.5075863,111.434978" id="Fill-24" fill="#2D2D2C"></path>
                <path d="M75.9090544,69.5343015 L74.093801,71.2418371 L77.9772442,75.2466585 L79.7924976,73.5391229 C80.4278768,72.9413923 80.8953296,72.3765143 81.1947208,71.8440233 C81.4942471,71.3118649 81.6113972,70.7913445 81.5463063,70.2825952 C81.4811479,69.7741784 81.2146397,69.2783972 80.7466468,68.7957172 C80.1861491,68.2176715 79.5570494,67.9090968 78.8596178,67.8699929 C78.0967576,67.8469163 77.1131014,68.4017523 75.9090544,69.5343015 M82.3876942,74.9269112 L79.9189658,77.2491357 L83.5163195,80.958949 C84.0307673,81.4895113 84.2937644,82.0112288 84.3053781,82.5243673 C84.3169243,83.0375058 84.1290789,83.4763603 83.741977,83.8405317 C83.3364417,84.2218609 82.8783069,84.3937051 82.3672352,84.3558648 C81.8562309,84.318224 81.3465096,84.0369821 80.8380036,83.5124715 L71.0427654,73.4109047 C70.4764609,72.8268738 70.2079946,72.2816143 70.2376366,71.7751925 C70.2671436,71.2687708 70.5783511,70.7367454 71.1714617,70.1788503 L74.6295857,66.9259803 C75.6519993,65.9642113 76.5139139,65.3017732 77.2147891,64.9386658 C77.9038481,64.5754255 78.6141764,64.3803051 79.345639,64.3530388 C80.0771016,64.326105 80.7884427,64.4658947 81.4795949,64.7729399 C82.1706795,65.0801181 82.8197656,65.5464384 83.4265156,66.1722333 C84.7211767,67.5073511 85.2845103,68.9116322 85.1169214,70.3853426 C84.9494001,71.8591861 84.0396127,73.3730644 82.3876942,74.9269112" id="Fill-26" fill="#1D1D1B"></path>
                <path d="M99.4852153,66.4678192 L93.9476712,64.9764915 L93.8198659,67.5065705 L95.6732097,69.4579673 C96.1230898,69.931617 96.3452356,70.4147665 96.3398466,70.9070143 C96.3343911,71.3994629 96.1707257,71.8001919 95.848784,72.1094023 C95.4730855,72.4701253 95.0585332,72.6276741 94.6046612,72.5819816 C94.1508558,72.536356 93.6905303,72.2676869 93.2236184,71.7761081 L83.2817465,61.3085159 C82.7636725,60.7630828 82.4735324,60.2476207 82.4118585,59.7624643 C82.3500516,59.2773078 82.512852,58.8486815 82.9004595,58.4764517 C83.2760249,58.1157287 83.6966981,57.9584475 84.1620133,58.0042069 C84.6274616,58.0503008 85.0993634,58.324924 85.5776521,58.8285447 L91.2318243,64.7818134 L91.2271672,59.2494106 C91.2253709,58.5633544 91.2513178,58.0684975 91.304875,57.7647729 C91.3585652,57.4612491 91.513382,57.1863583 91.769791,56.9400337 C92.0739025,56.6480166 92.4198618,56.5022422 92.8076023,56.5022422 C93.1952763,56.5025767 93.5288609,56.6495553 93.8077573,56.943178 C94.1493921,57.3028975 94.2740705,58.1003417 94.1816595,59.3353767 L94.0208549,61.7767467 L100.282984,63.3286855 C100.746769,63.4450909 101.091664,63.5408913 101.317269,63.6165548 C101.543008,63.6920846 101.721376,63.7987895 101.852242,63.9366698 C102.222485,64.3264273 102.408305,64.7353851 102.410314,65.1633423 C102.412031,65.5915003 102.240049,65.9715573 101.894356,66.3035805 C101.596166,66.5899111 101.289792,66.7293969 100.975169,66.7221718 C100.660412,66.7148128 100.163761,66.6303185 99.4852153,66.4678192" id="Fill-28" fill="#1D1D1B"></path>
                <path d="M103.658857,57.9250654 L105.61594,59.9987663 C106.090986,60.5021706 106.330347,60.9925162 106.334081,61.4699384 C106.337702,61.9472928 106.159986,62.3598272 105.800475,62.7072709 C105.446849,63.049031 105.036256,63.2025558 104.568231,63.1678453 C104.100138,63.1334731 103.631577,62.8674266 103.162281,62.3701119 L96.6388716,55.4577754 C95.5860811,54.3421665 95.4579089,53.3992307 96.254823,52.6291033 C96.662206,52.2352435 97.0789495,52.0819894 97.5047192,52.1689349 C97.9305557,52.2558804 98.3927646,52.5453379 98.8913457,53.0372397 C98.7042023,52.2443102 98.6419549,51.5683005 98.7045366,51.0092782 C98.7671183,50.4503911 99.0558234,49.9218843 99.5711866,49.4237576 C100.086483,48.9257662 100.70996,48.5726389 101.441284,48.3642404 C102.172674,48.1559095 102.741526,48.2670103 103.147706,48.6974074 C103.434004,49.0007356 103.566655,49.3507504 103.545862,49.7475196 C103.525135,50.1443565 103.394823,50.4587135 103.155194,50.6902524 C103.065333,50.7770626 102.795215,50.931061 102.344908,51.151774 C101.894399,51.37269 101.53743,51.6103185 101.273797,51.8650655 C100.914287,52.2125092 100.710762,52.5919569 100.663358,53.0029351 C100.61582,53.4140486 100.706818,53.8682627 100.935682,54.3657805 C101.16468,54.8635012 101.49972,55.3945792 101.941135,55.9592851 C102.38235,56.5241264 102.95508,57.1792963 103.658857,57.9250654" id="Fill-30" fill="#1D1D1B"></path>
            </g>
        </g>
    </g>
</svg>