<?xml version="1.0" encoding="UTF-8"?>
<svg width="37px" height="43px" viewBox="0 0 37 43" version="1.1" xmlns="http://www.w3.org/2000/svg" xmlns:xlink="http://www.w3.org/1999/xlink">
    <!-- Generator: Sketch 64 (93537) - https://sketch.com -->
    <title>Buy &amp; deliver</title>
    <desc>Created with Sketch.</desc>
    <g id="Page-1" stroke="none" stroke-width="1" fill="none" fill-rule="evenodd">
        <g id="Task-history-update" transform="translate(-24.000000, -120.000000)">
            <g id="Buy-&amp;-deliver" transform="translate(23.000000, 120.000000)">
                <g id="buy">
                    <g id="shadow" transform="translate(1.537494, 25.451163)" fill="#FFBE02" fill-rule="nonzero" opacity="0.155082775">
                        <path d="M35.5913742,6.04171171 C32.6161334,4.648862 24.0338795,0.629495711 23.2978754,0.289423315 C22.4994224,-0.0868269946 21.1255481,-0.0434134973 20.2914101,0.343690187 C19.5643273,0.683762582 5.450891,7.26814301 0.691397795,9.51840928 C-0.0936732497,9.88742401 -0.254255963,10.5350087 0.606645807,10.9438191 C4.06363478,12.5899142 12.3068808,16.4464799 12.8644596,16.7105787 C13.5736999,17.0434155 14.9074286,17.0506511 15.8843068,16.5911916 C16.6113896,16.2511192 32.3351137,8.88529578 35.4530947,7.42370804 C36.2426264,7.06554669 36.3853665,6.41434423 35.5913742,6.04171171 Z" id="Path"></path>
                    </g>
                    <g id="icon">
                        <polygon id="Path" fill="#FFBE02" fill-rule="nonzero" points="32.2902279 15.9411326 22.8588346 9.80050416 21.2491775 22.9163351 29.9873162 27.5181241"></polygon>
                        <path d="M32.5551026,28.7698394 C29.7147816,27.2959354 23.1185941,23.8504457 22.415966,23.4867551 C21.6537209,23.0886096 20.3421484,23.1345495 19.5458366,23.5441799 C18.8517252,23.9040422 12.4003216,27.0853777 7.8566598,29.466594 C7.10718982,29.8570828 6.95388914,30.5423524 7.77575111,30.9749528 C11.0759741,32.7168393 17.3485269,35.9900545 17.8808209,36.2695221 C18.5578989,36.6217277 19.8311462,36.6293843 20.7637253,36.1431874 C21.4578367,35.7833252 29.4465054,31.7789004 32.4230936,30.2322584 C33.176822,29.8494262 33.3130892,29.1603282 32.5551026,28.7698394 Z" id="Path" fill="#333333" fill-rule="nonzero"></path>
                        <path d="M4.99078878,19.2870859 L6.9836976,29.9298209 C7.06886465,30.4389877 7.40953282,30.6572021 7.80555958,30.454301 L20.4486073,23.8887289 C20.844634,23.6819995 21.1853022,23.1115795 21.2704692,22.5143613 L23.2633781,9.80433249 L4.99078878,19.2870859 Z M11.1228159,25.542564 C11.1228159,25.8564864 10.8375063,26.2584602 10.4883215,26.4383913 L10.4883215,26.4383913 C10.1391366,26.6183224 9.85382699,26.5111294 9.85382699,26.197207 L9.85382699,19.941729 C9.85382699,19.6278066 10.1391366,19.2258328 10.4883215,19.0459016 L10.4883215,19.0459016 C10.8375063,18.8659705 11.1228159,18.9731635 11.1228159,19.2870859 L11.1228159,25.542564 Z M14.6998318,23.6858278 C14.6998318,23.9997502 14.4145222,24.401724 14.0653373,24.5816552 L14.0653373,24.5816552 C13.7161524,24.7615863 13.4308428,24.6543933 13.4308428,24.3404709 L13.4308428,18.0849928 C13.4308428,17.7710704 13.7161524,17.3690966 14.0653373,17.1891655 L14.0653373,17.1891655 C14.4145222,17.0092344 14.6998318,17.1164274 14.6998318,17.4303498 L14.6998318,23.6858278 Z M18.281106,21.8290917 C18.281106,22.1430141 17.9957964,22.5449879 17.6466115,22.724919 C17.2974266,22.9048502 17.012117,22.7976571 17.012117,22.4837347 L17.012117,16.2282567 C17.012117,15.9143343 17.2974266,15.5123605 17.6466115,15.3324294 C17.9957964,15.1524982 18.281106,15.2596912 18.281106,15.5736136 L18.281106,21.8290917 Z" id="Shape" fill="#FFBE02" fill-rule="nonzero"></path>
                        <path d="M16.696999,25.4200577 L18.6899078,36.0627927 C18.7750748,36.5719595 19.115743,36.7901738 19.5117698,36.5872728 L32.1548174,30.025529 C32.5508442,29.8187996 32.8915124,29.2483796 32.9766794,28.6511614 L34.9695882,15.9411326 L16.696999,25.4200577 Z M22.8290261,31.6755357 C22.8290261,31.9894581 22.5437165,32.3914319 22.1945317,32.5713631 L22.1945317,32.5713631 C21.8453468,32.7512942 21.5600372,32.6441012 21.5600372,32.3301788 L21.5600372,26.0747007 C21.5600372,25.7607783 21.8453468,25.3588045 22.1945317,25.1788734 L22.1945317,25.1788734 C22.5437165,24.9989423 22.8290261,25.1061353 22.8290261,25.4200577 L22.8290261,31.6755357 Z M26.406042,29.8187996 C26.406042,30.132722 26.1207324,30.5346958 25.7715475,30.7146269 L25.7715475,30.7146269 C25.4223626,30.894558 25.137053,30.787365 25.137053,30.4734426 L25.137053,24.2179646 C25.137053,23.9040422 25.4223626,23.5020684 25.7715475,23.3221373 L25.7715475,23.3221373 C26.1207324,23.1422061 26.406042,23.2493991 26.406042,23.5633215 L26.406042,29.8187996 Z M29.9873162,27.9620634 C29.9873162,28.2759858 29.7020066,28.6779596 29.3528217,28.8578908 C29.0036368,29.0378219 28.7183272,28.9306289 28.7183272,28.6167065 L28.7183272,22.3612284 C28.7183272,22.047306 29.0036368,21.6453322 29.3528217,21.4654011 C29.7020066,21.28547 29.9873162,21.392663 29.9873162,21.7065854 L29.9873162,27.9620634 Z" id="Shape" fill="#333333" fill-rule="nonzero"></path>
                        <path d="M17.0802507,25.6344437 L19.0731595,36.2771787 C19.1583265,36.7863455 19.4989947,37.0045599 19.8950215,36.8016588 L32.5380691,30.239915 C32.9340959,30.0331856 33.2747641,29.4627656 33.3599311,28.8655474 L35.3528399,16.1555186 L17.0802507,25.6344437 Z M23.2165362,31.8899218 C23.2165362,32.2038442 22.9312266,32.605818 22.5820417,32.7857491 L22.5820417,32.7857491 C22.2328568,32.9656802 21.9475472,32.8584872 21.9475472,32.5445648 L21.9475472,26.2890868 C21.9475472,25.9751644 22.2328568,25.5731906 22.5820417,25.3932594 L22.5820417,25.3932594 C22.9312266,25.2133283 23.2165362,25.3205213 23.2165362,25.6344437 L23.2165362,31.8899218 Z M26.793552,30.0331856 C26.793552,30.347108 26.5082424,30.7490818 26.1590575,30.9290129 L26.1590575,30.9290129 C25.8098727,31.1089441 25.5245631,31.0017511 25.5245631,30.6878287 L25.5245631,24.4323506 C25.5245631,24.1184282 25.8098727,23.7164544 26.1590575,23.5365233 L26.1590575,23.5365233 C26.5082424,23.3565921 26.793552,23.4637852 26.793552,23.7777076 L26.793552,30.0331856 Z M30.3705679,28.1764495 C30.3705679,28.4903719 30.0852583,28.8923457 29.7360734,29.0722768 C29.3868885,29.2522079 29.1015789,29.1450149 29.1015789,28.8310925 L29.1015789,22.5756145 C29.1015789,22.2616921 29.3868885,21.8597183 29.7360734,21.6797871 C30.0852583,21.499856 30.3705679,21.607049 30.3705679,21.9209714 L30.3705679,28.1764495 Z" id="Shape" fill="#FFC043" fill-rule="nonzero"></path>
                        <path d="M17.0802507,25.6344437 L4.9439469,19.3062275 L6.89853056,30.4351594 C6.94963079,30.7146269 7.13273993,30.9596395 7.40527447,31.0974591 C9.3896666,32.1272777 17.5955113,36.3882 18.3151728,36.7595473 C19.1370348,37.184491 19.5884201,36.947135 19.8907631,36.7940022 C19.1753599,37.0887829 19.0689011,36.2695221 19.0689011,36.2695221 L17.0802507,25.6344437 Z" id="Path" fill="#F4B500" fill-rule="nonzero"></path>
                        <path d="M16.6075736,24.7194748 L4.89284668,18.9808202 L5.45920752,22.2042672 C9.2022991,24.1643681 14.738157,27.0356095 15.1810256,27.2653088 C15.8581036,27.6175145 17.1313509,27.6251711 18.06393,27.1389742 C18.668616,26.8250518 30.1193251,20.8796679 35.0419802,18.3261771 L35.5316907,15.2060947 L16.6075736,24.7194748 Z" id="Path" fill="#333333" fill-rule="nonzero"></path>
                        <path d="M16.6075736,24.7194748 L4.89284668,18.9808202 L5.45920752,22.2042672 C9.2022991,24.1643681 14.738157,27.0356095 15.1810256,27.2653088 C15.7090613,27.540948 16.5947985,27.6060295 17.4038854,27.3916435 L16.8758498,24.5816552 L16.6075736,24.7194748 Z" id="Path" fill="#333333" fill-rule="nonzero"></path>
                        <path d="M21.8538635,11.7950599 C22.4926163,11.4658242 23.5486877,11.427541 24.157632,11.74912 C24.677151,12.0171026 30.2981759,14.9342839 32.9724211,16.3201364 L35.9149424,14.781151 L23.1356275,8.15815405 L5.64231666,17.3882382 L6.53657062,19.7924244 C6.61322096,19.7196863 6.70690471,19.6546048 6.81762187,19.59718 C10.4670297,17.683019 21.2960193,12.082184 21.8538635,11.7950599 Z" id="Path" fill="#F4B500" fill-rule="nonzero"></path>
                        <path d="M37.3798156,15.7841714 L37.3798156,13.4527233 L16.6075736,23.8887289 L2.92974631,17.1891655 L2.92974631,19.5627251 L2.93400466,19.5627251 C2.9041962,19.8383643 3.07027193,20.1178318 3.4833321,20.3360461 C6.78355505,22.0779326 14.6529899,26.1589238 15.1852839,26.4383913 C15.8623619,26.7905969 17.1356092,26.7982536 18.0681884,26.3120567 C18.7622998,25.9521944 33.7729913,18.157731 36.7495795,16.6110889 C37.166898,16.3967029 37.3925906,16.0866088 37.3798156,15.7841714 Z" id="Path" fill="#FFC043" fill-rule="nonzero"></path>
                        <path d="M2.92974631,17.1891655 L2.92974631,19.5627251 L2.93400466,19.5627251 C2.9041962,19.8383643 3.07027193,20.1178318 3.4833321,20.3360461 C6.78355505,22.0779326 14.6529899,26.1589238 15.1852839,26.4383913 C15.3471013,26.5226144 15.5429855,26.5876959 15.7601615,26.6298074 L15.7601615,23.4714418 L2.92974631,17.1891655 Z" id="Path" fill="#FFBE02" fill-rule="nonzero"></path>
                        <path d="M21.8538635,10.8073528 C22.4926163,10.4781171 23.5486877,10.4398339 24.157632,10.761413 C24.677151,11.0293955 30.2981759,13.9465768 32.9724211,15.3324294 L35.9149424,13.7934439 L23.1356275,7.17427531 L5.64231666,16.4043595 L6.53657062,18.8085457 C6.61322096,18.7358076 6.70690471,18.6707261 6.81762187,18.6133013 C10.4670297,16.6991403 21.2960193,11.0983053 21.8538635,10.8073528 Z" id="Path" fill="#F4B500" fill-rule="nonzero"></path>
                        <path d="M23.842514,8.52184464 L23.3698369,11.534734 C23.6636632,11.5615323 23.9404561,11.6304421 24.1618904,11.7452917 C24.6814093,12.0132742 30.3024342,14.9304556 32.9766794,16.3163081 L35.9192008,14.7773227 L23.842514,8.52184464 Z" id="Path" fill="#F4B500" fill-rule="nonzero"></path>
                        <path d="M36.8730717,12.8133935 C34.0327508,11.3394896 25.8396811,7.08622391 25.137053,6.72636165 C24.374808,6.32821617 23.0632355,6.37415603 22.2669236,6.78378648 C21.5728122,7.14364874 8.09938588,14.1111947 3.55572409,16.4924109 C2.8062541,16.8828998 2.65295342,17.5681694 3.47481539,18.0007698 C6.77503835,19.7426562 14.6444732,23.8236474 15.1767672,24.1031149 C15.8538452,24.4553205 17.1270925,24.4629772 18.0596717,23.9767803 C18.7580414,23.6207464 33.7687329,15.8262829 36.7495795,14.2796408 C37.4947911,13.8968086 37.6310584,13.2077107 36.8730717,12.8133935 Z M33.49194,14.5016835 C31.0987461,15.7458881 19.0348343,22.0090228 18.4769902,22.2999753 C17.7275202,22.6904641 16.7012573,22.6828075 16.1604466,22.3995117 C15.7346114,22.177469 9.41095836,18.8965971 6.75374659,17.4954313 C6.09370199,17.147054 6.21719421,16.5957756 6.81762187,16.2818532 C10.4712881,14.3676922 21.3002777,8.76302892 21.8581218,8.47590477 C22.4968747,8.14666909 23.552946,8.10838587 24.1618904,8.42996491 C24.7239929,8.72091738 31.3116637,12.1396089 33.5941405,13.3225603 C34.2030849,13.6403111 34.0923677,14.1915894 33.49194,14.5016835 Z" id="Shape" fill="#F39700" fill-rule="nonzero"></path>
                        <path d="M26.6530264,12.1587505 L28.4457927,11.2858931 L28.4457927,11.1672151 C28.207325,9.55931988 27.2491957,7.76383689 26.103699,6.88715117 C24.9837523,6.02960705 24.0426565,6.32821617 23.7786387,7.503511 L26.3847502,12.0860124 L26.6530264,12.1587505 Z" id="Path" fill="#2B2825" fill-rule="nonzero"></path>
                        <path d="M26.8957525,23.6475446 L26.6572848,23.2111159 L26.5380509,21.1629637 C26.4443671,21.1821053 25.3329372,22.3229452 25.3329372,22.3229452 C25.3329372,22.3229452 25.3414539,22.5373313 25.3414539,22.5411596 C25.3414539,22.7440606 25.426621,22.8857086 25.5671466,22.9546183 L25.5714049,22.9584467 L26.8957525,23.6475446 Z" id="Path" fill="#2B2825" fill-rule="nonzero"></path>
                        <path d="M13.1966335,0.222042672 C13.1923751,0.222042672 13.1923751,0.222042672 13.1966335,0.222042672 L13.0901747,0.168446165 L13.0773996,0.168446165 C12.6515644,-0.0114849658 12.2683127,-0.00765664388 11.9659697,0.168446165 L11.9617113,0.168446165 L10.0922947,1.13701162 L11.1568828,1.42796408 C11.8722859,1.04513189 12.6217559,0.646986408 13.3073506,0.279467502 L13.1966335,0.222042672 Z" id="Path" fill="#544F4C" fill-rule="nonzero"></path>
                        <polygon id="Path" fill="#44413F" fill-rule="nonzero" points="23.7786387 7.503511 11.2675999 1.10638504 13.0859163 0.168446165 25.5671466 6.56557213"></polygon>
                        <path d="M28.4457927,11.2514382 L26.6530264,12.1587505 L26.6530264,23.199631 C26.6530264,23.2072876 26.6530264,23.2187726 26.6530264,23.2264292 C26.6530264,23.6705145 27.0533115,23.8236474 27.5472804,23.5671499 C28.0369909,23.3106523 28.437276,22.7517173 28.4415343,22.3076319 L28.4457927,22.3076319 L28.4457927,11.2514382 Z" id="Path" fill="#2B2825" fill-rule="nonzero"></path>
                        <polygon id="Path" fill="#2B2825" fill-rule="nonzero" points="12.562139 2.34293303 10.7693727 3.25024533 10.7736311 12.7406554 12.562139 11.8142015"></polygon>
                        <path d="M23.7786387,7.503511 C22.2115651,6.69956339 12.1661122,1.56578367 11.2675999,1.10638504 C10.846023,0.891999012 10.4201878,0.922625587 10.0922947,1.13701162 C9.72181807,1.3781959 9.47057529,1.8490795 9.47057529,2.45778268 C9.47057529,3.58713766 9.48335034,13.4106118 9.48335034,13.4106118 L10.7949228,12.7291704 L10.7864061,4.00059643 L10.7864061,4.00059643 C10.8417647,3.5603394 11.3016667,3.41869149 11.8382191,3.69815899 C11.8637692,3.71347228 11.8893193,3.72878557 11.9191278,3.74409886 C11.9191278,3.74409886 23.9489728,9.90386886 24.302416,10.0799717 C24.6601176,10.2752161 25.3457123,10.9030609 25.3457123,11.4811375 C25.3457123,11.9290512 25.3371956,22.5258463 25.3371956,22.5258463 L26.6615431,23.2149442 C26.6615431,23.2149442 26.6615431,13.567573 26.6615431,12.1166389 C26.6572848,10.7690696 25.3457123,8.30363029 23.7786387,7.503511 Z" id="Path" fill="#333333" fill-rule="nonzero"></path>
                        <path d="M7.57986691,20.1867416 L7.57986691,20.1867416 C6.95388914,20.5121489 6.44288688,21.2357018 6.44288688,21.7984651 L6.44288688,33.0384183 C6.44288688,33.6011817 6.95388914,33.7964261 7.57986691,33.4710187 L7.57986691,33.4710187 C8.20584468,33.1456113 8.71684695,32.4220585 8.71684695,31.8592952 L8.71684695,20.619342 C8.71684695,20.0565786 8.20584468,19.8613342 7.57986691,20.1867416 Z" id="Path"></path>
                        <path d="M14.0057204,16.8522732 C13.3797426,17.1776805 12.8687403,17.9012334 12.8687403,18.4639967 L12.8687403,29.7039499 C12.8687403,30.2667132 13.3797426,30.4619577 14.0057204,30.1365503 C14.6316982,29.8111429 15.1427004,29.0875901 15.1427004,28.5248268 L15.1427004,17.2848736 C15.1427004,16.7182819 14.6359565,16.5268658 14.0057204,16.8522732 Z" id="Path"></path>
                        <path d="M1.14975509,23.5250383 L1.14975509,23.5250383 C0.52377732,23.8504457 0.0127750566,24.5739985 0.0127750566,25.1367619 L0.0127750566,36.3767151 C0.0127750566,36.9394784 0.52377732,37.1347228 1.14975509,36.8093154 L1.14975509,36.8093154 C1.77573287,36.4839081 2.28673513,35.7603552 2.28673513,35.1975919 L2.28673513,23.9576387 C2.28673513,23.391047 1.77999122,23.199631 1.14975509,23.5250383 Z" id="Path"></path>
                        <path d="M25.5245631,25.1118317 L26.4966125,25.6864471 L26.406042,23.4493039 C25.8888975,23.6486897 25.6075439,23.9100749 25.5619812,24.2334595 C25.5164185,24.5568441 25.5039457,24.8496348 25.5245631,25.1118317 Z" id="Path-2" fill="#333333"></path>
                    </g>
                </g>
            </g>
        </g>
    </g>
</svg>